<?xml version="1.0" encoding="UTF-8" standalone="no"?><!DOCTYPE svg PUBLIC "-//W3C//DTD SVG 1.1//EN" "http://www.w3.org/Graphics/SVG/1.1/DTD/svg11.dtd"><svg width="100%" height="100%" viewBox="0 0 27 25" version="1.1" xmlns="http://www.w3.org/2000/svg" xmlns:xlink="http://www.w3.org/1999/xlink" xml:space="preserve" xmlns:serif="http://www.serif.com/" style="fill-rule:evenodd;clip-rule:evenodd;stroke-linecap:round;stroke-linejoin:round;stroke-miterlimit:1.5;"><g id="icon-salir-dinero"><path d="M19.897,17.771l4.272,0c0.538,0 0.974,-0.572 0.974,-1.275l0,-13.474c0,-0.704 -0.436,-1.275 -0.974,-1.275l-21.53,0c-0.538,0 -0.974,0.571 -0.974,1.275l0,13.474c0,0.703 0.436,1.275 0.974,1.275l4.272,0" style="fill:none;stroke:#4a4a4a;stroke-width:2px;"/><path d="M4.897,9.023l17.014,0" style="fill:none;stroke:#4a4a4a;stroke-width:2px;"/><rect x="6.911" y="9.023" width="12.987" height="14.867" style="fill:none;stroke:#4a4a4a;stroke-width:2px;"/><text x="9.906px" y="20.716px" style="font-family:'ArialRoundedMTBold', 'Arial Rounded MT Bold', sans-serif;font-size:12px;fill:#4a4a4a;">€</text><path d="M21.911,4.562c0,-0.229 -0.186,-0.415 -0.415,-0.415l-0.83,0c-0.229,0 -0.415,0.186 -0.415,0.415l0,0.83c0,0.229 0.186,0.415 0.415,0.415l0.83,0c0.229,0 0.415,-0.186 0.415,-0.415l0,-0.83Z" style="fill:#4a4a4a;"/><path d="M19.687,4.562c0,-0.229 -0.186,-0.415 -0.415,-0.415l-0.83,0c-0.229,0 -0.415,0.186 -0.415,0.415l0,0.83c0,0.229 0.186,0.415 0.415,0.415l0.83,0c0.229,0 0.415,-0.186 0.415,-0.415l0,-0.83Z" style="fill:#4a4a4a;"/></g></svg>