<svg xmlns="http://www.w3.org/2000/svg" width="192" height="192" viewBox="0 0 192 192">
    <g fill="none" fill-rule="evenodd">
        <path fill="#D2D5DC" fill-rule="nonzero" d="M61.309 0H68.973V7.664H61.309zM76.636 0H84.3V7.664H76.636zM91.963 0H99.627V7.664H91.963zM99.627 0H107.291V7.664H99.627zM68.973 7.664H76.637V15.328H68.973z"/>
        <path fill="#D2D5DC" fill-rule="nonzero" d="M76.636 7.664H84.3V15.328H76.636zM84.3 7.664H91.964V15.328H84.3zM107.291 7.664H114.955V15.328H107.291zM61.309 15.327H68.973V22.991H61.309z"/>
        <path fill="#D2D5DC" fill-rule="nonzero" d="M68.973 15.327H76.637V22.991H68.973zM91.963 15.327H99.627V22.991H91.963zM99.627 15.327H107.291V22.991H99.627zM122.618 15.327H130.28199999999998V22.991H122.618zM68.973 22.991H76.637V30.655H68.973zM84.3 22.991H91.964V30.655H84.3z"/>
        <path fill="#D2D5DC" fill-rule="nonzero" d="M91.963 22.991H99.627V30.655H91.963zM99.627 22.991H107.291V30.655H99.627zM107.291 22.991H114.955V30.655H107.291zM122.618 22.991H130.28199999999998V30.655H122.618zM76.636 30.654H84.3V38.318H76.636z"/>
        <path fill="#D2D5DC" fill-rule="nonzero" d="M84.3 30.654H91.964V38.318H84.3zM99.627 30.654H107.291V38.318H99.627zM61.309 38.318H68.973V45.982H61.309zM68.973 38.318H76.637V45.982H68.973zM91.963 38.318H99.627V45.982H91.963zM99.627 38.318H107.291V45.982H99.627zM122.618 38.318H130.28199999999998V45.982H122.618zM61.309 45.982H68.973V53.646H61.309zM76.636 45.982H84.3V53.646H76.636zM91.963 45.982H99.627V53.646H91.963zM107.291 45.982H114.955V53.646H107.291zM122.618 45.982H130.28199999999998V53.646H122.618z"/>
        <path fill="#D2D5DC" fill-rule="nonzero" d="M84.3 53.645H91.964V61.309000000000005H84.3zM107.291 53.645H114.955V61.309000000000005H107.291zM0 61.309H7.664V68.973H0zM15.327 61.309H22.991V68.973H15.327zM45.982 61.309H53.646V68.973H45.982z"/>
        <path fill="#D2D5DC" fill-rule="nonzero" d="M53.645 61.309H61.309000000000005V68.973H53.645zM68.973 61.309H76.637V68.973H68.973z"/>
        <path fill="#D2D5DC" fill-rule="nonzero" d="M76.636 61.309H84.3V68.973H76.636zM84.3 61.309H91.964V68.973H84.3zM107.291 61.309H114.955V68.973H107.291zM122.618 61.309H130.28199999999998V68.973H122.618zM145.609 61.309H153.273V68.973H145.609zM168.6 61.309H176.26399999999998V68.973H168.6zM183.927 61.309H191.59099999999998V68.973H183.927zM0 68.973H7.664V76.637H0zM15.327 68.973H22.991V76.637H15.327zM22.991 68.973H30.655V76.637H22.991z"/>
        <path fill="#D2D5DC" fill-rule="nonzero" d="M30.654 68.973H38.318V76.637H30.654zM61.309 68.973H68.973V76.637H61.309zM76.636 68.973H84.3V76.637H76.636zM91.963 68.973H99.627V76.637H91.963zM99.627 68.973H107.291V76.637H99.627zM114.954 68.973H122.618V76.637H114.954zM122.618 68.973H130.28199999999998V76.637H122.618zM137.945 68.973H145.60899999999998V76.637H137.945zM145.609 68.973H153.273V76.637H145.609zM160.936 68.973H168.6V76.637H160.936zM176.263 68.973H183.927V76.637H176.263zM183.927 68.973H191.59099999999998V76.637H183.927zM0 76.636H7.664V84.3H0zM15.327 76.636H22.991V84.3H15.327zM38.318 76.636H45.982V84.3H38.318zM45.982 76.636H53.646V84.3H45.982z"/>
        <path fill="#D2D5DC" fill-rule="nonzero" d="M68.973 76.636H76.637V84.3H68.973z"/>
        <path fill="#D2D5DC" fill-rule="nonzero" d="M76.636 76.636H84.3V84.3H76.636zM84.3 76.636H91.964V84.3H84.3zM114.954 76.636H122.618V84.3H114.954zM122.618 76.636H130.28199999999998V84.3H122.618zM160.936 76.636H168.6V84.3H160.936zM168.6 76.636H176.26399999999998V84.3H168.6zM183.927 76.636H191.59099999999998V84.3H183.927zM0 84.3H7.664V91.964H0zM15.327 84.3H22.991V91.964H15.327zM22.991 84.3H30.655V91.964H22.991z"/>
        <path fill="#D2D5DC" fill-rule="nonzero" d="M30.654 84.3H38.318V91.964H30.654zM38.318 84.3H45.982V91.964H38.318zM76.636 84.3H84.3V91.964H76.636zM91.963 84.3H99.627V91.964H91.963zM114.954 84.3H122.618V91.964H114.954zM122.618 84.3H130.28199999999998V91.964H122.618zM130.282 84.3H137.946V91.964H130.282z"/>
        <path fill="#D2D5DC" fill-rule="nonzero" d="M137.945 84.3H145.60899999999998V91.964H137.945zM160.936 84.3H168.6V91.964H160.936zM0 91.963H7.664V99.627H0zM22.991 91.963H30.655V99.627H22.991zM45.982 91.963H53.646V99.627H45.982zM84.3 91.963H91.964V99.627H84.3zM114.954 91.963H122.618V99.627H114.954z"/>
        <path fill="#D2D5DC" fill-rule="nonzero" d="M137.945 91.963H145.60899999999998V99.627H137.945zM145.609 91.963H153.273V99.627H145.609zM183.927 91.963H191.59099999999998V99.627H183.927zM22.991 99.627H30.655V107.291H22.991z"/>
        <path fill="#D2D5DC" fill-rule="nonzero" d="M30.654 99.627H38.318V107.291H30.654zM38.318 99.627H45.982V107.291H38.318zM53.645 99.627H61.309000000000005V107.291H53.645zM68.973 99.627H76.637V107.291H68.973z"/>
        <path fill="#D2D5DC" fill-rule="nonzero" d="M76.636 99.627H84.3V107.291H76.636zM114.954 99.627H122.618V107.291H114.954zM122.618 99.627H130.28199999999998V107.291H122.618zM130.282 99.627H137.946V107.291H130.282z"/>
        <path fill="#D2D5DC" fill-rule="nonzero" d="M137.945 99.627H145.60899999999998V107.291H137.945zM145.609 99.627H153.273V107.291H145.609zM176.263 99.627H183.927V107.291H176.263zM183.927 99.627H191.59099999999998V107.291H183.927zM0 107.291H7.664V114.955H0zM7.664 107.291H15.328V114.955H7.664z"/>
        <path fill="#D2D5DC" fill-rule="nonzero" d="M15.327 107.291H22.991V114.955H15.327zM22.991 107.291H30.655V114.955H22.991zM45.982 107.291H53.646V114.955H45.982z"/>
        <path fill="#D2D5DC" fill-rule="nonzero" d="M53.645 107.291H61.309000000000005V114.955H53.645zM76.636 107.291H84.3V114.955H76.636zM84.3 107.291H91.964V114.955H84.3zM99.627 107.291H107.291V114.955H99.627zM107.291 107.291H114.955V114.955H107.291z"/>
        <path fill="#D2D5DC" fill-rule="nonzero" d="M114.954 107.291H122.618V114.955H114.954zM130.282 107.291H137.946V114.955H130.282z"/>
        <path fill="#D2D5DC" fill-rule="nonzero" d="M137.945 107.291H145.60899999999998V114.955H137.945zM160.936 107.291H168.6V114.955H160.936zM168.6 107.291H176.26399999999998V114.955H168.6zM183.927 107.291H191.59099999999998V114.955H183.927zM15.327 114.954H22.991V122.618H15.327zM53.645 114.954H61.309000000000005V122.618H53.645z"/>
        <path fill="#D2D5DC" fill-rule="nonzero" d="M61.309 114.954H68.973V122.618H61.309zM68.973 114.954H76.637V122.618H68.973z"/>
        <path fill="#D2D5DC" fill-rule="nonzero" d="M76.636 114.954H84.3V122.618H76.636zM107.291 114.954H114.955V122.618H107.291zM137.945 114.954H145.60899999999998V122.618H137.945zM145.609 114.954H153.273V122.618H145.609z"/>
        <path fill="#D2D5DC" fill-rule="nonzero" d="M153.272 114.954H160.93599999999998V122.618H153.272zM160.936 114.954H168.6V122.618H160.936zM0 122.618H7.664V130.28199999999998H0zM7.664 122.618H15.328V130.28199999999998H7.664z"/>
        <path fill="#D2D5DC" fill-rule="nonzero" d="M15.327 122.618H22.991V130.28199999999998H15.327zM30.654 122.618H38.318V130.28199999999998H30.654zM45.982 122.618H53.646V130.28199999999998H45.982zM61.309 122.618H68.973V130.28199999999998H61.309zM76.636 122.618H84.3V130.28199999999998H76.636zM84.3 122.618H91.964V130.28199999999998H84.3z"/>
        <path fill="#D2D5DC" fill-rule="nonzero" d="M91.963 122.618H99.627V130.28199999999998H91.963zM114.954 122.618H122.618V130.28199999999998H114.954zM122.618 122.618H130.28199999999998V130.28199999999998H122.618zM130.282 122.618H137.946V130.28199999999998H130.282z"/>
        <path fill="#D2D5DC" fill-rule="nonzero" d="M137.945 122.618H145.60899999999998V130.28199999999998H137.945zM145.609 122.618H153.273V130.28199999999998H145.609z"/>
        <path fill="#D2D5DC" fill-rule="nonzero" d="M153.272 122.618H160.93599999999998V130.28199999999998H153.272zM176.263 122.618H183.927V130.28199999999998H176.263zM61.309 130.282H68.973V137.946H61.309zM68.973 130.282H76.637V137.946H68.973z"/>
        <path fill="#D2D5DC" fill-rule="nonzero" d="M76.636 130.282H84.3V137.946H76.636zM91.963 130.282H99.627V137.946H91.963zM107.291 130.282H114.955V137.946H107.291zM122.618 130.282H130.28199999999998V137.946H122.618zM153.272 130.282H160.93599999999998V137.946H153.272zM183.927 130.282H191.59099999999998V137.946H183.927zM61.309 137.945H68.973V145.60899999999998H61.309z"/>
        <path fill="#D2D5DC" fill-rule="nonzero" d="M68.973 137.945H76.637V145.60899999999998H68.973z"/>
        <path fill="#D2D5DC" fill-rule="nonzero" d="M76.636 137.945H84.3V145.60899999999998H76.636zM91.963 137.945H99.627V145.60899999999998H91.963zM99.627 137.945H107.291V145.60899999999998H99.627zM107.291 137.945H114.955V145.60899999999998H107.291zM122.618 137.945H130.28199999999998V145.60899999999998H122.618zM137.945 137.945H145.60899999999998V145.60899999999998H137.945zM153.272 137.945H160.93599999999998V145.60899999999998H153.272zM183.927 137.945H191.59099999999998V145.60899999999998H183.927zM68.973 145.609H76.637V153.273H68.973z"/>
        <path fill="#D2D5DC" fill-rule="nonzero" d="M76.636 145.609H84.3V153.273H76.636zM84.3 145.609H91.964V153.273H84.3z"/>
        <path fill="#D2D5DC" fill-rule="nonzero" d="M91.963 145.609H99.627V153.273H91.963zM114.954 145.609H122.618V153.273H114.954zM122.618 145.609H130.28199999999998V153.273H122.618zM153.272 145.609H160.93599999999998V153.273H153.272zM68.973 153.272H76.637V160.93599999999998H68.973z"/>
        <path fill="#D2D5DC" fill-rule="nonzero" d="M91.963 153.272H99.627V160.93599999999998H91.963zM114.954 153.272H122.618V160.93599999999998H114.954zM122.618 153.272H130.28199999999998V160.93599999999998H122.618zM130.282 153.272H137.946V160.93599999999998H130.282z"/>
        <path fill="#D2D5DC" fill-rule="nonzero" d="M137.945 153.272H145.60899999999998V160.93599999999998H137.945zM145.609 153.272H153.273V160.93599999999998H145.609z"/>
        <path fill="#D2D5DC" fill-rule="nonzero" d="M153.272 153.272H160.93599999999998V160.93599999999998H153.272zM176.263 153.272H183.927V160.93599999999998H176.263zM68.973 160.936H76.637V168.6H68.973zM107.291 160.936H114.955V168.6H107.291zM122.618 160.936H130.28199999999998V168.6H122.618zM130.282 160.936H137.946V168.6H130.282zM153.272 160.936H160.93599999999998V168.6H153.272zM168.6 160.936H176.26399999999998V168.6H168.6z"/>
        <path fill="#D2D5DC" fill-rule="nonzero" d="M176.263 160.936H183.927V168.6H176.263zM61.309 168.6H68.973V176.26399999999998H61.309zM84.3 168.6H91.964V176.26399999999998H84.3zM99.627 168.6H107.291V176.26399999999998H99.627zM107.291 168.6H114.955V176.26399999999998H107.291zM130.282 168.6H137.946V176.26399999999998H130.282zM145.609 168.6H153.273V176.26399999999998H145.609z"/>
        <path fill="#D2D5DC" fill-rule="nonzero" d="M153.272 168.6H160.93599999999998V176.26399999999998H153.272zM160.936 168.6H168.6V176.26399999999998H160.936zM176.263 168.6H183.927V176.26399999999998H176.263zM183.927 168.6H191.59099999999998V176.26399999999998H183.927zM68.973 176.263H76.637V183.927H68.973z"/>
        <path fill="#D2D5DC" fill-rule="nonzero" d="M76.636 176.263H84.3V183.927H76.636zM84.3 176.263H91.964V183.927H84.3z"/>
        <path fill="#D2D5DC" fill-rule="nonzero" d="M91.963 176.263H99.627V183.927H91.963zM122.618 176.263H130.28199999999998V183.927H122.618zM130.282 176.263H137.946V183.927H130.282z"/>
        <path fill="#D2D5DC" fill-rule="nonzero" d="M137.945 176.263H145.60899999999998V183.927H137.945zM145.609 176.263H153.273V183.927H145.609z"/>
        <path fill="#D2D5DC" fill-rule="nonzero" d="M153.272 176.263H160.93599999999998V183.927H153.272zM61.309 183.927H68.973V191.59099999999998H61.309zM76.636 183.927H84.3V191.59099999999998H76.636zM91.963 183.927H99.627V191.59099999999998H91.963zM107.291 183.927H114.955V191.59099999999998H107.291zM122.618 183.927H130.28199999999998V191.59099999999998H122.618zM160.936 183.927H168.6V191.59099999999998H160.936zM183.927 183.927H191.59099999999998V191.59099999999998H183.927z"/>
        <path d="M8.047 8.047H45.599000000000004V45.599000000000004H8.047z"/>
        <path fill="#D2D5DC" fill-rule="nonzero" d="M45.599 0H0v53.645h53.645V0H45.6zm0 45.599H8.047V8.047h37.552v37.552z"/>
        <path d="M145.992 8.047H183.54399999999998V45.599000000000004H145.992z"/>
        <path fill="#D2D5DC" fill-rule="nonzero" d="M183.544 0H137.945v53.645h53.646V0h-8.047zm0 45.599h-37.552V8.047h37.552v37.552z"/>
        <path d="M8.047 145.992H45.599000000000004V183.54399999999998H8.047z"/>
        <path fill="#D2D5DC" fill-rule="nonzero" d="M45.599 137.945H0v53.646h53.645v-53.646H45.6zm0 45.599H8.047v-37.552h37.552v37.552zM15.327 15.327H38.318V38.318H15.327zM153.272 15.327H176.26299999999998V38.318H153.272z"/>
        <path fill="#D2D5DC" fill-rule="nonzero" d="M15.327 153.272H38.318V176.26299999999998H15.327z"/>
    </g>
</svg>
