<?xml version="1.0" encoding="UTF-8" standalone="no"?><!DOCTYPE svg PUBLIC "-//W3C//DTD SVG 1.1//EN" "http://www.w3.org/Graphics/SVG/1.1/DTD/svg11.dtd"><svg width="100%" height="100%" viewBox="0 0 103 177" version="1.1" xmlns="http://www.w3.org/2000/svg" xmlns:xlink="http://www.w3.org/1999/xlink" xml:space="preserve" xmlns:serif="http://www.serif.com/" style="fill-rule:evenodd;clip-rule:evenodd;stroke-linejoin:round;stroke-miterlimit:2;"><path d="M0,51.624l102.645,0l0,91.425c-0.018,15.955 -11.844,29.42 -27.663,31.499l-0.056,0.007c-15.696,2.037 -31.589,2.034 -47.285,-0.01c-15.816,-2.09 -27.631,-15.56 -27.641,-31.514l0,-91.407Z" style="fill:#130b04;"/><rect x="52.316" y="53.61" width="48.343" height="56.725" style="fill:#fff;"/><path d="M1.986,110.335l0,-56.725l48.344,0l0,56.725l-48.344,0Z" style="fill:#da1b0c;"/><path d="M1.986,143.037l0,-30.715l48.344,0l0,61.779l-0.033,0c-7.498,-0.049 -14.986,-0.559 -22.42,-1.529l0.027,0.004c-14.829,-1.957 -25.908,-14.586 -25.918,-29.544l0,0.005Z" style="fill:#fff;"/><path d="M74.669,172.586c-7.436,0.965 -14.922,1.471 -22.42,1.515l0.067,0l0,-61.779l48.343,0l0,30.715l-0.001,0.011c-0.016,14.959 -11.103,27.582 -25.934,29.53l-0.055,0.008Z" style="fill:#da1b0c;"/><path d="M29.137,70.232l-5.958,0l0,-7.873l-0.768,-1.92l0,-1.152l2.754,0l0,1.857l1.986,0l0,-1.857l2.755,0l0,1.152l-0.769,1.92l0,7.873Zm-13.485,-7.873l0,0.993l1.987,0l0,-0.993l2.754,0l0,1.152l-0.768,1.921l0,4.8l-5.958,0l0,-4.8l-0.768,-1.921l0,-1.152l2.753,0Zm21.011,0l0,0.993l-1.986,0l0,-0.993l-2.755,0l0,1.152l0.77,1.921l0,4.8l5.957,0l0,-4.8l0.768,-1.921l0,-1.152l-2.754,0Zm-22.996,13.57l24.982,0l3.17,17.153l-11.913,0l0,-11.328l-0.001,0.001c-2.433,-0.807 -5.062,-0.807 -7.494,0l0,-0.001l0,11.328l-11.915,0l3.171,-17.153Zm-6.149,20.67l2.978,-2.524l11.915,0l0,3.616l-14.893,0l0,-1.092Zm22.388,1.092l0,-3.616l11.913,0l2.979,2.524l0,1.092l-14.892,0Zm-22.388,0.993l37.28,0l0,4.417l-37.28,0l0,-4.417Zm12.107,-25.602l0,-1.857l4.676,0l0,1.857l3.714,0l0,-1.857l4.677,0l0,1.857l3.714,0l0,-1.857l3.972,0l0,1.41l-1.729,2.302l-24.982,0l-1.73,-2.302l0,-1.41l3.973,0l0,1.857l3.715,0Z" style="fill:#f8c300;"/><path d="M88.592,161.811l-30.745,0l0,-4.416l34.479,0l-0.005,0.007c-1.077,1.606 -2.33,3.088 -3.736,4.415l0.007,-0.006Zm4.367,-5.409l-12.724,0l0,-3.615l11.913,0l1.904,1.613l-0.005,0.008c-0.335,0.683 -0.7,1.35 -1.094,2.002l0.006,-0.008Zm-35.112,-1.091l2.979,-2.524l11.914,0l0,3.615l-14.893,0l0,-1.091Zm6.15,-20.671l24.981,0l3.17,17.153l-11.913,0l0,-11.327c-2.433,-0.808 -5.062,-0.808 -7.495,0l0,11.327l-11.914,0l3.171,-17.153Zm5.957,-2.847l0,-1.857l4.676,0l0,1.857l3.714,0l0,-1.857l4.677,0l0,1.857l3.714,0l0,-1.857l3.972,0l0,1.41l-1.729,2.301l-24.981,0l-1.73,-2.301l0,-1.41l3.973,0l0,1.857l3.714,0Zm9.512,-2.85l-5.957,0l0,-7.873l-0.769,-1.92l0,-1.152l2.755,0l0,1.857l1.986,0l0,-1.857l2.754,0l0,1.152l-0.769,1.92l0,7.873Zm-13.484,-7.873l0,0.993l1.986,0l0,-0.993l2.755,0l0,1.153l-0.769,1.919l0,4.801l-5.957,0l0,-4.801l-0.769,-1.919l0,-1.153l2.754,0Zm21.011,0l0,0.993l-1.986,0l0,-0.993l-2.755,0l0,1.153l0.769,1.919l0,4.801l5.957,0l0,-4.801l0.769,-1.919l0,-1.153l-2.754,0Z" style="fill:#f8c300;"/><path d="M56.083,14.183l-3.366,-3.366l3.366,-3.365l6.057,0l-3.366,3.365l3.366,3.366l-6.057,0Z" style="fill:#f8c300;"/><path d="M43.872,10.817l-3.367,3.366l6.057,0l3.366,-3.366l-3.366,-3.365l-6.057,0l3.367,3.365Z" style="fill:#f8c300;"/><path d="M54.688,6.056l-3.366,3.366l-3.365,-3.366l0,-6.056l3.365,3.365l3.366,-3.365l0,6.056Z" style="fill:#f8c300;"/><path d="M33.883,11.628l3.865,2.779l-5.977,0.977l-3.865,-2.778l2.778,-3.865l5.977,-0.978l-2.778,3.865Z" style="fill:#f8c300;"/><path d="M22.439,8.676l3.865,2.779l2.779,-3.865l-0.978,-5.978l-2.778,3.865l-3.866,-2.778l0.978,5.977Z" style="fill:#f8c300;"/><path d="M22.374,16.921l2.778,-3.865l-3.865,-2.778l-5.976,0.977l3.865,2.779l-2.779,3.865l5.977,-0.978Z" style="fill:#f8c300;"/><path d="M7.971,20.494l-4.263,-2.117l2.118,-4.263l5.741,-1.93l-2.118,4.263l4.263,2.118l-5.741,1.929Z" style="fill:#f8c300;"/><path d="M1.941,17.499l-1.929,-5.742l2.119,-4.262l1.929,5.74l-2.119,4.264Z" style="fill:#f8c300;"/><path d="M68.762,11.628l-3.865,2.779l5.977,0.977l3.865,-2.778l-2.778,-3.865l-5.978,-0.978l2.779,3.865Z" style="fill:#f8c300;"/><path d="M80.206,8.676l-3.864,2.779l-2.779,-3.865l0.978,-5.978l2.778,3.865l3.864,-2.778l-0.977,5.977Z" style="fill:#f8c300;"/><path d="M80.271,16.921l-2.778,-3.865l3.865,-2.778l5.977,0.977l-3.865,2.779l2.778,3.865l-5.977,-0.978Z" style="fill:#f8c300;"/><path d="M94.675,20.494l4.262,-2.117l-2.118,-4.263l-5.741,-1.93l2.118,4.263l-4.263,2.118l5.742,1.929Z" style="fill:#f8c300;"/><path d="M100.703,17.499l1.93,-5.741l-2.118,-4.263l-1.929,5.74l2.117,4.264Z" style="fill:#f8c300;"/><path d="M6.944,22.065c3.055,10.974 19.494,6.9 17.073,-4.23l0,-0.002l6.487,-1.061l0,-0.003c1.244,11.322 18.125,9.955 17.532,-1.419l0,-0.002l6.574,0c-0.596,11.372 16.278,12.746 17.53,1.427l0.001,-0.003l6.488,1.061c-2.424,11.126 14.008,15.207 17.07,4.238l0.001,-0.002l3.769,1.266l-0.001,0.005c-3.862,12.946 -22.537,11.828 -24.828,-1.486l-0.003,0.006c-5.287,9.792 -19.683,8.619 -23.315,-1.901l-0.001,0.008c-3.638,10.517 -18.034,11.682 -23.316,1.887l0,0.007c-2.299,13.313 -20.974,14.421 -24.829,1.472l0.001,0.002l3.768,-1.266l-0.001,-0.004Z" style="fill:#f8c300;"/><path d="M91.595,44.599l2.531,-7.531c-27.765,-9.357 -57.843,-9.357 -85.608,-0.001l2.532,7.532c26.137,-8.762 54.408,-8.762 80.545,0Z" style="fill:#f8c300;"/><path d="M94.931,82.15c-0.532,-1.178 -0.746,-2.505 -0.017,-3.564c0.882,-1.279 0.42,-2.274 -0.13,-3.441c-2.056,5.024 -2.056,5.024 -0.125,9.655c0.065,0.155 0.158,0.302 0.206,0.462c0.488,1.637 -0.071,3.245 -1.378,3.986c-1.674,0.948 -3.821,0.721 -4.893,-0.53c-1.12,-1.305 -2.491,-2.325 -4.038,-2.991c-2.471,-1.064 -3.833,-2.6 -2.681,-5.767c-2.484,2.058 -4.977,3.285 -7.425,4.709c2.019,1.269 2.843,2.496 3.497,5.095c1.08,4.293 2.498,5.617 6.78,6.26c0.423,0.064 0.75,0.149 0.959,0.537c0.668,1.239 1.334,2.488 1.461,3.92c0.164,1.848 -0.518,2.328 -2.231,1.621c-2.789,-1.15 -4.489,-0.241 -5.068,2.651c-0.197,0.983 -0.065,1.43 1.103,1.39c2.418,-0.083 4.842,-0.064 7.261,-0.005c0.985,0.024 1.636,-0.149 1.713,-1.279c0.026,-0.379 0.152,-0.79 0.746,-0.632c0.474,0.128 1.126,0.681 1.358,-0.207c0.166,-0.635 -0.052,-1.212 -0.915,-1.279c-0.505,-0.039 -0.561,-0.473 -0.521,-0.897c0.03,-0.318 0.161,-0.5 0.526,-0.477c0.429,0.028 1.018,0.474 1.122,-0.44c0.091,-0.808 -0.143,-1.164 -1.015,-1.337c-0.702,-0.139 -0.834,-1.918 -0.193,-2.198c0.439,-0.192 1.029,-0.042 1,-0.809c-0.029,-0.8 -0.702,-0.57 -1.119,-0.73c-1.191,-0.455 -2.218,-2.239 -1.879,-3.614c0.356,-1.448 1.484,-0.435 2.211,-0.461c1.971,-0.071 3.762,-0.543 4.83,-2.257c1.091,-1.751 0.946,-3.644 -0.106,-5.444c-0.368,-0.63 -0.739,-1.263 -1.039,-1.927Zm-20.105,5.257c-1.67,-0.84 -3.238,-0.633 -4.491,0.642c-1.888,1.921 -2.318,4.157 -1.398,6.68c0.14,0.387 0.752,1.026 -0.142,1.152c-1.384,0.196 -2.829,0.317 -4.106,-0.479c-1.031,-0.643 -0.225,-1.669 -0.434,-2.388c0.047,-3.526 -1.488,-5.343 -4.303,-5.256c-0.918,0.028 -1.278,0.232 -1.035,1.292c0.578,2.518 1.08,5.06 1.451,7.616c0.149,1.035 0.592,1.532 1.524,1.651c0.817,0.105 1.309,0.336 0.872,1.264c-0.325,0.692 0.209,0.87 0.662,1.096c0.399,0.2 0.683,0.213 0.927,-0.281c0.246,-0.5 0.326,-1.19 1.262,-1.04c0.959,0.152 0.915,0.803 1.026,1.456c0.101,0.595 0.525,0.823 1.083,0.868c0.854,0.068 0.507,-0.587 0.505,-0.932c-0.007,-1.261 0.952,-0.814 1.577,-0.929c0.622,-0.114 1.235,-0.226 1.2,0.789c-0.022,0.663 0.229,1.187 1.101,1.129c0.89,-0.059 0.695,-0.707 0.774,-1.222c0.025,-0.167 0.011,-0.338 0.033,-0.506c0.401,-3.084 0.688,-6.224 3.977,-7.854c0.162,-0.08 0.295,-0.333 0.331,-0.527c0.216,-1.152 -1.2,-3.62 -2.396,-4.221Zm-14.903,-3.984c0.559,-1.292 1.385,-0.376 2.111,-0.246c0.876,0.156 1.093,0.608 0.644,1.399c-0.178,0.314 0.027,0.488 0.332,0.613c0.865,0.354 1.551,0.372 2.059,-0.626c0.667,-1.308 1.69,-0.248 2.521,-0.207c1.053,0.051 0.366,0.793 0.284,1.231c-0.096,0.504 0.028,0.687 0.553,0.768c1.098,0.171 1.197,-0.745 1.648,-1.34c0.459,-0.604 0.29,-0.928 -0.22,-1.363c-1.29,-1.098 -2.371,-2.4 -3.368,-3.762c-0.602,-0.821 -1.206,-1.504 -2.157,-1.12c-0.476,0 -0.758,0.016 -1.038,-0.003c-2.505,-0.167 -2.569,-0.238 -2.464,-2.673c0.106,-2.484 -0.969,-3.86 -3.153,-4.193c-0.916,-0.139 -1.213,0.121 -1.191,1.034c0.052,2.136 0.081,4.275 0.02,6.41c-0.027,0.989 0.228,1.598 1.25,1.802c0.833,0.167 1.401,0.499 0.675,1.44c-0.421,0.544 0.032,0.76 0.421,1.005c0.421,0.265 0.801,0.461 1.073,-0.169Zm11.834,-0.555c1.201,0.985 1.216,1.014 2.149,0.52c4.72,-2.5 8.806,-5.739 11.996,-10.082c0.923,-1.258 1.173,-2.426 0.371,-3.929c-3.124,6.361 -8.179,10.591 -14.516,13.491Zm-0.766,-2.668c-0.372,0.19 -1.359,0.125 -0.941,0.987c0.314,0.647 0.948,0.937 1.702,0.504c0.29,-0.167 0.61,-0.283 0.911,-0.431c5.702,-2.797 9.742,-7.25 12.786,-12.729c0.641,-1.153 0.554,-2.061 -0.402,-3.044c-0.628,1.267 -1.138,2.454 -1.78,3.566c-2.898,5.022 -7.161,8.548 -12.276,11.147Zm21.636,-9.223c-0.295,1.877 -0.865,3.566 -1.655,5.182c-0.551,1.125 -0.783,2.311 -0.848,3.562c-0.053,1.021 0.326,1.586 1.466,1.803c-0.267,-2.366 0.592,-4.393 1.57,-6.434c0.648,-1.354 1.076,-2.875 -0.533,-4.113Zm-24.847,7.269c0.609,1.411 1.453,1.486 2.574,0.774c0.994,-0.631 2.073,-1.128 3.067,-1.76c4.611,-2.937 8.347,-6.63 10.229,-11.921c0.439,-1.233 0.549,-2.38 -0.589,-3.562c-1.967,8.568 -8.133,13.01 -15.281,16.469Zm20.786,0.969c0.209,-1.381 0.258,-2.658 0.963,-3.697c2.23,-3.289 1.893,-6.645 0.429,-10.09c-0.435,-1.025 -0.742,-2.114 -1.017,-3.197c-0.331,-1.307 0.12,-2.383 1.361,-2.925c1.22,-0.534 2.171,0.08 2.918,1.043c0.273,0.353 0.451,0.786 0.749,1.112c0.343,0.375 0.847,0.226 1.276,0.177c0.38,-0.045 0.295,-0.339 0.238,-0.64c-0.354,-1.89 -2.533,-3.582 -4.453,-3.43c-2.467,0.196 -4.006,1.802 -3.861,4.187c0.06,0.993 0.248,2.031 0.631,2.942c1.638,3.886 2.282,7.672 -0.287,11.474c-0.759,1.123 -0.424,2.264 1.053,3.044Zm-22.877,-3.5c0.55,0.671 0.602,1.586 1.57,1.232c3.627,-1.329 6.8,-3.328 9.177,-6.513c-3.648,1.592 -6.549,4.597 -10.747,5.281Zm-6.522,-13.165c-0.085,2.05 -0.081,4.062 1.429,5.708c0.649,0.707 -0.073,0.919 -0.457,1.267c-0.302,0.274 -0.83,0.504 -0.275,1.029c0.389,0.369 0.723,0.711 1.205,0.076c0.506,-0.668 1.02,-0.732 1.586,0.029c0.327,0.44 0.82,0.768 1.27,1.102c0.527,0.39 0.867,0.701 0.052,1.179c-0.376,0.22 -0.752,0.689 -0.354,1.119c0.349,0.378 0.847,0.938 1.437,0.588c2.157,-1.279 4.814,-1.599 6.767,-3.612c-3.023,-0.901 -5.412,-2.506 -7.512,-4.622c-1.303,-1.312 -2.056,-2.551 -1.4,-4.566c0.641,-1.969 -0.379,-3.535 -2.078,-3.982c-1.137,-0.299 -1.839,-0.156 -1.685,1.31c0.118,1.114 0.062,2.251 0.015,3.375Zm34.377,1.319c-0.689,2.523 -0.036,4.637 2.198,6.706c-0.054,-1.36 0.418,-2.191 0.758,-3.072c0.495,-1.285 0.726,-2.589 0.098,-3.924c-0.413,-0.878 -1.142,-0.947 -1.971,-0.946c-0.878,0.001 -0.921,0.642 -1.083,1.236Zm-20.054,2.482c0.563,-1.104 1.131,-2.31 2.685,-1.974c0.962,0.207 1.615,0.993 1.713,1.896c0.175,1.622 -1.566,1.447 -2.456,2.219c1.219,0.891 2.319,0.784 3.052,-0.396c1.523,-2.449 2.464,-5.145 2.935,-7.997c0.103,-0.63 -0.13,-0.85 -0.807,-0.913c-2.982,-0.277 -5.589,0.186 -7.723,2.632c-2.236,2.563 -2.334,2.617 0.601,4.533Zm-3.137,1.022c2.009,2.29 2.959,2.254 4.879,-0.497c-1.654,1.137 -2.861,0.595 -4.052,-0.624c-0.62,-0.634 -1.526,-0.588 -2.357,-0.169c0.523,0.435 1.1,0.799 1.53,1.29Zm5.991,-6.724l0,1.018l-1.255,0c0.447,-0.744 1.255,-1.018 1.255,-1.018Zm5.377,-5.338l-1.605,1.437l-1.585,-1.796l-1.33,1.563l-1.33,-1.204l0,2.513l5.85,0l0,-2.513Z" style="fill:#81003f;"/><path d="M44.494,141.7c-0.532,-1.179 -0.747,-2.505 -0.017,-3.564c0.881,-1.279 0.419,-2.275 -0.131,-3.441c-2.055,5.024 -2.055,5.024 -0.124,9.654c0.065,0.156 0.157,0.302 0.205,0.463c0.488,1.636 -0.07,3.244 -1.378,3.985c-1.673,0.949 -3.821,0.721 -4.893,-0.529c-1.119,-1.306 -2.49,-2.326 -4.038,-2.992c-2.471,-1.063 -3.833,-2.599 -2.68,-5.766c-2.485,2.058 -4.977,3.285 -7.425,4.709c2.019,1.268 2.842,2.495 3.496,5.094c1.081,4.294 2.499,5.617 6.781,6.26c0.422,0.064 0.75,0.149 0.959,0.537c0.668,1.24 1.333,2.488 1.46,3.92c0.164,1.849 -0.518,2.329 -2.231,1.622c-2.789,-1.151 -4.488,-0.242 -5.067,2.651c-0.197,0.983 -0.066,1.43 1.102,1.39c2.418,-0.083 4.842,-0.065 7.261,-0.006c0.985,0.024 1.637,-0.149 1.714,-1.279c0.026,-0.379 0.151,-0.79 0.745,-0.631c0.474,0.127 1.127,0.68 1.359,-0.208c0.166,-0.634 -0.053,-1.212 -0.915,-1.279c-0.505,-0.039 -0.561,-0.473 -0.522,-0.897c0.03,-0.317 0.161,-0.5 0.527,-0.476c0.429,0.027 1.018,0.474 1.121,-0.44c0.092,-0.809 -0.143,-1.165 -1.014,-1.337c-0.703,-0.14 -0.834,-1.919 -0.193,-2.199c0.439,-0.191 1.028,-0.042 1,-0.809c-0.03,-0.8 -0.702,-0.57 -1.119,-0.729c-1.191,-0.456 -2.219,-2.24 -1.88,-3.615c0.357,-1.447 1.485,-0.435 2.211,-0.461c1.971,-0.071 3.763,-0.543 4.83,-2.256c1.092,-1.752 0.946,-3.644 -0.105,-5.444c-0.369,-0.63 -0.739,-1.264 -1.039,-1.927Zm-20.106,5.256c-1.669,-0.839 -3.237,-0.633 -4.49,0.642c-1.888,1.921 -2.318,4.157 -1.399,6.681c0.141,0.386 0.752,1.026 -0.141,1.152c-1.385,0.195 -2.829,0.317 -4.107,-0.48c-1.031,-0.643 -0.224,-1.668 -0.434,-2.387c0.047,-3.526 -1.487,-5.343 -4.303,-5.257c-0.917,0.029 -1.278,0.232 -1.034,1.293c0.577,2.518 1.08,5.06 1.45,7.615c0.15,1.035 0.593,1.532 1.524,1.652c0.818,0.105 1.309,0.335 0.873,1.264c-0.326,0.692 0.208,0.869 0.662,1.096c0.399,0.2 0.683,0.212 0.926,-0.282c0.246,-0.5 0.327,-1.189 1.263,-1.04c0.958,0.153 0.914,0.804 1.026,1.456c0.101,0.595 0.525,0.824 1.083,0.869c0.854,0.068 0.506,-0.587 0.504,-0.932c-0.006,-1.261 0.952,-0.815 1.578,-0.929c0.622,-0.115 1.235,-0.227 1.2,0.788c-0.023,0.663 0.229,1.187 1.1,1.129c0.891,-0.059 0.695,-0.707 0.774,-1.222c0.026,-0.166 0.011,-0.338 0.033,-0.505c0.402,-3.084 0.688,-6.225 3.978,-7.855c0.161,-0.079 0.294,-0.333 0.331,-0.526c0.216,-1.153 -1.201,-3.621 -2.397,-4.222Zm-14.902,-3.983c0.559,-1.292 1.384,-0.377 2.11,-0.247c0.876,0.156 1.093,0.609 0.645,1.399c-0.178,0.314 0.026,0.488 0.331,0.613c0.866,0.354 1.551,0.373 2.06,-0.626c0.667,-1.308 1.689,-0.247 2.521,-0.207c1.053,0.051 0.366,0.794 0.283,1.232c-0.095,0.503 0.029,0.686 0.553,0.767c1.099,0.171 1.198,-0.745 1.649,-1.339c0.459,-0.604 0.29,-0.929 -0.221,-1.363c-1.29,-1.098 -2.37,-2.401 -3.368,-3.763c-0.602,-0.821 -1.205,-1.504 -2.156,-1.12c-0.477,0 -0.759,0.016 -1.039,-0.002c-2.504,-0.168 -2.568,-0.239 -2.464,-2.674c0.106,-2.484 -0.968,-3.86 -3.152,-4.192c-0.916,-0.14 -1.214,0.12 -1.192,1.033c0.052,2.136 0.081,4.275 0.021,6.411c-0.028,0.988 0.227,1.598 1.25,1.802c0.833,0.166 1.401,0.498 0.674,1.439c-0.42,0.545 0.033,0.76 0.421,1.005c0.422,0.265 0.801,0.461 1.074,-0.168Zm11.833,-0.555c1.201,0.985 1.216,1.013 2.15,0.519c4.719,-2.5 8.806,-5.739 11.995,-10.082c0.923,-1.257 1.173,-2.425 0.372,-3.929c-3.125,6.361 -8.18,10.591 -14.517,13.492Zm-0.765,-2.668c-0.372,0.189 -1.359,0.124 -0.941,0.987c0.313,0.646 0.948,0.936 1.701,0.503c0.29,-0.167 0.61,-0.282 0.911,-0.43c5.703,-2.797 9.742,-7.251 12.787,-12.73c0.641,-1.153 0.553,-2.06 -0.403,-3.044c-0.627,1.267 -1.137,2.455 -1.779,3.566c-2.898,5.023 -7.162,8.548 -12.276,11.148Zm21.635,-9.224c-0.295,1.878 -0.864,3.566 -1.655,5.182c-0.55,1.126 -0.783,2.312 -0.848,3.563c-0.053,1.021 0.327,1.585 1.467,1.803c-0.268,-2.367 0.591,-4.394 1.569,-6.435c0.649,-1.353 1.076,-2.875 -0.533,-4.113Zm-24.847,7.269c0.609,1.411 1.454,1.486 2.574,0.775c0.994,-0.631 2.074,-1.128 3.067,-1.761c4.612,-2.936 8.348,-6.63 10.229,-11.92c0.439,-1.234 0.55,-2.381 -0.589,-3.563c-1.966,8.568 -8.132,13.01 -15.281,16.469Zm20.787,0.969c0.208,-1.381 0.258,-2.658 0.962,-3.696c2.23,-3.29 1.893,-6.646 0.43,-10.091c-0.436,-1.025 -0.742,-2.114 -1.017,-3.196c-0.332,-1.308 0.12,-2.383 1.36,-2.926c1.22,-0.533 2.172,0.08 2.918,1.044c0.274,0.352 0.451,0.786 0.75,1.111c0.343,0.375 0.847,0.227 1.275,0.177c0.381,-0.044 0.295,-0.338 0.239,-0.64c-0.354,-1.889 -2.534,-3.582 -4.453,-3.429c-2.468,0.196 -4.006,1.802 -3.862,4.187c0.061,0.993 0.248,2.031 0.632,2.941c1.638,3.886 2.282,7.673 -0.288,11.475c-0.758,1.122 -0.424,2.263 1.054,3.043Zm-22.878,-3.5c0.55,0.671 0.603,1.586 1.57,1.232c3.627,-1.329 6.801,-3.327 9.177,-6.513c-3.648,1.592 -6.548,4.597 -10.747,5.281Zm-6.521,-13.165c-0.086,2.051 -0.082,4.063 1.429,5.708c0.649,0.708 -0.073,0.92 -0.457,1.267c-0.303,0.275 -0.83,0.504 -0.276,1.03c0.389,0.368 0.724,0.71 1.205,0.075c0.506,-0.668 1.02,-0.731 1.587,0.03c0.327,0.44 0.819,0.767 1.269,1.101c0.527,0.391 0.867,0.702 0.053,1.179c-0.377,0.221 -0.753,0.689 -0.355,1.119c0.35,0.379 0.847,0.939 1.437,0.589c2.158,-1.28 4.814,-1.6 6.767,-3.613c-3.022,-0.901 -5.411,-2.505 -7.511,-4.621c-1.303,-1.313 -2.057,-2.552 -1.401,-4.566c0.642,-1.969 -0.379,-3.536 -2.078,-3.983c-1.136,-0.299 -1.839,-0.156 -1.684,1.311c0.117,1.113 0.062,2.25 0.015,3.374Zm34.376,1.319c-0.689,2.524 -0.036,4.638 2.199,6.706c-0.054,-1.359 0.418,-2.191 0.757,-3.071c0.496,-1.286 0.726,-2.59 0.098,-3.924c-0.413,-0.878 -1.141,-0.948 -1.97,-0.947c-0.879,0.001 -0.922,0.642 -1.084,1.236Zm-20.053,2.483c0.563,-1.105 1.13,-2.31 2.684,-1.975c0.962,0.208 1.615,0.993 1.713,1.897c0.175,1.622 -1.566,1.446 -2.456,2.218c1.22,0.891 2.319,0.784 3.052,-0.396c1.523,-2.449 2.465,-5.145 2.935,-7.997c0.103,-0.629 -0.129,-0.849 -0.807,-0.912c-2.981,-0.278 -5.589,0.186 -7.723,2.632c-2.235,2.563 -2.334,2.616 0.602,4.533Zm-3.138,1.021c2.009,2.29 2.96,2.255 4.879,-0.496c-1.654,1.136 -2.861,0.595 -4.052,-0.624c-0.619,-0.634 -1.526,-0.589 -2.357,-0.169c0.524,0.435 1.1,0.798 1.53,1.289Zm5.991,-6.724l0,1.018l-1.254,0c0.447,-0.743 1.254,-1.018 1.254,-1.018Zm5.377,-5.337l-1.605,1.436l-1.584,-1.795l-1.331,1.563l-1.33,-1.204l0,2.513l5.85,0l0,-2.513Z" style="fill:#81003f;"/></svg>