<?xml version="1.0" encoding="UTF-8" standalone="no"?><!DOCTYPE svg PUBLIC "-//W3C//DTD SVG 1.1//EN" "http://www.w3.org/Graphics/SVG/1.1/DTD/svg11.dtd"><svg width="100%" height="100%" viewBox="0 0 204 127" version="1.1" xmlns="http://www.w3.org/2000/svg" xmlns:xlink="http://www.w3.org/1999/xlink" xml:space="preserve" xmlns:serif="http://www.serif.com/" style="fill-rule:evenodd;clip-rule:evenodd;stroke-linejoin:round;stroke-miterlimit:2;"><path d="M113.73,101.749l2.733,9.25c0.041,0.157 0.097,0.412 0.174,0.769c0.076,0.352 0.168,0.791 0.275,1.321c0.092,-0.311 0.189,-0.632 0.301,-0.963c0.107,-0.337 0.245,-0.725 0.403,-1.173l2.151,-5.604c0.199,-0.525 0.383,-1.092 0.557,-1.688c0.178,-0.597 0.331,-1.234 0.474,-1.912l4.599,0l-7.348,16.669c-0.969,2.213 -2.014,3.732 -3.146,4.564c-1.132,0.831 -2.672,1.249 -4.62,1.249c-0.591,0 -1.137,-0.021 -1.637,-0.061c-0.504,-0.041 -0.989,-0.102 -1.458,-0.194l-0.178,-3.6c0.509,0.117 1.014,0.209 1.514,0.265c0.505,0.061 1.014,0.092 1.535,0.092c0.765,0 1.438,-0.163 2.014,-0.495c0.576,-0.326 1.06,-0.816 1.448,-1.458l0.882,-1.525l-3.763,-10.891c-0.143,-0.439 -0.551,-1.536 -1.224,-3.3l-0.51,-1.315l4.824,0Zm-93.35,-0.836c-0.897,-0.302 -1.815,-0.526 -2.764,-0.684c-0.943,-0.153 -1.912,-0.229 -2.896,-0.229c-2.35,0 -4.176,0.627 -5.481,1.881c-1.306,1.255 -1.959,3.014 -1.959,5.273c0,2.193 0.643,3.86 1.933,5.002c1.29,1.137 3.167,1.708 5.624,1.708c0.796,0 1.627,-0.061 2.479,-0.188c0.856,-0.123 1.744,-0.306 2.661,-0.556l-0.449,4.196c-1.284,0.169 -2.325,0.291 -3.12,0.357c-0.801,0.072 -1.545,0.107 -2.244,0.107c-3.651,0 -6.43,-0.856 -8.332,-2.575c-1.902,-1.718 -2.855,-4.237 -2.855,-7.557c0,-3.594 1.05,-6.333 3.146,-8.214c2.096,-1.882 5.135,-2.825 9.117,-2.825c0.628,0 1.357,0.035 2.183,0.112c0.826,0.076 1.754,0.189 2.779,0.336l0.178,3.856Zm36.347,10.8c-0.01,0.183 -0.021,0.351 -0.026,0.509c-0.005,0.158 -0.005,0.291 -0.005,0.388c0,0.592 0.143,1.035 0.429,1.341c0.28,0.301 0.693,0.454 1.229,0.454c0.3,0 0.652,-0.036 1.06,-0.112c0.413,-0.077 0.862,-0.189 1.361,-0.337l-0.673,3.478c-0.494,0.102 -1.014,0.178 -1.555,0.234c-0.535,0.057 -1.096,0.082 -1.672,0.082c-1.545,0 -2.677,-0.27 -3.406,-0.816c-0.73,-0.54 -1.092,-1.397 -1.092,-2.56c0,-0.199 0.036,-0.714 0.107,-1.545c0.067,-0.831 0.118,-1.565 0.148,-2.192l0.296,-5.737l-2.137,0l0.148,-3.151l2.305,0l0.148,-2.616l4.095,-0.76l-0.148,3.376l3.677,0l-0.149,3.151l-3.768,0l-0.372,6.813Zm108.5,-1.836c0,-2.652 0.749,-4.737 2.249,-6.267c1.499,-1.53 3.553,-2.295 6.159,-2.295c2.499,0 4.436,0.679 5.803,2.04c1.372,1.362 2.055,3.278 2.055,5.757c0,2.723 -0.744,4.839 -2.239,6.358c-1.493,1.52 -3.569,2.28 -6.23,2.28c-2.489,0 -4.412,-0.684 -5.768,-2.055c-1.351,-1.367 -2.029,-3.309 -2.029,-5.818Zm-126.954,3.064c0.974,0.469 1.882,0.822 2.718,1.066c0.836,0.245 1.555,0.367 2.152,0.367c0.795,0 1.382,-0.107 1.754,-0.321c0.372,-0.214 0.561,-0.546 0.561,-0.994c0,-0.189 -0.051,-0.388 -0.148,-0.597c-0.102,-0.209 -0.23,-0.372 -0.388,-0.49l-3.406,-2.707c-1.117,-0.877 -1.851,-1.596 -2.213,-2.157c-0.357,-0.566 -0.535,-1.188 -0.535,-1.877c0,-1.157 0.51,-2.095 1.53,-2.825c1.019,-0.729 2.371,-1.091 4.043,-1.091c0.627,0 1.311,0.052 2.05,0.158c0.745,0.102 1.555,0.266 2.442,0.485l0.271,3.513c-0.898,-0.311 -1.678,-0.54 -2.336,-0.688c-0.663,-0.148 -1.249,-0.225 -1.759,-0.225c-0.586,0 -1.04,0.077 -1.356,0.23c-0.321,0.158 -0.479,0.372 -0.479,0.652c0,0.138 0.045,0.291 0.132,0.449c0.092,0.159 0.209,0.301 0.362,0.418l3.208,2.509c1.009,0.791 1.702,1.494 2.085,2.121c0.382,0.628 0.576,1.326 0.576,2.091c0,1.494 -0.525,2.657 -1.571,3.483c-1.045,0.826 -2.524,1.239 -4.436,1.239c-0.703,0 -1.468,-0.077 -2.284,-0.23c-0.816,-0.158 -1.683,-0.387 -2.601,-0.698l-0.372,-3.881Zm125.037,-3.156l-9.679,0c-0.01,0.127 -0.02,0.255 -0.025,0.372c-0.005,0.122 -0.01,0.24 -0.02,0.362c0,1.183 0.366,2.096 1.106,2.728c0.734,0.633 1.795,0.949 3.182,0.949c0.755,0 1.484,-0.077 2.183,-0.235c0.693,-0.153 1.376,-0.387 2.044,-0.709l-0.821,3.825c-0.928,0.219 -1.764,0.387 -2.519,0.5c-0.75,0.117 -1.438,0.173 -2.055,0.173c-2.366,0 -4.217,-0.678 -5.548,-2.04c-1.33,-1.362 -1.994,-3.248 -1.994,-5.67c0,-2.646 0.725,-4.758 2.173,-6.333c1.448,-1.576 3.375,-2.361 5.777,-2.361c2.101,0 3.676,0.556 4.727,1.667c1.05,1.107 1.576,2.774 1.576,4.993c0,0.29 -0.006,0.581 -0.02,0.877c-0.016,0.29 -0.047,0.591 -0.087,0.902Zm-132.125,7.531c0.067,-0.346 0.128,-0.744 0.179,-1.193c0.051,-0.448 0.102,-1.132 0.148,-2.05l0.285,-4.375c-0.239,0.158 -0.484,0.296 -0.734,0.419c-0.25,0.117 -0.5,0.224 -0.76,0.31l-2.034,0.674c-0.908,0.29 -1.494,0.566 -1.765,0.831c-0.27,0.265 -0.403,0.622 -0.403,1.065c0,0.5 0.174,0.893 0.515,1.173c0.347,0.286 0.826,0.429 1.444,0.429c0.249,0 0.555,-0.036 0.918,-0.107c0.366,-0.067 0.851,-0.189 1.458,-0.357l-0.913,3.181c-0.474,0.128 -0.943,0.23 -1.397,0.301c-0.449,0.067 -0.872,0.102 -1.259,0.102c-1.535,0 -2.744,-0.403 -3.631,-1.208c-0.888,-0.806 -1.331,-1.902 -1.331,-3.289c0,-1.183 0.321,-2.152 0.964,-2.896c0.642,-0.75 1.636,-1.316 2.977,-1.704l3.188,-0.943c1.106,-0.316 1.84,-0.607 2.212,-0.867c0.368,-0.26 0.551,-0.581 0.551,-0.969c0,-0.51 -0.204,-0.902 -0.606,-1.173c-0.403,-0.275 -0.97,-0.413 -1.693,-0.413c-0.74,0 -1.556,0.128 -2.453,0.383c-0.897,0.255 -1.907,0.642 -3.034,1.173l0.494,-3.738c1.087,-0.275 2.096,-0.479 3.04,-0.602c0.943,-0.127 1.876,-0.188 2.799,-0.188c2.035,0 3.488,0.331 4.36,0.999c0.872,0.668 1.305,1.785 1.305,3.35c0,0.306 0,0.566 -0.005,0.77c-0.005,0.204 -0.015,0.403 -0.025,0.602l-0.296,7.725c-0.01,0.153 -0.021,0.383 -0.025,0.689c-0.006,0.311 -0.006,0.943 -0.006,1.896l-4.467,0Zm62.607,0c0.067,-0.346 0.128,-0.744 0.179,-1.193c0.051,-0.448 0.102,-1.132 0.148,-2.05l0.285,-4.375c-0.239,0.158 -0.484,0.296 -0.734,0.419c-0.25,0.117 -0.5,0.224 -0.76,0.31l-2.034,0.674c-0.908,0.29 -1.494,0.566 -1.765,0.831c-0.27,0.265 -0.403,0.622 -0.403,1.065c0,0.5 0.174,0.893 0.516,1.173c0.347,0.286 0.826,0.429 1.443,0.429c0.249,0 0.555,-0.036 0.918,-0.107c0.367,-0.067 0.851,-0.189 1.458,-0.357l-0.913,3.181c-0.474,0.128 -0.943,0.23 -1.397,0.301c-0.449,0.067 -0.872,0.102 -1.259,0.102c-1.535,0 -2.744,-0.403 -3.631,-1.208c-0.887,-0.806 -1.331,-1.902 -1.331,-3.289c0,-1.183 0.321,-2.152 0.964,-2.896c0.642,-0.75 1.637,-1.316 2.977,-1.704l3.188,-0.943c1.106,-0.316 1.841,-0.607 2.212,-0.867c0.368,-0.26 0.551,-0.581 0.551,-0.969c0,-0.51 -0.204,-0.902 -0.606,-1.173c-0.403,-0.275 -0.969,-0.413 -1.693,-0.413c-0.739,0 -1.556,0.128 -2.453,0.383c-0.897,0.255 -1.907,0.642 -3.034,1.173l0.495,-3.738c1.086,-0.275 2.095,-0.479 3.039,-0.602c0.943,-0.127 1.876,-0.188 2.799,-0.188c2.035,0 3.488,0.331 4.36,0.999c0.872,0.668 1.305,1.785 1.305,3.35c0,0.306 0,0.566 -0.005,0.77c-0.005,0.204 -0.015,0.403 -0.025,0.602l-0.296,7.725c-0.01,0.153 -0.02,0.383 -0.025,0.689c-0.005,0.311 -0.005,0.943 -0.005,1.896l-4.468,0Zm-26.836,-15.297c-0.158,2.917 -0.275,5.675 -0.352,8.271c-0.076,2.59 -0.112,4.936 -0.112,7.026l-4.375,0c0.229,-2.457 0.398,-4.961 0.504,-7.505c0.113,-2.545 0.164,-5.141 0.164,-7.792l4.171,0Zm15.751,-4.962c-0.229,2.132 -0.413,4.269 -0.546,6.41c-0.132,2.142 -0.213,4.273 -0.244,6.395l-0.092,7.454l-4.528,0c0.28,-2.06 0.51,-4.844 0.688,-8.342c0.179,-3.503 0.296,-7.475 0.357,-11.917l4.365,0Zm-7.71,0c-0.229,2.132 -0.413,4.269 -0.545,6.41c-0.133,2.142 -0.214,4.273 -0.245,6.395l-0.092,7.454l-4.528,0c0.281,-2.06 0.51,-4.844 0.689,-8.342c0.178,-3.503 0.295,-7.475 0.357,-11.917l4.364,0Zm59.543,20.259c0.281,-2.58 0.51,-5.568 0.688,-8.969c0.179,-3.401 0.296,-7.164 0.357,-11.29l4.676,0c-0.178,0.898 -0.306,2.157 -0.387,3.779l-0.016,0.107l-0.418,8.847l-0.015,0.087c-0.031,0.795 -0.046,1.382 -0.046,1.749c0,0.29 0.015,0.668 0.041,1.142c0.02,0.474 0.041,0.775 0.051,0.903c0.148,0.01 0.464,0.03 0.948,0.056c0.485,0.025 0.867,0.036 1.158,0.036c1.295,0 2.488,-0.036 3.58,-0.113c1.086,-0.076 2.085,-0.189 2.993,-0.337l-0.301,4.003l-13.309,0Zm49.141,0c0.249,-2.421 0.439,-4.925 0.566,-7.521c0.132,-2.595 0.193,-5.277 0.193,-8.046l3.978,0l0,1.897c0.668,-0.827 1.418,-1.423 2.249,-1.785c0.831,-0.362 1.851,-0.546 3.054,-0.546c2.091,0 3.6,0.408 4.533,1.219c0.934,0.811 1.397,2.147 1.397,4.008c0,0.362 -0.036,1.57 -0.112,3.626c-0.076,2.054 -0.112,3.931 -0.112,5.624l0,1.524l-4.304,0c0.153,-1.83 0.271,-3.543 0.352,-5.139c0.087,-1.592 0.128,-2.876 0.128,-3.855c0,-1.393 -0.215,-2.372 -0.648,-2.927c-0.434,-0.556 -1.173,-0.837 -2.218,-0.837c-1.734,0 -2.958,0.755 -3.672,2.264c-0.708,1.51 -1.065,4.238 -1.065,8.195c0,0.617 0,1.086 0.005,1.412c0.005,0.321 0.01,0.617 0.01,0.887l-4.334,0Zm-10.132,-12.609c-1.347,0 -2.356,0.427 -3.035,1.289c-0.678,0.862 -1.014,2.147 -1.014,3.85c0,1.504 0.311,2.637 0.933,3.391c0.622,0.76 1.545,1.137 2.769,1.137c1.336,0 2.33,-0.428 2.988,-1.28c0.658,-0.851 0.984,-2.136 0.984,-3.86c0,-1.514 -0.301,-2.646 -0.902,-3.401c-0.602,-0.749 -1.51,-1.126 -2.723,-1.126Zm-19.77,2.391l5.528,0c0,-0.877 -0.214,-1.55 -0.648,-2.014c-0.433,-0.47 -1.05,-0.704 -1.846,-0.704c-0.79,0 -1.453,0.245 -1.994,0.729c-0.545,0.489 -0.892,1.152 -1.04,1.989Zm-90.903,-6.303l0.148,-3.732l4.141,0l-0.148,3.732l-4.141,0Zm108.643,-1.137l3.065,-5.201l3.299,0l-4.436,5.201l-1.928,0Zm-60.639,-28.168c-0.239,2.33 -0.423,4.788 -0.545,7.363c-0.123,2.58 -0.189,5.318 -0.189,8.204l-3.973,0l0,-1.896c-0.667,0.816 -1.417,1.407 -2.248,1.779c-0.831,0.368 -1.846,0.551 -3.039,0.551c-2.111,0 -3.636,-0.408 -4.574,-1.224c-0.933,-0.816 -1.403,-2.157 -1.403,-4.018c0,-0.352 0.041,-1.571 0.128,-3.661c0.087,-2.091 0.128,-4.003 0.128,-5.721l0,-1.377l4.273,0c-0.148,1.744 -0.261,3.391 -0.337,4.946c-0.076,1.55 -0.112,2.891 -0.112,4.018c0,1.392 0.219,2.376 0.658,2.942c0.438,0.566 1.173,0.852 2.213,0.852c1.728,0 2.952,-0.75 3.656,-2.249c0.708,-1.499 1.06,-4.232 1.06,-8.194c0,-0.607 0,-1.071 -0.005,-1.397c-0.005,-0.322 -0.015,-0.628 -0.025,-0.918l4.334,0Zm68.686,0.27c0.031,-0.51 0.051,-1.03 0.066,-1.56c0.016,-0.536 0.026,-1.076 0.026,-1.622c0,-0.489 -0.005,-0.857 -0.01,-1.106c-0.006,-0.25 -0.006,-0.475 -0.006,-0.673l4.391,0c-0.26,3.059 -0.464,6.287 -0.622,9.688c-0.153,3.401 -0.25,6.925 -0.291,10.57l-4.033,0l0,-2.075c-0.567,0.806 -1.285,1.428 -2.152,1.861c-0.867,0.434 -1.82,0.648 -2.866,0.648c-2.085,0 -3.681,-0.612 -4.788,-1.831c-1.111,-1.218 -1.668,-2.967 -1.668,-5.237c0,-2.876 0.766,-5.119 2.3,-6.72c1.535,-1.607 3.682,-2.407 6.44,-2.407c0.546,0 1.087,0.036 1.612,0.112c0.53,0.077 1.061,0.194 1.601,0.352Zm-42.318,9.694c-0.01,0.183 -0.02,0.351 -0.026,0.509c-0.004,0.159 -0.004,0.291 -0.004,0.388c0,0.592 0.142,1.035 0.428,1.341c0.28,0.301 0.693,0.454 1.229,0.454c0.3,0 0.652,-0.036 1.06,-0.112c0.413,-0.077 0.862,-0.189 1.362,-0.337l-0.674,3.478c-0.494,0.102 -1.014,0.178 -1.555,0.234c-0.535,0.057 -1.096,0.082 -1.672,0.082c-1.545,0 -2.677,-0.27 -3.406,-0.816c-0.729,-0.54 -1.092,-1.397 -1.092,-2.56c0,-0.198 0.036,-0.713 0.107,-1.545c0.067,-0.831 0.118,-1.565 0.148,-2.192l0.296,-5.737l-2.136,0l0.147,-3.151l2.305,0l0.148,-2.616l4.095,-0.76l-0.148,3.376l3.677,0l-0.148,3.151l-3.769,0l-0.372,6.813Zm63.051,-1.928l-9.678,0c-0.01,0.127 -0.021,0.255 -0.026,0.372c-0.005,0.123 -0.01,0.24 -0.02,0.362c0,1.183 0.367,2.096 1.107,2.728c0.734,0.633 1.795,0.949 3.182,0.949c0.754,0 1.483,-0.077 2.182,-0.235c0.693,-0.153 1.377,-0.387 2.045,-0.709l-0.821,3.825c-0.928,0.219 -1.765,0.387 -2.519,0.5c-0.75,0.117 -1.438,0.173 -2.055,0.173c-2.366,0 -4.217,-0.678 -5.548,-2.04c-1.331,-1.362 -1.994,-3.248 -1.994,-5.67c0,-2.646 0.724,-4.758 2.172,-6.333c1.448,-1.576 3.376,-2.361 5.778,-2.361c2.101,0 3.676,0.556 4.727,1.667c1.05,1.107 1.575,2.774 1.575,4.993c0,0.29 -0.005,0.581 -0.02,0.877c-0.015,0.29 -0.046,0.591 -0.087,0.902Zm-120.564,3.437c0.836,0.311 1.58,0.541 2.233,0.688c0.653,0.148 1.234,0.225 1.739,0.225c1.157,0 2.004,-0.271 2.544,-0.816c0.536,-0.541 0.883,-1.515 1.045,-2.922c0.067,-0.637 0.149,-2.223 0.245,-4.758c0.097,-2.534 0.169,-5.394 0.215,-8.581l4.589,0c-0.061,0.479 -0.112,1.025 -0.163,1.641c-0.051,0.618 -0.112,1.469 -0.179,2.555l-0.393,7.425c-0.015,0.382 -0.04,0.928 -0.071,1.647c-0.081,2.636 -0.423,4.375 -1.03,5.211c-0.52,0.709 -1.315,1.254 -2.391,1.637c-1.076,0.382 -2.361,0.576 -3.855,0.576c-0.699,0 -1.403,-0.046 -2.106,-0.133c-0.709,-0.091 -1.428,-0.219 -2.152,-0.392l-0.27,-4.003Zm71.571,4.094c0.067,-0.346 0.128,-0.744 0.179,-1.193c0.051,-0.448 0.102,-1.132 0.148,-2.05l0.285,-4.375c-0.239,0.158 -0.484,0.296 -0.734,0.419c-0.25,0.117 -0.5,0.224 -0.759,0.31l-2.035,0.674c-0.908,0.29 -1.494,0.566 -1.765,0.831c-0.269,0.265 -0.402,0.622 -0.402,1.065c0,0.5 0.173,0.893 0.515,1.173c0.347,0.286 0.826,0.429 1.443,0.429c0.25,0 0.556,-0.036 0.918,-0.107c0.367,-0.067 0.851,-0.189 1.458,-0.357l-0.913,3.181c-0.474,0.128 -0.943,0.23 -1.397,0.301c-0.449,0.067 -0.872,0.102 -1.259,0.102c-1.535,0 -2.744,-0.403 -3.631,-1.208c-0.887,-0.806 -1.331,-1.902 -1.331,-3.289c0,-1.183 0.321,-2.152 0.964,-2.896c0.642,-0.75 1.636,-1.316 2.978,-1.704l3.187,-0.943c1.106,-0.316 1.841,-0.607 2.213,-0.867c0.367,-0.26 0.55,-0.581 0.55,-0.969c0,-0.51 -0.203,-0.902 -0.606,-1.173c-0.403,-0.275 -0.969,-0.413 -1.693,-0.413c-0.739,0 -1.556,0.128 -2.453,0.383c-0.897,0.255 -1.907,0.642 -3.034,1.173l0.494,-3.738c1.087,-0.275 2.096,-0.479 3.04,-0.602c0.943,-0.127 1.876,-0.188 2.799,-0.188c2.035,0 3.488,0.331 4.36,0.999c0.872,0.668 1.306,1.785 1.306,3.35c0,0.306 0,0.566 -0.006,0.77c-0.005,0.204 -0.015,0.403 -0.025,0.602l-0.296,7.725c-0.01,0.153 -0.02,0.383 -0.025,0.689c-0.006,0.311 -0.006,0.943 -0.006,1.896l-4.467,0Zm-38.065,0c0.25,-2.421 0.439,-4.925 0.566,-7.521c0.132,-2.595 0.194,-5.277 0.194,-8.046l3.977,0l0,1.897c0.668,-0.826 1.418,-1.423 2.249,-1.785c0.831,-0.362 1.851,-0.545 3.054,-0.545c2.091,0 3.6,0.407 4.533,1.218c0.934,0.811 1.397,2.147 1.397,4.008c0,0.362 -0.035,1.57 -0.111,3.626c-0.077,2.054 -0.113,3.931 -0.113,5.624l0,1.524l-4.303,0c0.152,-1.83 0.27,-3.543 0.351,-5.139c0.087,-1.591 0.128,-2.876 0.128,-3.855c0,-1.393 -0.214,-2.372 -0.648,-2.927c-0.433,-0.556 -1.172,-0.836 -2.218,-0.836c-1.734,0 -2.957,0.754 -3.671,2.263c-0.709,1.51 -1.066,4.238 -1.066,8.195c0,0.617 0,1.086 0.005,1.412c0.005,0.321 0.01,0.617 0.01,0.887l-4.334,0Zm66.264,-11.88c-0.347,-0.118 -0.734,-0.209 -1.158,-0.266c-0.423,-0.061 -0.882,-0.092 -1.382,-0.092c-1.611,0 -2.86,0.455 -3.747,1.367c-0.888,0.913 -1.331,2.203 -1.331,3.865c0,1.224 0.3,2.183 0.902,2.876c0.602,0.694 1.438,1.041 2.504,1.041c1.275,0 2.259,-0.398 2.957,-1.189c0.699,-0.79 1.076,-1.958 1.137,-3.492l0.118,-4.11Zm11.264,1.662l5.527,0c0,-0.877 -0.214,-1.55 -0.647,-2.014c-0.434,-0.469 -1.05,-0.704 -1.846,-0.704c-0.79,0 -1.453,0.245 -1.994,0.729c-0.546,0.489 -0.892,1.152 -1.04,1.989Z" style="fill:#17100b;fill-rule:nonzero;"/><path d="M19.44,27.861l51.728,0l0,46.074c-0.009,8.04 -5.969,14.826 -13.941,15.874l-0.028,0.003c-7.91,1.027 -15.919,1.025 -23.829,-0.005c-7.971,-1.053 -13.925,-7.841 -13.93,-15.881l0,-46.065Z" style="fill:#130b04;"/><rect x="45.805" y="28.862" width="24.363" height="28.587" style="fill:#fff;"/><rect x="20.441" y="28.862" width="24.363" height="28.587" style="fill:#da1b0c;"/><path d="M20.441,73.929l0,-15.479l24.363,0l0,31.134l-0.017,0c-3.778,-0.025 -7.552,-0.282 -11.298,-0.771l0.013,0.002c-7.473,-0.986 -13.056,-7.351 -13.061,-14.889l0,0.003Z" style="fill:#fff;"/><path d="M57.069,88.82c-3.747,0.486 -7.519,0.741 -11.298,0.764l0.034,0l0,-31.134l24.362,0l0,15.479l0,0.005c-0.008,7.539 -5.596,13.9 -13.07,14.882l-0.028,0.004Z" style="fill:#da1b0c;"/><path d="M34.124,37.239l-3.003,0l0,-3.968l-0.387,-0.967l0,-0.581l1.388,0l0,0.936l1.001,0l0,-0.936l1.388,0l0,0.581l-0.387,0.967l0,3.968Zm-6.796,-3.968l0,0.501l1.001,0l0,-0.501l1.388,0l0,0.581l-0.387,0.968l0,2.419l-3.003,0l0,-2.419l-0.387,-0.968l0,-0.581l1.388,0Zm10.588,0l0,0.501l-1.001,0l0,-0.501l-1.388,0l0,0.581l0.388,0.968l0,2.419l3.002,0l0,-2.419l0.387,-0.968l0,-0.581l-1.388,0Zm-11.589,6.839l12.59,0l1.598,8.644l-6.004,0l0,-5.709l0,0.001c-1.226,-0.407 -2.551,-0.407 -3.777,0l0,-0.001l0,5.709l-6.005,0l1.598,-8.644Zm-3.098,10.416l1.5,-1.272l6.005,0l0,1.823l-7.505,0l0,-0.551Zm11.282,0.551l0,-1.823l6.004,0l1.501,1.272l0,0.551l-7.505,0Zm-11.282,0.5l18.787,0l0,2.226l-18.787,0l0,-2.226Zm6.101,-12.902l0,-0.936l2.356,0l0,0.936l1.872,0l0,-0.936l2.357,0l0,0.936l1.872,0l0,-0.936l2.002,0l0,0.711l-0.872,1.16l-12.59,0l-0.871,-1.16l0,-0.711l2.002,0l0,0.936l1.872,0Z" style="fill:#f8c300;"/><path d="M64.086,83.39l-15.494,0l0,-2.225l17.376,0l-0.003,0.003c-0.543,0.809 -1.174,1.556 -1.883,2.225l0.004,-0.003Zm2.201,-2.726l-6.413,0l0,-1.822l6.004,0l0.96,0.813l-0.003,0.004c-0.169,0.344 -0.353,0.681 -0.551,1.009l0.003,-0.004Zm-17.695,-0.55l1.501,-1.272l6.004,0l0,1.822l-7.505,0l0,-0.55Zm3.099,-10.417l12.59,0l1.597,8.644l-6.004,0l0,-5.708c-1.226,-0.407 -2.551,-0.407 -3.777,0l0,5.708l-6.004,0l1.598,-8.644Zm3.002,-1.435l0,-0.935l2.357,0l0,0.935l1.872,0l0,-0.935l2.356,0l0,0.935l1.872,0l0,-0.935l2.002,0l0,0.71l-0.871,1.16l-12.59,0l-0.872,-1.16l0,-0.71l2.003,0l0,0.935l1.871,0Zm4.794,-1.436l-3.002,0l0,-3.967l-0.388,-0.968l0,-0.581l1.389,0l0,0.936l1.001,0l0,-0.936l1.387,0l0,0.581l-0.387,0.968l0,3.967Zm-6.795,-3.967l0,0.5l1.001,0l0,-0.5l1.388,0l0,0.581l-0.388,0.967l0,2.419l-3.002,0l0,-2.419l-0.387,-0.967l0,-0.581l1.388,0Zm10.588,0l0,0.5l-1.001,0l0,-0.5l-1.388,0l0,0.581l0.387,0.967l0,2.419l3.003,0l0,-2.419l0.387,-0.967l0,-0.581l-1.388,0Z" style="fill:#f8c300;"/><path d="M47.703,8.993l-1.696,-1.697l1.696,-1.695l3.052,0l-1.696,1.695l1.696,1.697l-3.052,0Z" style="fill:#f8c300;"/><path d="M41.549,7.296l-1.696,1.697l3.052,0l1.696,-1.697l-1.696,-1.695l-3.052,0l1.696,1.695Z" style="fill:#f8c300;"/><path d="M47,4.897l-1.696,1.696l-1.696,-1.696l0,-3.052l1.696,1.696l1.696,-1.696l0,3.052Z" style="fill:#f8c300;"/><path d="M36.515,7.705l1.948,1.401l-3.012,0.492l-1.948,-1.4l1.4,-1.948l3.012,-0.493l-1.4,1.948Z" style="fill:#f8c300;"/><path d="M30.748,6.217l1.948,1.401l1.4,-1.948l-0.492,-3.012l-1.4,1.947l-1.949,-1.4l0.493,3.012Z" style="fill:#f8c300;"/><path d="M30.715,10.373l1.4,-1.948l-1.947,-1.4l-3.012,0.492l1.948,1.401l-1.401,1.947l3.012,-0.492Z" style="fill:#f8c300;"/><path d="M23.457,12.173l-2.148,-1.067l1.067,-2.148l2.893,-0.973l-1.067,2.149l2.148,1.067l-2.893,0.972Z" style="fill:#f8c300;"/><path d="M20.418,10.664l-0.972,-2.894l1.068,-2.148l0.972,2.893l-1.068,2.149Z" style="fill:#f8c300;"/><path d="M54.093,7.705l-1.948,1.401l3.012,0.492l1.948,-1.4l-1.4,-1.948l-3.013,-0.493l1.401,1.948Z" style="fill:#f8c300;"/><path d="M59.86,6.217l-1.947,1.401l-1.401,-1.948l0.493,-3.012l1.4,1.947l1.947,-1.4l-0.492,3.012Z" style="fill:#f8c300;"/><path d="M59.893,10.373l-1.4,-1.948l1.947,-1.4l3.013,0.492l-1.948,1.401l1.4,1.947l-3.012,-0.492Z" style="fill:#f8c300;"/><path d="M67.152,12.173l2.147,-1.067l-1.067,-2.148l-2.893,-0.973l1.067,2.149l-2.148,1.067l2.894,0.972Z" style="fill:#f8c300;"/><path d="M70.189,10.664l0.973,-2.893l-1.067,-2.149l-0.973,2.893l1.067,2.149Z" style="fill:#f8c300;"/><path d="M22.939,12.965c1.54,5.53 9.824,3.477 8.604,-2.132l0,-0.001l3.269,-0.535l0,-0.001c0.627,5.706 9.135,5.017 8.836,-0.715l0,-0.001l3.313,0c-0.301,5.731 8.203,6.423 8.834,0.719l0.001,-0.002l3.269,0.535c-1.221,5.607 7.059,7.664 8.603,2.136l0,-0.001l1.899,0.638l0,0.002c-1.946,6.525 -11.358,5.961 -12.512,-0.748l-0.002,0.003c-2.664,4.934 -9.919,4.343 -11.749,-0.958l-0.001,0.004c-1.833,5.3 -9.088,5.887 -11.75,0.951l0,0.003c-1.158,6.709 -10.57,7.268 -12.512,0.742l0,0.001l1.899,-0.638l-0.001,-0.002Z" style="fill:#f8c300;"/><path d="M65.599,24.321l1.276,-3.795c-13.992,-4.716 -29.15,-4.716 -43.142,-0.001l1.276,3.796c13.171,-4.416 27.419,-4.416 40.59,0Z" style="fill:#f8c300;"/><path d="M67.281,43.245c-0.269,-0.594 -0.376,-1.263 -0.009,-1.796c0.444,-0.645 0.212,-1.146 -0.066,-1.734c-1.036,2.531 -1.036,2.531 -0.063,4.865c0.033,0.078 0.08,0.152 0.104,0.233c0.246,0.825 -0.035,1.635 -0.694,2.009c-0.844,0.478 -1.926,0.363 -2.466,-0.267c-0.564,-0.658 -1.255,-1.172 -2.035,-1.508c-1.245,-0.536 -1.932,-1.31 -1.351,-2.906c-1.252,1.037 -2.508,1.656 -3.742,2.373c1.018,0.64 1.433,1.258 1.762,2.568c0.545,2.163 1.259,2.831 3.417,3.155c0.213,0.032 0.378,0.075 0.484,0.27c0.336,0.625 0.672,1.254 0.736,1.976c0.082,0.931 -0.261,1.173 -1.125,0.817c-1.405,-0.58 -2.262,-0.122 -2.554,1.336c-0.099,0.495 -0.032,0.72 0.556,0.7c1.219,-0.042 2.44,-0.032 3.66,-0.002c0.496,0.012 0.824,-0.076 0.863,-0.645c0.013,-0.191 0.076,-0.398 0.376,-0.318c0.239,0.064 0.567,0.343 0.684,-0.105c0.084,-0.32 -0.026,-0.611 -0.461,-0.644c-0.255,-0.02 -0.283,-0.239 -0.263,-0.452c0.016,-0.161 0.082,-0.252 0.265,-0.241c0.217,0.014 0.514,0.239 0.566,-0.222c0.046,-0.407 -0.072,-0.586 -0.512,-0.673c-0.353,-0.07 -0.42,-0.967 -0.097,-1.108c0.221,-0.097 0.519,-0.021 0.504,-0.408c-0.015,-0.403 -0.354,-0.287 -0.564,-0.368c-0.6,-0.229 -1.118,-1.128 -0.947,-1.821c0.18,-0.73 0.748,-0.219 1.114,-0.232c0.994,-0.036 1.896,-0.274 2.435,-1.138c0.549,-0.882 0.476,-1.836 -0.054,-2.743c-0.185,-0.318 -0.372,-0.637 -0.523,-0.971Zm-10.132,2.649c-0.842,-0.423 -1.632,-0.319 -2.264,0.324c-0.951,0.968 -1.168,2.095 -0.704,3.366c0.07,0.195 0.379,0.517 -0.072,0.581c-0.697,0.098 -1.425,0.159 -2.069,-0.242c-0.52,-0.324 -0.113,-0.841 -0.219,-1.203c0.024,-1.777 -0.75,-2.693 -2.168,-2.649c-0.463,0.014 -0.644,0.117 -0.522,0.651c0.292,1.269 0.545,2.55 0.731,3.838c0.076,0.522 0.299,0.772 0.769,0.832c0.411,0.053 0.659,0.169 0.439,0.637c-0.164,0.349 0.105,0.439 0.334,0.552c0.201,0.101 0.344,0.108 0.467,-0.141c0.124,-0.252 0.164,-0.6 0.636,-0.524c0.483,0.076 0.461,0.404 0.517,0.734c0.051,0.299 0.264,0.414 0.546,0.437c0.43,0.034 0.255,-0.296 0.254,-0.47c-0.003,-0.635 0.48,-0.41 0.795,-0.468c0.313,-0.057 0.622,-0.114 0.605,0.398c-0.012,0.334 0.115,0.598 0.554,0.569c0.449,-0.03 0.351,-0.357 0.39,-0.616c0.013,-0.084 0.006,-0.17 0.017,-0.255c0.202,-1.554 0.347,-3.137 2.004,-3.958c0.082,-0.041 0.149,-0.168 0.167,-0.266c0.109,-0.58 -0.605,-1.824 -1.207,-2.127Zm-7.511,-2.008c0.282,-0.651 0.698,-0.189 1.064,-0.124c0.442,0.079 0.551,0.307 0.325,0.705c-0.09,0.159 0.013,0.246 0.167,0.309c0.436,0.179 0.782,0.188 1.038,-0.315c0.336,-0.659 0.851,-0.125 1.27,-0.105c0.531,0.026 0.184,0.4 0.143,0.621c-0.048,0.254 0.014,0.346 0.279,0.387c0.553,0.086 0.603,-0.376 0.83,-0.675c0.232,-0.305 0.146,-0.468 -0.111,-0.687c-0.65,-0.554 -1.194,-1.21 -1.697,-1.896c-0.303,-0.414 -0.608,-0.758 -1.087,-0.565c-0.24,0 -0.382,0.008 -0.523,-0.001c-1.262,-0.084 -1.295,-0.12 -1.242,-1.347c0.054,-1.252 -0.488,-1.945 -1.589,-2.113c-0.461,-0.07 -0.611,0.061 -0.6,0.521c0.026,1.076 0.041,2.154 0.01,3.23c-0.013,0.499 0.115,0.806 0.63,0.908c0.42,0.084 0.706,0.252 0.34,0.726c-0.212,0.274 0.016,0.383 0.212,0.506c0.213,0.134 0.404,0.233 0.541,-0.085Zm5.964,-0.279c0.605,0.496 0.613,0.511 1.083,0.262c2.379,-1.26 4.438,-2.893 6.045,-5.081c0.466,-0.634 0.592,-1.223 0.187,-1.98c-1.574,3.205 -4.121,5.337 -7.315,6.799Zm-0.386,-1.345c-0.188,0.096 -0.685,0.063 -0.474,0.497c0.158,0.327 0.477,0.473 0.857,0.254c0.147,-0.084 0.308,-0.142 0.46,-0.217c2.873,-1.409 4.909,-3.653 6.443,-6.415c0.323,-0.581 0.279,-1.038 -0.202,-1.534c-0.317,0.639 -0.574,1.237 -0.898,1.798c-1.46,2.53 -3.608,4.307 -6.186,5.617Zm10.903,-4.648c-0.148,0.946 -0.435,1.797 -0.834,2.612c-0.277,0.567 -0.394,1.164 -0.427,1.795c-0.027,0.514 0.164,0.799 0.739,0.908c-0.135,-1.192 0.298,-2.214 0.791,-3.242c0.327,-0.682 0.542,-1.449 -0.269,-2.073Zm-12.521,3.663c0.307,0.711 0.732,0.749 1.297,0.39c0.501,-0.318 1.045,-0.568 1.546,-0.887c2.323,-1.48 4.206,-3.341 5.154,-6.007c0.222,-0.622 0.277,-1.2 -0.296,-1.795c-0.992,4.318 -4.099,6.556 -7.701,8.299Zm10.475,0.489c0.105,-0.696 0.13,-1.34 0.485,-1.863c1.124,-1.658 0.954,-3.349 0.216,-5.085c-0.219,-0.517 -0.374,-1.066 -0.512,-1.611c-0.167,-0.659 0.06,-1.201 0.686,-1.474c0.615,-0.27 1.094,0.04 1.47,0.525c0.138,0.178 0.228,0.396 0.378,0.561c0.173,0.189 0.427,0.113 0.643,0.089c0.191,-0.023 0.148,-0.171 0.12,-0.323c-0.179,-0.952 -1.277,-1.805 -2.244,-1.728c-1.244,0.098 -2.019,0.908 -1.946,2.11c0.03,0.5 0.125,1.023 0.318,1.482c0.825,1.959 1.15,3.867 -0.145,5.783c-0.382,0.566 -0.213,1.141 0.531,1.534Zm-11.529,-1.764c0.277,0.338 0.303,0.799 0.791,0.621c1.828,-0.67 3.427,-1.677 4.625,-3.283c-1.838,0.803 -3.3,2.317 -5.416,2.662Zm-3.287,-6.635c-0.043,1.033 -0.041,2.047 0.72,2.877c0.327,0.356 -0.036,0.463 -0.23,0.638c-0.152,0.138 -0.418,0.254 -0.138,0.519c0.196,0.186 0.364,0.358 0.607,0.038c0.255,-0.336 0.514,-0.369 0.799,0.015c0.165,0.222 0.413,0.387 0.64,0.555c0.266,0.197 0.437,0.354 0.026,0.594c-0.189,0.111 -0.379,0.348 -0.178,0.564c0.176,0.191 0.427,0.473 0.724,0.297c1.087,-0.645 2.426,-0.806 3.41,-1.821c-1.523,-0.454 -2.727,-1.263 -3.785,-2.329c-0.657,-0.661 -1.037,-1.285 -0.706,-2.301c0.323,-0.992 -0.191,-1.781 -1.047,-2.007c-0.573,-0.15 -0.927,-0.078 -0.849,0.661c0.059,0.561 0.031,1.134 0.007,1.7Zm17.325,0.665c-0.348,1.272 -0.019,2.337 1.107,3.38c-0.027,-0.686 0.211,-1.105 0.382,-1.549c0.25,-0.647 0.366,-1.304 0.05,-1.977c-0.208,-0.443 -0.576,-0.477 -0.994,-0.477c-0.442,0.001 -0.464,0.324 -0.545,0.623Zm-10.107,1.251c0.284,-0.557 0.57,-1.164 1.353,-0.995c0.485,0.104 0.814,0.5 0.864,0.956c0.088,0.817 -0.789,0.729 -1.238,1.118c0.614,0.449 1.169,0.395 1.538,-0.2c0.768,-1.234 1.242,-2.593 1.479,-4.03c0.052,-0.317 -0.065,-0.428 -0.407,-0.46c-1.502,-0.14 -2.816,0.094 -3.892,1.326c-1.126,1.292 -1.176,1.319 0.303,2.285Zm-1.581,0.515c1.013,1.154 1.492,1.136 2.459,-0.251c-0.833,0.573 -1.442,0.3 -2.042,-0.314c-0.312,-0.32 -0.769,-0.296 -1.188,-0.085c0.264,0.219 0.555,0.402 0.771,0.65Zm3.02,-3.389l0,0.513l-0.633,0c0.225,-0.375 0.633,-0.513 0.633,-0.513Zm2.709,-2.69l-0.808,0.724l-0.799,-0.905l-0.67,0.788l-0.671,-0.607l0,1.267l2.948,0l0,-1.267Z" style="fill:#81003f;"/><path d="M41.863,73.255c-0.268,-0.594 -0.377,-1.262 -0.009,-1.796c0.444,-0.645 0.211,-1.147 -0.066,-1.734c-1.035,2.532 -1.035,2.532 -0.062,4.865c0.032,0.079 0.079,0.152 0.103,0.233c0.246,0.825 -0.035,1.635 -0.694,2.009c-0.844,0.478 -1.926,0.363 -2.466,-0.267c-0.564,-0.658 -1.255,-1.172 -2.035,-1.508c-1.245,-0.536 -1.932,-1.31 -1.351,-2.906c-1.252,1.038 -2.508,1.656 -3.742,2.374c1.018,0.639 1.433,1.257 1.762,2.567c0.545,2.164 1.26,2.83 3.417,3.154c0.213,0.033 0.378,0.075 0.484,0.271c0.336,0.625 0.672,1.254 0.736,1.975c0.082,0.932 -0.262,1.174 -1.125,0.818c-1.405,-0.58 -2.262,-0.122 -2.553,1.336c-0.1,0.495 -0.034,0.721 0.555,0.7c1.219,-0.041 2.44,-0.032 3.659,-0.003c0.497,0.012 0.825,-0.075 0.864,-0.644c0.013,-0.191 0.076,-0.398 0.375,-0.318c0.239,0.064 0.568,0.342 0.685,-0.105c0.084,-0.32 -0.026,-0.611 -0.461,-0.645c-0.254,-0.019 -0.283,-0.238 -0.263,-0.452c0.015,-0.159 0.081,-0.252 0.266,-0.24c0.216,0.014 0.513,0.239 0.565,-0.221c0.046,-0.408 -0.072,-0.587 -0.511,-0.674c-0.355,-0.071 -0.421,-0.967 -0.098,-1.108c0.222,-0.096 0.518,-0.021 0.504,-0.408c-0.015,-0.403 -0.353,-0.287 -0.564,-0.367c-0.6,-0.23 -1.118,-1.129 -0.947,-1.822c0.18,-0.729 0.748,-0.219 1.114,-0.232c0.993,-0.036 1.897,-0.274 2.434,-1.137c0.551,-0.883 0.477,-1.837 -0.053,-2.744c-0.186,-0.317 -0.372,-0.637 -0.523,-0.971Zm-10.133,2.649c-0.841,-0.423 -1.631,-0.319 -2.262,0.323c-0.952,0.968 -1.169,2.095 -0.705,3.367c0.071,0.195 0.379,0.517 -0.071,0.581c-0.698,0.098 -1.426,0.16 -2.07,-0.242c-0.52,-0.324 -0.113,-0.841 -0.219,-1.203c0.024,-1.777 -0.749,-2.693 -2.168,-2.649c-0.463,0.014 -0.644,0.117 -0.522,0.651c0.291,1.269 0.545,2.55 0.731,3.838c0.076,0.522 0.299,0.772 0.768,0.832c0.412,0.053 0.66,0.169 0.44,0.637c-0.164,0.349 0.105,0.438 0.334,0.553c0.201,0.101 0.344,0.107 0.466,-0.142c0.124,-0.252 0.165,-0.6 0.637,-0.524c0.483,0.077 0.461,0.405 0.517,0.733c0.051,0.3 0.265,0.416 0.546,0.438c0.43,0.035 0.255,-0.296 0.254,-0.469c-0.003,-0.636 0.48,-0.411 0.795,-0.469c0.313,-0.058 0.622,-0.114 0.605,0.397c-0.012,0.335 0.115,0.599 0.554,0.569c0.449,-0.029 0.35,-0.356 0.39,-0.615c0.013,-0.084 0.006,-0.171 0.017,-0.255c0.202,-1.554 0.346,-3.137 2.004,-3.958c0.082,-0.04 0.149,-0.168 0.167,-0.265c0.109,-0.582 -0.605,-1.825 -1.208,-2.128Zm-7.51,-2.007c0.282,-0.652 0.698,-0.19 1.064,-0.125c0.441,0.079 0.551,0.307 0.325,0.705c-0.09,0.158 0.013,0.246 0.167,0.309c0.436,0.178 0.781,0.188 1.038,-0.315c0.336,-0.66 0.851,-0.125 1.27,-0.105c0.531,0.026 0.185,0.4 0.143,0.621c-0.048,0.254 0.014,0.346 0.279,0.387c0.553,0.086 0.603,-0.376 0.831,-0.675c0.231,-0.304 0.146,-0.468 -0.112,-0.687c-0.65,-0.553 -1.194,-1.21 -1.697,-1.896c-0.303,-0.414 -0.607,-0.758 -1.087,-0.565c-0.24,0 -0.382,0.008 -0.523,-0.001c-1.262,-0.084 -1.294,-0.12 -1.242,-1.347c0.053,-1.252 -0.488,-1.946 -1.588,-2.113c-0.462,-0.07 -0.612,0.061 -0.601,0.521c0.026,1.076 0.041,2.154 0.01,3.23c-0.014,0.498 0.115,0.806 0.63,0.909c0.42,0.083 0.706,0.251 0.34,0.725c-0.212,0.274 0.017,0.383 0.212,0.506c0.213,0.134 0.404,0.233 0.541,-0.084Zm5.964,-0.28c0.605,0.496 0.613,0.51 1.083,0.261c2.378,-1.259 4.438,-2.892 6.045,-5.08c0.465,-0.634 0.591,-1.222 0.188,-1.98c-1.575,3.205 -4.123,5.337 -7.316,6.799Zm-0.386,-1.345c-0.187,0.096 -0.685,0.063 -0.474,0.498c0.158,0.325 0.478,0.471 0.857,0.253c0.146,-0.084 0.308,-0.142 0.459,-0.216c2.874,-1.41 4.91,-3.655 6.444,-6.416c0.323,-0.581 0.279,-1.038 -0.203,-1.534c-0.316,0.639 -0.573,1.237 -0.896,1.797c-1.461,2.532 -3.61,4.308 -6.187,5.618Zm10.903,-4.648c-0.148,0.946 -0.435,1.797 -0.834,2.611c-0.277,0.568 -0.394,1.166 -0.427,1.796c-0.027,0.515 0.165,0.799 0.739,0.909c-0.135,-1.193 0.298,-2.215 0.791,-3.243c0.327,-0.682 0.542,-1.449 -0.269,-2.073Zm-12.522,3.663c0.307,0.711 0.733,0.749 1.298,0.391c0.501,-0.318 1.045,-0.569 1.545,-0.888c2.325,-1.479 4.207,-3.341 5.155,-6.007c0.221,-0.622 0.277,-1.2 -0.297,-1.795c-0.99,4.317 -4.098,6.556 -7.701,8.299Zm10.476,0.488c0.105,-0.695 0.13,-1.339 0.485,-1.862c1.124,-1.658 0.954,-3.349 0.217,-5.086c-0.22,-0.516 -0.374,-1.065 -0.513,-1.61c-0.167,-0.659 0.061,-1.201 0.685,-1.475c0.615,-0.268 1.095,0.041 1.471,0.526c0.138,0.178 0.227,0.397 0.378,0.56c0.173,0.189 0.427,0.115 0.643,0.09c0.192,-0.023 0.148,-0.171 0.12,-0.323c-0.178,-0.952 -1.277,-1.805 -2.244,-1.728c-1.244,0.099 -2.019,0.908 -1.946,2.11c0.03,0.5 0.125,1.024 0.318,1.482c0.826,1.958 1.15,3.867 -0.145,5.783c-0.382,0.565 -0.214,1.14 0.531,1.533Zm-11.529,-1.763c0.277,0.338 0.304,0.799 0.791,0.621c1.828,-0.67 3.427,-1.677 4.625,-3.283c-1.839,0.803 -3.3,2.317 -5.416,2.662Zm-3.287,-6.635c-0.043,1.034 -0.041,2.048 0.721,2.877c0.327,0.356 -0.037,0.463 -0.231,0.638c-0.152,0.139 -0.418,0.254 -0.139,0.519c0.196,0.186 0.365,0.358 0.607,0.038c0.255,-0.337 0.515,-0.368 0.8,0.015c0.165,0.222 0.413,0.387 0.64,0.555c0.265,0.197 0.437,0.354 0.026,0.594c-0.19,0.112 -0.379,0.347 -0.178,0.564c0.176,0.191 0.426,0.473 0.724,0.297c1.087,-0.645 2.426,-0.806 3.41,-1.821c-1.523,-0.454 -2.727,-1.262 -3.785,-2.329c-0.657,-0.661 -1.037,-1.286 -0.706,-2.301c0.323,-0.992 -0.191,-1.782 -1.047,-2.007c-0.573,-0.151 -0.927,-0.079 -0.849,0.661c0.059,0.561 0.031,1.134 0.007,1.7Zm17.324,0.665c-0.347,1.272 -0.018,2.337 1.108,3.379c-0.027,-0.685 0.211,-1.104 0.382,-1.547c0.25,-0.648 0.366,-1.306 0.049,-1.978c-0.208,-0.442 -0.575,-0.478 -0.992,-0.477c-0.443,0 -0.465,0.323 -0.547,0.623Zm-10.105,1.251c0.283,-0.557 0.569,-1.164 1.352,-0.995c0.485,0.105 0.814,0.5 0.863,0.956c0.089,0.817 -0.789,0.729 -1.237,1.118c0.615,0.449 1.168,0.395 1.538,-0.2c0.767,-1.234 1.242,-2.593 1.479,-4.03c0.052,-0.317 -0.065,-0.428 -0.407,-0.46c-1.502,-0.14 -2.816,0.094 -3.892,1.327c-1.126,1.291 -1.176,1.318 0.304,2.284Zm-1.582,0.515c1.013,1.154 1.492,1.136 2.459,-0.25c-0.834,0.572 -1.442,0.3 -2.042,-0.315c-0.312,-0.319 -0.769,-0.297 -1.188,-0.085c0.264,0.219 0.554,0.402 0.771,0.65Zm3.019,-3.389l0,0.513l-0.632,0c0.226,-0.374 0.632,-0.513 0.632,-0.513Zm2.71,-2.689l-0.809,0.723l-0.798,-0.904l-0.671,0.787l-0.67,-0.606l0,1.266l2.948,0l0,-1.266Z" style="fill:#81003f;"/></svg>