<svg xmlns="http://www.w3.org/2000/svg" width="71" height="71" viewBox="0 0 71 71">
    <g fill="none" fill-rule="evenodd">
        <path fill="#FFCA08" fill-rule="nonzero" d="M23 0H26V3H23zM28 0H31V3H28zM34 0H37V3H34zM37 0H40V3H37zM25 3H28V6H25zM28 3H31V6H28zM31 3H34V6H31zM40 3H43V6H40zM23 6H26V9H23z"/>
        <path fill="#FFCA08" fill-rule="nonzero" d="M25 6H28V9H25zM34 6H37V9H34zM37 6H40V9H37zM45 6H48V9H45z"/>
        <path fill="#FFCA08" fill-rule="nonzero" d="M25 8H28V11H25zM31 8H34V11H31zM34 8H37V11H34zM37 8H40V11H37zM40 8H43V11H40zM45 8H48V11H45zM28 11H31V14H28zM31 11H34V14H31zM37 11H40V14H37zM23 14H26V17H23z"/>
        <path fill="#FFCA08" fill-rule="nonzero" d="M25 14H28V17H25zM34 14H37V17H34zM37 14H40V17H37zM45 14H48V17H45zM23 17H26V20H23zM28 17H31V20H28zM34 17H37V20H34zM40 17H43V20H40zM45 17H48V20H45zM31 20H34V23H31zM40 20H43V23H40zM0 23H3V26H0zM6 23H9V26H6zM17 23H20V26H17zM20 23H23V26H20zM25 23H28V26H25zM28 23H31V26H28zM31 23H34V26H31zM40 23H43V26H40zM45 23H48V26H45zM54 23H57V26H54zM62 23H65V26H62zM68 23H71V26H68z"/>
        <path fill="#FFCA08" fill-rule="nonzero" d="M0 25H3V28H0zM6 25H9V28H6z"/>
        <path fill="#FFCA08" fill-rule="nonzero" d="M8 25H11V28H8zM11 25H14V28H11zM23 25H26V28H23zM28 25H31V28H28zM34 25H37V28H34zM37 25H40V28H37zM42 25H45V28H42zM45 25H48V28H45zM51 25H54V28H51zM54 25H57V28H54zM59 25H62V28H59zM65 25H68V28H65zM68 25H71V28H68zM0 28H3V31H0zM6 28H9V31H6zM14 28H17V31H14zM17 28H20V31H17zM25 28H28V31H25zM28 28H31V31H28zM31 28H34V31H31zM42 28H45V31H42zM45 28H48V31H45zM59 28H62V31H59zM62 28H65V31H62zM68 28H71V31H68zM0 31H3V34H0zM6 31H9V34H6z"/>
        <path fill="#FFCA08" fill-rule="nonzero" d="M8 31H11V34H8zM11 31H14V34H11zM14 31H17V34H14zM28 31H31V34H28zM34 31H37V34H34zM42 31H45V34H42zM45 31H48V34H45zM48 31H51V34H48zM51 31H54V34H51zM59 31H62V34H59zM0 34H3V37H0zM8 34H11V37H8zM17 34H20V37H17zM31 34H34V37H31zM42 34H45V37H42zM51 34H54V37H51zM54 34H57V37H54zM68 34H71V37H68zM8 37H11V40H8zM11 37H14V40H11zM14 37H17V40H14zM20 37H23V40H20zM25 37H28V40H25zM28 37H31V40H28zM42 37H45V40H42zM45 37H48V40H45zM48 37H51V40H48zM51 37H54V40H51zM54 37H57V40H54zM65 37H68V40H65zM68 37H71V40H68zM0 40H3V43H0zM3 40H6V43H3zM6 40H9V43H6z"/>
        <path fill="#FFCA08" fill-rule="nonzero" d="M8 40H11V43H8zM17 40H20V43H17zM20 40H23V43H20zM28 40H31V43H28zM31 40H34V43H31zM37 40H40V43H37zM40 40H43V43H40z"/>
        <path fill="#FFCA08" fill-rule="nonzero" d="M42 40H45V43H42zM48 40H51V43H48zM51 40H54V43H51zM59 40H62V43H59zM62 40H65V43H62zM68 40H71V43H68zM6 42H9V45H6zM20 42H23V45H20zM23 42H26V45H23z"/>
        <path fill="#FFCA08" fill-rule="nonzero" d="M25 42H28V45H25zM28 42H31V45H28zM40 42H43V45H40zM51 42H54V45H51zM54 42H57V45H54zM57 42H60V45H57z"/>
        <path fill="#FFCA08" fill-rule="nonzero" d="M59 42H62V45H59zM0 45H3V48H0zM3 45H6V48H3zM6 45H9V48H6zM11 45H14V48H11zM17 45H20V48H17zM23 45H26V48H23zM28 45H31V48H28zM31 45H34V48H31zM34 45H37V48H34zM42 45H45V48H42zM45 45H48V48H45zM48 45H51V48H48zM51 45H54V48H51zM54 45H57V48H54zM57 45H60V48H57zM65 45H68V48H65zM23 48H26V51H23z"/>
        <path fill="#FFCA08" fill-rule="nonzero" d="M25 48H28V51H25zM28 48H31V51H28zM34 48H37V51H34zM40 48H43V51H40zM45 48H48V51H45zM57 48H60V51H57zM68 48H71V51H68zM23 51H26V54H23z"/>
        <path fill="#FFCA08" fill-rule="nonzero" d="M25 51H28V54H25zM28 51H31V54H28zM34 51H37V54H34zM37 51H40V54H37zM40 51H43V54H40zM45 51H48V54H45zM51 51H54V54H51zM57 51H60V54H57zM68 51H71V54H68zM25 54H28V57H25zM28 54H31V57H28zM31 54H34V57H31zM34 54H37V57H34zM42 54H45V57H42zM45 54H48V57H45zM57 54H60V57H57zM25 57H28V60H25zM34 57H37V60H34zM42 57H45V60H42zM45 57H48V60H45zM48 57H51V60H48zM51 57H54V60H51zM54 57H57V60H54zM57 57H60V60H57zM65 57H68V60H65z"/>
        <path fill="#FFCA08" fill-rule="nonzero" d="M25 59H28V62H25zM40 59H43V62H40zM45 59H48V62H45zM48 59H51V62H48zM57 59H60V62H57zM62 59H65V62H62zM65 59H68V62H65zM23 62H26V65H23zM31 62H34V65H31zM37 62H40V65H37zM40 62H43V65H40zM48 62H51V65H48zM54 62H57V65H54zM57 62H60V65H57z"/>
        <path fill="#FFCA08" fill-rule="nonzero" d="M59 62H62V65H59zM65 62H68V65H65zM68 62H71V65H68zM25 65H28V68H25zM28 65H31V68H28zM31 65H34V68H31zM34 65H37V68H34zM45 65H48V68H45zM48 65H51V68H48zM51 65H54V68H51zM54 65H57V68H54zM57 65H60V68H57zM23 68H26V71H23zM28 68H31V71H28zM34 68H37V71H34zM40 68H43V71H40zM45 68H48V71H45zM59 68H62V71H59zM68 68H71V71H68z"/>
        <path d="M3 3H17V17H3z"/>
        <path fill="#FFCA08" fill-rule="nonzero" d="M17 0H0v20h20V0h-3zm0 17H3V3h14v14z"/>
        <path d="M54 3H68V17H54z"/>
        <path fill="#FFCA08" fill-rule="nonzero" d="M68 0H51v20h20V0h-3zm0 17H54V3h14v14z"/>
        <path d="M3 54H17V68H3z"/>
        <path fill="#FFCA08" fill-rule="nonzero" d="M17 51H0v20h20V51h-3zm0 17H3V54h14v14zM5 5H14V14H5zM56 5H65V14H56z"/>
        <path fill="#FFCA08" fill-rule="nonzero" d="M5 56H14V65H5z"/>
    </g>
</svg>
