<?xml version="1.0" encoding="UTF-8" standalone="no"?>
<!DOCTYPE svg PUBLIC "-//W3C//DTD SVG 1.1//EN" "http://www.w3.org/Graphics/SVG/1.1/DTD/svg11.dtd">
<svg width="100%" height="100%" viewBox="0 0 71 71" version="1.1" xmlns="http://www.w3.org/2000/svg" xmlns:xlink="http://www.w3.org/1999/xlink" xml:space="preserve" xmlns:serif="http://www.serif.com/" style="fill-rule:evenodd;clip-rule:evenodd;stroke-linejoin:round;stroke-miterlimit:2;">
    <g>
        <path d="M23,0L26,0L26,3L23,3L23,0ZM28,0L31,0L31,3L28,3L28,0ZM34,0L37,0L37,3L34,3L34,0ZM37,0L40,0L40,3L37,3L37,0ZM25,3L28,3L28,6L25,6L25,3ZM28,3L31,3L31,6L28,6L28,3ZM31,3L34,3L34,6L31,6L31,3ZM40,3L43,3L43,6L40,6L40,3ZM23,6L26,6L26,9L23,9L23,6Z" style="fill:rgb(97,188,124);fill-rule:nonzero;"/>
        <path d="M25,6L28,6L28,9L25,9L25,6ZM34,6L37,6L37,9L34,9L34,6ZM37,6L40,6L40,9L37,9L37,6ZM45,6L48,6L48,9L45,9L45,6Z" style="fill:rgb(97,188,124);fill-rule:nonzero;"/>
        <path d="M25,8L28,8L28,11L25,11L25,8ZM31,8L34,8L34,11L31,11L31,8ZM34,8L37,8L37,11L34,11L34,8ZM37,8L40,8L40,11L37,11L37,8ZM40,8L43,8L43,11L40,11L40,8ZM45,8L48,8L48,11L45,11L45,8ZM28,11L31,11L31,14L28,14L28,11ZM31,11L34,11L34,14L31,14L31,11ZM37,11L40,11L40,14L37,14L37,11ZM23,14L26,14L26,17L23,17L23,14Z" style="fill:rgb(97,188,124);fill-rule:nonzero;"/>
        <path d="M25,14L28,14L28,17L25,17L25,14ZM34,14L37,14L37,17L34,17L34,14ZM37,14L40,14L40,17L37,17L37,14ZM45,14L48,14L48,17L45,17L45,14ZM23,17L26,17L26,20L23,20L23,17ZM28,17L31,17L31,20L28,20L28,17ZM34,17L37,17L37,20L34,20L34,17ZM40,17L43,17L43,20L40,20L40,17ZM45,17L48,17L48,20L45,20L45,17ZM31,20L34,20L34,23L31,23L31,20ZM40,20L43,20L43,23L40,23L40,20ZM0,23L3,23L3,26L0,26L0,23ZM6,23L9,23L9,26L6,26L6,23ZM17,23L20,23L20,26L17,26L17,23ZM20,23L23,23L23,26L20,26L20,23ZM25,23L28,23L28,26L25,26L25,23ZM28,23L31,23L31,26L28,26L28,23ZM31,23L34,23L34,26L31,26L31,23ZM40,23L43,23L43,26L40,26L40,23ZM45,23L48,23L48,26L45,26L45,23ZM54,23L57,23L57,26L54,26L54,23ZM62,23L65,23L65,26L62,26L62,23ZM68,23L71,23L71,26L68,26L68,23Z" style="fill:rgb(97,188,124);fill-rule:nonzero;"/>
        <path d="M0,25L3,25L3,28L0,28L0,25ZM6,25L9,25L9,28L6,28L6,25Z" style="fill:rgb(97,188,124);fill-rule:nonzero;"/>
        <path d="M8,25L11,25L11,28L8,28L8,25ZM11,25L14,25L14,28L11,28L11,25ZM23,25L26,25L26,28L23,28L23,25ZM28,25L31,25L31,28L28,28L28,25ZM34,25L37,25L37,28L34,28L34,25ZM37,25L40,25L40,28L37,28L37,25ZM42,25L45,25L45,28L42,28L42,25ZM45,25L48,25L48,28L45,28L45,25ZM51,25L54,25L54,28L51,28L51,25ZM54,25L57,25L57,28L54,28L54,25ZM59,25L62,25L62,28L59,28L59,25ZM65,25L68,25L68,28L65,28L65,25ZM68,25L71,25L71,28L68,28L68,25ZM0,28L3,28L3,31L0,31L0,28ZM6,28L9,28L9,31L6,31L6,28ZM14,28L17,28L17,31L14,31L14,28ZM17,28L20,28L20,31L17,31L17,28ZM25,28L28,28L28,31L25,31L25,28ZM28,28L31,28L31,31L28,31L28,28ZM31,28L34,28L34,31L31,31L31,28ZM42,28L45,28L45,31L42,31L42,28ZM45,28L48,28L48,31L45,31L45,28ZM59,28L62,28L62,31L59,31L59,28ZM62,28L65,28L65,31L62,31L62,28ZM68,28L71,28L71,31L68,31L68,28ZM0,31L3,31L3,34L0,34L0,31ZM6,31L9,31L9,34L6,34L6,31Z" style="fill:rgb(97,188,124);fill-rule:nonzero;"/>
        <path d="M8,31L11,31L11,34L8,34L8,31ZM11,31L14,31L14,34L11,34L11,31ZM14,31L17,31L17,34L14,34L14,31ZM28,31L31,31L31,34L28,34L28,31ZM34,31L37,31L37,34L34,34L34,31ZM42,31L45,31L45,34L42,34L42,31ZM45,31L48,31L48,34L45,34L45,31ZM48,31L51,31L51,34L48,34L48,31ZM51,31L54,31L54,34L51,34L51,31ZM59,31L62,31L62,34L59,34L59,31ZM0,34L3,34L3,37L0,37L0,34ZM8,34L11,34L11,37L8,37L8,34ZM17,34L20,34L20,37L17,37L17,34ZM31,34L34,34L34,37L31,37L31,34ZM42,34L45,34L45,37L42,37L42,34ZM51,34L54,34L54,37L51,37L51,34ZM54,34L57,34L57,37L54,37L54,34ZM68,34L71,34L71,37L68,37L68,34ZM8,37L11,37L11,40L8,40L8,37ZM11,37L14,37L14,40L11,40L11,37ZM14,37L17,37L17,40L14,40L14,37ZM20,37L23,37L23,40L20,40L20,37ZM25,37L28,37L28,40L25,40L25,37ZM28,37L31,37L31,40L28,40L28,37ZM42,37L45,37L45,40L42,40L42,37ZM45,37L48,37L48,40L45,40L45,37ZM48,37L51,37L51,40L48,40L48,37ZM51,37L54,37L54,40L51,40L51,37ZM54,37L57,37L57,40L54,40L54,37ZM65,37L68,37L68,40L65,40L65,37ZM68,37L71,37L71,40L68,40L68,37ZM0,40L3,40L3,43L0,43L0,40ZM3,40L6,40L6,43L3,43L3,40ZM6,40L9,40L9,43L6,43L6,40Z" style="fill:rgb(97,188,124);fill-rule:nonzero;"/>
        <path d="M8,40L11,40L11,43L8,43L8,40ZM17,40L20,40L20,43L17,43L17,40ZM20,40L23,40L23,43L20,43L20,40ZM28,40L31,40L31,43L28,43L28,40ZM31,40L34,40L34,43L31,43L31,40ZM37,40L40,40L40,43L37,43L37,40ZM40,40L43,40L43,43L40,43L40,40Z" style="fill:rgb(97,188,124);fill-rule:nonzero;"/>
        <path d="M42,40L45,40L45,43L42,43L42,40ZM48,40L51,40L51,43L48,43L48,40ZM51,40L54,40L54,43L51,43L51,40ZM59,40L62,40L62,43L59,43L59,40ZM62,40L65,40L65,43L62,43L62,40ZM68,40L71,40L71,43L68,43L68,40ZM6,42L9,42L9,45L6,45L6,42ZM20,42L23,42L23,45L20,45L20,42ZM23,42L26,42L26,45L23,45L23,42Z" style="fill:rgb(97,188,124);fill-rule:nonzero;"/>
        <path d="M25,42L28,42L28,45L25,45L25,42ZM28,42L31,42L31,45L28,45L28,42ZM40,42L43,42L43,45L40,45L40,42ZM51,42L54,42L54,45L51,45L51,42ZM54,42L57,42L57,45L54,45L54,42ZM57,42L60,42L60,45L57,45L57,42Z" style="fill:rgb(97,188,124);fill-rule:nonzero;"/>
        <path d="M59,42L62,42L62,45L59,45L59,42ZM0,45L3,45L3,48L0,48L0,45ZM3,45L6,45L6,48L3,48L3,45ZM6,45L9,45L9,48L6,48L6,45ZM11,45L14,45L14,48L11,48L11,45ZM17,45L20,45L20,48L17,48L17,45ZM23,45L26,45L26,48L23,48L23,45ZM28,45L31,45L31,48L28,48L28,45ZM31,45L34,45L34,48L31,48L31,45ZM34,45L37,45L37,48L34,48L34,45ZM42,45L45,45L45,48L42,48L42,45ZM45,45L48,45L48,48L45,48L45,45ZM48,45L51,45L51,48L48,48L48,45ZM51,45L54,45L54,48L51,48L51,45ZM54,45L57,45L57,48L54,48L54,45ZM57,45L60,45L60,48L57,48L57,45ZM65,45L68,45L68,48L65,48L65,45ZM23,48L26,48L26,51L23,51L23,48Z" style="fill:rgb(97,188,124);fill-rule:nonzero;"/>
        <path d="M25,48L28,48L28,51L25,51L25,48ZM28,48L31,48L31,51L28,51L28,48ZM34,48L37,48L37,51L34,51L34,48ZM40,48L43,48L43,51L40,51L40,48ZM45,48L48,48L48,51L45,51L45,48ZM57,48L60,48L60,51L57,51L57,48ZM68,48L71,48L71,51L68,51L68,48ZM23,51L26,51L26,54L23,54L23,51Z" style="fill:rgb(97,188,124);fill-rule:nonzero;"/>
        <path d="M25,51L28,51L28,54L25,54L25,51ZM28,51L31,51L31,54L28,54L28,51ZM34,51L37,51L37,54L34,54L34,51ZM37,51L40,51L40,54L37,54L37,51ZM40,51L43,51L43,54L40,54L40,51ZM45,51L48,51L48,54L45,54L45,51ZM51,51L54,51L54,54L51,54L51,51ZM57,51L60,51L60,54L57,54L57,51ZM68,51L71,51L71,54L68,54L68,51ZM25,54L28,54L28,57L25,57L25,54ZM28,54L31,54L31,57L28,57L28,54ZM31,54L34,54L34,57L31,57L31,54ZM34,54L37,54L37,57L34,57L34,54ZM42,54L45,54L45,57L42,57L42,54ZM45,54L48,54L48,57L45,57L45,54ZM57,54L60,54L60,57L57,57L57,54ZM25,57L28,57L28,60L25,60L25,57ZM34,57L37,57L37,60L34,60L34,57ZM42,57L45,57L45,60L42,60L42,57ZM45,57L48,57L48,60L45,60L45,57ZM48,57L51,57L51,60L48,60L48,57ZM51,57L54,57L54,60L51,60L51,57ZM54,57L57,57L57,60L54,60L54,57ZM57,57L60,57L60,60L57,60L57,57ZM65,57L68,57L68,60L65,60L65,57Z" style="fill:rgb(97,188,124);fill-rule:nonzero;"/>
        <path d="M25,59L28,59L28,62L25,62L25,59ZM40,59L43,59L43,62L40,62L40,59ZM45,59L48,59L48,62L45,62L45,59ZM48,59L51,59L51,62L48,62L48,59ZM57,59L60,59L60,62L57,62L57,59ZM62,59L65,59L65,62L62,62L62,59ZM65,59L68,59L68,62L65,62L65,59ZM23,62L26,62L26,65L23,65L23,62ZM31,62L34,62L34,65L31,65L31,62ZM37,62L40,62L40,65L37,65L37,62ZM40,62L43,62L43,65L40,65L40,62ZM48,62L51,62L51,65L48,65L48,62ZM54,62L57,62L57,65L54,65L54,62ZM57,62L60,62L60,65L57,65L57,62Z" style="fill:rgb(97,188,124);fill-rule:nonzero;"/>
        <path d="M59,62L62,62L62,65L59,65L59,62ZM65,62L68,62L68,65L65,65L65,62ZM68,62L71,62L71,65L68,65L68,62ZM25,65L28,65L28,68L25,68L25,65ZM28,65L31,65L31,68L28,68L28,65ZM31,65L34,65L34,68L31,68L31,65ZM34,65L37,65L37,68L34,68L34,65ZM45,65L48,65L48,68L45,68L45,65ZM48,65L51,65L51,68L48,68L48,65ZM51,65L54,65L54,68L51,68L51,65ZM54,65L57,65L57,68L54,68L54,65ZM57,65L60,65L60,68L57,68L57,65ZM23,68L26,68L26,71L23,71L23,68ZM28,68L31,68L31,71L28,71L28,68ZM34,68L37,68L37,71L34,71L34,68ZM40,68L43,68L43,71L40,71L40,68ZM45,68L48,68L48,71L45,71L45,68ZM59,68L62,68L62,71L59,71L59,68ZM68,68L71,68L71,71L68,71L68,68Z" style="fill:rgb(97,188,124);fill-rule:nonzero;"/>
        <rect x="3" y="3" width="14" height="14" style="fill:none;"/>
        <path d="M17,0L0,0L0,20L20,20L20,0L17,0ZM17,17L3,17L3,3L17,3L17,17Z" style="fill:rgb(97,188,124);fill-rule:nonzero;"/>
        <rect x="54" y="3" width="14" height="14" style="fill:none;"/>
        <path d="M68,0L51,0L51,20L71,20L71,0L68,0ZM68,17L54,17L54,3L68,3L68,17Z" style="fill:rgb(97,188,124);fill-rule:nonzero;"/>
        <path d="M17,51L0,51L0,71L20,71L20,51L17,51ZM17,68L3,68L3,54L17,54L17,68ZM5,5L14,5L14,14L5,14L5,5ZM56,5L65,5L65,14L56,14L56,5Z" style="fill:rgb(97,188,124);fill-rule:nonzero;"/>
        <rect x="5" y="56" width="9" height="9" style="fill:rgb(97,188,124);fill-rule:nonzero;"/>
    </g>
</svg>
