<?xml version="1.0" encoding="UTF-8" standalone="no"?>
<!DOCTYPE svg PUBLIC "-//W3C//DTD SVG 1.1//EN" "http://www.w3.org/Graphics/SVG/1.1/DTD/svg11.dtd">
<svg width="100%" height="100%" viewBox="0 0 192 192" version="1.1" xmlns="http://www.w3.org/2000/svg" xmlns:xlink="http://www.w3.org/1999/xlink" xml:space="preserve" xmlns:serif="http://www.serif.com/" style="fill-rule:evenodd;clip-rule:evenodd;stroke-linejoin:round;stroke-miterlimit:2;">
    <g>
        <path d="M61.309,0L68.973,0L68.973,7.664L61.309,7.664L61.309,0ZM76.636,0L84.3,0L84.3,7.664L76.636,7.664L76.636,0ZM91.963,0L99.627,0L99.627,7.664L91.963,7.664L91.963,0ZM99.627,0L107.291,0L107.291,7.664L99.627,7.664L99.627,0ZM68.973,7.664L76.637,7.664L76.637,15.328L68.973,15.328L68.973,7.664Z" style="fill-rule:nonzero;"/>
        <path d="M76.636,7.664L84.3,7.664L84.3,15.328L76.636,15.328L76.636,7.664ZM84.3,7.664L91.964,7.664L91.964,15.328L84.3,15.328L84.3,7.664ZM107.291,7.664L114.955,7.664L114.955,15.328L107.291,15.328L107.291,7.664ZM61.309,15.327L68.973,15.327L68.973,22.991L61.309,22.991L61.309,15.327Z" style="fill-rule:nonzero;"/>
        <path d="M68.973,15.327L76.637,15.327L76.637,22.991L68.973,22.991L68.973,15.327ZM91.963,15.327L99.627,15.327L99.627,22.991L91.963,22.991L91.963,15.327ZM99.627,15.327L107.291,15.327L107.291,22.991L99.627,22.991L99.627,15.327ZM122.618,15.327L130.282,15.327L130.282,22.991L122.618,22.991L122.618,15.327ZM68.973,22.991L76.637,22.991L76.637,30.655L68.973,30.655L68.973,22.991ZM84.3,22.991L91.964,22.991L91.964,30.655L84.3,30.655L84.3,22.991Z" style="fill-rule:nonzero;"/>
        <path d="M91.963,22.991L99.627,22.991L99.627,30.655L91.963,30.655L91.963,22.991ZM99.627,22.991L107.291,22.991L107.291,30.655L99.627,30.655L99.627,22.991ZM107.291,22.991L114.955,22.991L114.955,30.655L107.291,30.655L107.291,22.991ZM122.618,22.991L130.282,22.991L130.282,30.655L122.618,30.655L122.618,22.991ZM76.636,30.654L84.3,30.654L84.3,38.318L76.636,38.318L76.636,30.654Z" style="fill-rule:nonzero;"/>
        <path d="M84.3,30.654L91.964,30.654L91.964,38.318L84.3,38.318L84.3,30.654ZM99.627,30.654L107.291,30.654L107.291,38.318L99.627,38.318L99.627,30.654ZM61.309,38.318L68.973,38.318L68.973,45.982L61.309,45.982L61.309,38.318ZM68.973,38.318L76.637,38.318L76.637,45.982L68.973,45.982L68.973,38.318ZM91.963,38.318L99.627,38.318L99.627,45.982L91.963,45.982L91.963,38.318ZM99.627,38.318L107.291,38.318L107.291,45.982L99.627,45.982L99.627,38.318ZM122.618,38.318L130.282,38.318L130.282,45.982L122.618,45.982L122.618,38.318ZM61.309,45.982L68.973,45.982L68.973,53.646L61.309,53.646L61.309,45.982ZM76.636,45.982L84.3,45.982L84.3,53.646L76.636,53.646L76.636,45.982ZM91.963,45.982L99.627,45.982L99.627,53.646L91.963,53.646L91.963,45.982ZM107.291,45.982L114.955,45.982L114.955,53.646L107.291,53.646L107.291,45.982ZM122.618,45.982L130.282,45.982L130.282,53.646L122.618,53.646L122.618,45.982Z" style="fill-rule:nonzero;"/>
        <path d="M84.3,53.645L91.964,53.645L91.964,61.309L84.3,61.309L84.3,53.645ZM107.291,53.645L114.955,53.645L114.955,61.309L107.291,61.309L107.291,53.645ZM0,61.309L7.664,61.309L7.664,68.973L0,68.973L0,61.309ZM15.327,61.309L22.991,61.309L22.991,68.973L15.327,68.973L15.327,61.309ZM45.982,61.309L53.646,61.309L53.646,68.973L45.982,68.973L45.982,61.309Z" style="fill-rule:nonzero;"/>
        <path d="M53.645,61.309L61.309,61.309L61.309,68.973L53.645,68.973L53.645,61.309ZM68.973,61.309L76.637,61.309L76.637,68.973L68.973,68.973L68.973,61.309Z" style="fill-rule:nonzero;"/>
        <path d="M76.636,61.309L84.3,61.309L84.3,68.973L76.636,68.973L76.636,61.309ZM84.3,61.309L91.964,61.309L91.964,68.973L84.3,68.973L84.3,61.309ZM107.291,61.309L114.955,61.309L114.955,68.973L107.291,68.973L107.291,61.309ZM122.618,61.309L130.282,61.309L130.282,68.973L122.618,68.973L122.618,61.309ZM145.609,61.309L153.273,61.309L153.273,68.973L145.609,68.973L145.609,61.309ZM168.6,61.309L176.264,61.309L176.264,68.973L168.6,68.973L168.6,61.309ZM183.927,61.309L191.591,61.309L191.591,68.973L183.927,68.973L183.927,61.309ZM0,68.973L7.664,68.973L7.664,76.637L0,76.637L0,68.973ZM15.327,68.973L22.991,68.973L22.991,76.637L15.327,76.637L15.327,68.973ZM22.991,68.973L30.655,68.973L30.655,76.637L22.991,76.637L22.991,68.973Z" style="fill-rule:nonzero;"/>
        <path d="M30.654,68.973L38.318,68.973L38.318,76.637L30.654,76.637L30.654,68.973ZM61.309,68.973L68.973,68.973L68.973,76.637L61.309,76.637L61.309,68.973ZM76.636,68.973L84.3,68.973L84.3,76.637L76.636,76.637L76.636,68.973ZM91.963,68.973L99.627,68.973L99.627,76.637L91.963,76.637L91.963,68.973ZM99.627,68.973L107.291,68.973L107.291,76.637L99.627,76.637L99.627,68.973ZM114.954,68.973L122.618,68.973L122.618,76.637L114.954,76.637L114.954,68.973ZM122.618,68.973L130.282,68.973L130.282,76.637L122.618,76.637L122.618,68.973ZM137.945,68.973L145.609,68.973L145.609,76.637L137.945,76.637L137.945,68.973ZM145.609,68.973L153.273,68.973L153.273,76.637L145.609,76.637L145.609,68.973ZM160.936,68.973L168.6,68.973L168.6,76.637L160.936,76.637L160.936,68.973ZM176.263,68.973L183.927,68.973L183.927,76.637L176.263,76.637L176.263,68.973ZM183.927,68.973L191.591,68.973L191.591,76.637L183.927,76.637L183.927,68.973ZM0,76.636L7.664,76.636L7.664,84.3L0,84.3L0,76.636ZM15.327,76.636L22.991,76.636L22.991,84.3L15.327,84.3L15.327,76.636ZM38.318,76.636L45.982,76.636L45.982,84.3L38.318,84.3L38.318,76.636ZM45.982,76.636L53.646,76.636L53.646,84.3L45.982,84.3L45.982,76.636Z" style="fill-rule:nonzero;"/>
        <rect x="68.973" y="76.636" width="7.664" height="7.664" style="fill-rule:nonzero;"/>
        <path d="M76.636,76.636L84.3,76.636L84.3,84.3L76.636,84.3L76.636,76.636ZM84.3,76.636L91.964,76.636L91.964,84.3L84.3,84.3L84.3,76.636ZM114.954,76.636L122.618,76.636L122.618,84.3L114.954,84.3L114.954,76.636ZM122.618,76.636L130.282,76.636L130.282,84.3L122.618,84.3L122.618,76.636ZM160.936,76.636L168.6,76.636L168.6,84.3L160.936,84.3L160.936,76.636ZM168.6,76.636L176.264,76.636L176.264,84.3L168.6,84.3L168.6,76.636ZM183.927,76.636L191.591,76.636L191.591,84.3L183.927,84.3L183.927,76.636ZM0,84.3L7.664,84.3L7.664,91.964L0,91.964L0,84.3ZM15.327,84.3L22.991,84.3L22.991,91.964L15.327,91.964L15.327,84.3ZM22.991,84.3L30.655,84.3L30.655,91.964L22.991,91.964L22.991,84.3Z" style="fill-rule:nonzero;"/>
        <path d="M30.654,84.3L38.318,84.3L38.318,91.964L30.654,91.964L30.654,84.3ZM38.318,84.3L45.982,84.3L45.982,91.964L38.318,91.964L38.318,84.3ZM76.636,84.3L84.3,84.3L84.3,91.964L76.636,91.964L76.636,84.3ZM91.963,84.3L99.627,84.3L99.627,91.964L91.963,91.964L91.963,84.3ZM114.954,84.3L122.618,84.3L122.618,91.964L114.954,91.964L114.954,84.3ZM122.618,84.3L130.282,84.3L130.282,91.964L122.618,91.964L122.618,84.3ZM130.282,84.3L137.946,84.3L137.946,91.964L130.282,91.964L130.282,84.3Z" style="fill-rule:nonzero;"/>
        <path d="M137.945,84.3L145.609,84.3L145.609,91.964L137.945,91.964L137.945,84.3ZM160.936,84.3L168.6,84.3L168.6,91.964L160.936,91.964L160.936,84.3ZM0,91.963L7.664,91.963L7.664,99.627L0,99.627L0,91.963ZM22.991,91.963L30.655,91.963L30.655,99.627L22.991,99.627L22.991,91.963ZM45.982,91.963L53.646,91.963L53.646,99.627L45.982,99.627L45.982,91.963ZM84.3,91.963L91.964,91.963L91.964,99.627L84.3,99.627L84.3,91.963ZM114.954,91.963L122.618,91.963L122.618,99.627L114.954,99.627L114.954,91.963Z" style="fill-rule:nonzero;"/>
        <path d="M137.945,91.963L145.609,91.963L145.609,99.627L137.945,99.627L137.945,91.963ZM145.609,91.963L153.273,91.963L153.273,99.627L145.609,99.627L145.609,91.963ZM183.927,91.963L191.591,91.963L191.591,99.627L183.927,99.627L183.927,91.963ZM22.991,99.627L30.655,99.627L30.655,107.291L22.991,107.291L22.991,99.627Z" style="fill-rule:nonzero;"/>
        <path d="M30.654,99.627L38.318,99.627L38.318,107.291L30.654,107.291L30.654,99.627ZM38.318,99.627L45.982,99.627L45.982,107.291L38.318,107.291L38.318,99.627ZM53.645,99.627L61.309,99.627L61.309,107.291L53.645,107.291L53.645,99.627ZM68.973,99.627L76.637,99.627L76.637,107.291L68.973,107.291L68.973,99.627Z" style="fill-rule:nonzero;"/>
        <path d="M76.636,99.627L84.3,99.627L84.3,107.291L76.636,107.291L76.636,99.627ZM114.954,99.627L122.618,99.627L122.618,107.291L114.954,107.291L114.954,99.627ZM122.618,99.627L130.282,99.627L130.282,107.291L122.618,107.291L122.618,99.627ZM130.282,99.627L137.946,99.627L137.946,107.291L130.282,107.291L130.282,99.627Z" style="fill-rule:nonzero;"/>
        <path d="M137.945,99.627L145.609,99.627L145.609,107.291L137.945,107.291L137.945,99.627ZM145.609,99.627L153.273,99.627L153.273,107.291L145.609,107.291L145.609,99.627ZM176.263,99.627L183.927,99.627L183.927,107.291L176.263,107.291L176.263,99.627ZM183.927,99.627L191.591,99.627L191.591,107.291L183.927,107.291L183.927,99.627ZM0,107.291L7.664,107.291L7.664,114.955L0,114.955L0,107.291ZM7.664,107.291L15.328,107.291L15.328,114.955L7.664,114.955L7.664,107.291Z" style="fill-rule:nonzero;"/>
        <path d="M15.327,107.291L22.991,107.291L22.991,114.955L15.327,114.955L15.327,107.291ZM22.991,107.291L30.655,107.291L30.655,114.955L22.991,114.955L22.991,107.291ZM45.982,107.291L53.646,107.291L53.646,114.955L45.982,114.955L45.982,107.291Z" style="fill-rule:nonzero;"/>
        <path d="M53.645,107.291L61.309,107.291L61.309,114.955L53.645,114.955L53.645,107.291ZM76.636,107.291L84.3,107.291L84.3,114.955L76.636,114.955L76.636,107.291ZM84.3,107.291L91.964,107.291L91.964,114.955L84.3,114.955L84.3,107.291ZM99.627,107.291L107.291,107.291L107.291,114.955L99.627,114.955L99.627,107.291ZM107.291,107.291L114.955,107.291L114.955,114.955L107.291,114.955L107.291,107.291Z" style="fill-rule:nonzero;"/>
        <path d="M114.954,107.291L122.618,107.291L122.618,114.955L114.954,114.955L114.954,107.291ZM130.282,107.291L137.946,107.291L137.946,114.955L130.282,114.955L130.282,107.291Z" style="fill-rule:nonzero;"/>
        <path d="M137.945,107.291L145.609,107.291L145.609,114.955L137.945,114.955L137.945,107.291ZM160.936,107.291L168.6,107.291L168.6,114.955L160.936,114.955L160.936,107.291ZM168.6,107.291L176.264,107.291L176.264,114.955L168.6,114.955L168.6,107.291ZM183.927,107.291L191.591,107.291L191.591,114.955L183.927,114.955L183.927,107.291ZM15.327,114.954L22.991,114.954L22.991,122.618L15.327,122.618L15.327,114.954ZM53.645,114.954L61.309,114.954L61.309,122.618L53.645,122.618L53.645,114.954Z" style="fill-rule:nonzero;"/>
        <path d="M61.309,114.954L68.973,114.954L68.973,122.618L61.309,122.618L61.309,114.954ZM68.973,114.954L76.637,114.954L76.637,122.618L68.973,122.618L68.973,114.954Z" style="fill-rule:nonzero;"/>
        <path d="M76.636,114.954L84.3,114.954L84.3,122.618L76.636,122.618L76.636,114.954ZM107.291,114.954L114.955,114.954L114.955,122.618L107.291,122.618L107.291,114.954ZM137.945,114.954L145.609,114.954L145.609,122.618L137.945,122.618L137.945,114.954ZM145.609,114.954L153.273,114.954L153.273,122.618L145.609,122.618L145.609,114.954Z" style="fill-rule:nonzero;"/>
        <path d="M153.272,114.954L160.936,114.954L160.936,122.618L153.272,122.618L153.272,114.954ZM160.936,114.954L168.6,114.954L168.6,122.618L160.936,122.618L160.936,114.954ZM0,122.618L7.664,122.618L7.664,130.282L0,130.282L0,122.618ZM7.664,122.618L15.328,122.618L15.328,130.282L7.664,130.282L7.664,122.618Z" style="fill-rule:nonzero;"/>
        <path d="M15.327,122.618L22.991,122.618L22.991,130.282L15.327,130.282L15.327,122.618ZM30.654,122.618L38.318,122.618L38.318,130.282L30.654,130.282L30.654,122.618ZM45.982,122.618L53.646,122.618L53.646,130.282L45.982,130.282L45.982,122.618ZM61.309,122.618L68.973,122.618L68.973,130.282L61.309,130.282L61.309,122.618ZM76.636,122.618L84.3,122.618L84.3,130.282L76.636,130.282L76.636,122.618ZM84.3,122.618L91.964,122.618L91.964,130.282L84.3,130.282L84.3,122.618Z" style="fill-rule:nonzero;"/>
        <path d="M91.963,122.618L99.627,122.618L99.627,130.282L91.963,130.282L91.963,122.618ZM114.954,122.618L122.618,122.618L122.618,130.282L114.954,130.282L114.954,122.618ZM122.618,122.618L130.282,122.618L130.282,130.282L122.618,130.282L122.618,122.618ZM130.282,122.618L137.946,122.618L137.946,130.282L130.282,130.282L130.282,122.618Z" style="fill-rule:nonzero;"/>
        <path d="M137.945,122.618L145.609,122.618L145.609,130.282L137.945,130.282L137.945,122.618ZM145.609,122.618L153.273,122.618L153.273,130.282L145.609,130.282L145.609,122.618Z" style="fill-rule:nonzero;"/>
        <path d="M153.272,122.618L160.936,122.618L160.936,130.282L153.272,130.282L153.272,122.618ZM176.263,122.618L183.927,122.618L183.927,130.282L176.263,130.282L176.263,122.618ZM61.309,130.282L68.973,130.282L68.973,137.946L61.309,137.946L61.309,130.282ZM68.973,130.282L76.637,130.282L76.637,137.946L68.973,137.946L68.973,130.282Z" style="fill-rule:nonzero;"/>
        <path d="M76.636,130.282L84.3,130.282L84.3,137.946L76.636,137.946L76.636,130.282ZM91.963,130.282L99.627,130.282L99.627,137.946L91.963,137.946L91.963,130.282ZM107.291,130.282L114.955,130.282L114.955,137.946L107.291,137.946L107.291,130.282ZM122.618,130.282L130.282,130.282L130.282,137.946L122.618,137.946L122.618,130.282ZM153.272,130.282L160.936,130.282L160.936,137.946L153.272,137.946L153.272,130.282ZM183.927,130.282L191.591,130.282L191.591,137.946L183.927,137.946L183.927,130.282ZM61.309,137.945L68.973,137.945L68.973,145.609L61.309,145.609L61.309,137.945Z" style="fill-rule:nonzero;"/>
        <rect x="68.973" y="137.945" width="7.664" height="7.664" style="fill-rule:nonzero;"/>
        <path d="M76.636,137.945L84.3,137.945L84.3,145.609L76.636,145.609L76.636,137.945ZM91.963,137.945L99.627,137.945L99.627,145.609L91.963,145.609L91.963,137.945ZM99.627,137.945L107.291,137.945L107.291,145.609L99.627,145.609L99.627,137.945ZM107.291,137.945L114.955,137.945L114.955,145.609L107.291,145.609L107.291,137.945ZM122.618,137.945L130.282,137.945L130.282,145.609L122.618,145.609L122.618,137.945ZM137.945,137.945L145.609,137.945L145.609,145.609L137.945,145.609L137.945,137.945ZM153.272,137.945L160.936,137.945L160.936,145.609L153.272,145.609L153.272,137.945ZM183.927,137.945L191.591,137.945L191.591,145.609L183.927,145.609L183.927,137.945ZM68.973,145.609L76.637,145.609L76.637,153.273L68.973,153.273L68.973,145.609Z" style="fill-rule:nonzero;"/>
        <path d="M76.636,145.609L84.3,145.609L84.3,153.273L76.636,153.273L76.636,145.609ZM84.3,145.609L91.964,145.609L91.964,153.273L84.3,153.273L84.3,145.609Z" style="fill-rule:nonzero;"/>
        <path d="M91.963,145.609L99.627,145.609L99.627,153.273L91.963,153.273L91.963,145.609ZM114.954,145.609L122.618,145.609L122.618,153.273L114.954,153.273L114.954,145.609ZM122.618,145.609L130.282,145.609L130.282,153.273L122.618,153.273L122.618,145.609ZM153.272,145.609L160.936,145.609L160.936,153.273L153.272,153.273L153.272,145.609ZM68.973,153.272L76.637,153.272L76.637,160.936L68.973,160.936L68.973,153.272Z" style="fill-rule:nonzero;"/>
        <path d="M91.963,153.272L99.627,153.272L99.627,160.936L91.963,160.936L91.963,153.272ZM114.954,153.272L122.618,153.272L122.618,160.936L114.954,160.936L114.954,153.272ZM122.618,153.272L130.282,153.272L130.282,160.936L122.618,160.936L122.618,153.272ZM130.282,153.272L137.946,153.272L137.946,160.936L130.282,160.936L130.282,153.272Z" style="fill-rule:nonzero;"/>
        <path d="M137.945,153.272L145.609,153.272L145.609,160.936L137.945,160.936L137.945,153.272ZM145.609,153.272L153.273,153.272L153.273,160.936L145.609,160.936L145.609,153.272Z" style="fill-rule:nonzero;"/>
        <path d="M153.272,153.272L160.936,153.272L160.936,160.936L153.272,160.936L153.272,153.272ZM176.263,153.272L183.927,153.272L183.927,160.936L176.263,160.936L176.263,153.272ZM68.973,160.936L76.637,160.936L76.637,168.6L68.973,168.6L68.973,160.936ZM107.291,160.936L114.955,160.936L114.955,168.6L107.291,168.6L107.291,160.936ZM122.618,160.936L130.282,160.936L130.282,168.6L122.618,168.6L122.618,160.936ZM130.282,160.936L137.946,160.936L137.946,168.6L130.282,168.6L130.282,160.936ZM153.272,160.936L160.936,160.936L160.936,168.6L153.272,168.6L153.272,160.936ZM168.6,160.936L176.264,160.936L176.264,168.6L168.6,168.6L168.6,160.936Z" style="fill-rule:nonzero;"/>
        <path d="M176.263,160.936L183.927,160.936L183.927,168.6L176.263,168.6L176.263,160.936ZM61.309,168.6L68.973,168.6L68.973,176.264L61.309,176.264L61.309,168.6ZM84.3,168.6L91.964,168.6L91.964,176.264L84.3,176.264L84.3,168.6ZM99.627,168.6L107.291,168.6L107.291,176.264L99.627,176.264L99.627,168.6ZM107.291,168.6L114.955,168.6L114.955,176.264L107.291,176.264L107.291,168.6ZM130.282,168.6L137.946,168.6L137.946,176.264L130.282,176.264L130.282,168.6ZM145.609,168.6L153.273,168.6L153.273,176.264L145.609,176.264L145.609,168.6Z" style="fill-rule:nonzero;"/>
        <path d="M153.272,168.6L160.936,168.6L160.936,176.264L153.272,176.264L153.272,168.6ZM160.936,168.6L168.6,168.6L168.6,176.264L160.936,176.264L160.936,168.6ZM176.263,168.6L183.927,168.6L183.927,176.264L176.263,176.264L176.263,168.6ZM183.927,168.6L191.591,168.6L191.591,176.264L183.927,176.264L183.927,168.6ZM68.973,176.263L76.637,176.263L76.637,183.927L68.973,183.927L68.973,176.263Z" style="fill-rule:nonzero;"/>
        <path d="M76.636,176.263L84.3,176.263L84.3,183.927L76.636,183.927L76.636,176.263ZM84.3,176.263L91.964,176.263L91.964,183.927L84.3,183.927L84.3,176.263Z" style="fill-rule:nonzero;"/>
        <path d="M91.963,176.263L99.627,176.263L99.627,183.927L91.963,183.927L91.963,176.263ZM122.618,176.263L130.282,176.263L130.282,183.927L122.618,183.927L122.618,176.263ZM130.282,176.263L137.946,176.263L137.946,183.927L130.282,183.927L130.282,176.263Z" style="fill-rule:nonzero;"/>
        <path d="M137.945,176.263L145.609,176.263L145.609,183.927L137.945,183.927L137.945,176.263ZM145.609,176.263L153.273,176.263L153.273,183.927L145.609,183.927L145.609,176.263Z" style="fill-rule:nonzero;"/>
        <path d="M153.272,176.263L160.936,176.263L160.936,183.927L153.272,183.927L153.272,176.263ZM61.309,183.927L68.973,183.927L68.973,191.591L61.309,191.591L61.309,183.927ZM76.636,183.927L84.3,183.927L84.3,191.591L76.636,191.591L76.636,183.927ZM91.963,183.927L99.627,183.927L99.627,191.591L91.963,191.591L91.963,183.927ZM107.291,183.927L114.955,183.927L114.955,191.591L107.291,191.591L107.291,183.927ZM122.618,183.927L130.282,183.927L130.282,191.591L122.618,191.591L122.618,183.927ZM160.936,183.927L168.6,183.927L168.6,191.591L160.936,191.591L160.936,183.927ZM183.927,183.927L191.591,183.927L191.591,191.591L183.927,191.591L183.927,183.927Z" style="fill-rule:nonzero;"/>
        <rect x="8.047" y="8.047" width="37.552" height="37.552" style="fill:none;"/>
        <path d="M45.599,0L0,0L0,53.645L53.645,53.645L53.645,0L45.6,0L45.599,0ZM45.599,45.599L8.047,45.599L8.047,8.047L45.599,8.047L45.599,45.599Z" style="fill-rule:nonzero;"/>
        <rect x="145.992" y="8.047" width="37.552" height="37.552" style="fill:none;"/>
        <path d="M183.544,0L137.945,0L137.945,53.645L191.591,53.645L191.591,0L183.544,0ZM183.544,45.599L145.992,45.599L145.992,8.047L183.544,8.047L183.544,45.599Z" style="fill-rule:nonzero;"/>
        <rect x="8.047" y="145.992" width="37.552" height="37.552" style="fill:none;"/>
        <path d="M45.599,137.945L0,137.945L0,191.591L53.645,191.591L53.645,137.945L45.6,137.945L45.599,137.945ZM45.599,183.544L8.047,183.544L8.047,145.992L45.599,145.992L45.599,183.544ZM15.327,15.327L38.318,15.327L38.318,38.318L15.327,38.318L15.327,15.327ZM153.272,15.327L176.263,15.327L176.263,38.318L153.272,38.318L153.272,15.327Z" style="fill-rule:nonzero;"/>
        <rect x="15.327" y="153.272" width="22.991" height="22.991" style="fill-rule:nonzero;"/>
    </g>
</svg>
