<?xml version="1.0" encoding="UTF-8" standalone="no"?><!DOCTYPE svg PUBLIC "-//W3C//DTD SVG 1.1//EN" "http://www.w3.org/Graphics/SVG/1.1/DTD/svg11.dtd"><svg width="100%" height="100%" viewBox="0 0 29 25" version="1.1" xmlns="http://www.w3.org/2000/svg" xmlns:xlink="http://www.w3.org/1999/xlink" xml:space="preserve" xmlns:serif="http://www.serif.com/" style="fill-rule:evenodd;clip-rule:evenodd;stroke-linecap:round;stroke-linejoin:round;stroke-miterlimit:1.5;"><g id="icon-hospital-1"><path d="M20.472,23.912l6.607,0l0,-12.494c0,-0.552 -0.448,-1 -1,-1c-1.146,0 -3.181,0 -5.607,0" style="fill:none;stroke:#4a4a4a;stroke-width:2px;"/><path d="M8.172,10.418l-5.606,0c-0.553,0 -1,0.448 -1,1c0,3.124 0,12.494 0,12.494l6.606,0" style="fill:none;stroke:#4a4a4a;stroke-width:2px;"/><g><path d="M13.322,3.73l0,5.987l2,0l0,-5.987l-2,0Z" style="fill:#4a4a4a;"/><path d="M17.316,5.723l0,2l-5.987,0l0,-2l5.987,0Z" style="fill:#4a4a4a;"/></g><g><path d="M5.552,13.392c0,-0.188 -0.153,-0.341 -0.342,-0.341l-0.682,0c-0.189,0 -0.342,0.153 -0.342,0.341l0,0.683c0,0.189 0.153,0.342 0.342,0.342l0.682,0c0.189,0 0.342,-0.153 0.342,-0.342l0,-0.683Z" style="fill:#4a4a4a;"/><path d="M5.552,16.123c0,-0.188 -0.153,-0.341 -0.342,-0.341l-0.682,0c-0.189,0 -0.342,0.153 -0.342,0.341l0,0.683c0,0.189 0.153,0.342 0.342,0.342l0.682,0c0.189,0 0.342,-0.153 0.342,-0.342l0,-0.683Z" style="fill:#4a4a4a;"/><path d="M5.552,18.854c0,-0.188 -0.153,-0.341 -0.342,-0.341l-0.682,0c-0.189,0 -0.342,0.153 -0.342,0.341l0,0.683c0,0.189 0.153,0.341 0.342,0.341l0.682,0c0.189,0 0.342,-0.152 0.342,-0.341l0,-0.683Z" style="fill:#4a4a4a;"/></g><g><path d="M24.458,13.392c0,-0.188 -0.153,-0.341 -0.341,-0.341l-0.683,0c-0.188,0 -0.341,0.153 -0.341,0.341l0,0.683c0,0.189 0.153,0.342 0.341,0.342l0.683,0c0.188,0 0.341,-0.153 0.341,-0.342l0,-0.683Z" style="fill:#4a4a4a;"/><path d="M24.458,16.123c0,-0.188 -0.153,-0.341 -0.341,-0.341l-0.683,0c-0.188,0 -0.341,0.153 -0.341,0.341l0,0.683c0,0.189 0.153,0.342 0.341,0.342l0.683,0c0.188,0 0.341,-0.153 0.341,-0.342l0,-0.683Z" style="fill:#4a4a4a;"/><path d="M24.458,18.854c0,-0.188 -0.153,-0.341 -0.341,-0.341l-0.683,0c-0.188,0 -0.341,0.153 -0.341,0.341l0,0.683c0,0.189 0.153,0.341 0.341,0.341l0.683,0c0.188,0 0.341,-0.152 0.341,-0.341l0,-0.683Z" style="fill:#4a4a4a;"/></g><g><path d="M17.77,11.195c0,-0.188 -0.153,-0.341 -0.342,-0.341l-0.682,0c-0.189,0 -0.342,0.153 -0.342,0.341l0,0.683c0,0.189 0.153,0.342 0.342,0.342l0.682,0c0.189,0 0.342,-0.153 0.342,-0.342l0,-0.683Z" style="fill:#4a4a4a;"/><path d="M17.77,13.926c0,-0.188 -0.153,-0.341 -0.342,-0.341l-0.682,0c-0.189,0 -0.342,0.153 -0.342,0.341l0,0.683c0,0.189 0.153,0.341 0.342,0.341l0.682,0c0.189,0 0.342,-0.152 0.342,-0.341l0,-0.683Z" style="fill:#4a4a4a;"/><path d="M17.77,16.657c0,-0.188 -0.153,-0.341 -0.342,-0.341l-0.682,0c-0.189,0 -0.342,0.153 -0.342,0.341l0,0.683c0,0.189 0.153,0.341 0.342,0.341l0.682,0c0.189,0 0.342,-0.152 0.342,-0.341l0,-0.683Z" style="fill:#4a4a4a;"/></g><g><path d="M15.067,11.195c0,-0.188 -0.153,-0.341 -0.341,-0.341l-0.683,0c-0.188,0 -0.341,0.153 -0.341,0.341l0,0.683c0,0.189 0.153,0.342 0.341,0.342l0.683,0c0.188,0 0.341,-0.153 0.341,-0.342l0,-0.683Z" style="fill:#4a4a4a;"/><path d="M15.067,13.926c0,-0.188 -0.153,-0.341 -0.341,-0.341l-0.683,0c-0.188,0 -0.341,0.153 -0.341,0.341l0,0.683c0,0.189 0.153,0.341 0.341,0.341l0.683,0c0.188,0 0.341,-0.152 0.341,-0.341l0,-0.683Z" style="fill:#4a4a4a;"/><path d="M15.067,16.657c0,-0.188 -0.153,-0.341 -0.341,-0.341l-0.683,0c-0.188,0 -0.341,0.153 -0.341,0.341l0,0.683c0,0.189 0.153,0.341 0.341,0.341l0.683,0c0.188,0 0.341,-0.152 0.341,-0.341l0,-0.683Z" style="fill:#4a4a4a;"/></g><g><path d="M12.365,11.195c0,-0.188 -0.153,-0.341 -0.341,-0.341l-0.683,0c-0.188,0 -0.341,0.153 -0.341,0.341l0,0.683c0,0.189 0.153,0.342 0.341,0.342l0.683,0c0.188,0 0.341,-0.153 0.341,-0.342l0,-0.683Z" style="fill:#4a4a4a;"/><path d="M12.365,13.926c0,-0.188 -0.153,-0.341 -0.341,-0.341l-0.683,0c-0.188,0 -0.341,0.153 -0.341,0.341l0,0.683c0,0.189 0.153,0.341 0.341,0.341l0.683,0c0.188,0 0.341,-0.152 0.341,-0.341l0,-0.683Z" style="fill:#4a4a4a;"/><path d="M12.365,16.657c0,-0.188 -0.153,-0.341 -0.341,-0.341l-0.683,0c-0.188,0 -0.341,0.153 -0.341,0.341l0,0.683c0,0.189 0.153,0.341 0.341,0.341l0.683,0c0.188,0 0.341,-0.152 0.341,-0.341l0,-0.683Z" style="fill:#4a4a4a;"/></g><path d="M19.472,1.768c0.265,0 0.52,0.105 0.707,0.292c0.188,0.188 0.293,0.442 0.293,0.708l0,21.144l-3.962,0l0,-3.68c0,-0.055 -0.009,-0.109 -0.027,-0.16c-0.048,-0.135 -0.155,-0.243 -0.289,-0.292c-0.051,-0.019 -0.105,-0.029 -0.159,-0.03l-3.425,0c-0.055,0.001 -0.109,0.011 -0.16,0.03c-0.133,0.049 -0.241,0.157 -0.288,0.292c-0.018,0.051 -0.027,0.105 -0.028,0.16l0,3.68l-3.962,0c0,0 0,-16.827 0,-21.144c0,-0.266 0.106,-0.52 0.293,-0.708c0.188,-0.187 0.442,-0.292 0.707,-0.292l10.3,0Z" style="fill:none;stroke:#4a4a4a;stroke-width:2px;"/></g></svg>