<?xml version="1.0" encoding="UTF-8" standalone="no"?><!DOCTYPE svg PUBLIC "-//W3C//DTD SVG 1.1//EN" "http://www.w3.org/Graphics/SVG/1.1/DTD/svg11.dtd"><svg width="100%" height="100%" viewBox="0 0 24 25" version="1.1" xmlns="http://www.w3.org/2000/svg" xmlns:xlink="http://www.w3.org/1999/xlink" xml:space="preserve" xmlns:serif="http://www.serif.com/" style="fill-rule:evenodd;clip-rule:evenodd;stroke-linecap:round;stroke-linejoin:round;stroke-miterlimit:1.5;"><g id="icon-salir-comida-2"><path d="M10.631,23.89l11.419,0l0,-14.393l-15.929,0l0,3.289" style="fill:none;stroke:#4a4a4a;stroke-width:2px;"/><rect x="9.248" y="1.747" width="9.673" height="3.572" style="fill:none;stroke:#4a4a4a;stroke-width:2px;"/><path d="M18.922,5.319l3.128,4.178" style="fill:none;stroke:#4a4a4a;stroke-width:2px;"/><path d="M9.248,5.319l-3.127,4.178" style="fill:none;stroke:#4a4a4a;stroke-width:2px;"/><path d="M18.922,5.319l-3.128,4.178" style="fill:none;stroke:#4a4a4a;stroke-width:2px;"/><path d="M15.794,23.89l0,-14.393" style="fill:none;stroke:#4a4a4a;stroke-width:2px;"/><path d="M2.851,23.89l0,-6.399c0,0 0.057,-0.716 -0.457,-0.879c-0.883,-0.28 -1.186,-1.415 -0.942,-2.31c0.243,-0.895 1.055,-1.516 1.982,-1.516l6.714,0c0.927,0 1.739,0.621 1.982,1.516c0.243,0.895 -0.059,2.03 -0.943,2.31c-0.514,0.163 -0.456,0.879 -0.456,0.879l0,6.399l-7.88,0Z" style="fill:none;stroke:#4a4a4a;stroke-width:2px;"/><circle cx="5.231" cy="15.763" r="0.378" style="fill:#4a4a4a;"/><circle cx="5.323" cy="21.216" r="0.378" style="fill:#4a4a4a;"/><circle cx="8.292" cy="15.385" r="0.378" style="fill:#4a4a4a;"/><circle cx="7.316" cy="17.319" r="0.378" style="fill:#4a4a4a;"/><circle cx="5.987" cy="19.074" r="0.378" style="fill:#4a4a4a;"/><circle cx="8.017" cy="20.196" r="0.378" style="fill:#4a4a4a;"/></g></svg>