<?xml version="1.0" encoding="UTF-8" standalone="no"?><!DOCTYPE svg PUBLIC "-//W3C//DTD SVG 1.1//EN" "http://www.w3.org/Graphics/SVG/1.1/DTD/svg11.dtd"><svg width="100%" height="100%" viewBox="0 0 25 25" version="1.1" xmlns="http://www.w3.org/2000/svg" xmlns:xlink="http://www.w3.org/1999/xlink" xml:space="preserve" xmlns:serif="http://www.serif.com/" style="fill-rule:evenodd;clip-rule:evenodd;stroke-linecap:round;stroke-linejoin:round;stroke-miterlimit:1.5;"><g id="icon-info"><path d="M14.193,19.277l-3.741,0c-0.282,0 -0.51,-0.228 -0.51,-0.51l0,-1.02c0,-0.282 0.228,-0.511 0.51,-0.511l0.51,0l0,-4.72l-0.51,0c-0.282,0 -0.51,-0.229 -0.51,-0.51l0,-1.021c0,-0.281 0.228,-0.51 0.51,-0.51l2.72,0c0.282,0 0.511,0.229 0.511,0.51l0,6.251l0.51,0c0.281,0 0.51,0.229 0.51,0.511l0,1.02c0,0.282 -0.229,0.51 -0.51,0.51Z" style="fill:#4a4a4a;"/><path d="M12.322,5.969c0.986,0 1.786,0.799 1.786,1.785c0,0.986 -0.8,1.786 -1.786,1.786c-0.986,0 -1.785,-0.8 -1.785,-1.786c0,-0.986 0.799,-1.785 1.785,-1.785Z" style="fill:#4a4a4a;"/><circle cx="12.322" cy="12.623" r="11.072" style="fill:none;stroke:#4a4a4a;stroke-width:2px;"/></g></svg>