<svg xmlns="http://www.w3.org/2000/svg" width="71" height="71" viewBox="0 0 71 71">
    <g fill="none" fill-rule="evenodd">
        <path fill="#C80F2E" fill-rule="nonzero" d="M22.999 0H25.999V3H22.999zM27.999 0H30.999V3H27.999zM33.999 0H36.999V3H33.999zM36.999 0H39.999V3H36.999zM24.999 3H27.999V6H24.999zM27.999 3H30.999V6H27.999zM30.999 3H33.998999999999995V6H30.999zM39.999 3H42.999V6H39.999zM22.999 6H25.999V9H22.999z" transform="translate(.001)"/>
        <path fill="#C80F2E" fill-rule="nonzero" d="M24.999 6H27.999V9H24.999zM33.999 6H36.999V9H33.999zM36.999 6H39.999V9H36.999zM44.999 6H47.999V9H44.999z" transform="translate(.001)"/>
        <path fill="#C80F2E" fill-rule="nonzero" d="M24.999 8H27.999V11H24.999zM30.999 8H33.998999999999995V11H30.999zM33.999 8H36.999V11H33.999zM36.999 8H39.999V11H36.999zM39.999 8H42.999V11H39.999zM44.999 8H47.999V11H44.999zM27.999 11H30.999V14H27.999zM30.999 11H33.998999999999995V14H30.999zM36.999 11H39.999V14H36.999zM22.999 14H25.999V17H22.999z" transform="translate(.001)"/>
        <path fill="#C80F2E" fill-rule="nonzero" d="M24.999 14H27.999V17H24.999zM33.999 14H36.999V17H33.999zM36.999 14H39.999V17H36.999zM44.999 14H47.999V17H44.999zM22.999 17H25.999V20H22.999zM27.999 17H30.999V20H27.999zM33.999 17H36.999V20H33.999zM39.999 17H42.999V20H39.999zM44.999 17H47.999V20H44.999zM30.999 20H33.998999999999995V23H30.999zM39.999 20H42.999V23H39.999zM-.001 23H2.999V26H-.001zM5.999 23H8.998999999999999V26H5.999zM16.999 23H19.999V26H16.999zM19.999 23H22.999V26H19.999zM24.999 23H27.999V26H24.999zM27.999 23H30.999V26H27.999zM30.999 23H33.998999999999995V26H30.999zM39.999 23H42.999V26H39.999zM44.999 23H47.999V26H44.999zM53.999 23H56.999V26H53.999zM61.999 23H64.999V26H61.999zM67.999 23H70.999V26H67.999z" transform="translate(.001)"/>
        <path fill="#C80F2E" fill-rule="nonzero" d="M-.001 25H2.999V28H-.001zM5.999 25H8.998999999999999V28H5.999z" transform="translate(.001)"/>
        <path fill="#C80F2E" fill-rule="nonzero" d="M7.999 25H10.998999999999999V28H7.999zM10.999 25H13.999V28H10.999zM22.999 25H25.999V28H22.999zM27.999 25H30.999V28H27.999zM33.999 25H36.999V28H33.999zM36.999 25H39.999V28H36.999zM41.999 25H44.999V28H41.999zM44.999 25H47.999V28H44.999zM50.999 25H53.999V28H50.999zM53.999 25H56.999V28H53.999zM58.999 25H61.999V28H58.999zM64.999 25H67.999V28H64.999zM67.999 25H70.999V28H67.999zM-.001 28H2.999V31H-.001zM5.999 28H8.998999999999999V31H5.999zM13.999 28H16.999000000000002V31H13.999z" transform="translate(.001)"/>
        <path fill="#C80F2E" fill-rule="nonzero" d="M16.999 28H19.999V31H16.999zM24.999 28H27.999V31H24.999zM27.999 28H30.999V31H27.999zM30.999 28H33.998999999999995V31H30.999zM41.999 28H44.999V31H41.999zM44.999 28H47.999V31H44.999zM58.999 28H61.999V31H58.999zM61.999 28H64.999V31H61.999zM67.999 28H70.999V31H67.999zM-.001 31H2.999V34H-.001zM5.999 31H8.998999999999999V34H5.999z" transform="translate(.001)"/>
        <path fill="#C80F2E" fill-rule="nonzero" d="M7.999 31H10.998999999999999V34H7.999zM10.999 31H13.999V34H10.999zM13.999 31H16.999000000000002V34H13.999zM27.999 31H30.999V34H27.999zM33.999 31H36.999V34H33.999zM41.999 31H44.999V34H41.999zM44.999 31H47.999V34H44.999zM47.999 31H50.999V34H47.999zM50.999 31H53.999V34H50.999zM58.999 31H61.999V34H58.999zM-.001 34H2.999V37H-.001zM7.999 34H10.998999999999999V37H7.999zM16.999 34H19.999V37H16.999zM30.999 34H33.998999999999995V37H30.999zM41.999 34H44.999V37H41.999zM50.999 34H53.999V37H50.999zM53.999 34H56.999V37H53.999zM67.999 34H70.999V37H67.999zM7.999 37H10.998999999999999V40H7.999zM10.999 37H13.999V40H10.999zM13.999 37H16.999000000000002V40H13.999zM19.999 37H22.999V40H19.999zM24.999 37H27.999V40H24.999zM27.999 37H30.999V40H27.999zM41.999 37H44.999V40H41.999zM44.999 37H47.999V40H44.999zM47.999 37H50.999V40H47.999zM50.999 37H53.999V40H50.999zM53.999 37H56.999V40H53.999zM64.999 37H67.999V40H64.999zM67.999 37H70.999V40H67.999zM-.001 40H2.999V43H-.001zM2.999 40H5.9990000000000006V43H2.999z" transform="translate(.001)"/>
        <path fill="#C80F2E" fill-rule="nonzero" d="M5.999 40H8.998999999999999V43H5.999z" transform="translate(.001)"/>
        <path fill="#C80F2E" fill-rule="nonzero" d="M7.999 40H10.998999999999999V43H7.999zM16.999 40H19.999V43H16.999zM19.999 40H22.999V43H19.999zM27.999 40H30.999V43H27.999zM30.999 40H33.998999999999995V43H30.999zM36.999 40H39.999V43H36.999zM39.999 40H42.999V43H39.999z" transform="translate(.001)"/>
        <path fill="#C80F2E" fill-rule="nonzero" d="M41.999 40H44.999V43H41.999zM47.999 40H50.999V43H47.999zM50.999 40H53.999V43H50.999zM58.999 40H61.999V43H58.999zM61.999 40H64.999V43H61.999zM67.999 40H70.999V43H67.999zM5.999 42H8.998999999999999V45H5.999zM19.999 42H22.999V45H19.999zM22.999 42H25.999V45H22.999z" transform="translate(.001)"/>
        <path fill="#C80F2E" fill-rule="nonzero" d="M24.999 42H27.999V45H24.999zM27.999 42H30.999V45H27.999zM39.999 42H42.999V45H39.999zM50.999 42H53.999V45H50.999zM53.999 42H56.999V45H53.999zM56.999 42H59.999V45H56.999z" transform="translate(.001)"/>
        <path fill="#C80F2E" fill-rule="nonzero" d="M58.999 42H61.999V45H58.999zM-.001 45H2.999V48H-.001zM2.999 45H5.9990000000000006V48H2.999z" transform="translate(.001)"/>
        <path fill="#C80F2E" fill-rule="nonzero" d="M5.999 45H8.998999999999999V48H5.999zM10.999 45H13.999V48H10.999zM16.999 45H19.999V48H16.999zM22.999 45H25.999V48H22.999zM27.999 45H30.999V48H27.999zM30.999 45H33.998999999999995V48H30.999zM33.999 45H36.999V48H33.999zM41.999 45H44.999V48H41.999zM44.999 45H47.999V48H44.999zM47.999 45H50.999V48H47.999zM50.999 45H53.999V48H50.999zM53.999 45H56.999V48H53.999zM56.999 45H59.999V48H56.999zM64.999 45H67.999V48H64.999zM22.999 48H25.999V51H22.999z" transform="translate(.001)"/>
        <path fill="#C80F2E" fill-rule="nonzero" d="M24.999 48H27.999V51H24.999zM27.999 48H30.999V51H27.999zM33.999 48H36.999V51H33.999zM39.999 48H42.999V51H39.999zM44.999 48H47.999V51H44.999zM56.999 48H59.999V51H56.999zM67.999 48H70.999V51H67.999zM22.999 51H25.999V54H22.999z" transform="translate(.001)"/>
        <path fill="#C80F2E" fill-rule="nonzero" d="M24.999 51H27.999V54H24.999zM27.999 51H30.999V54H27.999zM33.999 51H36.999V54H33.999zM36.999 51H39.999V54H36.999zM39.999 51H42.999V54H39.999zM44.999 51H47.999V54H44.999zM50.999 51H53.999V54H50.999zM56.999 51H59.999V54H56.999zM67.999 51H70.999V54H67.999zM24.999 54H27.999V57H24.999zM27.999 54H30.999V57H27.999zM30.999 54H33.998999999999995V57H30.999zM33.999 54H36.999V57H33.999zM41.999 54H44.999V57H41.999zM44.999 54H47.999V57H44.999zM56.999 54H59.999V57H56.999zM24.999 57H27.999V60H24.999zM33.999 57H36.999V60H33.999zM41.999 57H44.999V60H41.999zM44.999 57H47.999V60H44.999zM47.999 57H50.999V60H47.999zM50.999 57H53.999V60H50.999zM53.999 57H56.999V60H53.999zM56.999 57H59.999V60H56.999zM64.999 57H67.999V60H64.999z" transform="translate(.001)"/>
        <path fill="#C80F2E" fill-rule="nonzero" d="M24.999 59H27.999V62H24.999zM39.999 59H42.999V62H39.999zM44.999 59H47.999V62H44.999zM47.999 59H50.999V62H47.999zM56.999 59H59.999V62H56.999zM61.999 59H64.999V62H61.999zM64.999 59H67.999V62H64.999zM22.999 62H25.999V65H22.999zM30.999 62H33.998999999999995V65H30.999zM36.999 62H39.999V65H36.999zM39.999 62H42.999V65H39.999zM47.999 62H50.999V65H47.999zM53.999 62H56.999V65H53.999zM56.999 62H59.999V65H56.999z" transform="translate(.001)"/>
        <path fill="#C80F2E" fill-rule="nonzero" d="M58.999 62H61.999V65H58.999zM64.999 62H67.999V65H64.999zM67.999 62H70.999V65H67.999zM24.999 65H27.999V68H24.999zM27.999 65H30.999V68H27.999zM30.999 65H33.998999999999995V68H30.999zM33.999 65H36.999V68H33.999zM44.999 65H47.999V68H44.999zM47.999 65H50.999V68H47.999zM50.999 65H53.999V68H50.999zM53.999 65H56.999V68H53.999zM56.999 65H59.999V68H56.999zM22.999 68H25.999V71H22.999zM27.999 68H30.999V71H27.999zM33.999 68H36.999V71H33.999zM39.999 68H42.999V71H39.999zM44.999 68H47.999V71H44.999zM58.999 68H61.999V71H58.999zM67.999 68H70.999V71H67.999z" transform="translate(.001)"/>
        <path d="M2.999 3H16.999V17H2.999z" transform="translate(.001)"/>
        <path fill="#C80F2E" fill-rule="nonzero" d="M16.999 0h-17v20h20V0h-3zm0 17h-14V3h14v14z" transform="translate(.001)"/>
        <path d="M53.999 3H67.999V17H53.999z" transform="translate(.001)"/>
        <path fill="#C80F2E" fill-rule="nonzero" d="M67.999 0h-17v20h20V0h-3zm0 17h-14V3h14v14z" transform="translate(.001)"/>
        <path d="M2.999 54H16.999V68H2.999z" transform="translate(.001)"/>
        <path fill="#C80F2E" fill-rule="nonzero" d="M16.999 51h-17v20h20V51h-3zm0 17h-14V54h14v14zM4.999 5H13.998999999999999V14H4.999zM55.999 5H64.999V14H55.999z" transform="translate(.001)"/>
        <path fill="#C80F2E" fill-rule="nonzero" d="M4.999 56H13.998999999999999V65H4.999z" transform="translate(.001)"/>
    </g>
</svg>
