<?xml version="1.0" encoding="UTF-8"?>
<svg width="16px" height="18px" viewBox="0 0 16 18" version="1.1" xmlns="http://www.w3.org/2000/svg" xmlns:xlink="http://www.w3.org/1999/xlink">
    <!-- Generator: Sketch 64 (93537) - https://sketch.com -->
    <title>Group 7</title>
    <desc>Created with Sketch.</desc>
    <g id="Page-1" stroke="none" stroke-width="1" fill="none" fill-rule="evenodd">
        <g id="01.01.02.-Home---Identificado---No-bluetooth" transform="translate(-16.000000, -592.000000)" fill-rule="nonzero">
            <g id="Group-7" transform="translate(16.000000, 592.000000)">
                <g id="Shape-2" fill="#000000">
                    <path d="M5.08577892,7.61786133 L7.84266921,4.59052734 L3.49773796,0 L3.49773796,6.04482422 L0.934758021,3.52204102 L0,4.44210938 L3.21629264,7.61786133 L0,10.7936133 L0.934758021,11.7136816 L3.49773796,9.19089844 L3.57854634,15 L8,10.6451953 L5.08577892,7.61786133 Z M6.30192273,4.60040039 L4.81442348,6.06459961 L4.80436335,3.12626953 L6.30192273,4.60040039 Z M4.81442348,9.17109375 L6.30192273,10.635293 L4.80436335,12.1093945 L4.81442348,9.17109375 L4.81442348,9.17109375 Z" id="Shape"></path>
                </g>
                <g id="times" transform="translate(8.000000, 10.000000)" fill="#C80F2E">
                    <path d="M4.8485,4 L7.4125,1.436 L7.94125,0.90725 C8.01925,0.82925 8.01925,0.7025 7.94125,0.6245 L7.3755,0.05875 C7.2975,-0.01925 7.17075,-0.01925 7.09275,0.05875 L4,3.1515 L0.90725,0.0585 C0.82925,-0.0195 0.7025,-0.0195 0.6245,0.0585 L0.0585,0.62425 C-0.0195,0.70225 -0.0195,0.829 0.0585,0.907 L3.1515,4 L0.0585,7.09275 C-0.0195,7.17075 -0.0195,7.2975 0.0585,7.3755 L0.62425,7.94125 C0.70225,8.01925 0.829,8.01925 0.907,7.94125 L4,4.8485 L6.564,7.4125 L7.09275,7.94125 C7.17075,8.01925 7.2975,8.01925 7.3755,7.94125 L7.94125,7.3755 C8.01925,7.2975 8.01925,7.17075 7.94125,7.09275 L4.8485,4 Z" id="Path"></path>
                </g>
            </g>
        </g>
    </g>
</svg>