<?xml version="1.0" encoding="UTF-8" standalone="no"?><!DOCTYPE svg PUBLIC "-//W3C//DTD SVG 1.1//EN" "http://www.w3.org/Graphics/SVG/1.1/DTD/svg11.dtd"><svg width="100%" height="100%" viewBox="0 0 253 253" version="1.1" xmlns="http://www.w3.org/2000/svg" xmlns:xlink="http://www.w3.org/1999/xlink" xml:space="preserve" xmlns:serif="http://www.serif.com/" style="fill-rule:evenodd;clip-rule:evenodd;stroke-miterlimit:1.5;"><g id="icon-seguimiento"><circle cx="126.555" cy="126.503" r="126.055" style="fill:#e8f0dd;"/><path d="M216.14,63.431c0,-2.547 -1.915,-4.687 -4.447,-4.969c-56.757,-6.246 -113.513,-6.181 -170.27,0.005c-2.534,0.279 -4.452,2.42 -4.452,4.969c0,20.574 0,106.013 0,126.716c0,2.576 1.956,4.73 4.519,4.977c56.711,5.417 113.422,5.445 170.133,0.002c2.562,-0.249 4.516,-2.402 4.516,-4.976c0.001,-20.701 0.001,-106.158 0.001,-126.724Z" style="fill:#f0e4da;stroke:#dfc6b0;stroke-width:2px;"/><path d="M182.656,78.375c0,-2.538 -1.9,-4.672 -4.42,-4.967c-38.049,-4.369 -76.099,-4.324 -114.148,0.006c-2.522,0.292 -4.424,2.427 -4.424,4.966c-0.001,16.483 -0.001,74.04 -0.001,90.631c0,2.566 1.942,4.716 4.495,4.975c38.002,3.787 76.003,3.806 114.005,0.001c2.551,-0.26 4.492,-2.409 4.492,-4.973c0.001,-16.59 0.001,-74.162 0.001,-90.639Z" style="fill:#1a3d43;stroke:#dfc6b0;stroke-width:3px;"/><ellipse cx="72.468" cy="186.674" rx="7.536" ry="6.399" style="fill:#dfc6b0;"/><ellipse cx="174.582" cy="186.674" rx="7.536" ry="6.399" style="fill:#dfc6b0;"/><circle cx="71.331" cy="186.674" r="6.399" style="fill:#f63264;"/><circle cx="173.283" cy="186.674" r="6.399" style="fill:#06ce96;"/><path d="M139.692,187.819c0,-1.113 -0.904,-2.016 -2.017,-2.016l-26.418,0c-1.113,0 -2.016,0.903 -2.016,2.016c0,1.113 0.903,2.017 2.016,2.017l26.418,0c1.113,0 2.017,-0.904 2.017,-2.017Z" style="fill:#dfc6b0;"/><path d="M83.088,132.7l6.878,-16.335l2.6,18.471l7.084,-26.645l2.151,39.149l5.593,-24.092l8.503,13l2.794,-14.076l4.365,8.604l4.986,-9.034l2.581,8.388l4.302,-17.637l4.382,14.196l7.2,-20.548l4.29,34.787l4.346,-24.563l6.238,13.765l4.463,-6.022" style="fill:none;stroke:#9cd56a;stroke-width:3px;stroke-linecap:round;stroke-linejoin:round;"/><path d="M80.154,86.453c1.618,-2.767 4.854,-2.767 6.473,-1.384c1.618,1.384 1.618,4.151 0,6.919c-1.133,2.075 -4.046,4.151 -6.473,5.534c-2.427,-1.383 -5.339,-3.459 -6.472,-5.534c-1.618,-2.768 -1.618,-5.535 0,-6.919c1.618,-1.383 4.854,-1.383 6.472,1.384Z" style="fill:#b20000;"/><path d="M209.745,79.226c0,-2.754 -2.236,-4.99 -4.99,-4.99l-9.98,0c-2.755,0 -4.991,2.236 -4.991,4.99l0,89.391c0,2.754 2.236,4.99 4.991,4.99l9.98,0c2.754,0 4.99,-2.236 4.99,-4.99l0,-89.391Z" style="fill:#dfc6b0;"/><path d="M43.854,74.128c0,-0.534 -0.434,-0.967 -0.968,-0.967l-1.936,0c-0.534,0 -0.968,0.433 -0.968,0.967l0,104.749c0,0.534 0.434,0.968 0.968,0.968l1.936,0c0.534,0 0.968,-0.434 0.968,-0.968l0,-104.749Z" style="fill:#f6f0ea;"/><path d="M206.189,86.741c0,-1.131 -0.919,-2.05 -2.05,-2.05l-8.3,0c-1.132,0 -2.05,0.919 -2.05,2.05l0,4.1c0,1.132 0.918,2.05 2.05,2.05l8.3,0c1.131,0 2.05,-0.918 2.05,-2.05l0,-4.1Z" style="fill:#f0e4da;"/><path d="M206.189,104.091c0,-1.131 -0.919,-2.05 -2.05,-2.05l-8.3,0c-1.132,0 -2.05,0.919 -2.05,2.05l0,4.1c0,1.132 0.918,2.05 2.05,2.05l8.3,0c1.131,0 2.05,-0.918 2.05,-2.05l0,-4.1Z" style="fill:#f0e4da;"/><path d="M206.189,121.441c0,-1.131 -0.919,-2.05 -2.05,-2.05l-8.3,0c-1.132,0 -2.05,0.919 -2.05,2.05l0,4.1c0,1.132 0.918,2.05 2.05,2.05l8.3,0c1.131,0 2.05,-0.918 2.05,-2.05l0,-4.1Z" style="fill:#f0e4da;"/><path d="M206.189,138.791c0,-1.131 -0.919,-2.05 -2.05,-2.05l-8.3,0c-1.132,0 -2.05,0.919 -2.05,2.05l0,4.1c0,1.132 0.918,2.05 2.05,2.05l8.3,0c1.131,0 2.05,-0.918 2.05,-2.05l0,-4.1Z" style="fill:#f0e4da;"/><path d="M206.189,156.141c0,-1.131 -0.919,-2.05 -2.05,-2.05l-8.3,0c-1.132,0 -2.05,0.919 -2.05,2.05l0,4.1c0,1.132 0.918,2.05 2.05,2.05l8.3,0c1.131,0 2.05,-0.918 2.05,-2.05l0,-4.1Z" style="fill:#f0e4da;"/><path d="M102.649,89.39c0,-1.113 -0.903,-2.017 -2.016,-2.017l-7.286,0c-1.113,0 -2.017,0.904 -2.017,2.017c0,1.113 0.904,2.016 2.017,2.016l7.286,0c1.113,0 2.016,-0.903 2.016,-2.016Z" style="fill:#0b7cb4;"/><path d="M173.399,89.39c0,-1.113 -0.903,-2.017 -2.016,-2.017l-7.286,0c-1.113,0 -2.017,0.904 -2.017,2.017c0,1.113 0.904,2.016 2.017,2.016l7.286,0c1.113,0 2.016,-0.903 2.016,-2.016Z" style="fill:#0b7cb4;"/><path d="M173.399,157.433c0,-0.814 -0.66,-1.474 -1.473,-1.474l-92.722,0c-0.814,0 -1.474,0.66 -1.474,1.474c0,0.813 0.66,1.473 1.474,1.473l92.722,0c0.813,0 1.473,-0.66 1.473,-1.473Z" style="fill:#0b7cb4;"/><path d="M107.757,163.433c0,-0.814 -0.66,-1.474 -1.473,-1.474l-27.08,0c-0.814,0 -1.474,0.66 -1.474,1.474c0,0.813 0.66,1.473 1.474,1.473l27.08,0c0.813,0 1.473,-0.66 1.473,-1.473Z" style="fill:#0b7cb4;"/></g></svg>