<?xml version="1.0" encoding="UTF-8" standalone="no"?>
<!DOCTYPE svg PUBLIC "-//W3C//DTD SVG 1.1//EN" "http://www.w3.org/Graphics/SVG/1.1/DTD/svg11.dtd">
<svg width="100%" height="100%" viewBox="0 0 24 25" version="1.1" xmlns="http://www.w3.org/2000/svg" xmlns:xlink="http://www.w3.org/1999/xlink" xml:space="preserve" xmlns:serif="http://www.serif.com/" style="fill-rule:evenodd;clip-rule:evenodd;stroke-linecap:round;stroke-linejoin:round;stroke-miterlimit:1.5;">
    <rect id="Artboard1" x="0" y="0" width="24" height="25" style="fill:none;"/>
    <g id="Artboard11" serif:id="Artboard1">
        <g transform="matrix(0.917287,0,0,0.914212,0.8634,0.998246)">
            <g id="icon-salir-comida-2">
                <g>
                    <g transform="matrix(1,0,0,1,1.5943,-0.237449)">
                        <path d="M7.642,15.356L7.642,17.585C7.642,18.446 7.769,18.981 5.557,19.352C3.345,19.723 1.114,20.039 1.114,23.89" style="fill:none;stroke:rgb(74,74,74);stroke-width:2px;"/>
                    </g>
                    <g transform="matrix(1,0,0,1,1.5943,-0.237449)">
                        <path d="M13.451,15.356L13.451,17.585C13.451,18.446 13.324,18.981 15.536,19.352C17.748,19.723 19.979,20.039 19.979,23.89" style="fill:none;stroke:rgb(74,74,74);stroke-width:2px;"/>
                    </g>
                    <g transform="matrix(1,0,0,1,1.5943,-0.237449)">
                        <path d="M10.605,1.747L10.684,1.747C10.711,1.747 10.738,1.748 10.763,1.75C14.954,1.879 15.41,5.428 15.41,7.683C15.41,7.683 15.83,7.877 16.141,8.022C16.339,8.114 16.461,8.318 16.447,8.536C16.417,9.006 16.366,9.814 16.34,10.235C16.329,10.41 16.253,10.576 16.127,10.699C15.859,10.961 15.41,11.399 15.41,11.399L15.41,12.852C15.41,13.546 14.727,14.894 13.395,15.429C12.57,15.76 12.264,16.25 10.769,16.298C10.741,16.301 10.713,16.302 10.684,16.302L10.525,16.302C10.497,16.302 10.468,16.301 10.441,16.298C8.946,16.25 8.64,15.76 7.814,15.429C6.483,14.894 5.8,13.546 5.8,12.852L5.8,11.399C5.8,11.399 5.351,10.961 5.082,10.699C4.957,10.576 4.881,10.41 4.87,10.235C4.843,9.814 4.792,9.006 4.762,8.536C4.749,8.318 4.87,8.114 5.069,8.022C5.38,7.877 5.8,7.683 5.8,7.683C5.8,5.428 6.256,1.879 10.446,1.75C10.472,1.748 10.498,1.747 10.525,1.747L10.605,1.747Z" style="fill:none;stroke:rgb(74,74,74);stroke-width:2px;"/>
                    </g>
                </g>
            </g>
        </g>
    </g>
</svg>
