<?xml version="1.0" encoding="UTF-8" standalone="no"?><!DOCTYPE svg PUBLIC "-//W3C//DTD SVG 1.1//EN" "http://www.w3.org/Graphics/SVG/1.1/DTD/svg11.dtd"><svg width="100%" height="100%" viewBox="0 0 34 34" version="1.1" xmlns="http://www.w3.org/2000/svg" xmlns:xlink="http://www.w3.org/1999/xlink" xml:space="preserve" xmlns:serif="http://www.serif.com/" style="fill-rule:evenodd;clip-rule:evenodd;stroke-linejoin:round;stroke-miterlimit:2;"><rect id="icon-seguimiento-black" x="0" y="0" width="34" height="34" style="fill:none;"/><path d="M30.727,7.787c0,-1.523 -1.231,-2.755 -2.742,-2.755l-21.97,0c-1.511,0 -2.742,1.232 -2.742,2.755c0,0 0,18.426 0,18.426c0,1.523 1.231,2.755 2.742,2.755l21.97,0c1.511,0 2.742,-1.232 2.742,-2.755c0,0 0,-18.426 0,-18.426Zm-2,0l0,18.426c0,0.415 -0.331,0.755 -0.742,0.755c0,0 -21.97,0 -21.97,0c-0.411,0 -0.742,-0.34 -0.742,-0.755l0,-18.426c0,-0.415 0.331,-0.755 0.742,-0.755c0,0 21.97,0 21.97,0c0.411,0 0.742,0.34 0.742,0.755Zm-21.413,18.14l1.226,0c0.552,0 1,-0.448 1,-1c0,-0.552 -0.448,-1 -1,-1l-1.226,0c-0.552,0 -1,0.448 -1,1c0,0.552 0.448,1 1,1Zm13.878,0l1.227,0c0.552,0 1,-0.448 1,-1c0,-0.552 -0.448,-1 -1,-1l-1.227,0c-0.552,0 -1,0.448 -1,1c0,0.552 0.448,1 1,1Zm4.268,-3.041l1.226,0c0.552,0 1,-0.448 1,-1c0,-0.552 -0.448,-1 -1,-1l-1.226,0c-0.552,0 -1,0.448 -1,1c0,0.552 0.448,1 1,1Zm-2.041,-13.836c0,-0.552 -0.448,-1 -1,-1l-15.105,0c-0.552,0 -1,0.448 -1,1l0,12.836c0,0.552 0.448,1 1,1l15.105,0c0.552,0 1,-0.448 1,-1l0,-12.836Zm-2,9.046l-2.017,-1.244l-2.028,2.67c-0.224,0.294 -0.592,0.441 -0.957,0.382c-0.365,-0.06 -0.667,-0.316 -0.786,-0.666l-1.128,-3.319l-1.152,3.325c-0.129,0.374 -0.468,0.637 -0.862,0.669c-0.395,0.033 -0.772,-0.17 -0.961,-0.518l-1.464,-2.69l-1.75,1.329l0,2.852l13.105,0l0,-2.79Zm4.041,0.512l1.226,0c0.552,0 1,-0.449 1,-1c0,-0.552 -0.448,-1 -1,-1l-1.226,0c-0.552,0 -1,0.448 -1,1c0,0.551 0.448,1 1,1Zm-4.041,-2.862l0,-5.696l-13.105,0l0,5.473l1.466,-1.115c0.233,-0.176 0.53,-0.242 0.815,-0.181c0.285,0.061 0.529,0.243 0.669,0.499l0.938,1.725l1.366,-3.942c0.139,-0.403 0.52,-0.674 0.948,-0.672c0.427,0.001 0.806,0.273 0.943,0.678l1.46,4.299l1.439,-1.894c0.312,-0.41 0.883,-0.517 1.322,-0.246l1.739,1.072Zm4.041,-1.417l1.226,0c0.552,0 1,-0.448 1,-1c0,-0.552 -0.448,-1 -1,-1l-1.226,0c-0.552,0 -1,0.448 -1,1c0,0.552 0.448,1 1,1Zm-15.393,-1.466l1.226,0c0.552,0 1,-0.448 1,-1c0,-0.552 -0.448,-1 -1,-1l-1.226,0c-0.552,0 -1,0.448 -1,1c0,0.552 0.448,1 1,1Zm15.393,-2.813l1.226,0c0.552,0 1,-0.448 1,-1c0,-0.552 -0.448,-1 -1,-1l-1.226,0c-0.552,0 -1,0.448 -1,1c0,0.552 0.448,1 1,1Z" style="fill:#4a4a4a;"/></svg>