<?xml version="1.0" encoding="UTF-8"?>
<svg width="28px" height="32px" viewBox="0 0 28 32" version="1.1" xmlns="http://www.w3.org/2000/svg" xmlns:xlink="http://www.w3.org/1999/xlink">
    <!-- Generator: Sketch 64 (93537) - https://sketch.com -->
    <title>Shape</title>
    <desc>Created with Sketch.</desc>
    <g id="Ciudadano-v2" stroke="none" stroke-width="1" fill="none" fill-rule="evenodd">
        <g id="09.04.01.-Notificaciones" transform="translate(-32.000000, -168.000000)" fill="#000000" fill-rule="nonzero">
            <path d="M58.7305386,190.60696 C57.5720272,189.357515 55.4043155,187.477932 55.4043155,181.320988 C55.4043155,176.644599 52.1374571,172.90108 47.7324751,171.982654 L47.7324751,170.728395 C47.7324751,169.664923 46.8737854,168.802469 45.8148148,168.802469 C44.7558442,168.802469 43.8971545,169.664923 43.8971545,170.728395 L43.8971545,171.982654 C39.4921725,172.90108 36.2253141,176.644599 36.2253141,181.320988 C36.2253141,187.477932 34.0576025,189.357515 32.899091,190.60696 C32.5393048,190.995154 32.3797996,191.459182 32.3827564,191.91358 C32.3893939,192.900617 33.1611353,193.839506 34.3076538,193.839506 L57.3219758,193.839506 C58.4684944,193.839506 59.2408354,192.900617 59.2468732,191.91358 C59.24983,191.459182 59.0903248,190.994552 58.7305386,190.60696 L58.7305386,190.60696 Z M36.4321912,190.950617 C37.7046349,189.267238 39.0958081,186.477052 39.1024042,181.355895 C39.1024042,181.343858 39.0988063,181.333025 39.0988063,181.320988 C39.0988063,177.597932 42.1054194,174.580247 45.8148148,174.580247 C49.5242102,174.580247 52.5308233,177.597932 52.5308233,181.320988 C52.5308233,181.333025 52.5272254,181.343858 52.5272254,181.355895 C52.5338215,186.477654 53.9249947,189.26784 55.1974385,190.950617 L36.4321912,190.950617 Z M45.8148148,199.617284 C47.9327561,199.617284 49.650735,197.892978 49.650735,195.765432 L41.9788946,195.765432 C41.9788946,197.892978 43.6968736,199.617284 45.8148148,199.617284 Z" id="Shape"></path>
        </g>
    </g>
</svg>