<?xml version="1.0" encoding="UTF-8" standalone="no"?><!DOCTYPE svg PUBLIC "-//W3C//DTD SVG 1.1//EN" "http://www.w3.org/Graphics/SVG/1.1/DTD/svg11.dtd"><svg width="100%" height="100%" viewBox="0 0 50 40" version="1.1" xmlns="http://www.w3.org/2000/svg" xmlns:xlink="http://www.w3.org/1999/xlink" xml:space="preserve" xmlns:serif="http://www.serif.com/" style="fill-rule:evenodd;clip-rule:evenodd;stroke-linejoin:round;stroke-miterlimit:2;"><rect id="icon-resultados" x="0" y="0" width="50" height="40" style="fill:none;"/><g><path d="M20.479,5.884c1.412,0.234 2.87,0.195 4.261,-0.115c1.062,-0.235 2.442,-0.542 3.95,-0.877c2.893,-0.643 5.981,-0.101 8.315,1.458c2.334,1.56 3.635,3.951 3.502,6.438c-0.047,0.888 -0.086,1.618 -0.11,2.067c-0.018,0.328 -0.01,0.657 0.022,0.984c0.179,1.817 0.823,8.354 1.403,14.249c0.242,2.461 -0.929,4.872 -3.158,6.504c-2.23,1.631 -5.255,2.291 -8.161,1.778c-4.803,-0.847 -9.63,-1.698 -11.633,-2.051c-0.64,-0.113 -1.293,-0.17 -1.948,-0.17c-0.881,-0.001 -2.277,-0.001 -3.872,-0.001c-2.778,-0.001 -5.413,-1.023 -7.199,-2.792c-1.785,-1.77 -2.538,-4.105 -2.056,-6.38c0.721,-3.4 1.451,-6.845 1.814,-8.56c0.149,-0.702 -0.106,-1.422 -0.689,-1.945c-0.001,-0.001 -0.002,-0.002 -0.004,-0.003c-2.526,-2.268 -3.008,-5.631 -1.193,-8.328c1.815,-2.698 5.513,-4.116 9.16,-3.513c3.128,0.518 5.835,0.966 7.596,1.257Z" style="fill:#fff1f0;"/><path d="M25.994,34.116c1.412,-0.234 2.871,-0.195 4.262,0.115c1.061,0.235 2.441,0.542 3.949,0.877c2.893,0.643 5.981,0.101 8.315,-1.458c2.334,-1.56 3.635,-3.951 3.503,-6.438c-0.048,-0.888 -0.087,-1.618 -0.111,-2.067c-0.017,-0.328 -0.01,-0.657 0.022,-0.984c0.179,-1.817 0.823,-8.354 1.404,-14.249c0.242,-2.461 -0.929,-4.872 -3.159,-6.504c-2.229,-1.631 -5.255,-2.291 -8.16,-1.778c-4.803,0.847 -9.63,1.698 -11.633,2.051c-0.641,0.113 -1.293,0.17 -1.948,0.17c-0.881,0.001 -2.277,0.001 -3.873,0.001c-2.777,0.001 -5.413,1.023 -7.198,2.792c-1.785,1.77 -2.538,4.105 -2.056,6.38c0.72,3.4 1.45,6.845 1.814,8.56c0.149,0.702 -0.106,1.422 -0.689,1.945c-0.002,0.001 -0.003,0.002 -0.004,0.003c-2.527,2.268 -3.009,5.631 -1.194,8.328c1.815,2.698 5.514,4.116 9.16,3.513c3.128,-0.518 5.835,-0.966 7.596,-1.257Z" style="fill:#ffe7e5;"/></g><path d="M21.54,13.864l0,-0.861c0,-0.071 -0.046,-0.134 -0.113,-0.156c-0.083,-0.028 -0.166,-0.056 -0.245,-0.082c-0.738,-0.246 -1.236,-0.937 -1.236,-1.715c0,0 0,-0.001 0,-0.001c0,-0.815 0.324,-1.597 0.9,-2.173c0.576,-0.576 1.358,-0.9 2.173,-0.9c0.496,0 1.025,0 1.521,0c0.815,0 1.596,0.324 2.173,0.9c0.576,0.576 0.9,1.358 0.9,2.173c0,0 0,0.001 0,0.001c0,0.778 -0.498,1.469 -1.236,1.715c-0.08,0.026 -0.163,0.054 -0.246,0.082c-0.067,0.022 -0.112,0.085 -0.112,0.156l0,0.861c0.481,0.146 0.942,0.338 1.378,0.572l0.61,-0.61c0.05,-0.05 0.062,-0.126 0.03,-0.19c-0.039,-0.078 -0.078,-0.156 -0.115,-0.231c-0.348,-0.696 -0.212,-1.536 0.338,-2.086c0.001,-0.001 0.001,-0.001 0.002,-0.002c0.576,-0.576 1.357,-0.899 2.172,-0.899c0.815,0 1.596,0.323 2.173,0.899c0.35,0.351 0.725,0.726 1.076,1.076c0.576,0.577 0.899,1.358 0.899,2.173c0,0.815 -0.323,1.596 -0.899,2.172c-0.001,0.001 -0.001,0.001 -0.002,0.002c-0.55,0.55 -1.39,0.686 -2.086,0.338c-0.075,-0.037 -0.153,-0.076 -0.231,-0.115c-0.064,-0.032 -0.14,-0.02 -0.19,0.03l-0.61,0.61c0.234,0.436 0.426,0.897 0.572,1.378l0.861,0c0.071,0 0.134,-0.045 0.156,-0.112c0.028,-0.083 0.056,-0.166 0.082,-0.246c0.246,-0.738 0.937,-1.236 1.715,-1.236c0,0 0.001,0 0.001,0c0.815,0 1.597,0.324 2.173,0.9c0.576,0.577 0.9,1.358 0.9,2.173c0,0.496 0,1.025 0,1.521c0,0.815 -0.324,1.597 -0.9,2.173c-0.576,0.576 -1.358,0.9 -2.173,0.9c0,0 -0.001,0 -0.001,0c-0.778,0 -1.469,-0.498 -1.715,-1.236c-0.026,-0.079 -0.054,-0.162 -0.082,-0.245c-0.022,-0.067 -0.085,-0.113 -0.156,-0.113l-0.861,0c-0.146,0.481 -0.338,0.943 -0.572,1.378l0.61,0.61c0.05,0.05 0.126,0.062 0.19,0.031c0.078,-0.039 0.156,-0.078 0.231,-0.116c0.696,-0.348 1.536,-0.211 2.086,0.339c0.001,0 0.001,0.001 0.002,0.001c0.576,0.576 0.899,1.358 0.899,2.173c0,0.814 -0.323,1.596 -0.899,2.172c-0.351,0.351 -0.726,0.725 -1.076,1.076c-0.577,0.576 -1.358,0.9 -2.173,0.9c-0.815,0 -1.596,-0.324 -2.172,-0.9c-0.001,0 -0.001,-0.001 -0.002,-0.001c-0.55,-0.55 -0.686,-1.391 -0.338,-2.087c0.037,-0.074 0.076,-0.153 0.115,-0.231c0.032,-0.063 0.02,-0.14 -0.03,-0.19l-0.61,-0.609c-0.677,0.362 -1.415,0.626 -2.194,0.772c-0.542,0.102 -1.065,-0.256 -1.167,-0.799c-0.102,-0.542 0.256,-1.065 0.798,-1.167c0.786,-0.147 1.516,-0.457 2.152,-0.892c0.397,-0.272 0.931,-0.223 1.272,0.118c0,0 1.163,1.163 1.163,1.163c0.659,0.659 0.822,1.665 0.405,2.499l-0.049,0.098c0.187,0.146 0.418,0.226 0.657,0.226c0.285,0 0.557,-0.113 0.758,-0.314c0.351,-0.351 0.726,-0.725 1.076,-1.076c0.201,-0.201 0.314,-0.474 0.314,-0.758c0,-0.24 -0.08,-0.471 -0.225,-0.658l-0.099,0.05c-0.833,0.416 -1.84,0.253 -2.498,-0.406l-1.164,-1.163c-0.34,-0.34 -0.39,-0.875 -0.118,-1.272c0.436,-0.636 0.745,-1.365 0.893,-2.151c0.089,-0.473 0.502,-0.816 0.983,-0.816c0,0 1.643,0 1.643,0c0.932,0 1.759,0.596 2.054,1.48l0.035,0.105c0.235,-0.029 0.455,-0.136 0.624,-0.305c0.201,-0.201 0.314,-0.474 0.314,-0.759c0,-0.496 0,-1.025 0,-1.521c0,-0.285 -0.113,-0.557 -0.314,-0.758c-0.169,-0.17 -0.389,-0.276 -0.624,-0.306l-0.035,0.105c-0.295,0.884 -1.122,1.48 -2.054,1.48l-1.643,0c-0.481,0 -0.894,-0.343 -0.983,-0.815c-0.148,-0.786 -0.457,-1.515 -0.893,-2.152c-0.272,-0.397 -0.222,-0.931 0.118,-1.272c0,0 1.164,-1.163 1.164,-1.163c0.658,-0.659 1.665,-0.822 2.498,-0.405l0.099,0.049c0.145,-0.187 0.225,-0.418 0.225,-0.657c0,-0.285 -0.113,-0.557 -0.314,-0.758c-0.35,-0.351 -0.725,-0.726 -1.076,-1.076c-0.201,-0.201 -0.473,-0.314 -0.758,-0.314c-0.239,0 -0.47,0.08 -0.657,0.225l0.049,0.099c0.417,0.833 0.254,1.84 -0.405,2.498l-1.163,1.164c-0.341,0.34 -0.875,0.39 -1.272,0.118c-0.637,-0.436 -1.366,-0.745 -2.152,-0.893c-0.473,-0.089 -0.815,-0.502 -0.815,-0.983c0,0 0,-1.643 0,-1.643c0,-0.932 0.596,-1.759 1.48,-2.054l0.105,-0.035c-0.03,-0.235 -0.136,-0.455 -0.306,-0.624c-0.201,-0.201 -0.473,-0.314 -0.758,-0.314c-0.496,0 -1.025,0 -1.521,0c-0.285,0 -0.558,0.113 -0.759,0.314c-0.169,0.169 -0.276,0.389 -0.305,0.624l0.105,0.035c0.884,0.295 1.48,1.122 1.48,2.054l0,1.643c0,0.481 -0.343,0.894 -0.816,0.983c-0.786,0.148 -1.515,0.457 -2.151,0.893c-0.397,0.272 -0.932,0.222 -1.272,-0.118c0,0 -1.163,-1.164 -1.163,-1.164c-0.659,-0.658 -0.822,-1.665 -0.406,-2.498l0.05,-0.099c-0.187,-0.145 -0.418,-0.225 -0.658,-0.225c-0.284,0 -0.557,0.113 -0.758,0.314c-0.351,0.35 -0.725,0.725 -1.076,1.076c-0.201,0.201 -0.314,0.473 -0.314,0.758c0,0.239 0.08,0.47 0.226,0.657l0.098,-0.049c0.834,-0.417 1.84,-0.254 2.499,0.405l1.163,1.163c0.341,0.341 0.39,0.875 0.118,1.272c-0.435,0.637 -0.745,1.366 -0.892,2.152c-0.102,0.542 -0.625,0.9 -1.168,0.798c-0.542,-0.102 -0.9,-0.625 -0.798,-1.167c0.146,-0.779 0.41,-1.517 0.772,-2.194l-0.609,-0.61c-0.05,-0.05 -0.127,-0.062 -0.19,-0.03c-0.078,0.039 -0.157,0.078 -0.231,0.115c-0.696,0.348 -1.537,0.212 -2.087,-0.338c0,-0.001 -0.001,-0.001 -0.001,-0.002c-0.576,-0.576 -0.9,-1.357 -0.9,-2.172c0,-0.815 0.324,-1.596 0.9,-2.173c0.351,-0.35 0.725,-0.725 1.076,-1.076c0.576,-0.576 1.358,-0.899 2.173,-0.899c0.814,0 1.596,0.323 2.172,0.899c0,0.001 0.001,0.001 0.001,0.002c0.55,0.55 0.687,1.39 0.339,2.086c-0.038,0.075 -0.077,0.153 -0.116,0.231c-0.031,0.064 -0.019,0.14 0.031,0.19l0.61,0.61c0.436,-0.234 0.897,-0.426 1.378,-0.572Zm-3.142,11.545c-0.103,-0.442 -0.1,-0.969 0.028,-1.551c0.384,-1.74 1.818,-4.094 2.634,-4.91c1.439,-1.439 3.775,-1.439 5.214,0c1.438,1.439 1.438,3.775 0,5.214c-0.816,0.816 -3.17,2.249 -4.91,2.633c-0.582,0.129 -1.11,0.132 -1.551,0.028l-4.886,4.885c-0.39,0.391 -1.024,0.391 -1.414,0c-0.39,-0.39 -0.39,-1.024 0,-1.414l4.885,-4.885Zm1.932,-0.517c0.082,0.006 0.214,0.013 0.311,0.001c0.269,-0.032 0.568,-0.112 0.879,-0.22c1.293,-0.448 2.776,-1.362 3.339,-1.926c0.659,-0.658 0.659,-1.727 0,-2.385c-0.658,-0.658 -1.727,-0.658 -2.385,0c-0.563,0.564 -1.477,2.047 -1.925,3.34c-0.108,0.311 -0.188,0.61 -0.22,0.879c-0.012,0.096 -0.006,0.229 0.001,0.311Z" style="fill:#ff887f;"/></svg>