<?xml version="1.0" encoding="UTF-8" standalone="no"?><!DOCTYPE svg PUBLIC "-//W3C//DTD SVG 1.1//EN" "http://www.w3.org/Graphics/SVG/1.1/DTD/svg11.dtd"><svg width="100%" height="100%" viewBox="0 0 39 38" version="1.1" xmlns="http://www.w3.org/2000/svg" xmlns:xlink="http://www.w3.org/1999/xlink" xml:space="preserve" xmlns:serif="http://www.serif.com/" style="fill-rule:evenodd;clip-rule:evenodd;stroke-linejoin:round;stroke-miterlimit:2;"><g><path d="M15.19,4.529c1.202,0.24 2.443,0.2 3.627,-0.117c0.904,-0.241 2.078,-0.555 3.362,-0.898c2.462,-0.658 5.09,-0.104 7.077,1.493c1.986,1.596 3.093,4.044 2.98,6.59c-0.04,0.909 -0.073,1.655 -0.093,2.116c-0.015,0.335 -0.009,0.672 0.019,1.007c0.152,1.859 0.7,8.551 1.194,14.585c0.206,2.519 -0.791,4.988 -2.688,6.658c-1.898,1.67 -4.473,2.345 -6.946,1.821c-4.088,-0.868 -8.196,-1.739 -9.901,-2.101c-0.545,-0.115 -1.1,-0.174 -1.658,-0.174c-0.75,0 -1.938,0 -3.296,-0.001c-2.364,0 -4.607,-1.047 -6.126,-2.858c-1.52,-1.811 -2.16,-4.201 -1.75,-6.53c0.613,-3.481 1.234,-7.007 1.544,-8.762c0.126,-0.719 -0.091,-1.456 -0.587,-1.991c-0.001,-0.001 -0.002,-0.003 -0.003,-0.004c-2.15,-2.321 -2.561,-5.763 -1.016,-8.525c1.545,-2.761 4.693,-4.213 7.796,-3.595c2.663,0.53 4.966,0.988 6.465,1.286Z" style="fill:#fff1f0;"/><path d="M19.884,33.428c1.203,-0.239 2.444,-0.199 3.628,0.118c0.903,0.241 2.077,0.555 3.361,0.898c2.462,0.658 5.09,0.104 7.077,-1.493c1.987,-1.596 3.094,-4.044 2.981,-6.59c-0.041,-0.909 -0.074,-1.655 -0.094,-2.116c-0.015,-0.336 -0.009,-0.672 0.019,-1.007c0.152,-1.859 0.7,-8.552 1.194,-14.585c0.206,-2.519 -0.79,-4.988 -2.688,-6.658c-1.897,-1.67 -4.473,-2.345 -6.946,-1.821c-4.087,0.867 -8.196,1.739 -9.9,2.101c-0.545,0.115 -1.101,0.174 -1.658,0.174c-0.75,0 -1.939,0 -3.296,0.001c-2.364,0 -4.607,1.046 -6.127,2.858c-1.519,1.811 -2.16,4.201 -1.75,6.53c0.613,3.481 1.235,7.006 1.544,8.762c0.127,0.719 -0.09,1.456 -0.586,1.991c-0.002,0.001 -0.003,0.002 -0.004,0.004c-2.15,2.321 -2.56,5.763 -1.016,8.525c1.545,2.761 4.693,4.213 7.796,3.595c2.663,-0.53 4.967,-0.988 6.465,-1.287Z" style="fill:#ffe7e6;"/><path d="M17.898,11.719l0,-0.861c0,-0.071 -0.045,-0.134 -0.112,-0.156c-0.083,-0.028 -0.166,-0.056 -0.246,-0.082c-0.738,-0.246 -1.235,-0.937 -1.235,-1.715c0,0 0,-0.001 0,-0.002c0,-0.814 0.323,-1.596 0.899,-2.172c0.577,-0.576 1.358,-0.9 2.173,-0.9c0.496,0 1.026,0 1.522,0c0.814,0 1.596,0.324 2.172,0.9c0.576,0.576 0.9,1.358 0.9,2.172c0,0.001 0,0.002 0,0.002c0,0.778 -0.498,1.469 -1.236,1.715c-0.079,0.026 -0.162,0.054 -0.245,0.082c-0.067,0.022 -0.113,0.085 -0.113,0.156l0,0.861c0.481,0.146 0.943,0.338 1.379,0.572l0.609,-0.61c0.05,-0.05 0.063,-0.127 0.031,-0.19c-0.039,-0.078 -0.078,-0.156 -0.116,-0.231c-0.348,-0.696 -0.211,-1.536 0.339,-2.086c0,-0.001 0.001,-0.001 0.001,-0.002c0.576,-0.576 1.358,-0.9 2.173,-0.9c0.814,0 1.596,0.324 2.172,0.9c0.351,0.351 0.725,0.725 1.076,1.076c0.576,0.576 0.9,1.358 0.9,2.173c0,0.815 -0.324,1.596 -0.9,2.172c0,0.001 -0.001,0.001 -0.001,0.002c-0.55,0.55 -1.391,0.686 -2.086,0.338c-0.075,-0.037 -0.154,-0.076 -0.232,-0.116c-0.063,-0.031 -0.14,-0.019 -0.19,0.031l-0.609,0.61c0.233,0.436 0.426,0.897 0.572,1.378l0.861,0c0.07,0 0.133,-0.045 0.156,-0.113c0.027,-0.083 0.055,-0.166 0.082,-0.245c0.246,-0.738 0.936,-1.236 1.714,-1.236c0.001,0 0.001,0 0.002,0c0.815,0 1.596,0.324 2.172,0.9c0.577,0.576 0.9,1.358 0.9,2.173c0,0.496 0,1.025 0,1.521c0,0.815 -0.323,1.597 -0.9,2.173c-0.576,0.576 -1.357,0.9 -2.172,0.9c0,0 -0.002,0 -0.002,0c-0.778,0 -1.468,-0.498 -1.714,-1.236c-0.027,-0.079 -0.055,-0.162 -0.082,-0.245c-0.023,-0.068 -0.086,-0.113 -0.156,-0.113l-0.861,0c-0.147,0.481 -0.339,0.942 -0.572,1.378l0.609,0.61c0.05,0.05 0.127,0.062 0.19,0.031c0.078,-0.039 0.157,-0.079 0.232,-0.116c0.695,-0.348 1.536,-0.212 2.086,0.338c0,0.001 0.001,0.001 0.001,0.002c0.576,0.576 0.9,1.357 0.9,2.172c0,0.815 -0.324,1.597 -0.9,2.173c-0.351,0.351 -0.725,0.725 -1.076,1.076c-0.576,0.576 -1.358,0.9 -2.172,0.9c-0.815,0 -1.597,-0.324 -2.173,-0.9c0,-0.001 -0.001,-0.001 -0.001,-0.002c-0.55,-0.55 -0.687,-1.39 -0.339,-2.086c0.038,-0.075 0.077,-0.153 0.116,-0.231c0.032,-0.063 0.019,-0.14 -0.031,-0.19l-0.609,-0.61c-0.678,0.363 -1.415,0.627 -2.194,0.773c-0.543,0.102 -1.066,-0.256 -1.167,-0.799c-0.102,-0.542 0.255,-1.065 0.798,-1.167c0.786,-0.147 1.515,-0.457 2.151,-0.893c0.397,-0.271 0.932,-0.222 1.272,0.119c0,0 1.163,1.163 1.163,1.163c0.659,0.659 0.822,1.665 0.406,2.498l-0.05,0.099c0.187,0.146 0.418,0.226 0.658,0.226c0.284,0 0.557,-0.113 0.758,-0.314c0.351,-0.351 0.725,-0.726 1.076,-1.076c0.201,-0.201 0.314,-0.474 0.314,-0.759c0,-0.239 -0.08,-0.47 -0.225,-0.657l-0.099,0.049c-0.834,0.417 -1.84,0.254 -2.499,-0.405l-1.163,-1.163c-0.34,-0.34 -0.39,-0.875 -0.118,-1.272c0.435,-0.636 0.745,-1.365 0.892,-2.151c0.089,-0.473 0.502,-0.816 0.983,-0.816c0,0 1.644,0 1.644,0c0.931,0 1.758,0.596 2.053,1.48l0.035,0.105c0.235,-0.029 0.455,-0.136 0.624,-0.305c0.201,-0.201 0.314,-0.474 0.314,-0.759c0,-0.496 0,-1.025 0,-1.521c0,-0.285 -0.113,-0.557 -0.314,-0.759c-0.169,-0.169 -0.389,-0.276 -0.624,-0.305l-0.035,0.105c-0.295,0.884 -1.122,1.48 -2.053,1.48l-1.644,0c-0.481,0 -0.894,-0.343 -0.983,-0.816c-0.147,-0.786 -0.457,-1.515 -0.892,-2.151c-0.272,-0.397 -0.222,-0.932 0.118,-1.272c0,0 1.163,-1.163 1.163,-1.163c0.659,-0.659 1.665,-0.822 2.499,-0.405l0.099,0.049c0.145,-0.187 0.225,-0.418 0.225,-0.657c0,-0.285 -0.113,-0.558 -0.314,-0.759c-0.351,-0.35 -0.725,-0.725 -1.076,-1.076c-0.201,-0.201 -0.474,-0.314 -0.758,-0.314c-0.24,0 -0.471,0.08 -0.658,0.226l0.05,0.099c0.416,0.833 0.253,1.839 -0.406,2.498l-1.163,1.163c-0.34,0.341 -0.875,0.39 -1.272,0.119c-0.636,-0.436 -1.365,-0.746 -2.151,-0.893c-0.473,-0.089 -0.816,-0.502 -0.816,-0.983c0,0 0,-1.643 0,-1.643c0,-0.932 0.597,-1.759 1.48,-2.054l0.105,-0.035c-0.029,-0.235 -0.136,-0.455 -0.305,-0.624c-0.201,-0.201 -0.474,-0.314 -0.758,-0.314c-0.496,0 -1.026,0 -1.522,0c-0.284,0 -0.557,0.113 -0.758,0.314c-0.17,0.169 -0.276,0.389 -0.306,0.624l0.105,0.035c0.884,0.295 1.48,1.122 1.48,2.054l0,1.643c0,0.481 -0.342,0.894 -0.815,0.983c-0.786,0.147 -1.515,0.457 -2.152,0.893c-0.397,0.271 -0.931,0.222 -1.272,-0.119c0,0 -1.163,-1.163 -1.163,-1.163c-0.659,-0.659 -0.822,-1.665 -0.405,-2.498l0.049,-0.099c-0.187,-0.146 -0.418,-0.226 -0.657,-0.226c-0.284,0 -0.557,0.113 -0.758,0.314c-0.351,0.351 -0.726,0.726 -1.076,1.076c-0.201,0.201 -0.314,0.474 -0.314,0.759c0,0.239 0.08,0.47 0.225,0.657l0.099,-0.049c0.833,-0.417 1.84,-0.254 2.499,0.405l1.163,1.163c0.34,0.34 0.39,0.875 0.118,1.272c-0.436,0.636 -0.745,1.365 -0.893,2.151c-0.102,0.543 -0.625,0.901 -1.167,0.799c-0.542,-0.102 -0.9,-0.625 -0.798,-1.167c0.146,-0.779 0.409,-1.517 0.772,-2.194l-0.61,-0.61c-0.05,-0.05 -0.126,-0.062 -0.19,-0.031c-0.078,0.04 -0.156,0.079 -0.231,0.116c-0.696,0.348 -1.536,0.212 -2.086,-0.338c-0.001,-0.001 -0.001,-0.001 -0.001,-0.002c-0.577,-0.576 -0.9,-1.357 -0.9,-2.172c0,-0.815 0.323,-1.597 0.9,-2.173c0.35,-0.351 0.725,-0.725 1.075,-1.076c0.577,-0.576 1.358,-0.9 2.173,-0.9c0.815,0 1.596,0.324 2.173,0.9c0,0.001 0,0.001 0.001,0.002c0.55,0.55 0.686,1.39 0.338,2.086c-0.037,0.075 -0.076,0.153 -0.115,0.231c-0.032,0.063 -0.02,0.14 0.031,0.19l0.609,0.61c0.436,-0.234 0.897,-0.426 1.378,-0.572Zm-3.141,11.545c-0.104,-0.442 -0.101,-0.969 0.028,-1.551c0.384,-1.741 1.817,-4.094 2.634,-4.91c1.438,-1.439 3.774,-1.439 5.213,0c1.439,1.438 1.439,3.775 0,5.213c-0.816,0.816 -3.17,2.25 -4.91,2.634c-0.582,0.129 -1.109,0.132 -1.551,0.028l-4.885,4.885c-0.39,0.39 -1.024,0.39 -1.414,0c-0.391,-0.39 -0.391,-1.024 0,-1.414l4.885,-4.885Zm1.931,-0.517c0.082,0.006 0.215,0.012 0.311,0.001c0.269,-0.032 0.568,-0.113 0.879,-0.22c1.294,-0.448 2.776,-1.362 3.34,-1.926c0.658,-0.658 0.658,-1.727 0,-2.385c-0.658,-0.658 -1.727,-0.658 -2.385,0c-0.564,0.564 -1.478,2.046 -1.926,3.34c-0.107,0.311 -0.188,0.609 -0.22,0.878c-0.011,0.097 -0.005,0.229 0.001,0.312Z" style="fill:#ff8880;"/></g></svg>