<?xml version="1.0" encoding="UTF-8" standalone="no"?><!DOCTYPE svg PUBLIC "-//W3C//DTD SVG 1.1//EN" "http://www.w3.org/Graphics/SVG/1.1/DTD/svg11.dtd"><svg width="100%" height="100%" viewBox="0 0 21 25" version="1.1" xmlns="http://www.w3.org/2000/svg" xmlns:xlink="http://www.w3.org/1999/xlink" xml:space="preserve" xmlns:serif="http://www.serif.com/" style="fill-rule:evenodd;clip-rule:evenodd;stroke-linecap:round;stroke-linejoin:round;stroke-miterlimit:1.5;"><g id="icon-usuario"><path d="M7.642,15.356l0,2.229c0,0.861 0.127,1.396 -2.085,1.767c-2.212,0.371 -4.443,0.687 -4.443,4.538" style="fill:none;stroke:#4a4a4a;stroke-width:2px;"/><path d="M13.451,15.356l0,2.229c0,0.861 -0.127,1.396 2.085,1.767c2.212,0.371 4.443,0.687 4.443,4.538" style="fill:none;stroke:#4a4a4a;stroke-width:2px;"/><path d="M10.605,1.747c0.026,0 0.053,0 0.079,0c0.027,0 0.054,0.001 0.079,0.003c4.191,0.129 4.647,3.678 4.647,5.933c0,0 0.42,0.194 0.731,0.339c0.198,0.092 0.32,0.296 0.306,0.514c-0.03,0.47 -0.081,1.278 -0.107,1.699c-0.011,0.175 -0.087,0.341 -0.213,0.464c-0.268,0.262 -0.717,0.7 -0.717,0.7l0,1.453c0,0.694 -0.683,2.042 -2.015,2.577c-0.825,0.331 -1.131,0.821 -2.626,0.869c-0.028,0.003 -0.056,0.004 -0.085,0.004c-0.027,0 -0.053,0 -0.079,0c-0.026,0 -0.053,0 -0.08,0c-0.028,0 -0.057,-0.001 -0.084,-0.004c-1.495,-0.048 -1.801,-0.538 -2.627,-0.869c-1.331,-0.535 -2.014,-1.883 -2.014,-2.577l0,-1.453c0,0 -0.449,-0.438 -0.718,-0.7c-0.125,-0.123 -0.201,-0.289 -0.212,-0.464c-0.027,-0.421 -0.078,-1.229 -0.108,-1.699c-0.013,-0.218 0.108,-0.422 0.307,-0.514c0.311,-0.145 0.731,-0.339 0.731,-0.339c0,-2.255 0.456,-5.804 4.646,-5.933c0.026,-0.002 0.052,-0.003 0.079,-0.003c0.027,0 0.053,0 0.08,0Z" style="fill:none;stroke:#4a4a4a;stroke-width:2px;"/></g></svg>