<?xml version="1.0" encoding="UTF-8" standalone="no"?>
<!DOCTYPE svg PUBLIC "-//W3C//DTD SVG 1.1//EN" "http://www.w3.org/Graphics/SVG/1.1/DTD/svg11.dtd">
<svg width="100%" height="100%" viewBox="0 0 34 34" version="1.1" xmlns="http://www.w3.org/2000/svg" xmlns:xlink="http://www.w3.org/1999/xlink" xml:space="preserve" xmlns:serif="http://www.serif.com/" style="fill-rule:evenodd;clip-rule:evenodd;stroke-linejoin:round;stroke-miterlimit:2;">
    <rect id="icon-autotest-black" x="0" y="0" width="34" height="34" style="fill:none;"/>
    <path d="M14.752,10.827L14.752,9.955C14.752,9.88 14.704,9.814 14.634,9.791C14.55,9.763 14.467,9.735 14.387,9.709C13.647,9.462 13.147,8.769 13.147,7.989L13.147,7.987C13.147,7.168 13.472,6.383 14.051,5.804C14.63,5.225 15.415,4.9 16.234,4.9L17.766,4.9C18.585,4.9 19.37,5.225 19.949,5.804C20.528,6.383 20.853,7.168 20.853,7.987L20.853,7.989C20.853,8.769 20.353,9.462 19.613,9.709C19.533,9.735 19.45,9.763 19.366,9.791C19.296,9.814 19.248,9.88 19.248,9.955L19.248,10.827C19.736,10.974 20.203,11.169 20.644,11.406L21.261,10.788C21.314,10.736 21.327,10.656 21.294,10.589C21.254,10.511 21.215,10.432 21.177,10.356C20.828,9.658 20.965,8.816 21.517,8.264C21.517,8.263 21.518,8.263 21.518,8.262C22.097,7.684 22.882,7.358 23.701,7.358C24.519,7.358 25.304,7.684 25.883,8.262C26.236,8.616 26.614,8.993 26.967,9.346C27.546,9.925 27.871,10.71 27.871,11.528C27.871,12.347 27.546,13.132 26.967,13.711C26.966,13.711 26.966,13.712 26.965,13.712C26.414,14.264 25.571,14.401 24.873,14.052C24.797,14.014 24.719,13.975 24.64,13.935C24.573,13.902 24.493,13.915 24.441,13.968L23.823,14.585C24.06,15.027 24.255,15.494 24.403,15.981L25.275,15.981C25.349,15.981 25.415,15.934 25.438,15.863C25.466,15.779 25.494,15.696 25.521,15.616C25.767,14.876 26.46,14.376 27.24,14.376L27.242,14.376C28.061,14.376 28.846,14.702 29.425,15.28C30.004,15.859 30.329,16.644 30.329,17.463L30.329,18.995C30.329,19.814 30.004,20.599 29.425,21.178C28.846,21.757 28.061,22.082 27.242,22.082L27.24,22.082C26.46,22.082 25.767,21.583 25.521,20.842C25.494,20.762 25.466,20.679 25.438,20.595C25.415,20.525 25.349,20.477 25.275,20.477L24.403,20.477C24.255,20.965 24.06,21.432 23.823,21.873L24.441,22.49C24.493,22.543 24.573,22.556 24.64,22.523C24.719,22.483 24.797,22.444 24.873,22.406C25.571,22.057 26.414,22.194 26.965,22.746C26.966,22.746 26.966,22.747 26.967,22.747C27.546,23.326 27.871,24.111 27.871,24.93C27.871,25.748 27.546,26.534 26.967,27.112C26.614,27.466 26.236,27.843 25.883,28.196C25.304,28.775 24.519,29.1 23.701,29.1C22.882,29.1 22.097,28.775 21.518,28.196C21.518,28.195 21.517,28.195 21.517,28.194C20.965,27.643 20.828,26.8 21.177,26.102C21.215,26.026 21.254,25.948 21.294,25.869C21.327,25.802 21.314,25.722 21.261,25.67L20.09,24.499C19.7,24.108 19.7,23.475 20.09,23.084C20.48,22.694 21.114,22.694 21.504,23.084L22.676,24.256C23.337,24.917 23.501,25.927 23.083,26.763L23.03,26.868C23.22,27.018 23.456,27.1 23.701,27.1C23.989,27.1 24.265,26.985 24.469,26.782C24.822,26.428 25.199,26.051 25.552,25.698C25.756,25.494 25.871,25.218 25.871,24.93C25.871,24.685 25.788,24.449 25.639,24.259L25.534,24.312C24.698,24.73 23.688,24.566 23.026,23.905L21.855,22.733C21.515,22.393 21.465,21.859 21.737,21.462C22.176,20.82 22.488,20.085 22.637,19.293C22.726,18.82 23.139,18.477 23.62,18.477L25.275,18.477C26.21,18.477 27.04,19.076 27.336,19.963L27.373,20.074C27.613,20.045 27.838,19.936 28.011,19.764C28.215,19.56 28.329,19.283 28.329,18.995L28.329,17.463C28.329,17.175 28.215,16.898 28.011,16.695C27.838,16.522 27.613,16.413 27.373,16.385L27.336,16.495C27.04,17.383 26.21,17.981 25.275,17.981L23.62,17.981C23.139,17.981 22.726,17.638 22.637,17.165C22.488,16.373 22.176,15.638 21.737,14.997C21.465,14.599 21.515,14.065 21.855,13.725L23.026,12.554C23.688,11.892 24.698,11.728 25.534,12.147L25.639,12.199C25.788,12.009 25.871,11.773 25.871,11.528C25.871,11.24 25.756,10.964 25.552,10.76C25.199,10.407 24.822,10.03 24.469,9.677C24.265,9.473 23.989,9.358 23.701,9.358C23.456,9.358 23.22,9.441 23.03,9.59L23.083,9.695C23.501,10.531 23.337,11.541 22.676,12.203L21.504,13.374C21.164,13.714 20.63,13.764 20.232,13.492C19.591,13.053 18.856,12.741 18.064,12.592C17.591,12.503 17.248,12.091 17.248,11.609L17.248,9.955C17.248,9.019 17.846,8.189 18.734,7.894L18.845,7.857C18.816,7.616 18.707,7.391 18.534,7.218C18.331,7.015 18.054,6.9 17.766,6.9L16.234,6.9C15.946,6.9 15.669,7.015 15.466,7.218C15.293,7.391 15.184,7.616 15.155,7.857L15.266,7.894C16.154,8.189 16.752,9.019 16.752,9.955L16.752,11.609C16.752,12.091 16.409,12.504 15.936,12.592C15.144,12.741 14.409,13.053 13.768,13.492C13.37,13.764 12.836,13.714 12.496,13.374L11.324,12.203C10.663,11.541 10.499,10.531 10.917,9.695L10.97,9.59C10.78,9.441 10.544,9.358 10.299,9.358C10.011,9.358 9.735,9.473 9.531,9.677C9.178,10.03 8.801,10.407 8.448,10.76C8.244,10.964 8.129,11.24 8.129,11.528C8.129,11.773 8.212,12.009 8.361,12.199L8.466,12.147C9.302,11.728 10.312,11.892 10.974,12.554L12.145,13.725C12.485,14.065 12.535,14.599 12.263,14.997C11.824,15.638 11.512,16.373 11.363,17.165C11.274,17.638 10.861,17.981 10.38,17.981L8.725,17.981C7.79,17.981 6.96,17.383 6.664,16.496L6.627,16.385C6.387,16.413 6.162,16.522 5.989,16.695C5.785,16.898 5.671,17.175 5.671,17.463L5.671,18.995C5.671,19.283 5.785,19.56 5.989,19.764C6.162,19.936 6.387,20.045 6.627,20.074L6.664,19.963C6.96,19.076 7.79,18.477 8.725,18.477L10.38,18.477C10.861,18.477 11.274,18.82 11.363,19.293C11.512,20.085 11.824,20.82 12.263,21.462C12.535,21.859 12.485,22.393 12.145,22.733L10.974,23.905C10.312,24.566 9.302,24.73 8.466,24.312L8.361,24.259C8.212,24.449 8.129,24.685 8.129,24.93C8.129,25.218 8.244,25.494 8.448,25.698C8.801,26.051 9.178,26.428 9.531,26.782C9.735,26.985 10.011,27.1 10.299,27.1C10.544,27.1 10.78,27.018 10.97,26.868L10.917,26.763C10.499,25.927 10.663,24.917 11.324,24.256L12.496,23.084C12.886,22.694 13.52,22.694 13.91,23.084C14.3,23.475 14.3,24.108 13.91,24.499L12.739,25.67C12.686,25.722 12.673,25.802 12.706,25.869C12.746,25.948 12.785,26.026 12.823,26.102C13.172,26.8 13.035,27.643 12.483,28.194C12.483,28.195 12.482,28.195 12.482,28.196C11.903,28.775 11.118,29.1 10.299,29.1C9.481,29.1 8.696,28.775 8.117,28.196C7.764,27.843 7.386,27.466 7.033,27.112C6.454,26.534 6.129,25.748 6.129,24.93C6.129,24.111 6.454,23.326 7.033,22.747C7.034,22.747 7.034,22.746 7.035,22.746C7.586,22.194 8.429,22.057 9.127,22.406C9.203,22.444 9.281,22.483 9.36,22.523C9.427,22.556 9.507,22.543 9.559,22.49L10.177,21.873C9.94,21.432 9.745,20.965 9.597,20.477L8.725,20.477C8.651,20.477 8.585,20.525 8.562,20.595C8.534,20.679 8.506,20.762 8.479,20.842C8.233,21.583 7.54,22.082 6.76,22.082L6.758,22.082C5.939,22.082 5.154,21.757 4.575,21.178C3.996,20.599 3.671,19.814 3.671,18.995L3.671,17.463C3.671,16.644 3.996,15.859 4.575,15.28C5.154,14.702 5.939,14.376 6.758,14.376L6.76,14.376C7.54,14.376 8.233,14.876 8.479,15.616C8.506,15.696 8.534,15.779 8.562,15.863C8.585,15.934 8.651,15.981 8.725,15.981L9.597,15.981C9.745,15.494 9.94,15.026 10.177,14.585L9.559,13.968C9.507,13.915 9.427,13.902 9.36,13.935C9.281,13.975 9.203,14.014 9.127,14.052C8.429,14.401 7.586,14.264 7.035,13.712C7.034,13.712 7.034,13.711 7.033,13.711C6.454,13.132 6.129,12.347 6.129,11.528C6.129,10.71 6.454,9.925 7.033,9.346C7.386,8.993 7.764,8.616 8.117,8.262C8.696,7.684 9.481,7.358 10.299,7.358C11.118,7.358 11.903,7.684 12.482,8.262C12.482,8.263 12.483,8.263 12.483,8.264C13.035,8.816 13.172,9.658 12.823,10.356C12.785,10.432 12.746,10.511 12.706,10.589C12.673,10.656 12.686,10.736 12.739,10.788L13.356,11.406C13.797,11.169 14.264,10.974 14.752,10.827Z" style="fill:rgb(74,74,74);"/>
</svg>
