<?xml version="1.0" encoding="UTF-8" standalone="no"?><!DOCTYPE svg PUBLIC "-//W3C//DTD SVG 1.1//EN" "http://www.w3.org/Graphics/SVG/1.1/DTD/svg11.dtd"><svg width="100%" height="100%" viewBox="0 0 50 40" version="1.1" xmlns="http://www.w3.org/2000/svg" xmlns:xlink="http://www.w3.org/1999/xlink" xml:space="preserve" xmlns:serif="http://www.serif.com/" style="fill-rule:evenodd;clip-rule:evenodd;stroke-linejoin:round;stroke-miterlimit:2;"><rect id="icon-entrar" x="0" y="0" width="50" height="40" style="fill:none;"/><g><path d="M22.254,2.977c0.989,0.082 1.988,0.044 2.963,-0.114c0.635,-0.103 1.435,-0.233 2.322,-0.376c2.626,-0.426 5.351,0.025 7.563,1.251c2.213,1.226 3.726,3.124 4.201,5.267c0.918,4.14 1.927,8.693 2.35,10.601c0.135,0.613 0.184,1.236 0.145,1.857c-0.074,1.161 -0.207,3.261 -0.348,5.498c-0.142,2.253 -1.431,4.355 -3.556,5.804c-2.125,1.448 -4.895,2.112 -7.646,1.831c-2.424,-0.247 -4.758,-0.485 -6.377,-0.65c-1.443,-0.147 -2.909,-0.036 -4.295,0.327c-0.809,0.211 -1.804,0.472 -2.901,0.759c-3.091,0.809 -6.472,0.343 -9.064,-1.248c-2.591,-1.592 -4.069,-4.11 -3.959,-6.75c0.191,-4.639 0.378,-9.15 0.422,-10.217c0.006,-0.158 0.019,-0.316 0.036,-0.473c0.093,-0.815 0.411,-3.625 0.746,-6.577c0.245,-2.157 1.539,-4.145 3.595,-5.521c2.057,-1.376 4.704,-2.027 7.353,-1.806c2.537,0.211 4.962,0.413 6.45,0.537Z" style="fill:#fff6f0;"/><path d="M26.797,36.288c0.99,-0.082 1.988,-0.044 2.963,0.114c0.635,0.103 1.436,0.233 2.322,0.376c2.626,0.425 5.351,-0.026 7.563,-1.252c2.213,-1.226 3.727,-3.124 4.202,-5.267c0.917,-4.139 1.926,-8.692 2.349,-10.601c0.136,-0.612 0.184,-1.235 0.145,-1.856c-0.074,-1.161 -0.206,-3.262 -0.348,-5.499c-0.142,-2.252 -1.431,-4.355 -3.556,-5.803c-2.125,-1.449 -4.895,-2.112 -7.646,-1.832c-2.424,0.248 -4.758,0.486 -6.376,0.651c-1.444,0.147 -2.91,0.036 -4.295,-0.327c-0.809,-0.212 -1.805,-0.472 -2.902,-0.759c-3.091,-0.809 -6.472,-0.343 -9.064,1.248c-2.591,1.592 -4.068,4.11 -3.959,6.75c0.191,4.639 0.378,9.15 0.422,10.217c0.007,0.158 0.019,0.316 0.037,0.473c0.092,0.815 0.411,3.625 0.745,6.576c0.245,2.158 1.539,4.146 3.596,5.522c2.056,1.376 4.703,2.026 7.352,1.806c2.537,-0.211 4.962,-0.413 6.45,-0.537Z" style="fill:#fff0e5;"/></g><path d="M19.238,9.9l3.743,1.839c0.342,0.168 0.559,0.516 0.559,0.898l0,13.726l4.83,0l0,-1.354c0,-0.552 0.448,-1 1,-1c0.551,0 1,0.448 1,1l0,2.354c0,0.553 -0.448,1 -1,1l-5.83,0l0,2.737c0,0.345 -0.179,0.666 -0.472,0.849c-0.293,0.182 -0.659,0.201 -0.969,0.048l-7.605,-3.736c-0.342,-0.168 -0.559,-0.516 -0.559,-0.898l0,-18.463l0,-0.017c0.003,-0.18 0.054,-0.349 0.14,-0.494c0.081,-0.135 0.193,-0.252 0.331,-0.338c0.006,-0.003 0.011,-0.006 0.016,-0.009c0.147,-0.088 0.318,-0.14 0.501,-0.142l0.012,0l14.435,0c0.552,0 1,0.448 1,1l0,2.709c0,0.552 -0.449,1 -1,1c-0.552,0 -1,-0.448 -1,-1l0,-1.709l-9.132,0Zm-3.303,16.841l5.605,2.753l0,-16.235l-5.605,-2.753l0,16.235Zm10.32,-8.724c0.046,-0.152 0.129,-0.295 0.25,-0.415l2.785,-2.785c0.39,-0.39 1.024,-0.39 1.414,0c0.39,0.39 0.39,1.024 0,1.414l-1.078,1.078l5.439,0c0.552,0 1,0.448 1,1c0,0.552 -0.448,1 -1,1l-5.439,0l1.078,1.078c0.39,0.39 0.39,1.024 0,1.414c-0.39,0.391 -1.024,0.391 -1.414,0l-2.785,-2.785c-0.121,-0.12 -0.204,-0.263 -0.25,-0.415l-0.001,-0.003c-0.025,-0.084 -0.04,-0.173 -0.042,-0.265l0,-0.024l0,-0.024c0.002,-0.092 0.017,-0.181 0.042,-0.265l0.001,-0.003Zm-6.464,1.983c0.509,0 0.922,0.413 0.922,0.922c0,0.509 -0.413,0.922 -0.922,0.922c-0.509,0 -0.922,-0.413 -0.922,-0.922c0,-0.509 0.413,-0.922 0.922,-0.922Z" style="fill:#ffa466;"/></svg>