<?xml version="1.0" encoding="UTF-8" standalone="no"?>
<!DOCTYPE svg PUBLIC "-//W3C//DTD SVG 1.1//EN" "http://www.w3.org/Graphics/SVG/1.1/DTD/svg11.dtd">
<svg width="100%" height="100%" viewBox="0 0 90 90" version="1.1" xmlns="http://www.w3.org/2000/svg" xmlns:xlink="http://www.w3.org/1999/xlink" xml:space="preserve" xmlns:serif="http://www.serif.com/" style="fill-rule:evenodd;clip-rule:evenodd;stroke-linecap:round;stroke-linejoin:round;">
    <g id="Path-2" transform="matrix(0.238018,-0.273808,0.273808,0.238018,-25.4393,44.8796)">
        <path d="M56.294,44.231C69.747,34.59 95.011,34.59 142.586,44.231C190.161,53.873 211.856,69.314 217.493,84.755C223.13,100.196 222.987,119.822 192.483,159.874C161.979,199.925 138.58,223 107.447,223C76.315,223 52.342,177.61 42.842,124.401C33.342,71.192 42.842,53.873 56.294,44.231Z" style="fill:url(#_Linear1);"/>
    </g>
    <g id="boy-test" transform="matrix(0.362799,0,0,0.362799,25.9016,17.4606)">
        <ellipse id="Oval" cx="42" cy="188.553" rx="42" ry="2.553" style="fill:rgb(254,233,164);"/>
        <g id="Path" transform="matrix(1,0,0,1,28.0854,2.89447)">
            <path d="M13.5,0.345L1.167,12.932C0.832,15.859 0.611,18.264 0.506,20.146C0.51,21.653 1.081,22.37 2.218,22.295C2.32,22.294 2.423,22.294 2.529,22.295C2.93,22.295 3.319,22.256 3.696,22.18C4.784,26.86 8.117,28.395 13.694,26.785C14.569,29.03 15.567,31.192 16.69,33.27L23.654,28.358C22.719,26.509 21.876,24.603 21.125,22.64C20.818,21.814 20.61,20.983 20.503,20.146L16.418,14.429L20.541,4.835C19.893,3.738 19.024,2.792 17.935,1.995C16.556,0.996 15.077,0.446 13.5,0.345Z" style="fill:rgb(244,188,141);fill-rule:nonzero;"/>
        </g>
        <g id="Path1" serif:id="Path" transform="matrix(1,0,0,1,34.8392,7.71859)">
            <path d="M5.78,10.46C6.289,9.725 6.797,9.356 7.303,9.354C7.859,9.357 8.263,9.712 8.513,10.42C8.747,10.948 8.826,11.54 8.748,12.196C8.598,16.201 10.459,17.477 14.332,16.025C14.189,14.561 14.358,13.101 14.84,11.644C15.401,9.953 15.714,8.467 15.777,7.184C15.924,4.434 15.455,2.119 14.371,0.237L0.742,5.565C0.08,9.701 1.082,11.687 3.749,11.525C4.603,11.481 5.28,11.126 5.78,10.46Z" style="fill:rgb(76,47,32);fill-rule:nonzero;"/>
        </g>
        <g id="Group" transform="matrix(1,0,0,1,29.0503,15.4372)">
            <g id="Path2" serif:id="Path" transform="matrix(1,0,0,1,1.60804,2.41206)">
                <path d="M0.683,1.889C0.898,2.104 1.139,2.211 1.407,2.211C1.675,2.211 1.889,2.104 2.05,1.889C2.265,1.729 2.372,1.514 2.372,1.246C2.372,0.978 2.265,0.737 2.05,0.523C1.889,0.362 1.675,0.281 1.407,0.281C1.139,0.281 0.898,0.362 0.683,0.523C0.523,0.737 0.442,0.978 0.442,1.246C0.442,1.514 0.523,1.729 0.683,1.889Z" style="fill:rgb(51,54,87);fill-rule:nonzero;"/>
            </g>
            <path id="Layer32_0_1_STROKES" d="M0.724,0.603C1.822,0.71 2.935,0.951 4.06,1.327" style="fill:none;stroke:rgb(76,47,32);stroke-width:1px;"/>
        </g>
        <g id="Path3" serif:id="Path" transform="matrix(1,0,0,1,18.4372,0)">
            <path d="M22.77,0.15C22.622,0.188 22.468,0.226 22.307,0.263L10.459,4.803C10.073,5.012 9.713,5.274 9.378,5.591C8.478,6.491 8.027,7.567 8.027,8.817C8.027,9.393 8.117,9.931 8.297,10.431C8.352,10.54 8.404,10.64 8.452,10.731L10.111,14.558L0.926,18.048C0.695,18.148 0.515,18.298 0.386,18.498C0.334,18.698 0.347,18.911 0.425,19.136L0.425,19.173C0.502,19.373 0.63,19.511 0.81,19.586C1.093,19.711 1.351,19.736 1.582,19.661L30.874,8.555L28.289,3.002C28.054,2.399 27.681,1.848 27.169,1.351C26.269,0.475 25.175,0.038 23.889,0.038C23.502,0.038 23.129,0.075 22.77,0.15Z" style="fill:rgb(187,187,185);fill-rule:nonzero;"/>
        </g>
        <g id="Shape" transform="matrix(1,0,0,1,39.6633,179.457)">
            <path d="M24.458,2.352L23.4,0.615L20.852,2.352L20.852,5.572L24.458,5.572L24.458,2.352M3.92,5.572L3.92,2.352L2.705,0.615L0.157,2.352L0.157,5.572L3.92,5.572Z" style="fill:rgb(244,188,141);fill-rule:nonzero;"/>
        </g>
        <g id="Path4" serif:id="Path" transform="matrix(1,0,0,1,30.9799,96.4824)">
            <path d="M15.541,29.939C16.482,29.107 17.416,28.212 18.343,27.256C19.716,50.925 23.477,70.271 29.624,85.294L33.155,85.294L33.155,0.575L0.345,8.434C-0.415,42.041 2.591,67.661 9.363,85.294L13.009,85.294C14.581,74.102 15.426,55.65 15.541,29.939Z" style="fill:rgb(78,104,127);fill-rule:nonzero;"/>
        </g>
        <g id="Shape1" serif:id="Shape" transform="matrix(1,0,0,1,31.9447,184.281)">
            <path d="M32.179,0.289L28.586,0.289L23.275,2.026C21.739,2.522 20.906,3.363 20.776,4.548C20.75,5.045 21.088,5.32 21.791,5.375L30.93,5.375C31.841,5.403 32.257,4.962 32.179,4.052L32.179,0.289M11.716,4.052L11.716,0.289L7.967,0.289L2.656,2.026C1.11,2.509 0.264,3.336 0.117,4.507C0.118,5.044 0.47,5.334 1.172,5.375L10.466,5.375C11.379,5.407 11.795,4.966 11.716,4.052Z" style="fill:rgb(50,47,35);fill-rule:nonzero;"/>
        </g>
        <g id="Path5" serif:id="Path" transform="matrix(1,0,0,1,67.6432,103.236)">
            <path d="M0.804,12.033C0.976,12.2 1.23,12.344 1.568,12.464C3.879,12.833 4.951,10.534 4.784,5.566L4.784,0.666L0.161,2.156L0.161,10.465C0.161,11.092 0.375,11.615 0.804,12.033Z" style="fill:rgb(244,188,141);fill-rule:nonzero;"/>
        </g>
        <g id="Path6" serif:id="Path" transform="matrix(1,0,0,1,3.96482,39.5578)">
            <path d="M9.817,11.283C10.247,10.991 10.322,10.621 10.045,10.17L4.169,0.755C3.891,0.305 3.538,0.225 3.108,0.516L0.948,1.986C0.518,2.278 0.442,2.649 0.72,3.099L6.595,12.514C6.873,12.965 7.227,13.044 7.657,12.753L9.817,11.283Z" style="fill:rgb(50,47,35);fill-rule:nonzero;"/>
        </g>
        <g id="Path7" serif:id="Path" transform="matrix(1,0,0,1,3,44.3819)">
            <path d="M9.249,4.67C9.201,4.317 9.075,4.021 8.869,3.782C8.691,3.543 8.463,3.414 8.187,3.396C7.936,3.409 7.721,3.525 7.543,3.744C7.391,3.982 7.316,4.213 7.315,4.438L7.353,7.526L3.336,1.312C2.484,0.069 1.751,0.005 1.137,1.119C-0.133,3.545 1.623,7.996 6.406,14.472L10.12,15.321L10.082,11.771C9.976,9.581 9.698,7.214 9.249,4.67Z" style="fill:rgb(244,188,141);fill-rule:nonzero;"/>
        </g>
        <g id="Path8" serif:id="Path" transform="matrix(1,0,0,1,8.78895,23.1558)">
            <path d="M56.23,6.109L53.065,2.228L52.409,1.537C51.296,0.512 49.946,0 48.357,0C46.883,0 45.596,0.448 44.498,1.345C44.355,1.464 44.213,1.593 44.073,1.729L30.218,13.294C26.056,16.774 23.11,20.936 21.381,25.781L14.086,46.299L4.014,33.235L0.347,35.925L10.613,57.095C10.897,57.66 11.283,58.185 11.771,58.671C12.877,59.772 14.202,60.323 15.746,60.323C16.591,60.323 17.362,60.156 18.062,59.823L17.444,77.229C17.296,79.8 18.351,81.017 20.609,80.879L20.609,83.837C20.538,85.611 20.937,86.61 21.805,86.834L54.995,86.834C55.705,86.77 56.014,86.245 55.921,85.259L55.921,80.917C57.546,80.941 58.446,80.352 58.623,79.15L58.816,82.8L63.408,82.8L65.106,54.444C65.365,50.179 64.619,45.594 62.868,40.689L55.96,21.171L55.998,21.171C61.005,16.958 61.082,11.938 56.23,6.109Z" style="fill:rgb(17,34,88);fill-rule:nonzero;"/>
        </g>
    </g>
    <g id="virus" transform="matrix(0.362799,0,0,0.362799,54.1999,5.12544)">
        <g id="Path9" serif:id="Path" transform="matrix(1,0,0,1,5.18919,4.54054)">
            <path d="M30.195,3.989L28.8,3.308C31.809,13.121 31.755,19.099 28.638,21.243C25.739,23.187 20.56,20.268 13.103,12.486L12.616,13.297C20.356,20.66 23.135,25.784 20.951,28.67C18.555,31.108 12.641,30.146 3.211,25.784L3.373,26.919C12.958,31.368 17.509,34.947 17.027,37.654C16.995,40.728 11.46,42.069 0.422,41.676L0.616,42.778C10.992,42.507 16.43,44.377 16.93,48.389C17.356,52.448 12.535,56.124 2.465,59.416L3.276,60.227C13.914,56.188 20.011,55.69 21.568,58.735C22.627,61.544 19.578,66.636 12.422,74.011L13.297,74.951C19.852,66.714 24.738,63.341 27.957,64.832C30.274,66.072 29.096,71.801 24.422,82.022L25.589,81.73C29.095,73.125 32.976,68.79 37.232,68.724C40.756,68.881 42.853,74.427 43.524,85.362L42.195,87.73L45.373,85.978L44.465,84.616C43.878,75 45.099,69.66 48.13,68.595C51.532,67.798 55.467,72.392 59.935,82.378L62.4,82.378L60.357,80.724C56.139,72.388 54.874,67.167 56.562,65.059C59.35,62.776 64.334,65.954 71.514,74.595L72.973,76.476L72.389,73.622C65.293,66.291 62.418,61.167 63.762,58.249C65.106,55.351 71.073,55.869 81.665,59.805L84.714,59.416L82.249,58.67C71.97,56.228 67.148,52.984 67.784,48.941C67.945,45.243 73.448,43.383 84.292,43.362L86.368,43.005L84,42C73.428,43.582 68.087,42.382 67.978,38.4C68.431,34.966 73.014,31.366 81.73,27.6L82.865,25.2L81.211,26.822C71.647,31.266 66.134,32.261 64.67,29.805C63.048,26.84 65.535,21.651 72.13,14.238L74.108,12.941L71.254,13.557C64.169,21.273 59.228,23.879 56.432,21.373C54.229,19.537 54.261,13.861 56.53,4.346L57.827,2.53L55.654,4.119C52.812,14.178 49.807,18.686 46.638,17.643C43.261,16.415 41.38,11.151 40.995,1.849L40.703,0.584L39.924,1.914C40.638,11.269 39.903,16.534 37.719,17.708C35.018,18.286 32.51,13.713 30.195,3.989Z" style="fill:rgb(132,165,78);fill-rule:nonzero;"/>
        </g>
        <g id="Shape2" serif:id="Shape" transform="matrix(1,0,0,1,24,24.6486)">
            <path d="M36,35.027C35.114,35.027 34.346,35.341 33.697,35.968C33.07,36.616 32.757,37.384 32.757,38.27C32.757,39.157 33.07,39.914 33.697,40.541C34.346,41.189 35.114,41.514 36,41.514C36.886,41.514 37.643,41.189 38.27,40.541C38.919,39.914 39.243,39.157 39.243,38.27C39.243,37.384 38.919,36.616 38.27,35.968C37.643,35.341 36.886,35.027 36,35.027M46.378,28.541C46.378,27.654 46.054,26.886 45.405,26.238C44.778,25.611 44.022,25.297 43.135,25.297C42.249,25.297 41.481,25.611 40.832,26.238C40.205,26.886 39.892,27.654 39.892,28.541C39.892,29.427 40.205,30.184 40.832,30.811C41.481,31.459 42.249,31.784 43.135,31.784C44.022,31.784 44.778,31.459 45.405,30.811C46.054,30.184 46.378,29.427 46.378,28.541M27.405,45.016C28.054,44.389 28.378,43.632 28.378,42.746C28.378,41.859 28.054,41.092 27.405,40.443C26.778,39.816 26.022,39.503 25.135,39.503C24.249,39.503 23.481,39.816 22.832,40.443C22.205,41.092 21.892,41.859 21.892,42.746C21.892,43.632 22.205,44.389 22.832,45.016C23.481,45.665 24.249,45.989 25.135,45.989C26.022,45.989 26.778,45.665 27.405,45.016M15.243,36.292C14.616,35.665 13.859,35.351 12.973,35.351C12.086,35.351 11.319,35.665 10.67,36.292C10.043,36.941 9.73,37.708 9.73,38.595C9.73,39.481 10.043,40.238 10.67,40.865C11.319,41.514 12.086,41.838 12.973,41.838C13.859,41.838 14.616,41.514 15.243,40.865C15.892,40.238 16.216,39.481 16.216,38.595C16.216,37.708 15.892,36.941 15.243,36.292M7.135,27.697C6.508,27.07 5.751,26.757 4.865,26.757C3.978,26.757 3.211,27.07 2.562,27.697C1.935,28.346 1.622,29.114 1.622,30C1.622,30.886 1.935,31.643 2.562,32.27C3.211,32.919 3.978,33.243 4.865,33.243C5.751,33.243 6.508,32.919 7.135,32.27C7.784,31.643 8.108,30.886 8.108,30C8.108,29.114 7.784,28.346 7.135,27.697M15.243,26.432C14.357,26.432 13.589,26.746 12.941,27.373C12.314,28.022 12,28.789 12,29.676C12,30.562 12.314,31.319 12.941,31.946C13.589,32.595 14.357,32.919 15.243,32.919C16.13,32.919 16.886,32.595 17.514,31.946C18.162,31.319 18.486,30.562 18.486,29.676C18.486,28.789 18.162,28.022 17.514,27.373C16.886,26.746 16.13,26.432 15.243,26.432M27.73,30.357C26.843,30.357 26.076,30.67 25.427,31.297C24.8,31.946 24.486,32.714 24.486,33.6C24.486,34.486 24.8,35.243 25.427,35.87C26.076,36.519 26.843,36.843 27.73,36.843C28.616,36.843 29.373,36.519 30,35.87C30.649,35.243 30.973,34.486 30.973,33.6C30.973,32.714 30.649,31.946 30,31.297C29.373,30.67 28.616,30.357 27.73,30.357M25.297,25.459C25.946,24.832 26.27,24.076 26.27,23.189C26.27,22.303 25.946,21.535 25.297,20.886C24.67,20.259 23.914,19.946 23.027,19.946C22.141,19.946 21.373,20.259 20.724,20.886C20.097,21.535 19.784,22.303 19.784,23.189C19.784,24.076 20.097,24.832 20.724,25.459C21.373,26.108 22.141,26.432 23.027,26.432C23.914,26.432 24.67,26.108 25.297,25.459M28.346,10.346C27.719,9.719 26.962,9.405 26.076,9.405C25.189,9.405 24.422,9.719 23.773,10.346C23.146,10.995 22.832,11.762 22.832,12.649C22.832,13.535 23.146,14.292 23.773,14.919C24.422,15.568 25.189,15.892 26.076,15.892C26.962,15.892 27.719,15.568 28.346,14.919C28.995,14.292 29.319,13.535 29.319,12.649C29.319,11.762 28.995,10.995 28.346,10.346M11.643,17.351C11.643,18.238 11.957,18.995 12.584,19.622C13.232,20.27 14,20.595 14.886,20.595C15.773,20.595 16.53,20.27 17.157,19.622C17.805,18.995 18.13,18.238 18.13,17.351C18.13,16.465 17.805,15.697 17.157,15.049C16.53,14.422 15.773,14.108 14.886,14.108C14,14.108 13.232,14.422 12.584,15.049C11.957,15.697 11.643,16.465 11.643,17.351M5.838,19.459C6.486,18.832 6.811,18.076 6.811,17.189C6.811,16.303 6.486,15.535 5.838,14.886C5.211,14.259 4.454,13.946 3.568,13.946C2.681,13.946 1.914,14.259 1.265,14.886C0.638,15.535 0.324,16.303 0.324,17.189C0.324,18.076 0.638,18.832 1.265,19.459C1.914,20.108 2.681,20.432 3.568,20.432C4.454,20.432 5.211,20.108 5.838,19.459M14.757,7.459C14.757,6.573 14.432,5.805 13.784,5.157C13.157,4.53 12.4,4.216 11.514,4.216C10.627,4.216 9.859,4.53 9.211,5.157C8.584,5.805 8.27,6.573 8.27,7.459C8.27,8.346 8.584,9.103 9.211,9.73C9.859,10.378 10.627,10.703 11.514,10.703C12.4,10.703 13.157,10.378 13.784,9.73C14.432,9.103 14.757,8.346 14.757,7.459M19.751,0.941C19.124,1.589 18.811,2.357 18.811,3.243C18.811,4.13 19.124,4.886 19.751,5.514C20.4,6.162 21.168,6.486 22.054,6.486C22.941,6.486 23.697,6.162 24.324,5.514C24.973,4.886 25.297,4.13 25.297,3.243C25.297,2.357 24.973,1.589 24.324,0.941C23.697,0.314 22.941,0 22.054,0C21.168,0 20.4,0.314 19.751,0.941M40.832,13.751C40.205,14.4 39.892,15.168 39.892,16.054C39.892,16.941 40.205,17.697 40.832,18.324C41.481,18.973 42.249,19.297 43.135,19.297C44.022,19.297 44.778,18.973 45.405,18.324C46.054,17.697 46.378,16.941 46.378,16.054C46.378,15.168 46.054,14.4 45.405,13.751C44.778,13.124 44.022,12.811 43.135,12.811C42.249,12.811 41.481,13.124 40.832,13.751M34.378,18.649C33.492,18.649 32.724,18.962 32.076,19.589C31.449,20.238 31.135,21.005 31.135,21.892C31.135,22.778 31.449,23.535 32.076,24.162C32.724,24.811 33.492,25.135 34.378,25.135C35.265,25.135 36.022,24.811 36.649,24.162C37.297,23.535 37.622,22.778 37.622,21.892C37.622,21.005 37.297,20.238 36.649,19.589C36.022,18.962 35.265,18.649 34.378,18.649M36,9.243C36.649,8.616 36.973,7.859 36.973,6.973C36.973,6.086 36.649,5.319 36,4.67C35.373,4.043 34.616,3.73 33.73,3.73C32.843,3.73 32.076,4.043 31.427,4.67C30.8,5.319 30.486,6.086 30.486,6.973C30.486,7.859 30.8,8.616 31.427,9.243C32.076,9.892 32.843,10.216 33.73,10.216C34.616,10.216 35.373,9.892 36,9.243Z" style="fill:rgb(188,225,122);fill-rule:nonzero;"/>
        </g>
        <path id="Shape3" serif:id="Shape" d="M19.784,80.53C19.784,79.643 19.459,78.876 18.811,78.227C18.184,77.6 17.427,77.286 16.541,77.286C15.654,77.286 14.886,77.6 14.238,78.227C13.611,78.876 13.297,79.643 13.297,80.53C13.297,81.416 13.611,82.173 14.238,82.8C14.886,83.449 15.654,83.773 16.541,83.773C17.427,83.773 18.184,83.449 18.811,82.8C19.459,82.173 19.784,81.416 19.784,80.53M8.432,62.724C7.805,62.097 7.049,61.784 6.162,61.784C5.276,61.784 4.508,62.097 3.859,62.724C3.232,63.373 2.919,64.141 2.919,65.027C2.919,65.914 3.232,66.67 3.859,67.297C4.508,67.946 5.276,68.27 6.162,68.27C7.049,68.27 7.805,67.946 8.432,67.297C9.081,66.67 9.405,65.914 9.405,65.027C9.405,64.141 9.081,63.373 8.432,62.724M5.838,44.238C5.211,43.611 4.454,43.297 3.568,43.297C2.681,43.297 1.914,43.611 1.265,44.238C0.638,44.886 0.324,45.654 0.324,46.541C0.324,47.427 0.638,48.184 1.265,48.811C1.914,49.459 2.681,49.784 3.568,49.784C4.454,49.784 5.211,49.459 5.838,48.811C6.486,48.184 6.811,47.427 6.811,46.541C6.811,45.654 6.486,44.886 5.838,44.238M8.919,27.697C8.292,27.07 7.535,26.757 6.649,26.757C5.762,26.757 4.995,27.07 4.346,27.697C3.719,28.346 3.405,29.114 3.405,30C3.405,30.886 3.719,31.643 4.346,32.27C4.995,32.919 5.762,33.243 6.649,33.243C7.535,33.243 8.292,32.919 8.919,32.27C9.568,31.643 9.892,30.886 9.892,30C9.892,29.114 9.568,28.346 8.919,27.697M18.973,18.162C19.622,17.535 19.946,16.778 19.946,15.892C19.946,15.005 19.622,14.238 18.973,13.589C18.346,12.962 17.589,12.649 16.703,12.649C15.816,12.649 15.049,12.962 14.4,13.589C13.773,14.238 13.459,15.005 13.459,15.892C13.459,16.778 13.773,17.535 14.4,18.162C15.049,18.811 15.816,19.135 16.703,19.135C17.589,19.135 18.346,18.811 18.973,18.162M32.595,88.054C32.595,87.168 32.27,86.4 31.622,85.751C30.995,85.124 30.238,84.811 29.351,84.811C28.465,84.811 27.697,85.124 27.049,85.751C26.422,86.4 26.108,87.168 26.108,88.054C26.108,88.941 26.422,89.697 27.049,90.324C27.697,90.973 28.465,91.297 29.351,91.297C30.238,91.297 30.995,90.973 31.622,90.324C32.27,89.697 32.595,88.941 32.595,88.054M46.8,90.065C46.173,90.714 45.859,91.481 45.859,92.368C45.859,93.254 46.173,94.011 46.8,94.638C47.449,95.286 48.216,95.611 49.103,95.611C49.989,95.611 50.746,95.286 51.373,94.638C52.022,94.011 52.346,93.254 52.346,92.368C52.346,91.481 52.022,90.714 51.373,90.065C50.746,89.438 49.989,89.124 49.103,89.124C48.216,89.124 47.449,89.438 46.8,90.065M69.892,88.314C69.892,87.427 69.568,86.659 68.919,86.011C68.292,85.384 67.535,85.07 66.649,85.07C65.762,85.07 64.995,85.384 64.346,86.011C63.719,86.659 63.405,87.427 63.405,88.314C63.405,89.2 63.719,89.957 64.346,90.584C64.995,91.232 65.762,91.557 66.649,91.557C67.535,91.557 68.292,91.232 68.919,90.584C69.568,89.957 69.892,89.2 69.892,88.314M81.73,83.092C82.378,82.465 82.703,81.708 82.703,80.822C82.703,79.935 82.378,79.168 81.73,78.519C81.103,77.892 80.346,77.578 79.459,77.578C78.573,77.578 77.805,77.892 77.157,78.519C76.53,79.168 76.216,79.935 76.216,80.822C76.216,81.708 76.53,82.465 77.157,83.092C77.805,83.741 78.573,84.065 79.459,84.065C80.346,84.065 81.103,83.741 81.73,83.092M87.697,62.919C87.07,63.568 86.757,64.335 86.757,65.222C86.757,66.108 87.07,66.865 87.697,67.492C88.346,68.141 89.114,68.465 90,68.465C90.886,68.465 91.643,68.141 92.27,67.492C92.919,66.865 93.243,66.108 93.243,65.222C93.243,64.335 92.919,63.568 92.27,62.919C91.643,62.292 90.886,61.978 90,61.978C89.114,61.978 88.346,62.292 87.697,62.919M92.432,43.297C91.546,43.297 90.778,43.611 90.13,44.238C89.503,44.886 89.189,45.654 89.189,46.541C89.189,47.427 89.503,48.184 90.13,48.811C90.778,49.459 91.546,49.784 92.432,49.784C93.319,49.784 94.076,49.459 94.703,48.811C95.351,48.184 95.676,47.427 95.676,46.541C95.676,45.654 95.351,44.886 94.703,44.238C94.076,43.611 93.319,43.297 92.432,43.297M89.351,26.757C88.465,26.757 87.697,27.07 87.049,27.697C86.422,28.346 86.108,29.114 86.108,30C86.108,30.886 86.422,31.643 87.049,32.27C87.697,32.919 88.465,33.243 89.351,33.243C90.238,33.243 90.995,32.919 91.622,32.27C92.27,31.643 92.595,30.886 92.595,30C92.595,29.114 92.27,28.346 91.622,27.697C90.995,27.07 90.238,26.757 89.351,26.757M76.508,18.162C77.157,18.811 77.924,19.135 78.811,19.135C79.697,19.135 80.454,18.811 81.081,18.162C81.73,17.535 82.054,16.778 82.054,15.892C82.054,15.005 81.73,14.238 81.081,13.589C80.454,12.962 79.697,12.649 78.811,12.649C77.924,12.649 77.157,12.962 76.508,13.589C75.881,14.238 75.568,15.005 75.568,15.892C75.568,16.778 75.881,17.535 76.508,18.162M64.378,7.946C65.027,7.319 65.351,6.562 65.351,5.676C65.351,4.789 65.027,4.022 64.378,3.373C63.751,2.746 62.995,2.432 62.108,2.432C61.222,2.432 60.454,2.746 59.805,3.373C59.178,4.022 58.865,4.789 58.865,5.676C58.865,6.562 59.178,7.319 59.805,7.946C60.454,8.595 61.222,8.919 62.108,8.919C62.995,8.919 63.751,8.595 64.378,7.946M47.838,5.514C48.486,4.886 48.811,4.13 48.811,3.243C48.811,2.357 48.486,1.589 47.838,0.941C47.211,0.314 46.454,0 45.568,0C44.681,0 43.914,0.314 43.265,0.941C42.638,1.589 42.324,2.357 42.324,3.243C42.324,4.13 42.638,4.886 43.265,5.514C43.914,6.162 44.681,6.486 45.568,6.486C46.454,6.486 47.211,6.162 47.838,5.514M36.162,7.946C36.811,7.319 37.135,6.562 37.135,5.676C37.135,4.789 36.811,4.022 36.162,3.373C35.535,2.746 34.778,2.432 33.892,2.432C33.005,2.432 32.238,2.746 31.589,3.373C30.962,4.022 30.649,4.789 30.649,5.676C30.649,6.562 30.962,7.319 31.589,7.946C32.238,8.595 33.005,8.919 33.892,8.919C34.778,8.919 35.535,8.595 36.162,7.946Z" style="fill:rgb(188,225,121);fill-rule:nonzero;"/>
    </g>
    <g id="Oval1" serif:id="Oval" transform="matrix(0.362799,0,0,0.362799,-6.02476,-6.84693)">
        <circle cx="79" cy="169" r="8" style="fill:rgb(188,225,121);"/>
    </g>
    <g id="Oval2" serif:id="Oval" transform="matrix(0.362799,0,0,0.362799,-6.02476,-6.84693)">
        <circle cx="91" cy="85" r="4" style="fill:rgb(188,225,121);"/>
    </g>
    <g id="Oval3" serif:id="Oval" transform="matrix(0.362799,0,0,0.362799,-6.02476,-6.84693)">
        <circle cx="180" cy="145" r="4" style="fill:rgb(188,225,121);"/>
    </g>
    <g id="Oval4" serif:id="Oval" transform="matrix(0.362799,0,0,0.362799,-6.02476,-6.84693)">
        <circle cx="106" cy="218" r="3" style="fill:rgb(188,225,121);"/>
    </g>
    <defs>
        <linearGradient id="_Linear1" x1="0" y1="0" x2="1" y2="0" gradientUnits="userSpaceOnUse" gradientTransform="matrix(-27.0987,-229.78,229.78,-27.0987,109.183,223)"><stop offset="0" style="stop-color:rgb(255,238,173);stop-opacity:1"/><stop offset="1" style="stop-color:white;stop-opacity:1"/></linearGradient>
    </defs>
</svg>
