<?xml version="1.0" encoding="UTF-8"?>
<svg width="246px" height="227px" viewBox="0 0 246 227" version="1.1" xmlns="http://www.w3.org/2000/svg" xmlns:xlink="http://www.w3.org/1999/xlink">
    <!-- Generator: Sketch 64 (93537) - https://sketch.com -->
    <title>Group 4</title>
    <desc>Created with Sketch.</desc>
    <defs>
        <linearGradient x1="38.7021277%" y1="100%" x2="23.7587094%" y2="-23.5376911%" id="linearGradient-1">
            <stop stop-color="#FFEEAD" offset="0%"></stop>
            <stop stop-color="#FFFFFF" offset="100%"></stop>
        </linearGradient>
    </defs>
    <g id="Page-1" stroke="none" stroke-width="1" fill="none" fill-rule="evenodd">
        <g id="00.02.02-Intro-II---v02" transform="translate(-46.000000, -104.000000)">
            <g id="Group-4" transform="translate(30.000000, 72.000000)">
                <path d="M56.2942095,44.2313908 C69.7468269,34.5895364 95.0108503,34.5895364 142.585856,44.2313908 C190.160861,53.8732452 211.856176,69.3142557 217.492841,84.7552662 C223.129505,100.196277 222.986858,119.822001 192.483034,159.873696 C161.97921,199.92539 138.579539,223 107.447124,223 C76.3147079,223 52.3415733,177.609992 42.841592,124.401104 C33.3416107,71.1922164 42.841592,53.8732452 56.2942095,44.2313908 Z" id="Path-2" fill="url(#linearGradient-1)" transform="translate(129.670911, 130.000000) rotate(-49.000000) translate(-129.670911, -130.000000) "></path>
                <g id="boy-test" transform="translate(88.000000, 67.000000)">
                    <ellipse id="Oval" fill="#FEE9A4" cx="42" cy="188.553191" rx="42" ry="2.55319149"></ellipse>
                    <g id="Group" transform="translate(28.085427, 2.894472)" fill="#F4BC8D" fill-rule="nonzero">
                        <g id="Layer34_0_FILL-link">
                            <g id="Layer34_0_FILL">
                                <path d="M13.4997568,0.34536318 L1.16712595,12.9319324 C0.83188118,15.8590252 0.611424056,18.2637763 0.505754579,20.1461855 C0.510313665,21.6534519 1.08090858,22.3697607 2.21753931,22.2951119 C2.31956152,22.2941126 2.42330605,22.2941126 2.5287729,22.2951119 C2.9296685,22.2946123 3.31871049,22.2562386 3.69589885,22.1799909 C4.78389934,26.8600817 8.11669233,28.3950291 13.6942778,26.7848333 C14.5687105,29.0302935 15.5672516,31.1920112 16.6899011,33.2699863 L23.6537526,28.3581544 C22.7185322,26.5090224 21.8756079,24.6031293 21.1249797,22.6404751 C20.8179,21.8143416 20.6104109,20.9829117 20.5025126,20.1461855 L16.4175717,14.4285062 L20.5414168,4.83508451 C19.8930135,3.73823664 19.024153,2.7916857 17.9348355,1.9954317 C16.5557627,0.996017017 15.0774031,0.445994175 13.4997568,0.34536318 Z" id="Path"></path>
                            </g>
                        </g>
                    </g>
                    <g id="Group" transform="translate(34.839196, 7.718593)" fill="#4C2F20" fill-rule="nonzero">
                        <g id="Layer33_0_FILL-link">
                            <g id="Layer33_0_FILL">
                                <path d="M5.77975592,10.4595706 C6.28936947,9.72464596 6.79705073,9.35625857 7.30279971,9.35440841 C7.85939818,9.35697807 8.2629397,9.71220877 8.51342426,10.4201005 C8.7474336,10.9478072 8.82553841,11.5398584 8.74773869,12.196254 C8.59783441,16.2010279 10.4593324,17.477227 14.3322326,16.0248515 C14.188837,14.5611695 14.3580641,13.1007766 14.8399139,11.6436729 C15.4012922,9.95324349 15.7137114,8.46653723 15.7771716,7.18355413 C15.9237198,4.43431932 15.4550909,2.11874143 14.371285,0.236820466 L0.741995693,5.56528095 C0.0795285954,9.70059388 1.08187365,11.6872545 3.74903087,11.5252627 C4.60289543,11.48127 5.27980378,11.1260393 5.77975592,10.4595706 Z" id="Path"></path>
                            </g>
                        </g>
                    </g>
                    <g id="Group" transform="translate(29.050251, 15.437186)">
                        <g id="Layer32_0_FILL-link" transform="translate(1.608040, 2.412060)" fill="#333657" fill-rule="nonzero">
                            <g id="Layer32_0_FILL">
                                <path d="M0.683417085,1.88944724 C0.897822446,2.1038526 1.13902848,2.21105528 1.40703518,2.21105528 C1.67504188,2.21105528 1.88944724,2.1038526 2.05025126,1.88944724 C2.26465662,1.72864322 2.3718593,1.51423786 2.3718593,1.24623116 C2.3718593,0.978224456 2.26465662,0.737018425 2.05025126,0.522613065 C1.88944724,0.361809045 1.67504188,0.281407035 1.40703518,0.281407035 C1.13902848,0.281407035 0.897822446,0.361809045 0.683417085,0.522613065 C0.522613065,0.737018425 0.442211055,0.978224456 0.442211055,1.24623116 C0.442211055,1.51423786 0.522613065,1.72864322 0.683417085,1.88944724 Z" id="Path"></path>
                            </g>
                        </g>
                        <g id="Layer32_0_1_STROKES-link" stroke="#4C2F20" stroke-linecap="round" stroke-linejoin="round">
                            <path d="M0.72361809,0.603015075 C1.82244556,0.710217755 2.93467337,0.951423786 4.06030151,1.32663317" id="Layer32_0_1_STROKES"></path>
                        </g>
                    </g>
                    <g id="Group" transform="translate(18.437186, 0.000000)" fill="#BBBBB9" fill-rule="nonzero">
                        <g id="Layer31_0_FILL-link">
                            <g id="Layer31_0_FILL">
                                <path d="M22.7698492,0.150083752 C22.6221106,0.187995533 22.4677387,0.225516471 22.3067337,0.262646566 L10.4586935,4.80268007 C10.0727638,5.01178113 9.71256281,5.27442769 9.37809045,5.59061977 C8.47758794,6.49112228 8.02733668,7.5667225 8.02733668,8.81742044 C8.02733668,9.39303462 8.11738693,9.93083473 8.29748744,10.4308208 C8.3521608,10.5400614 8.40361809,10.6401173 8.4518593,10.7309883 L10.1113568,14.558124 L0.926231156,18.0475712 C0.694673367,18.147627 0.514572864,18.2977108 0.385929648,18.4978224 C0.334472362,18.6979341 0.347336683,18.9105528 0.424522613,19.1356784 L0.424522613,19.1731993 C0.501708543,19.373311 0.630351759,19.5108878 0.810452261,19.5859296 C1.09346734,19.7109994 1.35075377,19.7360134 1.58231156,19.6609715 L30.8743719,8.55477387 L28.2886432,3.00167504 C28.0544724,2.39879955 27.681407,1.84849246 27.1694472,1.35075377 C26.2689447,0.475265215 25.1754774,0.037520938 23.8890452,0.037520938 C23.5022111,0.037520938 23.1291457,0.075041876 22.7698492,0.150083752 Z" id="Path"></path>
                            </g>
                        </g>
                    </g>
                    <g id="Group" transform="translate(39.663317, 179.457286)" fill="#F4BC8D" fill-rule="nonzero">
                        <g id="Layer30_0_FILL-link">
                            <g id="Layer30_0_FILL">
                                <path d="M24.4582915,2.35175879 L23.4,0.615075377 L20.8522613,2.35175879 L20.8522613,5.5718593 L24.4582915,5.5718593 L24.4582915,2.35175879 M3.91959799,5.5718593 L3.91959799,2.35175879 L2.70452261,0.615075377 L0.15678392,2.35175879 L0.15678392,5.5718593 L3.91959799,5.5718593 Z" id="Shape"></path>
                            </g>
                        </g>
                    </g>
                    <g id="Group" transform="translate(30.979899, 96.482412)" fill="#4E687F" fill-rule="nonzero">
                        <g id="Layer29_0_FILL-link">
                            <g id="Layer29_0_FILL">
                                <path d="M15.5413431,29.9392678 C16.4819981,29.1068894 17.4157578,28.212417 18.3426222,27.2558507 C19.7161803,50.9251267 23.4768016,70.2712861 29.6244861,85.2943288 L33.1548652,85.2943288 L33.1548652,0.575017947 L0.34536318,8.43359655 C-0.414615692,42.0409996 2.59132309,67.6612437 9.36317953,85.2943288 L13.0086798,85.2943288 C14.5814013,74.1020437 15.4256224,55.6503567 15.5413431,29.9392678 Z" id="Path"></path>
                            </g>
                        </g>
                    </g>
                    <g id="Group" transform="translate(31.944724, 184.281407)" fill="#322F23" fill-rule="nonzero">
                        <g id="Layer28_0_FILL-link">
                            <g id="Layer28_0_FILL">
                                <path d="M32.1791816,0.289447236 L28.5863604,0.289447236 L23.2752333,2.02613065 C21.7391721,2.52232592 20.9060541,3.36310122 20.7758794,4.54845657 C20.7498445,5.04465183 21.0882986,5.32031587 21.7912419,5.37544867 L30.9295047,5.37544867 C31.8407274,5.40301508 32.2572864,4.96195262 32.1791816,4.05226131 L32.1791816,0.289447236 M11.7157215,4.05226131 L11.7157215,0.289447236 L7.9666906,0.289447236 L2.65556353,2.02613065 C1.10984087,2.50929648 0.263705432,3.33628859 0.117157215,4.50710696 C0.118174204,5.04411342 0.469645848,5.33356066 1.17157215,5.37544867 L10.4660445,5.37544867 C11.3788945,5.40732233 11.7954535,4.96625987 11.7157215,4.05226131 Z" id="Shape"></path>
                            </g>
                        </g>
                    </g>
                    <g id="Group" transform="translate(67.643216, 103.236181)" fill="#F4BC8D" fill-rule="nonzero">
                        <g id="Layer27_0_FILL-link">
                            <g id="Layer27_0_FILL">
                                <path d="M0.804020101,12.0331658 C0.975607203,12.2004633 1.23021357,12.3441818 1.5678392,12.4643216 C3.87939698,12.833315 4.95142379,10.5338175 4.7839196,5.56582915 L4.7839196,0.666331658 L0.16080402,2.15577889 L0.16080402,10.4653266 C0.16080402,11.0924623 0.37520938,11.6150754 0.804020101,12.0331658 Z" id="Path"></path>
                            </g>
                        </g>
                    </g>
                    <g id="Group" transform="translate(3.964824, 39.557789)" fill="#322F23" fill-rule="nonzero">
                        <g id="Layer26_0_FILL-link">
                            <g id="Layer26_0_FILL">
                                <path d="M9.81708543,11.2827668 C10.2466619,10.9914277 10.3224695,10.6206326 10.0445083,10.1703813 L4.16941852,0.754832988 C3.89145729,0.304581732 3.53768844,0.225125628 3.10811199,0.516464676 L0.947595118,1.9864026 C0.518018665,2.27774165 0.442211055,2.6485368 0.72017229,3.09878806 L6.59526202,12.5143364 C6.87322326,12.9645876 7.2269921,13.0440437 7.65656856,12.7527047 L9.81708543,11.2827668 Z" id="Path"></path>
                            </g>
                        </g>
                    </g>
                    <g id="Group" transform="translate(3.000000, 44.381910)" fill="#F4BC8D" fill-rule="nonzero">
                        <g id="Layer25_0_FILL-link">
                            <g id="Layer25_0_FILL">
                                <path d="M9.24852836,4.66974874 C9.20134602,4.31688442 9.075,4.02100503 8.86949031,3.78211055 C8.69073044,3.54261307 8.46330761,3.41396985 8.18722182,3.3961809 C7.93610912,3.40914573 7.72132089,3.52492462 7.54285714,3.74351759 C7.39134063,3.98160804 7.31553302,4.21316583 7.31543431,4.43819095 L7.35333812,7.52562814 L3.33553482,1.3121608 C2.48427854,0.0692462312 1.75147164,0.00492462312 1.13711414,1.11919598 C-0.133255564,3.54472362 1.62295406,7.99577889 6.405743,14.4723618 L10.1203159,15.321407 L10.0824121,11.7708543 C9.97580761,9.58120603 9.69784637,7.21417085 9.24852836,4.66974874 Z" id="Path"></path>
                            </g>
                        </g>
                    </g>
                    <g id="Group" transform="translate(8.788945, 23.155779)" fill="#112258" fill-rule="nonzero">
                        <g id="Layer24_0_FILL-link">
                            <g id="Layer24_0_FILL">
                                <path d="M56.2299497,6.10912972 L53.0653266,2.22848757 L52.4092462,1.53688798 C51.2963819,0.512295993 49.9456281,0 48.3569849,0 C46.8827136,0 45.5962814,0.448258994 44.4976884,1.34477698 C44.3548744,1.46444612 44.2133668,1.59252012 44.0731658,1.72899898 L30.2182915,13.294081 C26.0558794,16.7737915 23.1099497,20.9361965 21.3805025,25.7812959 L14.0864322,46.2987504 L4.01366834,33.2352026 L0.347336683,35.9247565 L10.6130653,57.0953884 C10.8972864,57.6601147 11.2832161,58.1852181 11.7708543,58.6706986 C12.8771859,59.772135 14.2022111,60.3228532 15.7459296,60.3228532 C16.5905528,60.3228532 17.3624121,60.156357 18.0615075,59.8233646 L17.4440201,77.228621 C17.2962814,79.7999066 18.3511558,81.0166096 20.6086432,80.8787299 L20.6086432,83.8372393 C20.538392,85.610764 20.9371859,86.6097412 21.8050251,86.8341709 L54.9949749,86.8341709 C55.7049246,86.7699337 56.0136683,86.2448303 55.921206,85.2588607 L55.921206,80.9171521 C57.5455276,80.9406657 58.4460302,80.3515253 58.6227136,79.149731 L58.8156784,82.7998399 L63.4082412,82.7998399 L65.1063317,54.4442567 C65.3648241,50.1793925 64.6186935,45.5943434 62.8679397,40.6891093 L55.959799,21.1706319 L55.998392,21.1706319 C61.0050251,16.9584982 61.0822111,11.9379975 56.2299497,6.10912972 Z" id="Path"></path>
                            </g>
                        </g>
                    </g>
                </g>
                <g id="virus" transform="translate(166.000000, 33.000000)" fill-rule="nonzero">
                    <g id="Group" transform="translate(5.189189, 4.540541)" fill="#84A54E">
                        <g id="Layer22_0_FILL-link">
                            <g id="Layer22_0_FILL">
                                <path d="M30.1945946,3.98918919 L28.8,3.30810811 C31.809375,13.1205236 31.7553209,19.098902 28.6378378,21.2432432 C25.7386824,23.1866554 20.5603041,20.2677365 13.1027027,12.4864865 L12.6162162,13.2972973 C20.3563345,20.6600507 23.1347128,25.784375 20.9513514,28.6702703 C18.5545608,31.108277 12.6410473,30.1461149 3.21081081,25.7837838 L3.37297297,26.9189189 C12.9576014,31.3681588 17.5089527,34.9465372 17.027027,37.6540541 C16.9951858,40.7280405 11.4600507,42.0685811 0.421621622,41.6756757 L0.616216216,42.7783784 C10.9921453,42.5065878 16.4299831,44.3768581 16.9297297,48.3891892 C17.3564189,52.447973 12.5347973,56.1236486 2.46486486,59.4162162 L3.27567568,60.227027 C13.9140203,56.1875845 20.0113176,55.6902872 21.5675676,58.7351351 C22.6267736,61.5440034 19.578125,66.6358953 12.4216216,74.0108108 L13.2972973,74.9513514 C19.8518581,66.7140203 24.7383446,63.3410473 27.9567568,64.8324324 C30.2743243,66.0716216 29.0959459,71.8013514 24.4216216,82.0216216 L25.5891892,81.7297297 C29.0953547,73.1246622 32.9764358,68.789527 37.2324324,68.7243243 C40.7559966,68.88125 42.8532939,74.4271959 43.5243243,85.3621622 L42.1945946,87.7297297 L45.372973,85.9783784 L44.4648649,84.6162162 C43.8778716,75.0003378 45.0994932,69.6597973 48.1297297,68.5945946 C51.5318412,67.7978885 55.4669764,72.3924831 59.9351351,82.3783784 L62.4,82.3783784 L60.3567568,80.7243243 C56.1391892,72.3882601 54.8743243,67.1666385 56.5621622,65.0594595 C59.3498311,62.7755068 64.3336149,65.9538851 71.5135135,74.5945946 L72.972973,76.4756757 L72.3891892,73.6216216 C65.2934122,66.2910473 62.4177365,61.166723 63.7621622,58.2486486 C65.1056588,55.3505068 71.0732264,55.8694257 81.6648649,59.8054054 L84.7135135,59.4162162 L82.2486486,58.6702703 C71.9700169,56.2277027 67.1483953,52.9844595 67.7837838,48.9405405 C67.9454392,45.2428209 73.4481419,43.3833615 84.2918919,43.3621622 L86.3675676,43.0054054 L84,42 C73.4275338,43.5820101 68.0869932,42.3820101 67.9783784,38.4 C68.4306588,34.9662162 73.0144426,31.3662162 81.7297297,27.6 L82.8648649,25.2 L81.2108108,26.8216216 C71.6472973,31.2663007 66.1337838,32.2608953 64.6702703,29.8054054 C63.0483108,26.8401182 65.5347973,21.6509291 72.1297297,14.2378378 L74.1081081,12.9405405 L71.2540541,13.5567568 C64.1688345,21.2733108 59.2282939,23.8787162 56.4324324,21.372973 C54.2286318,19.5366554 54.2610642,13.8609797 56.5297297,4.34594595 L57.827027,2.52972973 L55.6540541,4.11891892 C52.8119088,14.1778716 49.8065034,18.6859797 46.6378378,17.6432432 C43.2611486,16.4153716 41.3800676,11.1505068 40.9945946,1.84864865 L40.7027027,0.583783784 L39.9243243,1.91351351 C40.6377534,11.2688345 39.9026182,16.5336993 37.7189189,17.7081081 C35.0178209,18.2861486 32.5097128,13.7131757 30.1945946,3.98918919 Z" id="Path"></path>
                            </g>
                        </g>
                    </g>
                    <g id="Group" transform="translate(24.000000, 24.648649)" fill="#BCE17A">
                        <g id="Layer21_0_FILL-link">
                            <g id="Layer21_0_FILL">
                                <path d="M36,35.027027 C35.1135135,35.027027 34.3459459,35.3405405 33.6972973,35.9675676 C33.0702703,36.6162162 32.7567568,37.3837838 32.7567568,38.2702703 C32.7567568,39.1567568 33.0702703,39.9135135 33.6972973,40.5405405 C34.3459459,41.1891892 35.1135135,41.5135135 36,41.5135135 C36.8864865,41.5135135 37.6432432,41.1891892 38.2702703,40.5405405 C38.9189189,39.9135135 39.2432432,39.1567568 39.2432432,38.2702703 C39.2432432,37.3837838 38.9189189,36.6162162 38.2702703,35.9675676 C37.6432432,35.3405405 36.8864865,35.027027 36,35.027027 M46.3783784,28.5405405 C46.3783784,27.6540541 46.0540541,26.8864865 45.4054054,26.2378378 C44.7783784,25.6108108 44.0216216,25.2972973 43.1351351,25.2972973 C42.2486486,25.2972973 41.4810811,25.6108108 40.8324324,26.2378378 C40.2054054,26.8864865 39.8918919,27.6540541 39.8918919,28.5405405 C39.8918919,29.427027 40.2054054,30.1837838 40.8324324,30.8108108 C41.4810811,31.4594595 42.2486486,31.7837838 43.1351351,31.7837838 C44.0216216,31.7837838 44.7783784,31.4594595 45.4054054,30.8108108 C46.0540541,30.1837838 46.3783784,29.427027 46.3783784,28.5405405 M27.4054054,45.0162162 C28.0540541,44.3891892 28.3783784,43.6324324 28.3783784,42.7459459 C28.3783784,41.8594595 28.0540541,41.0918919 27.4054054,40.4432432 C26.7783784,39.8162162 26.0216216,39.5027027 25.1351351,39.5027027 C24.2486486,39.5027027 23.4810811,39.8162162 22.8324324,40.4432432 C22.2054054,41.0918919 21.8918919,41.8594595 21.8918919,42.7459459 C21.8918919,43.6324324 22.2054054,44.3891892 22.8324324,45.0162162 C23.4810811,45.6648649 24.2486486,45.9891892 25.1351351,45.9891892 C26.0216216,45.9891892 26.7783784,45.6648649 27.4054054,45.0162162 M15.2432432,36.2918919 C14.6162162,35.6648649 13.8594595,35.3513514 12.972973,35.3513514 C12.0864865,35.3513514 11.3189189,35.6648649 10.6702703,36.2918919 C10.0432432,36.9405405 9.72972973,37.7081081 9.72972973,38.5945946 C9.72972973,39.4810811 10.0432432,40.2378378 10.6702703,40.8648649 C11.3189189,41.5135135 12.0864865,41.8378378 12.972973,41.8378378 C13.8594595,41.8378378 14.6162162,41.5135135 15.2432432,40.8648649 C15.8918919,40.2378378 16.2162162,39.4810811 16.2162162,38.5945946 C16.2162162,37.7081081 15.8918919,36.9405405 15.2432432,36.2918919 M7.13513514,27.6972973 C6.50810811,27.0702703 5.75135135,26.7567568 4.86486486,26.7567568 C3.97837838,26.7567568 3.21081081,27.0702703 2.56216216,27.6972973 C1.93513514,28.3459459 1.62162162,29.1135135 1.62162162,30 C1.62162162,30.8864865 1.93513514,31.6432432 2.56216216,32.2702703 C3.21081081,32.9189189 3.97837838,33.2432432 4.86486486,33.2432432 C5.75135135,33.2432432 6.50810811,32.9189189 7.13513514,32.2702703 C7.78378378,31.6432432 8.10810811,30.8864865 8.10810811,30 C8.10810811,29.1135135 7.78378378,28.3459459 7.13513514,27.6972973 M15.2432432,26.4324324 C14.3567568,26.4324324 13.5891892,26.7459459 12.9405405,27.372973 C12.3135135,28.0216216 12,28.7891892 12,29.6756757 C12,30.5621622 12.3135135,31.3189189 12.9405405,31.9459459 C13.5891892,32.5945946 14.3567568,32.9189189 15.2432432,32.9189189 C16.1297297,32.9189189 16.8864865,32.5945946 17.5135135,31.9459459 C18.1621622,31.3189189 18.4864865,30.5621622 18.4864865,29.6756757 C18.4864865,28.7891892 18.1621622,28.0216216 17.5135135,27.372973 C16.8864865,26.7459459 16.1297297,26.4324324 15.2432432,26.4324324 M27.7297297,30.3567568 C26.8432432,30.3567568 26.0756757,30.6702703 25.427027,31.2972973 C24.8,31.9459459 24.4864865,32.7135135 24.4864865,33.6 C24.4864865,34.4864865 24.8,35.2432432 25.427027,35.8702703 C26.0756757,36.5189189 26.8432432,36.8432432 27.7297297,36.8432432 C28.6162162,36.8432432 29.372973,36.5189189 30,35.8702703 C30.6486486,35.2432432 30.972973,34.4864865 30.972973,33.6 C30.972973,32.7135135 30.6486486,31.9459459 30,31.2972973 C29.372973,30.6702703 28.6162162,30.3567568 27.7297297,30.3567568 M25.2972973,25.4594595 C25.9459459,24.8324324 26.2702703,24.0756757 26.2702703,23.1891892 C26.2702703,22.3027027 25.9459459,21.5351351 25.2972973,20.8864865 C24.6702703,20.2594595 23.9135135,19.9459459 23.027027,19.9459459 C22.1405405,19.9459459 21.372973,20.2594595 20.7243243,20.8864865 C20.0972973,21.5351351 19.7837838,22.3027027 19.7837838,23.1891892 C19.7837838,24.0756757 20.0972973,24.8324324 20.7243243,25.4594595 C21.372973,26.1081081 22.1405405,26.4324324 23.027027,26.4324324 C23.9135135,26.4324324 24.6702703,26.1081081 25.2972973,25.4594595 M28.3459459,10.3459459 C27.7189189,9.71891892 26.9621622,9.40540541 26.0756757,9.40540541 C25.1891892,9.40540541 24.4216216,9.71891892 23.772973,10.3459459 C23.1459459,10.9945946 22.8324324,11.7621622 22.8324324,12.6486486 C22.8324324,13.5351351 23.1459459,14.2918919 23.772973,14.9189189 C24.4216216,15.5675676 25.1891892,15.8918919 26.0756757,15.8918919 C26.9621622,15.8918919 27.7189189,15.5675676 28.3459459,14.9189189 C28.9945946,14.2918919 29.3189189,13.5351351 29.3189189,12.6486486 C29.3189189,11.7621622 28.9945946,10.9945946 28.3459459,10.3459459 M11.6432432,17.3513514 C11.6432432,18.2378378 11.9567568,18.9945946 12.5837838,19.6216216 C13.2324324,20.2702703 14,20.5945946 14.8864865,20.5945946 C15.772973,20.5945946 16.5297297,20.2702703 17.1567568,19.6216216 C17.8054054,18.9945946 18.1297297,18.2378378 18.1297297,17.3513514 C18.1297297,16.4648649 17.8054054,15.6972973 17.1567568,15.0486486 C16.5297297,14.4216216 15.772973,14.1081081 14.8864865,14.1081081 C14,14.1081081 13.2324324,14.4216216 12.5837838,15.0486486 C11.9567568,15.6972973 11.6432432,16.4648649 11.6432432,17.3513514 M5.83783784,19.4594595 C6.48648649,18.8324324 6.81081081,18.0756757 6.81081081,17.1891892 C6.81081081,16.3027027 6.48648649,15.5351351 5.83783784,14.8864865 C5.21081081,14.2594595 4.45405405,13.9459459 3.56756757,13.9459459 C2.68108108,13.9459459 1.91351351,14.2594595 1.26486486,14.8864865 C0.637837838,15.5351351 0.324324324,16.3027027 0.324324324,17.1891892 C0.324324324,18.0756757 0.637837838,18.8324324 1.26486486,19.4594595 C1.91351351,20.1081081 2.68108108,20.4324324 3.56756757,20.4324324 C4.45405405,20.4324324 5.21081081,20.1081081 5.83783784,19.4594595 M14.7567568,7.45945946 C14.7567568,6.57297297 14.4324324,5.80540541 13.7837838,5.15675676 C13.1567568,4.52972973 12.4,4.21621622 11.5135135,4.21621622 C10.627027,4.21621622 9.85945946,4.52972973 9.21081081,5.15675676 C8.58378378,5.80540541 8.27027027,6.57297297 8.27027027,7.45945946 C8.27027027,8.34594595 8.58378378,9.1027027 9.21081081,9.72972973 C9.85945946,10.3783784 10.627027,10.7027027 11.5135135,10.7027027 C12.4,10.7027027 13.1567568,10.3783784 13.7837838,9.72972973 C14.4324324,9.1027027 14.7567568,8.34594595 14.7567568,7.45945946 M19.7513514,0.940540541 C19.1243243,1.58918919 18.8108108,2.35675676 18.8108108,3.24324324 C18.8108108,4.12972973 19.1243243,4.88648649 19.7513514,5.51351351 C20.4,6.16216216 21.1675676,6.48648649 22.0540541,6.48648649 C22.9405405,6.48648649 23.6972973,6.16216216 24.3243243,5.51351351 C24.972973,4.88648649 25.2972973,4.12972973 25.2972973,3.24324324 C25.2972973,2.35675676 24.972973,1.58918919 24.3243243,0.940540541 C23.6972973,0.313513514 22.9405405,0 22.0540541,0 C21.1675676,0 20.4,0.313513514 19.7513514,0.940540541 M40.8324324,13.7513514 C40.2054054,14.4 39.8918919,15.1675676 39.8918919,16.0540541 C39.8918919,16.9405405 40.2054054,17.6972973 40.8324324,18.3243243 C41.4810811,18.972973 42.2486486,19.2972973 43.1351351,19.2972973 C44.0216216,19.2972973 44.7783784,18.972973 45.4054054,18.3243243 C46.0540541,17.6972973 46.3783784,16.9405405 46.3783784,16.0540541 C46.3783784,15.1675676 46.0540541,14.4 45.4054054,13.7513514 C44.7783784,13.1243243 44.0216216,12.8108108 43.1351351,12.8108108 C42.2486486,12.8108108 41.4810811,13.1243243 40.8324324,13.7513514 M34.3783784,18.6486486 C33.4918919,18.6486486 32.7243243,18.9621622 32.0756757,19.5891892 C31.4486486,20.2378378 31.1351351,21.0054054 31.1351351,21.8918919 C31.1351351,22.7783784 31.4486486,23.5351351 32.0756757,24.1621622 C32.7243243,24.8108108 33.4918919,25.1351351 34.3783784,25.1351351 C35.2648649,25.1351351 36.0216216,24.8108108 36.6486486,24.1621622 C37.2972973,23.5351351 37.6216216,22.7783784 37.6216216,21.8918919 C37.6216216,21.0054054 37.2972973,20.2378378 36.6486486,19.5891892 C36.0216216,18.9621622 35.2648649,18.6486486 34.3783784,18.6486486 M36,9.24324324 C36.6486486,8.61621622 36.972973,7.85945946 36.972973,6.97297297 C36.972973,6.08648649 36.6486486,5.31891892 36,4.67027027 C35.372973,4.04324324 34.6162162,3.72972973 33.7297297,3.72972973 C32.8432432,3.72972973 32.0756757,4.04324324 31.427027,4.67027027 C30.8,5.31891892 30.4864865,6.08648649 30.4864865,6.97297297 C30.4864865,7.85945946 30.8,8.61621622 31.427027,9.24324324 C32.0756757,9.89189189 32.8432432,10.2162162 33.7297297,10.2162162 C34.6162162,10.2162162 35.372973,9.89189189 36,9.24324324 Z" id="Shape"></path>
                            </g>
                        </g>
                    </g>
                    <g id="Group" fill="#BCE179">
                        <g id="Layer20_0_FILL-link">
                            <g id="Layer20_0_FILL">
                                <path d="M19.7837838,80.5297297 C19.7837838,79.6432432 19.4594595,78.8756757 18.8108108,78.227027 C18.1837838,77.6 17.427027,77.2864865 16.5405405,77.2864865 C15.6540541,77.2864865 14.8864865,77.6 14.2378378,78.227027 C13.6108108,78.8756757 13.2972973,79.6432432 13.2972973,80.5297297 C13.2972973,81.4162162 13.6108108,82.172973 14.2378378,82.8 C14.8864865,83.4486486 15.6540541,83.772973 16.5405405,83.772973 C17.427027,83.772973 18.1837838,83.4486486 18.8108108,82.8 C19.4594595,82.172973 19.7837838,81.4162162 19.7837838,80.5297297 M8.43243243,62.7243243 C7.80540541,62.0972973 7.04864865,61.7837838 6.16216216,61.7837838 C5.27567568,61.7837838 4.50810811,62.0972973 3.85945946,62.7243243 C3.23243243,63.372973 2.91891892,64.1405405 2.91891892,65.027027 C2.91891892,65.9135135 3.23243243,66.6702703 3.85945946,67.2972973 C4.50810811,67.9459459 5.27567568,68.2702703 6.16216216,68.2702703 C7.04864865,68.2702703 7.80540541,67.9459459 8.43243243,67.2972973 C9.08108108,66.6702703 9.40540541,65.9135135 9.40540541,65.027027 C9.40540541,64.1405405 9.08108108,63.372973 8.43243243,62.7243243 M5.83783784,44.2378378 C5.21081081,43.6108108 4.45405405,43.2972973 3.56756757,43.2972973 C2.68108108,43.2972973 1.91351351,43.6108108 1.26486486,44.2378378 C0.637837838,44.8864865 0.324324324,45.6540541 0.324324324,46.5405405 C0.324324324,47.427027 0.637837838,48.1837838 1.26486486,48.8108108 C1.91351351,49.4594595 2.68108108,49.7837838 3.56756757,49.7837838 C4.45405405,49.7837838 5.21081081,49.4594595 5.83783784,48.8108108 C6.48648649,48.1837838 6.81081081,47.427027 6.81081081,46.5405405 C6.81081081,45.6540541 6.48648649,44.8864865 5.83783784,44.2378378 M8.91891892,27.6972973 C8.29189189,27.0702703 7.53513514,26.7567568 6.64864865,26.7567568 C5.76216216,26.7567568 4.99459459,27.0702703 4.34594595,27.6972973 C3.71891892,28.3459459 3.40540541,29.1135135 3.40540541,30 C3.40540541,30.8864865 3.71891892,31.6432432 4.34594595,32.2702703 C4.99459459,32.9189189 5.76216216,33.2432432 6.64864865,33.2432432 C7.53513514,33.2432432 8.29189189,32.9189189 8.91891892,32.2702703 C9.56756757,31.6432432 9.89189189,30.8864865 9.89189189,30 C9.89189189,29.1135135 9.56756757,28.3459459 8.91891892,27.6972973 M18.972973,18.1621622 C19.6216216,17.5351351 19.9459459,16.7783784 19.9459459,15.8918919 C19.9459459,15.0054054 19.6216216,14.2378378 18.972973,13.5891892 C18.3459459,12.9621622 17.5891892,12.6486486 16.7027027,12.6486486 C15.8162162,12.6486486 15.0486486,12.9621622 14.4,13.5891892 C13.772973,14.2378378 13.4594595,15.0054054 13.4594595,15.8918919 C13.4594595,16.7783784 13.772973,17.5351351 14.4,18.1621622 C15.0486486,18.8108108 15.8162162,19.1351351 16.7027027,19.1351351 C17.5891892,19.1351351 18.3459459,18.8108108 18.972973,18.1621622 M32.5945946,88.0540541 C32.5945946,87.1675676 32.2702703,86.4 31.6216216,85.7513514 C30.9945946,85.1243243 30.2378378,84.8108108 29.3513514,84.8108108 C28.4648649,84.8108108 27.6972973,85.1243243 27.0486486,85.7513514 C26.4216216,86.4 26.1081081,87.1675676 26.1081081,88.0540541 C26.1081081,88.9405405 26.4216216,89.6972973 27.0486486,90.3243243 C27.6972973,90.972973 28.4648649,91.2972973 29.3513514,91.2972973 C30.2378378,91.2972973 30.9945946,90.972973 31.6216216,90.3243243 C32.2702703,89.6972973 32.5945946,88.9405405 32.5945946,88.0540541 M46.8,90.0648649 C46.172973,90.7135135 45.8594595,91.4810811 45.8594595,92.3675676 C45.8594595,93.2540541 46.172973,94.0108108 46.8,94.6378378 C47.4486486,95.2864865 48.2162162,95.6108108 49.1027027,95.6108108 C49.9891892,95.6108108 50.7459459,95.2864865 51.372973,94.6378378 C52.0216216,94.0108108 52.3459459,93.2540541 52.3459459,92.3675676 C52.3459459,91.4810811 52.0216216,90.7135135 51.372973,90.0648649 C50.7459459,89.4378378 49.9891892,89.1243243 49.1027027,89.1243243 C48.2162162,89.1243243 47.4486486,89.4378378 46.8,90.0648649 M69.8918919,88.3135135 C69.8918919,87.427027 69.5675676,86.6594595 68.9189189,86.0108108 C68.2918919,85.3837838 67.5351351,85.0702703 66.6486486,85.0702703 C65.7621622,85.0702703 64.9945946,85.3837838 64.3459459,86.0108108 C63.7189189,86.6594595 63.4054054,87.427027 63.4054054,88.3135135 C63.4054054,89.2 63.7189189,89.9567568 64.3459459,90.5837838 C64.9945946,91.2324324 65.7621622,91.5567568 66.6486486,91.5567568 C67.5351351,91.5567568 68.2918919,91.2324324 68.9189189,90.5837838 C69.5675676,89.9567568 69.8918919,89.2 69.8918919,88.3135135 M81.7297297,83.0918919 C82.3783784,82.4648649 82.7027027,81.7081081 82.7027027,80.8216216 C82.7027027,79.9351351 82.3783784,79.1675676 81.7297297,78.5189189 C81.1027027,77.8918919 80.3459459,77.5783784 79.4594595,77.5783784 C78.572973,77.5783784 77.8054054,77.8918919 77.1567568,78.5189189 C76.5297297,79.1675676 76.2162162,79.9351351 76.2162162,80.8216216 C76.2162162,81.7081081 76.5297297,82.4648649 77.1567568,83.0918919 C77.8054054,83.7405405 78.572973,84.0648649 79.4594595,84.0648649 C80.3459459,84.0648649 81.1027027,83.7405405 81.7297297,83.0918919 M87.6972973,62.9189189 C87.0702703,63.5675676 86.7567568,64.3351351 86.7567568,65.2216216 C86.7567568,66.1081081 87.0702703,66.8648649 87.6972973,67.4918919 C88.3459459,68.1405405 89.1135135,68.4648649 90,68.4648649 C90.8864865,68.4648649 91.6432432,68.1405405 92.2702703,67.4918919 C92.9189189,66.8648649 93.2432432,66.1081081 93.2432432,65.2216216 C93.2432432,64.3351351 92.9189189,63.5675676 92.2702703,62.9189189 C91.6432432,62.2918919 90.8864865,61.9783784 90,61.9783784 C89.1135135,61.9783784 88.3459459,62.2918919 87.6972973,62.9189189 M92.4324324,43.2972973 C91.5459459,43.2972973 90.7783784,43.6108108 90.1297297,44.2378378 C89.5027027,44.8864865 89.1891892,45.6540541 89.1891892,46.5405405 C89.1891892,47.427027 89.5027027,48.1837838 90.1297297,48.8108108 C90.7783784,49.4594595 91.5459459,49.7837838 92.4324324,49.7837838 C93.3189189,49.7837838 94.0756757,49.4594595 94.7027027,48.8108108 C95.3513514,48.1837838 95.6756757,47.427027 95.6756757,46.5405405 C95.6756757,45.6540541 95.3513514,44.8864865 94.7027027,44.2378378 C94.0756757,43.6108108 93.3189189,43.2972973 92.4324324,43.2972973 M89.3513514,26.7567568 C88.4648649,26.7567568 87.6972973,27.0702703 87.0486486,27.6972973 C86.4216216,28.3459459 86.1081081,29.1135135 86.1081081,30 C86.1081081,30.8864865 86.4216216,31.6432432 87.0486486,32.2702703 C87.6972973,32.9189189 88.4648649,33.2432432 89.3513514,33.2432432 C90.2378378,33.2432432 90.9945946,32.9189189 91.6216216,32.2702703 C92.2702703,31.6432432 92.5945946,30.8864865 92.5945946,30 C92.5945946,29.1135135 92.2702703,28.3459459 91.6216216,27.6972973 C90.9945946,27.0702703 90.2378378,26.7567568 89.3513514,26.7567568 M76.5081081,18.1621622 C77.1567568,18.8108108 77.9243243,19.1351351 78.8108108,19.1351351 C79.6972973,19.1351351 80.4540541,18.8108108 81.0810811,18.1621622 C81.7297297,17.5351351 82.0540541,16.7783784 82.0540541,15.8918919 C82.0540541,15.0054054 81.7297297,14.2378378 81.0810811,13.5891892 C80.4540541,12.9621622 79.6972973,12.6486486 78.8108108,12.6486486 C77.9243243,12.6486486 77.1567568,12.9621622 76.5081081,13.5891892 C75.8810811,14.2378378 75.5675676,15.0054054 75.5675676,15.8918919 C75.5675676,16.7783784 75.8810811,17.5351351 76.5081081,18.1621622 M64.3783784,7.94594595 C65.027027,7.31891892 65.3513514,6.56216216 65.3513514,5.67567568 C65.3513514,4.78918919 65.027027,4.02162162 64.3783784,3.37297297 C63.7513514,2.74594595 62.9945946,2.43243243 62.1081081,2.43243243 C61.2216216,2.43243243 60.4540541,2.74594595 59.8054054,3.37297297 C59.1783784,4.02162162 58.8648649,4.78918919 58.8648649,5.67567568 C58.8648649,6.56216216 59.1783784,7.31891892 59.8054054,7.94594595 C60.4540541,8.59459459 61.2216216,8.91891892 62.1081081,8.91891892 C62.9945946,8.91891892 63.7513514,8.59459459 64.3783784,7.94594595 M47.8378378,5.51351351 C48.4864865,4.88648649 48.8108108,4.12972973 48.8108108,3.24324324 C48.8108108,2.35675676 48.4864865,1.58918919 47.8378378,0.940540541 C47.2108108,0.313513514 46.4540541,0 45.5675676,0 C44.6810811,0 43.9135135,0.313513514 43.2648649,0.940540541 C42.6378378,1.58918919 42.3243243,2.35675676 42.3243243,3.24324324 C42.3243243,4.12972973 42.6378378,4.88648649 43.2648649,5.51351351 C43.9135135,6.16216216 44.6810811,6.48648649 45.5675676,6.48648649 C46.4540541,6.48648649 47.2108108,6.16216216 47.8378378,5.51351351 M36.1621622,7.94594595 C36.8108108,7.31891892 37.1351351,6.56216216 37.1351351,5.67567568 C37.1351351,4.78918919 36.8108108,4.02162162 36.1621622,3.37297297 C35.5351351,2.74594595 34.7783784,2.43243243 33.8918919,2.43243243 C33.0054054,2.43243243 32.2378378,2.74594595 31.5891892,3.37297297 C30.9621622,4.02162162 30.6486486,4.78918919 30.6486486,5.67567568 C30.6486486,6.56216216 30.9621622,7.31891892 31.5891892,7.94594595 C32.2378378,8.59459459 33.0054054,8.91891892 33.8918919,8.91891892 C34.7783784,8.91891892 35.5351351,8.59459459 36.1621622,7.94594595 Z" id="Shape"></path>
                            </g>
                        </g>
                    </g>
                </g>
                <circle id="Oval" fill="#BCE179" cx="79" cy="169" r="8"></circle>
                <circle id="Oval" fill="#BCE179" cx="91" cy="85" r="4"></circle>
                <circle id="Oval" fill="#BCE179" cx="180" cy="145" r="4"></circle>
                <circle id="Oval" fill="#BCE179" cx="106" cy="218" r="3"></circle>
            </g>
        </g>
    </g>
</svg>