<?xml version="1.0" encoding="UTF-8" standalone="no"?><!DOCTYPE svg PUBLIC "-//W3C//DTD SVG 1.1//EN" "http://www.w3.org/Graphics/SVG/1.1/DTD/svg11.dtd"><svg width="100%" height="100%" viewBox="0 0 50 40" version="1.1" xmlns="http://www.w3.org/2000/svg" xmlns:xlink="http://www.w3.org/1999/xlink" xml:space="preserve" xmlns:serif="http://www.serif.com/" style="fill-rule:evenodd;clip-rule:evenodd;stroke-linejoin:round;stroke-miterlimit:2;"><rect id="icon-autotest" x="0" y="0" width="50" height="40" style="fill:none;"/><g><path d="M24.247,5.198c0.681,0.046 1.366,0.027 2.042,-0.057c1.373,-0.171 3.967,-0.493 6.729,-0.836c2.652,-0.329 5.338,0.346 7.385,1.856c2.046,1.51 3.26,3.711 3.335,6.052c0.157,4.915 0.323,10.076 0.342,10.653c0.001,0.036 0.002,0.072 0.002,0.107c0.008,0.441 0.061,3.538 0.121,6.996c0.043,2.508 -1.226,4.896 -3.446,6.485c-2.22,1.589 -5.148,2.204 -7.951,1.671c-3.702,-0.703 -7.249,-1.378 -8.827,-1.677c-0.568,-0.108 -1.146,-0.17 -1.728,-0.185c-1.828,-0.045 -6.26,-0.156 -10.73,-0.268c-2.89,-0.072 -5.581,-1.303 -7.297,-3.338c-1.716,-2.035 -2.266,-4.646 -1.491,-7.082c0.632,-1.985 1.22,-3.835 1.616,-5.078c0.331,-1.041 0.424,-2.128 0.274,-3.201c-0.131,-0.936 -0.308,-2.2 -0.501,-3.581c-0.342,-2.446 0.589,-4.897 2.536,-6.678c1.948,-1.781 4.706,-2.704 7.516,-2.515c4.126,0.277 8.221,0.552 10.073,0.676Z" style="fill:#f3fcf9;"/><path d="M27.654,34.802c0.681,-0.046 1.366,-0.027 2.043,0.057c1.372,0.171 3.966,0.493 6.729,0.836c2.651,0.329 5.337,-0.346 7.384,-1.856c2.047,-1.51 3.26,-3.711 3.335,-6.052c0.158,-4.915 0.323,-10.076 0.342,-10.653c0.001,-0.036 0.002,-0.072 0.002,-0.107c0.008,-0.441 0.061,-3.538 0.121,-6.996c0.043,-2.508 -1.226,-4.896 -3.446,-6.485c-2.22,-1.589 -5.148,-2.204 -7.951,-1.671c-3.702,0.703 -7.249,1.378 -8.826,1.677c-0.569,0.108 -1.147,0.17 -1.729,0.185c-1.828,0.045 -6.26,0.156 -10.73,0.268c-2.89,0.072 -5.581,1.303 -7.297,3.338c-1.716,2.035 -2.266,4.646 -1.491,7.082c0.632,1.985 1.22,3.835 1.616,5.078c0.331,1.041 0.424,2.128 0.274,3.201c-0.131,0.936 -0.308,2.2 -0.501,3.581c-0.342,2.446 0.589,4.897 2.536,6.678c1.948,1.781 4.706,2.704 7.516,2.515c4.126,-0.277 8.222,-0.552 10.073,-0.676Z" style="fill:#d9f4eb;"/></g><path d="M22.752,13.827l0,-0.872c0,-0.075 -0.048,-0.141 -0.118,-0.164c-0.084,-0.028 -0.167,-0.056 -0.247,-0.082c-0.74,-0.247 -1.24,-0.94 -1.24,-1.72c0,-0.001 0,-0.002 0,-0.002c0,-0.819 0.325,-1.604 0.904,-2.183c0.579,-0.579 1.364,-0.904 2.183,-0.904c0.499,0 1.033,0 1.532,0c0.819,0 1.604,0.325 2.183,0.904c0.579,0.579 0.904,1.364 0.904,2.183c0,0 0,0.001 0,0.002c0,0.78 -0.5,1.473 -1.24,1.72c-0.08,0.026 -0.163,0.054 -0.247,0.082c-0.07,0.023 -0.118,0.089 -0.118,0.164l0,0.872c0.488,0.147 0.955,0.342 1.396,0.579l0.617,-0.618c0.053,-0.052 0.066,-0.132 0.033,-0.199c-0.04,-0.078 -0.079,-0.157 -0.117,-0.233c-0.349,-0.698 -0.212,-1.54 0.34,-2.092c0,-0.001 0.001,-0.001 0.001,-0.002c0.579,-0.578 1.364,-0.904 2.183,-0.904c0.818,0 1.603,0.326 2.182,0.904c0.353,0.354 0.731,0.731 1.084,1.084c0.579,0.579 0.904,1.364 0.904,2.182c0,0.819 -0.325,1.604 -0.904,2.183c-0.001,0 -0.001,0.001 -0.002,0.001c-0.551,0.552 -1.394,0.689 -2.092,0.34c-0.076,-0.038 -0.154,-0.077 -0.233,-0.117c-0.067,-0.033 -0.147,-0.02 -0.199,0.033l-0.618,0.617c0.237,0.442 0.432,0.909 0.58,1.396l0.872,0c0.074,0 0.14,-0.047 0.163,-0.118c0.028,-0.084 0.056,-0.167 0.083,-0.247c0.246,-0.74 0.939,-1.24 1.719,-1.24c0.001,0 0.002,0 0.002,0c0.819,0 1.604,0.326 2.183,0.904c0.579,0.579 0.904,1.364 0.904,2.183c0,0.499 0,1.033 0,1.532c0,0.819 -0.325,1.604 -0.904,2.183c-0.579,0.579 -1.364,0.904 -2.183,0.904c0,0 -0.002,0 -0.002,0c-0.78,0 -1.473,-0.499 -1.719,-1.24c-0.027,-0.08 -0.055,-0.163 -0.083,-0.247c-0.023,-0.07 -0.089,-0.118 -0.163,-0.118l-0.872,0c-0.148,0.488 -0.343,0.955 -0.58,1.396l0.618,0.617c0.052,0.053 0.132,0.066 0.199,0.033c0.079,-0.04 0.157,-0.079 0.233,-0.117c0.698,-0.349 1.541,-0.212 2.092,0.34c0.001,0 0.001,0.001 0.002,0.001c0.579,0.579 0.904,1.364 0.904,2.183c0,0.818 -0.325,1.604 -0.904,2.182c-0.353,0.354 -0.731,0.731 -1.084,1.084c-0.579,0.579 -1.364,0.904 -2.182,0.904c-0.819,0 -1.604,-0.325 -2.183,-0.904c0,-0.001 -0.001,-0.001 -0.001,-0.002c-0.552,-0.551 -0.689,-1.394 -0.34,-2.092c0.038,-0.076 0.077,-0.154 0.117,-0.233c0.033,-0.067 0.02,-0.147 -0.033,-0.199l-1.171,-1.171c-0.39,-0.391 -0.39,-1.024 0,-1.415c0.39,-0.39 1.024,-0.39 1.414,0c0,0 1.172,1.172 1.172,1.172c0.661,0.661 0.825,1.671 0.407,2.507l-0.053,0.105c0.19,0.15 0.426,0.232 0.671,0.232c0.288,0 0.564,-0.115 0.768,-0.318c0.353,-0.354 0.73,-0.731 1.083,-1.084c0.204,-0.204 0.319,-0.48 0.319,-0.768c0,-0.245 -0.083,-0.481 -0.232,-0.671l-0.105,0.053c-0.836,0.418 -1.846,0.254 -2.508,-0.407l-1.171,-1.172c-0.34,-0.34 -0.39,-0.874 -0.118,-1.271c0.439,-0.642 0.751,-1.377 0.9,-2.169c0.089,-0.473 0.502,-0.816 0.983,-0.816c0,0 1.655,0 1.655,0c0.935,0 1.765,0.599 2.061,1.486l0.037,0.111c0.24,-0.029 0.465,-0.138 0.638,-0.31c0.204,-0.204 0.318,-0.481 0.318,-0.769c0,-0.499 0,-1.033 0,-1.532c0,-0.288 -0.114,-0.565 -0.318,-0.768c-0.173,-0.173 -0.398,-0.282 -0.638,-0.31l-0.037,0.11c-0.296,0.888 -1.126,1.486 -2.061,1.486l-1.655,0c-0.481,0 -0.894,-0.343 -0.983,-0.816c-0.149,-0.792 -0.461,-1.527 -0.9,-2.168c-0.272,-0.398 -0.222,-0.932 0.118,-1.272c0,0 1.171,-1.171 1.171,-1.171c0.662,-0.662 1.672,-0.826 2.508,-0.407l0.105,0.052c0.149,-0.19 0.232,-0.426 0.232,-0.671c0,-0.288 -0.115,-0.564 -0.319,-0.768c-0.353,-0.353 -0.73,-0.73 -1.083,-1.083c-0.204,-0.204 -0.48,-0.319 -0.768,-0.319c-0.245,0 -0.481,0.083 -0.671,0.232l0.053,0.105c0.418,0.836 0.254,1.846 -0.407,2.508l-1.172,1.171c-0.34,0.34 -0.874,0.39 -1.272,0.118c-0.641,-0.439 -1.376,-0.751 -2.168,-0.9c-0.473,-0.089 -0.816,-0.501 -0.816,-0.983c0,0 0,-1.654 0,-1.654c0,-0.936 0.598,-1.766 1.486,-2.061l0.111,-0.037c-0.029,-0.241 -0.138,-0.466 -0.311,-0.639c-0.203,-0.203 -0.48,-0.318 -0.768,-0.318c-0.499,0 -1.033,0 -1.532,0c-0.288,0 -0.565,0.115 -0.768,0.318c-0.173,0.173 -0.282,0.398 -0.311,0.639l0.111,0.037c0.888,0.295 1.486,1.125 1.486,2.061l0,1.654c0,0.482 -0.343,0.895 -0.816,0.983c-0.792,0.149 -1.527,0.461 -2.168,0.9c-0.398,0.272 -0.932,0.222 -1.272,-0.118c0,0 -1.172,-1.171 -1.172,-1.171c-0.661,-0.662 -0.825,-1.672 -0.407,-2.508l0.053,-0.105c-0.19,-0.149 -0.426,-0.232 -0.671,-0.232c-0.288,0 -0.564,0.115 -0.768,0.319c-0.353,0.353 -0.73,0.73 -1.083,1.083c-0.204,0.204 -0.319,0.48 -0.319,0.768c0,0.245 0.083,0.481 0.232,0.671l0.105,-0.052c0.836,-0.419 1.846,-0.255 2.508,0.407l1.171,1.171c0.34,0.34 0.39,0.874 0.118,1.272c-0.439,0.641 -0.751,1.376 -0.9,2.168c-0.089,0.473 -0.502,0.816 -0.983,0.816c0,0 -1.655,0 -1.655,0c-0.935,0 -1.765,-0.598 -2.061,-1.485l-0.037,-0.111c-0.24,0.028 -0.465,0.137 -0.638,0.31c-0.204,0.203 -0.318,0.48 -0.318,0.768c0,0.499 0,1.033 0,1.532c0,0.288 0.114,0.565 0.318,0.769c0.173,0.172 0.398,0.281 0.638,0.31l0.037,-0.111c0.296,-0.887 1.126,-1.486 2.061,-1.486l1.655,0c0.481,0 0.894,0.343 0.983,0.816c0.149,0.792 0.461,1.527 0.9,2.169c0.272,0.397 0.222,0.931 -0.118,1.271c0,0 -1.171,1.172 -1.171,1.172c-0.662,0.661 -1.672,0.825 -2.508,0.407l-0.105,-0.053c-0.149,0.19 -0.232,0.426 -0.232,0.671c0,0.288 0.115,0.564 0.319,0.768c0.353,0.353 0.73,0.73 1.083,1.084c0.204,0.203 0.48,0.318 0.768,0.318c0.245,0 0.481,-0.082 0.671,-0.232l-0.053,-0.105c-0.418,-0.836 -0.254,-1.846 0.407,-2.507l1.172,-1.172c0.39,-0.39 1.024,-0.39 1.414,0c0.39,0.391 0.39,1.024 0,1.415c0,0 -1.171,1.171 -1.171,1.171c-0.053,0.052 -0.066,0.132 -0.033,0.199c0.04,0.079 0.079,0.157 0.117,0.233c0.349,0.698 0.212,1.541 -0.34,2.092c0,0.001 -0.001,0.001 -0.001,0.002c-0.579,0.579 -1.364,0.904 -2.183,0.904c-0.818,0 -1.603,-0.325 -2.182,-0.904c-0.353,-0.353 -0.731,-0.73 -1.084,-1.084c-0.579,-0.578 -0.904,-1.364 -0.904,-2.182c0,-0.819 0.325,-1.604 0.904,-2.183c0.001,0 0.001,-0.001 0.002,-0.001c0.551,-0.552 1.394,-0.689 2.092,-0.34c0.076,0.038 0.154,0.077 0.233,0.117c0.067,0.033 0.147,0.02 0.199,-0.033l0.618,-0.617c-0.237,-0.441 -0.432,-0.908 -0.58,-1.396l-0.872,0c-0.074,0 -0.14,0.048 -0.163,0.118c-0.028,0.084 -0.056,0.167 -0.083,0.247c-0.246,0.741 -0.939,1.24 -1.719,1.24c-0.001,0 -0.002,0 -0.002,0c-0.819,0 -1.604,-0.325 -2.183,-0.904c-0.579,-0.579 -0.904,-1.364 -0.904,-2.183c0,-0.499 0,-1.033 0,-1.532c0,-0.819 0.325,-1.604 0.904,-2.183c0.579,-0.578 1.364,-0.904 2.183,-0.904c0,0 0.002,0 0.002,0c0.78,0 1.473,0.5 1.719,1.24c0.027,0.08 0.055,0.163 0.083,0.247c0.023,0.071 0.089,0.118 0.163,0.118l0.872,0c0.148,-0.487 0.343,-0.955 0.58,-1.396l-0.618,-0.617c-0.052,-0.053 -0.132,-0.066 -0.199,-0.033c-0.079,0.04 -0.157,0.079 -0.233,0.117c-0.698,0.349 -1.541,0.212 -2.092,-0.34c-0.001,0 -0.001,-0.001 -0.002,-0.001c-0.579,-0.579 -0.904,-1.364 -0.904,-2.183c0,-0.818 0.325,-1.603 0.904,-2.182c0.353,-0.353 0.731,-0.73 1.084,-1.084c0.579,-0.578 1.364,-0.904 2.182,-0.904c0.819,0 1.604,0.326 2.183,0.904c0,0.001 0.001,0.001 0.001,0.002c0.552,0.552 0.689,1.394 0.34,2.092c-0.038,0.076 -0.077,0.155 -0.117,0.233c-0.033,0.067 -0.02,0.147 0.033,0.199l0.617,0.618c0.441,-0.237 0.908,-0.432 1.396,-0.579Zm0.589,14.39c-0.071,0.047 -0.129,0.11 -0.169,0.186c-0.135,0.255 -0.215,0.605 -0.215,1.055c0,0.289 0.032,0.531 0.09,0.727c0.105,0.354 0.308,0.539 0.531,0.618c0.112,0.039 0.246,0.079 0.404,0.118c0.174,0.044 0.377,0.067 0.61,0.067c0.211,0 0.415,-0.021 0.612,-0.063c0.198,-0.043 0.35,-0.087 0.456,-0.13c0.198,-0.079 0.386,-0.253 0.491,-0.582c0.059,-0.183 0.094,-0.434 0.094,-0.755c0,-0.309 -0.025,-0.547 -0.067,-0.716c-0.077,-0.305 -0.252,-0.508 -0.507,-0.623c-0.148,-0.066 -0.315,-0.119 -0.5,-0.156c-0.176,-0.035 -0.369,-0.054 -0.579,-0.054c-0.538,0 -0.952,0.114 -1.251,0.308Zm2.549,-2.781l-0.118,1.51c-0.016,0.2 -0.15,0.372 -0.34,0.435c-0.258,0.086 -0.543,0.131 -0.857,0.131c-0.302,0 -0.581,-0.045 -0.84,-0.131c-0.197,-0.065 -0.333,-0.246 -0.341,-0.454l-0.105,-2.603c-0.005,-0.122 0.035,-0.242 0.112,-0.337l0.158,-0.192c0.043,-0.052 0.096,-0.095 0.156,-0.127c0,0 0.838,-0.436 0.84,-0.437c0.633,-0.327 1.109,-0.659 1.42,-1.007c0.253,-0.283 0.388,-0.582 0.388,-0.908c0,-0.3 -0.097,-0.553 -0.299,-0.755c-0.214,-0.215 -0.535,-0.299 -0.948,-0.299c-0.264,0 -0.559,0.045 -0.885,0.131c-0.344,0.092 -0.719,0.241 -1.127,0.445c-0.18,0.09 -0.397,0.063 -0.549,-0.068c-0.205,-0.175 -0.396,-0.42 -0.564,-0.742c-0.17,-0.327 -0.259,-0.647 -0.274,-0.959c-0.009,-0.189 0.089,-0.367 0.255,-0.46c1.14,-0.639 2.293,-0.955 3.459,-0.955c1.235,0 2.174,0.331 2.832,0.948c0.674,0.634 1.022,1.477 1.022,2.548c-0.013,0.794 -0.229,1.518 -0.646,2.173c-0.408,0.642 -1.035,1.196 -1.888,1.648l-0.861,0.465Z" style="fill:#78d9b8;"/></svg>