<?xml version="1.0" encoding="UTF-8" standalone="no"?><!DOCTYPE svg PUBLIC "-//W3C//DTD SVG 1.1//EN" "http://www.w3.org/Graphics/SVG/1.1/DTD/svg11.dtd"><svg width="100%" height="100%" viewBox="0 0 253 253" version="1.1" xmlns="http://www.w3.org/2000/svg" xmlns:xlink="http://www.w3.org/1999/xlink" xml:space="preserve" xmlns:serif="http://www.serif.com/" style="fill-rule:evenodd;clip-rule:evenodd;stroke-linejoin:round;stroke-miterlimit:2;"><g id="icon-autotest"><circle cx="126.746" cy="126.503" r="126.055" style="fill:#f0dddd;"/><path d="M94.893,196.168c-29.479,-14.561 -49.564,-43.369 -49.564,-76.496c0,-47.789 41.797,-86.587 93.28,-86.587c51.483,0 93.28,38.798 93.28,86.587c0,47.789 -41.797,86.588 -93.28,86.588c-8.69,0 -17.104,-1.106 -25.081,-3.172l-44.383,11.809l25.748,-18.729Z" style="fill:#eba4a4;"/><path d="M86.234,193.4c-29.479,-14.561 -49.564,-43.369 -49.564,-76.496c0,-47.789 41.798,-86.587 93.28,-86.587c51.483,0 93.28,38.798 93.28,86.587c0,47.789 -41.797,86.588 -93.28,86.588c-8.69,0 -17.104,-1.106 -25.081,-3.172l-35.724,14.577l17.089,-21.497Z" style="fill:#fff;"/><g><path d="M125.527,78.002l0,-9.59c0,-2.925 -1.818,-5.522 -4.513,-6.447c-0.47,-0.162 -0.941,-0.323 -1.391,-0.477c-1.868,-0.642 -3.128,-2.442 -3.128,-4.47c0,-0.003 0,-0.007 0,-0.01c0,-3.208 1.237,-6.284 3.44,-8.552c2.203,-2.268 5.19,-3.542 8.305,-3.542c2.811,0 5.813,0 8.624,0c3.115,0 6.103,1.274 8.305,3.542c2.203,2.268 3.441,5.344 3.441,8.552c0,0.003 0,0.007 0,0.01c0,2.028 -1.261,3.828 -3.129,4.47c-0.45,0.154 -0.92,0.315 -1.391,0.477c-2.695,0.925 -4.513,3.522 -4.513,6.447l0,9.59c5.242,1.013 10.105,3.138 14.349,6.128l6.592,-6.787c2.009,-2.069 2.507,-5.228 1.237,-7.844c-0.222,-0.457 -0.444,-0.914 -0.656,-1.351c-0.881,-1.813 -0.536,-4.004 0.857,-5.438c0.003,-0.002 0.005,-0.005 0.007,-0.007c2.203,-2.268 5.191,-3.542 8.306,-3.542c3.115,0 6.103,1.274 8.305,3.542c1.988,2.046 4.11,4.232 6.098,6.278c2.203,2.268 3.44,5.344 3.44,8.552c0,3.207 -1.237,6.283 -3.44,8.551c-0.002,0.003 -0.005,0.005 -0.007,0.008c-1.393,1.434 -3.52,1.789 -5.282,0.882c-0.424,-0.218 -0.868,-0.447 -1.311,-0.675c-2.541,-1.308 -5.61,-0.795 -7.619,1.273l-6.592,6.788c2.904,4.369 4.968,9.376 5.952,14.773l9.315,0c2.84,0 5.362,-1.871 6.261,-4.646c0.157,-0.484 0.313,-0.969 0.463,-1.432c0.623,-1.924 2.372,-3.222 4.341,-3.222c0.004,0 0.007,0 0.01,0c3.116,0 6.103,1.275 8.306,3.543c2.203,2.268 3.44,5.344 3.44,8.551c0,2.894 0,5.985 0,8.879c0,3.208 -1.237,6.284 -3.44,8.552c-2.203,2.268 -5.19,3.542 -8.306,3.542l-0.01,0c-1.969,0 -3.718,-1.298 -4.341,-3.222c-0.15,-0.463 -0.306,-0.947 -0.463,-1.432c-0.899,-2.774 -3.421,-4.646 -6.261,-4.646l-9.315,0c-0.984,5.397 -3.048,10.404 -5.952,14.774l6.592,6.787c2.009,2.069 5.078,2.581 7.619,1.273c0.443,-0.228 0.887,-0.456 1.311,-0.675c1.762,-0.907 3.889,-0.551 5.282,0.883c0.002,0.002 0.005,0.005 0.007,0.007c2.203,2.268 3.44,5.344 3.44,8.552c0,3.207 -1.237,6.283 -3.44,8.551c-1.988,2.047 -4.11,4.232 -6.098,6.279c-2.202,2.268 -5.19,3.542 -8.305,3.542c-3.115,0 -6.103,-1.274 -8.306,-3.542c-0.002,-0.003 -0.004,-0.006 -0.007,-0.008c-1.393,-1.434 -1.738,-3.624 -0.857,-5.438c0.212,-0.437 0.434,-0.894 0.656,-1.35c1.27,-2.616 0.772,-5.776 -1.237,-7.844l-6.592,-6.788c-4.244,2.99 -9.107,5.115 -14.349,6.128l0,9.591c0,2.925 1.818,5.521 4.513,6.446c0.471,0.162 0.941,0.323 1.391,0.478c1.868,0.641 3.129,2.441 3.129,4.469c0,0.004 0,0.007 0,0.011c0,3.207 -1.238,6.283 -3.441,8.551c-2.202,2.268 -5.19,3.542 -8.305,3.542l-8.624,0c-3.115,0 -6.102,-1.274 -8.305,-3.542c-2.203,-2.268 -3.44,-5.344 -3.44,-8.551c0,-0.004 0,-0.007 0,-0.011c0,-2.028 1.26,-3.828 3.128,-4.469c0.45,-0.155 0.921,-0.316 1.391,-0.478c2.695,-0.925 4.513,-3.521 4.513,-6.446l0,-9.591c-5.242,-1.013 -10.105,-3.138 -14.349,-6.128l-6.592,6.788c-2.009,2.068 -2.507,5.228 -1.236,7.844c0.221,0.456 0.443,0.913 0.655,1.35c0.881,1.814 0.536,4.004 -0.857,5.438c-0.002,0.002 -0.005,0.005 -0.007,0.008c-2.203,2.268 -5.19,3.542 -8.306,3.542c-3.115,0 -6.102,-1.274 -8.305,-3.542c-1.988,-2.047 -4.11,-4.232 -6.098,-6.279c-2.203,-2.268 -3.44,-5.344 -3.44,-8.551c0,-3.208 1.237,-6.284 3.44,-8.552c0.003,-0.002 0.005,-0.005 0.008,-0.007c1.392,-1.434 3.52,-1.79 5.281,-0.883c0.424,0.219 0.868,0.447 1.311,0.675c2.541,1.308 5.61,0.796 7.619,-1.273l6.592,-6.787c-2.904,-4.37 -4.968,-9.377 -5.952,-14.774l-9.314,0c-2.841,0 -5.363,1.872 -6.261,4.646c-0.157,0.485 -0.314,0.969 -0.464,1.432c-0.623,1.924 -2.371,3.222 -4.341,3.222c-0.003,0 -0.007,0 -0.01,0c-3.115,0 -6.103,-1.274 -8.306,-3.542c-2.202,-2.268 -3.44,-5.344 -3.44,-8.552c0,-2.894 0,-5.985 0,-8.879c0,-3.207 1.238,-6.283 3.44,-8.551c2.203,-2.268 5.191,-3.543 8.306,-3.543l0.01,0c1.97,0 3.718,1.298 4.341,3.222c0.15,0.463 0.307,0.948 0.464,1.432c0.898,2.775 3.42,4.646 6.261,4.646l9.314,0c0.984,-5.397 3.048,-10.404 5.952,-14.773l-6.592,-6.788c-2.009,-2.068 -5.078,-2.581 -7.619,-1.273c-0.443,0.228 -0.887,0.457 -1.311,0.675c-1.761,0.907 -3.889,0.552 -5.281,-0.882c-0.003,-0.003 -0.005,-0.005 -0.008,-0.008c-2.203,-2.268 -3.44,-5.344 -3.44,-8.551c0,-3.208 1.237,-6.284 3.44,-8.552c1.988,-2.046 4.11,-4.232 6.098,-6.278c2.203,-2.268 5.19,-3.542 8.305,-3.542c3.116,0 6.103,1.274 8.306,3.542c0.002,0.002 0.005,0.005 0.007,0.007c1.393,1.434 1.738,3.625 0.857,5.438c-0.212,0.437 -0.434,0.894 -0.655,1.351c-1.271,2.616 -0.773,5.775 1.236,7.844l6.592,6.787c4.244,-2.99 9.107,-5.115 14.349,-6.128Z" style="fill:#9cd56a;"/><clipPath id="_clip1"><path d="M125.527,78.002l0,-9.59c0,-2.925 -1.818,-5.522 -4.513,-6.447c-0.47,-0.162 -0.941,-0.323 -1.391,-0.477c-1.868,-0.642 -3.128,-2.442 -3.128,-4.47c0,-0.003 0,-0.007 0,-0.01c0,-3.208 1.237,-6.284 3.44,-8.552c2.203,-2.268 5.19,-3.542 8.305,-3.542c2.811,0 5.813,0 8.624,0c3.115,0 6.103,1.274 8.305,3.542c2.203,2.268 3.441,5.344 3.441,8.552c0,0.003 0,0.007 0,0.01c0,2.028 -1.261,3.828 -3.129,4.47c-0.45,0.154 -0.92,0.315 -1.391,0.477c-2.695,0.925 -4.513,3.522 -4.513,6.447l0,9.59c5.242,1.013 10.105,3.138 14.349,6.128l6.592,-6.787c2.009,-2.069 2.507,-5.228 1.237,-7.844c-0.222,-0.457 -0.444,-0.914 -0.656,-1.351c-0.881,-1.813 -0.536,-4.004 0.857,-5.438c0.003,-0.002 0.005,-0.005 0.007,-0.007c2.203,-2.268 5.191,-3.542 8.306,-3.542c3.115,0 6.103,1.274 8.305,3.542c1.988,2.046 4.11,4.232 6.098,6.278c2.203,2.268 3.44,5.344 3.44,8.552c0,3.207 -1.237,6.283 -3.44,8.551c-0.002,0.003 -0.005,0.005 -0.007,0.008c-1.393,1.434 -3.52,1.789 -5.282,0.882c-0.424,-0.218 -0.868,-0.447 -1.311,-0.675c-2.541,-1.308 -5.61,-0.795 -7.619,1.273l-6.592,6.788c2.904,4.369 4.968,9.376 5.952,14.773l9.315,0c2.84,0 5.362,-1.871 6.261,-4.646c0.157,-0.484 0.313,-0.969 0.463,-1.432c0.623,-1.924 2.372,-3.222 4.341,-3.222c0.004,0 0.007,0 0.01,0c3.116,0 6.103,1.275 8.306,3.543c2.203,2.268 3.44,5.344 3.44,8.551c0,2.894 0,5.985 0,8.879c0,3.208 -1.237,6.284 -3.44,8.552c-2.203,2.268 -5.19,3.542 -8.306,3.542l-0.01,0c-1.969,0 -3.718,-1.298 -4.341,-3.222c-0.15,-0.463 -0.306,-0.947 -0.463,-1.432c-0.899,-2.774 -3.421,-4.646 -6.261,-4.646l-9.315,0c-0.984,5.397 -3.048,10.404 -5.952,14.774l6.592,6.787c2.009,2.069 5.078,2.581 7.619,1.273c0.443,-0.228 0.887,-0.456 1.311,-0.675c1.762,-0.907 3.889,-0.551 5.282,0.883c0.002,0.002 0.005,0.005 0.007,0.007c2.203,2.268 3.44,5.344 3.44,8.552c0,3.207 -1.237,6.283 -3.44,8.551c-1.988,2.047 -4.11,4.232 -6.098,6.279c-2.202,2.268 -5.19,3.542 -8.305,3.542c-3.115,0 -6.103,-1.274 -8.306,-3.542c-0.002,-0.003 -0.004,-0.006 -0.007,-0.008c-1.393,-1.434 -1.738,-3.624 -0.857,-5.438c0.212,-0.437 0.434,-0.894 0.656,-1.35c1.27,-2.616 0.772,-5.776 -1.237,-7.844l-6.592,-6.788c-4.244,2.99 -9.107,5.115 -14.349,6.128l0,9.591c0,2.925 1.818,5.521 4.513,6.446c0.471,0.162 0.941,0.323 1.391,0.478c1.868,0.641 3.129,2.441 3.129,4.469c0,0.004 0,0.007 0,0.011c0,3.207 -1.238,6.283 -3.441,8.551c-2.202,2.268 -5.19,3.542 -8.305,3.542l-8.624,0c-3.115,0 -6.102,-1.274 -8.305,-3.542c-2.203,-2.268 -3.44,-5.344 -3.44,-8.551c0,-0.004 0,-0.007 0,-0.011c0,-2.028 1.26,-3.828 3.128,-4.469c0.45,-0.155 0.921,-0.316 1.391,-0.478c2.695,-0.925 4.513,-3.521 4.513,-6.446l0,-9.591c-5.242,-1.013 -10.105,-3.138 -14.349,-6.128l-6.592,6.788c-2.009,2.068 -2.507,5.228 -1.236,7.844c0.221,0.456 0.443,0.913 0.655,1.35c0.881,1.814 0.536,4.004 -0.857,5.438c-0.002,0.002 -0.005,0.005 -0.007,0.008c-2.203,2.268 -5.19,3.542 -8.306,3.542c-3.115,0 -6.102,-1.274 -8.305,-3.542c-1.988,-2.047 -4.11,-4.232 -6.098,-6.279c-2.203,-2.268 -3.44,-5.344 -3.44,-8.551c0,-3.208 1.237,-6.284 3.44,-8.552c0.003,-0.002 0.005,-0.005 0.008,-0.007c1.392,-1.434 3.52,-1.79 5.281,-0.883c0.424,0.219 0.868,0.447 1.311,0.675c2.541,1.308 5.61,0.796 7.619,-1.273l6.592,-6.787c-2.904,-4.37 -4.968,-9.377 -5.952,-14.774l-9.314,0c-2.841,0 -5.363,1.872 -6.261,4.646c-0.157,0.485 -0.314,0.969 -0.464,1.432c-0.623,1.924 -2.371,3.222 -4.341,3.222c-0.003,0 -0.007,0 -0.01,0c-3.115,0 -6.103,-1.274 -8.306,-3.542c-2.202,-2.268 -3.44,-5.344 -3.44,-8.552c0,-2.894 0,-5.985 0,-8.879c0,-3.207 1.238,-6.283 3.44,-8.551c2.203,-2.268 5.191,-3.543 8.306,-3.543l0.01,0c1.97,0 3.718,1.298 4.341,3.222c0.15,0.463 0.307,0.948 0.464,1.432c0.898,2.775 3.42,4.646 6.261,4.646l9.314,0c0.984,-5.397 3.048,-10.404 5.952,-14.773l-6.592,-6.788c-2.009,-2.068 -5.078,-2.581 -7.619,-1.273c-0.443,0.228 -0.887,0.457 -1.311,0.675c-1.761,0.907 -3.889,0.552 -5.281,-0.882c-0.003,-0.003 -0.005,-0.005 -0.008,-0.008c-2.203,-2.268 -3.44,-5.344 -3.44,-8.551c0,-3.208 1.237,-6.284 3.44,-8.552c1.988,-2.046 4.11,-4.232 6.098,-6.278c2.203,-2.268 5.19,-3.542 8.305,-3.542c3.116,0 6.103,1.274 8.306,3.542c0.002,0.002 0.005,0.005 0.007,0.007c1.393,1.434 1.738,3.625 0.857,5.438c-0.212,0.437 -0.434,0.894 -0.655,1.351c-1.271,2.616 -0.773,5.775 1.236,7.844l6.592,6.787c4.244,-2.99 9.107,-5.115 14.349,-6.128Z"/></clipPath><g clip-path="url(#_clip1)"><path d="M92.722,81.584c-2.009,-1.535 -4.84,-1.118 -6.319,0.932l-2.296,3.184c-1.479,2.05 -1.048,4.962 0.961,6.497l10.151,7.762c2.009,1.535 4.84,1.118 6.319,-0.932l2.296,-3.184c1.478,-2.05 1.048,-4.962 -0.961,-6.497l-10.151,-7.762Z" style="fill:#b5e090;"/><path d="M128.971,64.265c0,-2.48 -2.013,-4.493 -4.493,-4.493l-3.852,0c-2.48,0 -4.494,2.013 -4.494,4.493l0,13.367c0,2.48 2.014,4.494 4.494,4.494l3.852,0c2.48,0 4.493,-2.014 4.493,-4.494l0,-13.367Z" style="fill:#b5e090;"/><path d="M166.311,77.072c1.757,-1.804 1.761,-4.737 0.01,-6.545l-2.72,-2.808c-1.752,-1.807 -4.6,-1.81 -6.357,-0.006l-9.005,9.249c-1.756,1.804 -1.761,4.736 -0.009,6.544l2.72,2.808c1.751,1.808 4.599,1.811 6.356,0.006l9.005,-9.248Z" style="fill:#b5e090;"/><path d="M183.387,133.487c2.553,0.07 4.679,-1.945 4.746,-4.498l0.103,-3.964c0.066,-2.552 -1.952,-4.682 -4.504,-4.753l-12.454,-0.344c-2.552,-0.07 -4.679,1.945 -4.745,4.498l-0.103,3.964c-0.067,2.553 1.951,4.682 4.504,4.753l12.453,0.344Z" style="fill:#8dcf54;"/><path d="M156.656,165.351c1.443,2.049 4.245,2.496 6.252,0.997l3.119,-2.328c2.007,-1.499 2.466,-4.379 1.023,-6.429l-7.515,-10.671c-1.443,-2.049 -4.245,-2.496 -6.253,-0.997l-3.118,2.328c-2.008,1.499 -2.466,4.379 -1.023,6.429l7.515,10.671Z" style="fill:#8dcf54;"/><path d="M116.254,169.623c0.111,2.478 2.212,4.394 4.69,4.277l3.847,-0.182c2.478,-0.118 4.399,-2.225 4.288,-4.702l-0.596,-13.352c-0.111,-2.478 -2.212,-4.394 -4.689,-4.277l-3.848,0.183c-2.477,0.117 -4.399,2.224 -4.288,4.701l0.596,13.352Z" style="fill:#8dcf54;"/><path d="M85.199,140.548c-1.849,1.715 -2.003,4.648 -0.343,6.545l2.577,2.947c1.66,1.897 4.509,2.046 6.358,0.331l9.431,-8.746c1.849,-1.715 2.003,-4.648 0.344,-6.545l-2.578,-2.947c-1.66,-1.897 -4.509,-2.045 -6.358,-0.33l-9.431,8.745Z" style="fill:#8dcf54;"/><path d="M81.107,100.182c-2.553,0.04 -4.595,2.145 -4.557,4.699l0.058,3.965c0.038,2.553 2.142,4.593 4.695,4.553l12.456,-0.196c2.554,-0.04 4.596,-2.146 4.558,-4.699l-0.059,-3.965c-0.038,-2.553 -2.142,-4.594 -4.695,-4.553l-12.456,0.196Z" style="fill:#8dcf54;"/></g><path d="M68.657,106.841c0,0 1.722,-1.252 2.626,0.751c0.393,0.871 0.604,2.26 0.624,4.444c0.013,1.29 -0.028,2.845 -0.196,4.72c-0.068,1.617 -0.203,2.997 -0.353,4.18c-0.222,1.739 -0.496,3.035 -0.851,3.996c-0.514,1.391 -1.095,2.04 -1.697,2.261c-0.927,0.342 -1.749,-0.258 -1.749,-0.258c-0.144,-0.122 -0.356,-0.101 -0.475,0.047c-0.118,0.148 -0.098,0.367 0.046,0.489c0,0 2.171,2.055 4.303,-0.649c0.81,-1.027 1.634,-2.82 2.215,-5.875c0.22,-1.157 0.378,-2.503 0.513,-4.058c0.066,-1.506 0.089,-2.814 0.03,-3.946c-0.162,-3.074 -0.715,-4.896 -1.345,-5.944c-1.727,-2.873 -4.113,-0.7 -4.113,-0.7c-0.145,0.12 -0.168,0.339 -0.052,0.488c0.117,0.15 0.329,0.174 0.474,0.054Z" style="fill:#82ca43;"/><path d="M143.104,50.609c0,0 1.236,1.758 -0.699,2.712c-0.842,0.415 -2.188,0.647 -4.309,0.694c-1.253,0.028 -2.763,0.003 -4.586,-0.148c-1.572,-0.051 -2.914,-0.174 -4.064,-0.316c-1.691,-0.208 -2.953,-0.476 -3.89,-0.83c-1.357,-0.513 -1.994,-1.104 -2.216,-1.722c-0.342,-0.949 0.231,-1.803 0.231,-1.803c0.117,-0.149 0.094,-0.368 -0.051,-0.488c-0.145,-0.12 -0.358,-0.096 -0.474,0.053c0,0 -1.971,2.258 0.679,4.422c1.007,0.822 2.758,1.65 5.731,2.213c1.126,0.214 2.435,0.361 3.947,0.482c1.463,0.05 2.733,0.06 3.833,-0.015c2.983,-0.201 4.746,-0.792 5.757,-1.452c2.77,-1.811 0.632,-4.243 0.632,-4.243c-0.118,-0.148 -0.331,-0.169 -0.475,-0.047c-0.143,0.121 -0.164,0.34 -0.046,0.488Z" style="fill:#82ca43;"/><path d="M94.891,62.886c0,0 2.091,0.274 1.443,2.379c-0.282,0.916 -1.037,2.087 -2.455,3.712c-0.837,0.96 -1.887,2.078 -3.241,3.343c-1.112,1.146 -2.116,2.07 -3.003,2.837c-1.305,1.129 -2.357,1.893 -3.249,2.355c-1.291,0.668 -2.146,0.742 -2.735,0.487c-0.907,-0.393 -1.12,-1.407 -1.12,-1.407c-0.026,-0.19 -0.197,-0.322 -0.381,-0.295c-0.184,0.027 -0.313,0.202 -0.287,0.392c0,0 0.252,3.025 3.598,2.514c1.271,-0.194 3.055,-0.943 5.488,-2.791c0.921,-0.7 1.921,-1.583 3.04,-2.635c1.037,-1.065 1.912,-2.013 2.612,-2.89c1.897,-2.378 2.684,-4.107 2.907,-5.318c0.612,-3.319 -2.573,-3.376 -2.573,-3.376c-0.186,-0.013 -0.347,0.132 -0.359,0.324c-0.012,0.191 0.129,0.356 0.315,0.369Z" style="fill:#82ca43;"/><path d="M128.1,89.191c-0.059,0.169 -0.122,0.347 -0.19,0.527c-0.482,1.289 -1.097,2.733 -1.097,2.733c-0.033,0.12 -0.155,0.19 -0.272,0.156c-0.117,-0.035 -0.185,-0.16 -0.152,-0.281c0,0 0.219,-1.56 0.471,-2.916c0.079,-0.426 0.167,-0.826 0.242,-1.151c0.105,-0.457 0.191,-0.759 0.191,-0.759c0.07,-0.253 0.28,-0.439 0.534,-0.472c0.254,-0.033 0.502,0.093 0.632,0.32c0,0 0.154,0.273 0.366,0.693c0.15,0.299 0.328,0.669 0.509,1.064c0.575,1.255 1.185,2.712 1.185,2.712c0.061,0.108 0.026,0.247 -0.079,0.311c-0.104,0.063 -0.24,0.027 -0.301,-0.081c0,0 -0.937,-1.259 -1.721,-2.389c-0.111,-0.16 -0.218,-0.317 -0.318,-0.467Z" style="fill:#82ca43;"/><path d="M139.092,100.226c-0.058,0.17 -0.122,0.347 -0.189,0.528c-0.482,1.289 -1.097,2.732 -1.097,2.732c-0.034,0.121 -0.156,0.19 -0.272,0.156c-0.117,-0.034 -0.185,-0.16 -0.152,-0.28c0,0 0.219,-1.561 0.471,-2.917c0.079,-0.426 0.167,-0.826 0.242,-1.151c0.105,-0.457 0.191,-0.758 0.191,-0.758c0.07,-0.254 0.28,-0.439 0.534,-0.472c0.254,-0.034 0.502,0.092 0.632,0.319c0,0 0.154,0.274 0.365,0.694c0.151,0.299 0.329,0.668 0.51,1.063c0.575,1.256 1.185,2.713 1.185,2.713c0.061,0.108 0.026,0.247 -0.079,0.31c-0.105,0.063 -0.24,0.027 -0.301,-0.081c0,0 -0.937,-1.259 -1.721,-2.388c-0.111,-0.161 -0.218,-0.318 -0.319,-0.468Z" style="fill:#82ca43;"/><path d="M112.354,91.369c0.05,0.172 0.102,0.353 0.151,0.54c0.355,1.332 0.693,2.87 0.693,2.87c0.042,0.117 -0.016,0.248 -0.13,0.291c-0.114,0.044 -0.241,-0.016 -0.283,-0.133c0,0 -0.724,-1.389 -1.303,-2.635c-0.182,-0.391 -0.342,-0.766 -0.468,-1.074c-0.179,-0.432 -0.284,-0.727 -0.284,-0.727c-0.09,-0.247 -0.028,-0.525 0.158,-0.706c0.185,-0.182 0.457,-0.233 0.693,-0.129c0,0 0.282,0.126 0.694,0.334c0.293,0.149 0.649,0.337 1.023,0.545c1.186,0.659 2.517,1.459 2.517,1.459c0.112,0.049 0.164,0.183 0.116,0.298c-0.048,0.115 -0.178,0.168 -0.29,0.119c0,0 -1.48,-0.441 -2.762,-0.871c-0.181,-0.061 -0.358,-0.122 -0.525,-0.181Z" style="fill:#82ca43;"/><path d="M123.347,102.404c0.05,0.172 0.101,0.354 0.151,0.541c0.355,1.331 0.692,2.869 0.692,2.869c0.043,0.117 -0.015,0.248 -0.129,0.292c-0.114,0.044 -0.241,-0.016 -0.283,-0.133c0,0 -0.724,-1.39 -1.303,-2.635c-0.182,-0.391 -0.342,-0.767 -0.469,-1.074c-0.178,-0.432 -0.283,-0.727 -0.283,-0.727c-0.09,-0.247 -0.028,-0.525 0.157,-0.707c0.186,-0.182 0.458,-0.232 0.693,-0.128c0,0 0.282,0.125 0.694,0.334c0.294,0.149 0.65,0.337 1.024,0.544c1.186,0.66 2.517,1.459 2.517,1.459c0.112,0.05 0.163,0.183 0.116,0.298c-0.048,0.115 -0.178,0.169 -0.29,0.119c0,0 -1.48,-0.44 -2.762,-0.87c-0.182,-0.061 -0.358,-0.122 -0.525,-0.182Z" style="fill:#82ca43;"/><path d="M141.606,84.325c-0.112,0.137 -0.232,0.28 -0.358,0.425c-0.892,1.031 -1.962,2.158 -1.962,2.158c-0.072,0.101 -0.21,0.122 -0.308,0.047c-0.098,-0.074 -0.118,-0.217 -0.045,-0.317c0,0 0.738,-1.381 1.438,-2.559c0.22,-0.369 0.44,-0.712 0.621,-0.989c0.255,-0.389 0.438,-0.64 0.438,-0.64c0.153,-0.212 0.413,-0.309 0.662,-0.248c0.249,0.061 0.438,0.269 0.482,0.529c0,0 0.051,0.312 0.105,0.781c0.038,0.335 0.078,0.745 0.112,1.18c0.108,1.384 0.18,2.969 0.18,2.969c0.021,0.123 -0.06,0.241 -0.18,0.262c-0.12,0.021 -0.234,-0.062 -0.254,-0.185c0,0 -0.446,-1.519 -0.793,-2.86c-0.049,-0.191 -0.095,-0.376 -0.138,-0.553Z" style="fill:#82ca43;"/><path d="M103.172,106.481c0.083,0.158 0.169,0.325 0.254,0.498c0.608,1.231 1.239,2.667 1.239,2.667c0.064,0.106 0.033,0.246 -0.07,0.313c-0.103,0.066 -0.239,0.034 -0.304,-0.072c0,0 -0.98,-1.211 -1.791,-2.311c-0.254,-0.345 -0.484,-0.68 -0.668,-0.955c-0.26,-0.386 -0.42,-0.653 -0.42,-0.653c-0.136,-0.224 -0.13,-0.509 0.016,-0.725c0.146,-0.217 0.403,-0.323 0.654,-0.27c0,0 0.3,0.065 0.745,0.184c0.316,0.085 0.702,0.196 1.109,0.321c1.291,0.4 2.75,0.908 2.75,0.908c0.119,0.025 0.196,0.145 0.172,0.268c-0.025,0.123 -0.141,0.202 -0.26,0.177c0,0 -1.536,-0.125 -2.876,-0.281c-0.19,-0.022 -0.375,-0.045 -0.55,-0.069Z" style="fill:#82ca43;"/><path d="M171.544,170.922c0,0 -2.103,-0.157 -1.567,-2.295c0.232,-0.931 0.925,-2.142 2.255,-3.845c0.785,-1.005 1.774,-2.18 3.059,-3.52c1.049,-1.206 2.003,-2.185 2.849,-3.001c1.242,-1.2 2.253,-2.022 3.119,-2.533c1.254,-0.74 2.103,-0.862 2.705,-0.64c0.926,0.341 1.193,1.342 1.193,1.342c0.036,0.188 0.213,0.31 0.396,0.273c0.182,-0.037 0.301,-0.22 0.265,-0.408c0,0 -0.412,-3.006 -3.726,-2.308c-1.258,0.265 -3,1.113 -5.331,3.095c-0.883,0.751 -1.834,1.688 -2.897,2.802c-0.978,1.122 -1.802,2.117 -2.454,3.032c-1.769,2.481 -2.463,4.251 -2.622,5.473c-0.435,3.349 2.749,3.227 2.749,3.227c0.186,0.002 0.338,-0.152 0.34,-0.343c0.002,-0.192 -0.147,-0.349 -0.333,-0.351Z" style="fill:#82ca43;"/><path d="M197.744,126.903c0,0 -1.523,1.501 -2.704,-0.343c-0.514,-0.802 -0.921,-2.143 -1.256,-4.301c-0.197,-1.273 -0.379,-2.817 -0.482,-4.697c-0.165,-1.61 -0.23,-2.996 -0.251,-4.189c-0.03,-1.753 0.055,-3.077 0.268,-4.081c0.309,-1.453 0.791,-2.184 1.354,-2.495c0.867,-0.478 1.767,-0.01 1.767,-0.01c0.159,0.099 0.367,0.046 0.463,-0.119c0.095,-0.164 0.044,-0.378 -0.116,-0.476c0,0 -2.442,-1.703 -4.162,1.296c-0.654,1.139 -1.212,3.037 -1.348,6.147c-0.052,1.178 -0.015,2.533 0.075,4.091c0.151,1.5 0.315,2.797 0.537,3.908c0.6,3.016 1.409,4.734 2.182,5.674c2.121,2.579 4.169,0.067 4.169,0.067c0.126,-0.141 0.118,-0.361 -0.019,-0.491c-0.137,-0.13 -0.35,-0.121 -0.477,0.019Z" style="fill:#82ca43;"/><path d="M185.152,77.955c0,0 -0.357,2.139 -2.372,1.38c-0.876,-0.329 -1.979,-1.158 -3.494,-2.688c-0.895,-0.903 -1.933,-2.032 -3.102,-3.48c-1.063,-1.193 -1.916,-2.267 -2.622,-3.213c-1.037,-1.391 -1.733,-2.507 -2.142,-3.445c-0.592,-1.357 -0.626,-2.24 -0.353,-2.835c0.421,-0.915 1.414,-1.09 1.414,-1.09c0.185,-0.018 0.321,-0.188 0.303,-0.379c-0.017,-0.191 -0.182,-0.331 -0.368,-0.312c0,0 -2.946,0.127 -2.597,3.591c0.133,1.316 0.782,3.184 2.469,5.767c0.638,0.978 1.451,2.045 2.424,3.243c0.988,1.113 1.869,2.054 2.689,2.812c2.225,2.056 3.868,2.942 5.033,3.224c3.194,0.774 3.389,-2.5 3.389,-2.5c0.02,-0.19 -0.114,-0.362 -0.299,-0.383c-0.185,-0.02 -0.352,0.117 -0.372,0.308Z" style="fill:#82ca43;"/><path d="M80.159,155.658c0,0 0.334,-2.142 2.357,-1.408c0.88,0.319 1.992,1.135 3.524,2.647c0.904,0.892 1.956,2.009 3.141,3.443c1.076,1.181 1.94,2.244 2.657,3.182c1.053,1.379 1.761,2.486 2.18,3.419c0.607,1.35 0.652,2.232 0.385,2.831c-0.411,0.92 -1.402,1.106 -1.402,1.106c-0.185,0.021 -0.319,0.192 -0.299,0.383c0.02,0.191 0.186,0.329 0.371,0.308c0,0 2.945,-0.162 2.557,-3.622c-0.147,-1.314 -0.817,-3.174 -2.532,-5.737c-0.65,-0.971 -1.474,-2.028 -2.46,-3.214c-1.001,-1.101 -1.892,-2.032 -2.721,-2.78c-2.247,-2.03 -3.9,-2.896 -5.068,-3.165c-3.203,-0.736 -3.361,2.54 -3.361,2.54c-0.018,0.191 0.118,0.361 0.303,0.379c0.185,0.019 0.35,-0.121 0.368,-0.312Z" style="fill:#82ca43;"/><path d="M122.682,182.079c0,0 -1.29,-1.716 0.614,-2.733c0.828,-0.443 2.167,-0.72 4.285,-0.837c1.251,-0.069 2.761,-0.095 4.588,-0.004c1.573,-0.002 2.918,0.077 4.072,0.18c1.697,0.152 2.966,0.377 3.914,0.7c1.372,0.468 2.027,1.037 2.269,1.647c0.371,0.938 -0.175,1.81 -0.175,1.81c-0.112,0.153 -0.082,0.371 0.067,0.486c0.149,0.116 0.36,0.085 0.472,-0.068c0,0 1.9,-2.323 -0.817,-4.398c-1.032,-0.788 -2.808,-1.557 -5.798,-2.021c-1.132,-0.176 -2.445,-0.279 -3.959,-0.35c-1.465,-0.002 -2.735,0.031 -3.831,0.142c-2.975,0.3 -4.719,0.949 -5.708,1.643c-2.713,1.903 -0.5,4.262 -0.5,4.262c0.123,0.144 0.336,0.158 0.476,0.032c0.14,-0.127 0.154,-0.347 0.031,-0.491Z" style="fill:#82ca43;"/><path d="M161.74,104.977c-0.172,-0.032 -0.352,-0.067 -0.536,-0.106c-1.314,-0.277 -2.798,-0.664 -2.798,-0.664c-0.121,-0.014 -0.208,-0.127 -0.195,-0.251c0.014,-0.124 0.123,-0.214 0.244,-0.2c0,0 1.531,-0.035 2.872,-0.002c0.421,0.01 0.818,0.034 1.142,0.056c0.455,0.032 0.758,0.069 0.758,0.069c0.254,0.03 0.467,0.213 0.54,0.465c0.074,0.252 -0.006,0.526 -0.202,0.694c0,0 -0.237,0.202 -0.604,0.486c-0.262,0.202 -0.586,0.444 -0.935,0.693c-1.108,0.79 -2.404,1.649 -2.404,1.649c-0.093,0.081 -0.232,0.068 -0.31,-0.028c-0.078,-0.096 -0.065,-0.24 0.028,-0.32c0,0 1.052,-1.159 2.005,-2.141c0.135,-0.139 0.268,-0.274 0.395,-0.4Z" style="fill:#82ca43;"/><path d="M109.1,134.532c0.174,-0.015 0.357,-0.029 0.545,-0.041c1.339,-0.082 2.87,-0.104 2.87,-0.104c0.12,-0.018 0.232,0.067 0.25,0.191c0.018,0.124 -0.065,0.239 -0.185,0.258c0,0 -1.47,0.441 -2.773,0.767c-0.409,0.103 -0.799,0.186 -1.117,0.25c-0.448,0.091 -0.75,0.136 -0.75,0.136c-0.253,0.039 -0.504,-0.081 -0.639,-0.305c-0.134,-0.225 -0.126,-0.51 0.021,-0.725c0,0 0.178,-0.258 0.462,-0.63c0.202,-0.265 0.454,-0.585 0.729,-0.918c0.872,-1.059 1.907,-2.234 1.907,-2.234c0.07,-0.103 0.207,-0.127 0.307,-0.055c0.099,0.072 0.123,0.213 0.053,0.316c0,0 -0.725,1.4 -1.399,2.602c-0.095,0.171 -0.19,0.336 -0.281,0.492Z" style="fill:#82ca43;"/><path d="M126.684,127.832c0.151,-0.089 0.312,-0.182 0.477,-0.274c1.18,-0.656 2.559,-1.341 2.559,-1.341c0.102,-0.069 0.239,-0.04 0.306,0.064c0.067,0.105 0.039,0.246 -0.062,0.315c0,0 -1.152,1.038 -2.2,1.9c-0.329,0.271 -0.649,0.516 -0.911,0.712c-0.368,0.277 -0.624,0.449 -0.624,0.449c-0.213,0.145 -0.49,0.145 -0.704,0.001c-0.214,-0.145 -0.323,-0.407 -0.278,-0.667c0,0 0.056,-0.311 0.16,-0.771c0.075,-0.328 0.173,-0.728 0.285,-1.149c0.356,-1.339 0.813,-2.854 0.813,-2.854c0.022,-0.123 0.136,-0.205 0.256,-0.183c0.12,0.022 0.199,0.14 0.178,0.263c0,0 -0.083,1.584 -0.202,2.967c-0.016,0.196 -0.034,0.387 -0.053,0.568Z" style="fill:#82ca43;"/><path d="M156.455,137.987c-0.067,-0.166 -0.136,-0.341 -0.204,-0.522c-0.485,-1.287 -0.974,-2.781 -0.974,-2.781c-0.053,-0.113 -0.009,-0.249 0.1,-0.304c0.109,-0.056 0.241,-0.01 0.295,0.102c0,0 0.858,1.306 1.558,2.484c0.219,0.37 0.415,0.727 0.572,1.02c0.221,0.411 0.355,0.693 0.355,0.693c0.113,0.236 0.079,0.519 -0.087,0.72c-0.167,0.2 -0.433,0.279 -0.677,0.2c0,0 -0.293,-0.095 -0.723,-0.259c-0.307,-0.117 -0.68,-0.267 -1.072,-0.434c-1.246,-0.531 -2.649,-1.187 -2.649,-1.187c-0.116,-0.037 -0.181,-0.165 -0.145,-0.284c0.036,-0.12 0.16,-0.186 0.276,-0.149c0,0 1.516,0.282 2.834,0.576c0.187,0.041 0.369,0.083 0.541,0.125Z" style="fill:#82ca43;"/><path d="M144.592,128.124c-0.067,-0.166 -0.136,-0.341 -0.204,-0.522c-0.485,-1.288 -0.973,-2.782 -0.973,-2.782c-0.054,-0.112 -0.009,-0.248 0.1,-0.304c0.109,-0.055 0.241,-0.009 0.295,0.103c0,0 0.857,1.306 1.557,2.484c0.22,0.37 0.416,0.727 0.573,1.019c0.22,0.411 0.354,0.694 0.354,0.694c0.113,0.236 0.079,0.519 -0.087,0.719c-0.166,0.2 -0.432,0.279 -0.676,0.201c0,0 -0.293,-0.095 -0.724,-0.26c-0.307,-0.117 -0.68,-0.267 -1.072,-0.434c-1.246,-0.531 -2.649,-1.187 -2.649,-1.187c-0.116,-0.037 -0.18,-0.164 -0.144,-0.284c0.036,-0.119 0.16,-0.186 0.276,-0.149c0,0 1.516,0.283 2.834,0.576c0.187,0.042 0.368,0.084 0.54,0.126Z" style="fill:#82ca43;"/><path d="M153.466,96.541c-0.17,0.04 -0.35,0.08 -0.534,0.117c-1.316,0.27 -2.83,0.506 -2.83,0.506c-0.116,0.035 -0.239,-0.033 -0.273,-0.154c-0.034,-0.12 0.033,-0.246 0.149,-0.281c0,0 1.398,-0.644 2.646,-1.15c0.392,-0.158 0.767,-0.296 1.074,-0.404c0.431,-0.152 0.725,-0.239 0.725,-0.239c0.245,-0.075 0.51,0.009 0.673,0.212c0.163,0.203 0.192,0.487 0.075,0.721c0,0 -0.142,0.281 -0.374,0.689c-0.165,0.29 -0.373,0.643 -0.6,1.012c-0.724,1.171 -1.594,2.481 -1.594,2.481c-0.056,0.111 -0.188,0.154 -0.297,0.097c-0.108,-0.057 -0.15,-0.194 -0.094,-0.305c0,0 0.532,-1.489 1.041,-2.775c0.072,-0.182 0.143,-0.359 0.213,-0.527Z" style="fill:#82ca43;"/><path d="M119.213,140.475c0.154,-0.083 0.318,-0.169 0.487,-0.255c1.203,-0.611 2.605,-1.243 2.605,-1.243c0.104,-0.065 0.24,-0.031 0.303,0.076c0.063,0.107 0.031,0.247 -0.073,0.312c0,0 -1.188,0.994 -2.267,1.815c-0.338,0.258 -0.666,0.49 -0.935,0.677c-0.379,0.262 -0.64,0.424 -0.64,0.424c-0.219,0.137 -0.495,0.127 -0.704,-0.026c-0.208,-0.152 -0.308,-0.418 -0.254,-0.676c0,0 0.067,-0.309 0.188,-0.765c0.086,-0.324 0.199,-0.72 0.326,-1.137c0.404,-1.325 0.915,-2.821 0.915,-2.821c0.026,-0.123 0.144,-0.2 0.262,-0.174c0.119,0.027 0.195,0.148 0.169,0.27c0,0 -0.14,1.58 -0.308,2.958c-0.024,0.195 -0.049,0.385 -0.074,0.565Z" style="fill:#82ca43;"/><path d="M163.325,120.496c-0.149,-0.093 -0.306,-0.193 -0.464,-0.297c-1.13,-0.745 -2.38,-1.655 -2.38,-1.655c-0.108,-0.058 -0.15,-0.195 -0.093,-0.306c0.056,-0.111 0.189,-0.154 0.297,-0.096c0,0 1.44,0.533 2.68,1.06c0.39,0.165 0.753,0.334 1.047,0.475c0.413,0.198 0.683,0.344 0.683,0.344c0.227,0.122 0.362,0.371 0.342,0.634c-0.019,0.263 -0.189,0.488 -0.431,0.573c0,0 -0.291,0.101 -0.733,0.23c-0.314,0.092 -0.702,0.197 -1.114,0.301c-1.31,0.328 -2.819,0.651 -2.819,0.651c-0.115,0.04 -0.24,-0.024 -0.279,-0.142c-0.039,-0.118 0.022,-0.247 0.137,-0.288c0,0 1.386,-0.693 2.618,-1.257c0.175,-0.08 0.346,-0.156 0.509,-0.227Z" style="fill:#82ca43;"/><path d="M149.034,114.271c-0.149,-0.093 -0.305,-0.193 -0.464,-0.297c-1.129,-0.745 -2.379,-1.655 -2.379,-1.655c-0.108,-0.058 -0.15,-0.195 -0.094,-0.306c0.056,-0.111 0.189,-0.154 0.297,-0.096c0,0 1.441,0.533 2.681,1.059c0.389,0.166 0.752,0.335 1.046,0.475c0.414,0.198 0.684,0.345 0.684,0.345c0.227,0.122 0.361,0.371 0.342,0.634c-0.02,0.262 -0.189,0.488 -0.431,0.573c0,0 -0.292,0.101 -0.733,0.23c-0.315,0.091 -0.702,0.197 -1.115,0.3c-1.31,0.328 -2.818,0.651 -2.818,0.651c-0.115,0.041 -0.241,-0.023 -0.28,-0.141c-0.039,-0.119 0.023,-0.248 0.138,-0.288c0,0 1.386,-0.693 2.618,-1.257c0.174,-0.08 0.345,-0.156 0.508,-0.227Z" style="fill:#82ca43;"/><path d="M107.28,121.194c0.167,0.05 0.343,0.105 0.522,0.163c1.279,0.419 2.715,0.964 2.715,0.964c0.119,0.028 0.194,0.149 0.167,0.271c-0.026,0.122 -0.144,0.199 -0.263,0.172c0,0 -1.525,-0.131 -2.855,-0.309c-0.418,-0.056 -0.811,-0.122 -1.131,-0.18c-0.449,-0.081 -0.746,-0.151 -0.746,-0.151c-0.25,-0.057 -0.443,-0.262 -0.49,-0.52c-0.047,-0.259 0.06,-0.522 0.272,-0.669c0,0 0.256,-0.175 0.651,-0.417c0.28,-0.173 0.628,-0.378 1,-0.588c1.183,-0.666 2.559,-1.38 2.559,-1.38c0.101,-0.069 0.238,-0.041 0.306,0.063c0.068,0.104 0.04,0.245 -0.061,0.314c0,0 -1.164,1.039 -2.212,1.912c-0.149,0.124 -0.295,0.243 -0.434,0.355Z" style="fill:#82ca43;"/><path d="M117.279,113.271c0.147,0.097 0.301,0.199 0.457,0.307c1.115,0.769 2.346,1.705 2.346,1.705c0.107,0.06 0.146,0.198 0.088,0.308c-0.059,0.11 -0.193,0.15 -0.299,0.09c0,0 -1.43,-0.564 -2.659,-1.116c-0.386,-0.174 -0.746,-0.35 -1.037,-0.497c-0.409,-0.207 -0.676,-0.36 -0.676,-0.36c-0.225,-0.126 -0.354,-0.378 -0.329,-0.64c0.024,-0.263 0.198,-0.484 0.442,-0.564c0,0 0.293,-0.095 0.738,-0.214c0.316,-0.085 0.705,-0.183 1.12,-0.277c1.316,-0.3 2.831,-0.591 2.831,-0.591c0.116,-0.038 0.24,0.028 0.276,0.147c0.037,0.12 -0.027,0.247 -0.143,0.285c0,0 -1.4,0.663 -2.643,1.201c-0.176,0.076 -0.348,0.149 -0.512,0.216Z" style="fill:#82ca43;"/><path d="M143.833,146.595c-0.001,-0.18 -0.001,-0.369 0.002,-0.563c0.023,-1.381 0.118,-2.954 0.118,-2.954c-0.009,-0.125 0.083,-0.234 0.204,-0.243c0.121,-0.009 0.227,0.085 0.236,0.21c0,0 0.315,1.543 0.531,2.906c0.068,0.427 0.119,0.834 0.157,1.166c0.054,0.466 0.074,0.78 0.074,0.78c0.019,0.262 -0.117,0.511 -0.344,0.632c-0.227,0.121 -0.503,0.091 -0.7,-0.077c0,0 -0.236,-0.202 -0.575,-0.521c-0.241,-0.228 -0.532,-0.512 -0.834,-0.819c-0.959,-0.976 -2.018,-2.128 -2.018,-2.128c-0.093,-0.079 -0.107,-0.223 -0.029,-0.319c0.077,-0.097 0.216,-0.11 0.31,-0.031c0,0 1.3,0.851 2.413,1.634c0.158,0.111 0.311,0.221 0.455,0.327Z" style="fill:#82ca43;"/><path d="M129.542,140.369c-0.001,-0.179 -0.001,-0.368 0.002,-0.562c0.023,-1.381 0.119,-2.954 0.119,-2.954c-0.009,-0.125 0.082,-0.234 0.203,-0.243c0.122,-0.009 0.227,0.085 0.236,0.21c0,0 0.315,1.543 0.532,2.905c0.068,0.428 0.118,0.835 0.157,1.167c0.053,0.466 0.073,0.78 0.073,0.78c0.019,0.262 -0.116,0.511 -0.344,0.632c-0.227,0.121 -0.502,0.091 -0.7,-0.077c0,0 -0.236,-0.202 -0.575,-0.521c-0.241,-0.228 -0.531,-0.512 -0.833,-0.819c-0.959,-0.976 -2.018,-2.128 -2.018,-2.128c-0.094,-0.08 -0.107,-0.223 -0.03,-0.319c0.077,-0.097 0.216,-0.111 0.31,-0.031c0,0 1.3,0.851 2.414,1.634c0.157,0.111 0.31,0.221 0.454,0.326Z" style="fill:#82ca43;"/></g><path d="M125.272,90.883c5.543,-1.352 10.764,-1.346 15.664,0.017c4.899,1.364 8.312,3.634 10.238,6.81c1.927,3.176 2.318,6.819 1.174,10.928c-0.933,3.147 -2.592,5.793 -4.978,7.939c-2.385,2.146 -5.573,3.657 -9.564,4.533l-5.727,1.301l-2.876,7.886c-1.036,0.052 -2.134,-0.084 -3.293,-0.406c-1.106,-0.308 -2.09,-0.752 -2.95,-1.332l2.803,-11.908l0.954,-0.671l4.343,-0.92c3.616,-0.753 6.443,-1.783 8.481,-3.089c2.038,-1.306 3.336,-2.96 3.893,-4.962c0.558,-2.002 0.352,-3.862 -0.618,-5.58c-0.97,-1.717 -2.745,-2.935 -5.327,-3.654c-1.37,-0.381 -2.96,-0.582 -4.771,-0.604c-1.81,-0.021 -3.856,0.19 -6.137,0.634c-0.561,-0.838 -0.984,-1.921 -1.267,-3.248c-0.283,-1.328 -0.297,-2.553 -0.042,-3.674Zm-5.755,45.148c1.245,-0.392 2.815,-0.324 4.712,0.204c0.79,0.22 1.497,0.488 2.118,0.803c0.622,0.315 1.164,0.664 1.625,1.048c0.461,0.384 0.682,0.914 0.664,1.59c-0.018,0.676 -0.188,1.594 -0.511,2.753c-0.322,1.159 -0.681,2.039 -1.075,2.638c-0.394,0.6 -0.811,0.924 -1.25,0.972c-0.439,0.048 -1.049,0.049 -1.831,0.002c-0.781,-0.048 -1.567,-0.181 -2.358,-0.401c-0.843,-0.235 -1.558,-0.519 -2.147,-0.853c-0.588,-0.334 -1.084,-0.643 -1.488,-0.925c-0.404,-0.283 -0.612,-0.809 -0.625,-1.579c-0.012,-0.77 0.128,-1.682 0.421,-2.736c0.44,-1.58 1.022,-2.753 1.745,-3.516Z" style="fill:#477320;fill-rule:nonzero;"/><path d="M124.254,89.447c5.543,-1.352 10.764,-1.347 15.664,0.017c4.9,1.364 8.313,3.634 10.239,6.81c1.926,3.176 2.317,6.818 1.173,10.928c-0.933,3.147 -2.592,5.793 -4.977,7.939c-2.386,2.146 -5.574,3.657 -9.565,4.533l-5.726,1.301l-2.877,7.885c-1.036,0.052 -2.134,-0.083 -3.293,-0.406c-1.106,-0.308 -2.09,-0.752 -2.95,-1.332l2.804,-11.907l0.953,-0.671l4.343,-0.92c3.616,-0.754 6.443,-1.783 8.481,-3.089c2.039,-1.306 3.336,-2.96 3.894,-4.963c0.557,-2.002 0.351,-3.861 -0.619,-5.579c-0.969,-1.717 -2.745,-2.935 -5.327,-3.654c-1.369,-0.381 -2.96,-0.583 -4.77,-0.604c-1.811,-0.022 -3.857,0.189 -6.137,0.633c-0.562,-0.837 -0.984,-1.92 -1.268,-3.248c-0.283,-1.328 -0.297,-2.552 -0.042,-3.673Zm-5.754,45.147c1.244,-0.391 2.815,-0.323 4.711,0.205c0.791,0.22 1.497,0.487 2.119,0.802c0.622,0.315 1.163,0.665 1.624,1.049c0.461,0.383 0.682,0.913 0.664,1.59c-0.018,0.676 -0.188,1.593 -0.511,2.753c-0.322,1.159 -0.681,2.038 -1.075,2.638c-0.394,0.6 -0.81,0.924 -1.249,0.972c-0.44,0.048 -1.05,0.049 -1.832,0.001c-0.781,-0.047 -1.567,-0.181 -2.357,-0.401c-0.843,-0.234 -1.559,-0.519 -2.147,-0.853c-0.588,-0.334 -1.085,-0.642 -1.488,-0.925c-0.404,-0.282 -0.613,-0.809 -0.625,-1.579c-0.013,-0.77 0.127,-1.681 0.421,-2.735c0.44,-1.581 1.021,-2.753 1.745,-3.517Z" style="fill:#528525;fill-rule:nonzero;"/></g></svg>