<?xml version="1.0" encoding="UTF-8" standalone="no"?><!DOCTYPE svg PUBLIC "-//W3C//DTD SVG 1.1//EN" "http://www.w3.org/Graphics/SVG/1.1/DTD/svg11.dtd"><svg width="100%" height="100%" viewBox="0 0 25 25" version="1.1" xmlns="http://www.w3.org/2000/svg" xmlns:xlink="http://www.w3.org/1999/xlink" xml:space="preserve" xmlns:serif="http://www.serif.com/" style="fill-rule:evenodd;clip-rule:evenodd;stroke-linecap:round;stroke-linejoin:round;stroke-miterlimit:1.5;"><path id="icon-telefono" d="M8.342,7.845c0.558,-0.565 0.645,-1.443 0.209,-2.106c-0.846,-1.289 -1.558,-2.546 -2.147,-3.773c-0.132,-0.279 -0.419,-0.452 -0.728,-0.438c0.001,0.004 0.001,0.004 0.001,0.004c-1.688,0.088 -3.198,1.074 -3.958,2.583c-0.825,1.583 -0.748,3.391 -0.13,5.331c0.728,3.13 2.857,5.933 5.434,8.631c5.427,5.107 9.985,6.634 13.788,5.047c0.133,-0.056 0.258,-0.129 0.373,-0.216c0.034,-0.022 0.071,-0.05 0.111,-0.08c1.025,-0.776 1.715,-1.912 1.931,-3.179c0,0 0,-0.001 0,-0.001c0.084,-0.492 -0.163,-0.98 -0.608,-1.204c-1.447,-0.729 -2.725,-1.467 -3.873,-2.213c-0.481,-0.316 -1.118,-0.258 -1.535,0.141c-0.35,0.335 -0.78,0.747 -1.175,1.125c-0.743,0.712 -1.852,0.883 -2.775,0.427c-2.744,-1.452 -4.825,-3.682 -6.366,-6.555c-0.427,-0.808 -0.269,-1.801 0.387,-2.438c0.299,-0.317 0.653,-0.671 1.061,-1.086Z" style="fill:none;stroke:#4a4a4a;stroke-width:2px;"/></svg>