<?xml version="1.0" encoding="UTF-8" standalone="no"?>
<!DOCTYPE svg PUBLIC "-//W3C//DTD SVG 1.1//EN" "http://www.w3.org/Graphics/SVG/1.1/DTD/svg11.dtd">
<svg width="100%" height="100%" viewBox="0 0 90 90" version="1.1" xmlns="http://www.w3.org/2000/svg" xmlns:xlink="http://www.w3.org/1999/xlink" xml:space="preserve" xmlns:serif="http://www.serif.com/" style="fill-rule:evenodd;clip-rule:evenodd;stroke-linecap:round;stroke-linejoin:round;">
    <g id="Path-2" transform="matrix(0.381763,-1.04889,1.04889,0.381763,-18.9444,79.199)">
        <path d="M17.695,12.799C22.902,9.067 32.682,9.067 51.098,12.799C69.514,16.532 77.912,22.509 80.094,28.486C82.276,34.463 82.221,42.06 70.413,57.564C58.605,73.068 49.547,82 37.496,82C25.444,82 16.164,64.43 12.487,43.833C8.81,23.236 12.487,16.532 17.695,12.799Z" style="fill:url(#_Linear1);"/>
    </g>
    <g id="Layer1_0_1_STROKES" transform="matrix(1.1162,0,0,1.1162,7.72612,16.0383)">
        <path d="M0,28.305L12.678,28.305L15.389,13.924L21.802,48L30.87,0L39.115,43.603L41.991,28.305L63.518,28.305C63.548,27.188 63.963,26.229 64.763,25.429C65.594,24.611 66.589,24.202 67.75,24.202C68.91,24.202 69.905,24.611 70.736,25.429C71.566,26.26 71.982,27.261 71.982,28.434C71.982,29.594 71.566,30.583 70.736,31.402C69.905,32.232 68.91,32.647 67.75,32.647C66.589,32.647 65.594,32.232 64.763,31.402C63.933,30.583 63.518,29.594 63.518,28.434L63.518,28.305" style="fill:none;stroke:rgb(253,98,98);stroke-width:3px;"/>
    </g>
    <defs>
        <linearGradient id="_Linear1" x1="0" y1="0" x2="1" y2="0" gradientUnits="userSpaceOnUse" gradientTransform="matrix(-76.2456,-13.4828,13.4828,-76.2456,77.0921,30.3032)"><stop offset="0" style="stop-color:rgb(255,238,223);stop-opacity:1"/><stop offset="0" style="stop-color:rgb(255,238,223);stop-opacity:1"/><stop offset="1" style="stop-color:rgb(255,250,245);stop-opacity:1"/></linearGradient>
    </defs>
</svg>
