<?xml version="1.0" encoding="UTF-8" standalone="no"?><!DOCTYPE svg PUBLIC "-//W3C//DTD SVG 1.1//EN" "http://www.w3.org/Graphics/SVG/1.1/DTD/svg11.dtd"><svg width="100%" height="100%" viewBox="0 0 50 40" version="1.1" xmlns="http://www.w3.org/2000/svg" xmlns:xlink="http://www.w3.org/1999/xlink" xml:space="preserve" xmlns:serif="http://www.serif.com/" style="fill-rule:evenodd;clip-rule:evenodd;stroke-linejoin:round;stroke-miterlimit:2;"><rect id="icon-salir" x="0" y="0" width="50" height="40" style="fill:none;"/><g><path d="M26.46,4.914c1.073,0.184 2.182,0.098 3.205,-0.248c0,-0.001 0.001,-0.001 0.001,-0.001c2.228,-0.755 4.706,-0.639 6.834,0.322c2.127,0.96 3.711,2.677 4.368,4.735c1.493,4.68 3.302,10.349 4.431,13.885c0.691,2.167 0.372,4.494 -0.884,6.445c-0.959,1.49 -2.167,3.366 -3.383,5.254c-1.257,1.953 -3.51,3.217 -6.013,3.376c-2.504,0.158 -4.931,-0.81 -6.48,-2.586c-0.001,0 -0.002,-0.001 -0.002,-0.002c-1.097,-1.257 -2.962,-1.75 -4.641,-1.226c-1.286,0.401 -2.909,0.907 -4.644,1.448c-2.874,0.897 -6.055,0.463 -8.504,-1.16c-2.449,-1.623 -3.851,-4.226 -3.749,-6.959c0.152,-4.073 0.299,-7.998 0.36,-9.621c0.019,-0.519 -0.016,-1.04 -0.105,-1.554c-0.152,-0.881 -0.421,-2.437 -0.733,-4.24c-0.461,-2.667 0.548,-5.368 2.707,-7.243c2.159,-1.876 5.198,-2.69 8.147,-2.184c3.626,0.622 7.117,1.221 9.085,1.559Z" style="fill:#fff0f1;"/><path d="M24.393,35.086c1.073,-0.184 2.182,-0.098 3.204,0.248c0.001,0.001 0.001,0.001 0.002,0.001c2.228,0.755 4.705,0.639 6.833,-0.322c2.128,-0.96 3.712,-2.677 4.368,-4.735c1.494,-4.68 3.303,-10.349 4.431,-13.885c0.691,-2.167 0.372,-4.494 -0.884,-6.445c-0.959,-1.49 -2.167,-3.366 -3.382,-5.254c-1.257,-1.953 -3.51,-3.217 -6.014,-3.376c-2.503,-0.158 -4.931,0.81 -6.48,2.586c-0.001,0 -0.001,0.001 -0.002,0.002c-1.097,1.257 -2.961,1.75 -4.641,1.226c-1.285,-0.401 -2.909,-0.907 -4.643,-1.448c-2.875,-0.897 -6.056,-0.463 -8.505,1.16c-2.448,1.623 -3.851,4.226 -3.749,6.959c0.153,4.073 0.3,7.998 0.36,9.621c0.02,0.519 -0.015,1.04 -0.104,1.554c-0.153,0.881 -0.422,2.437 -0.734,4.24c-0.461,2.667 0.549,5.368 2.708,7.243c2.159,1.876 5.197,2.69 8.146,2.184c3.627,-0.622 7.117,-1.221 9.086,-1.559Z" style="fill:#ffe6e8;"/></g><path d="M19.238,9.9l3.743,1.839c0.342,0.168 0.559,0.516 0.559,0.898l0,13.726l4.83,0l0,-3.354c0,-0.552 0.448,-1 1,-1c0.551,0 1,0.448 1,1l0,4.354c0,0.553 -0.448,1 -1,1l-5.83,0l0,2.737c0,0.345 -0.179,0.666 -0.472,0.849c-0.293,0.182 -0.659,0.201 -0.969,0.048l-7.605,-3.736c-0.342,-0.168 -0.559,-0.516 -0.559,-0.898l0,-18.463l0,-0.017c0.003,-0.18 0.054,-0.349 0.14,-0.494c0.081,-0.135 0.193,-0.252 0.331,-0.338c0.006,-0.003 0.011,-0.006 0.016,-0.009c0.147,-0.088 0.318,-0.14 0.501,-0.142l0.012,0l14.435,0c0.552,0 1,0.448 1,1l0,4.709c0,0.552 -0.449,1 -1,1c-0.552,0 -1,-0.448 -1,-1l0,-3.709l-9.132,0Zm-3.303,16.841l5.605,2.753l0,-16.235l-5.605,-2.753l0,16.235Zm16.716,-9.432l-1.078,-1.078c-0.39,-0.39 -0.39,-1.024 0,-1.414c0.39,-0.39 1.024,-0.39 1.414,0l2.785,2.785c0.12,0.12 0.203,0.263 0.25,0.415l0,0.003c0.026,0.084 0.04,0.173 0.043,0.265l0,0.024l0,0.024c-0.003,0.092 -0.017,0.181 -0.043,0.265l0,0.003c-0.047,0.152 -0.13,0.295 -0.25,0.415l-2.785,2.785c-0.39,0.391 -1.024,0.391 -1.414,0c-0.39,-0.39 -0.39,-1.024 0,-1.414l1.078,-1.078l-5.439,0c-0.552,0 -1,-0.448 -1,-1c0,-0.552 0.448,-1 1,-1l5.439,0Zm-12.86,2.691c0.509,0 0.922,0.413 0.922,0.922c0,0.509 -0.413,0.922 -0.922,0.922c-0.509,0 -0.922,-0.413 -0.922,-0.922c0,-0.509 0.413,-0.922 0.922,-0.922Z" style="fill:#ff808a;"/></svg>