<?xml version="1.0" encoding="UTF-8" standalone="no"?><!DOCTYPE svg PUBLIC "-//W3C//DTD SVG 1.1//EN" "http://www.w3.org/Graphics/SVG/1.1/DTD/svg11.dtd"><svg width="100%" height="100%" viewBox="0 0 28 25" version="1.1" xmlns="http://www.w3.org/2000/svg" xmlns:xlink="http://www.w3.org/1999/xlink" xml:space="preserve" xmlns:serif="http://www.serif.com/" style="fill-rule:evenodd;clip-rule:evenodd;stroke-linecap:round;stroke-linejoin:round;stroke-miterlimit:1.5;"><g id="icon-salir-fuerza"><path d="M13.934,1.768l12.848,22.144l-25.695,0l12.847,-22.144Z" style="fill:none;stroke:#4a4a4a;stroke-width:2px;"/><path d="M13.926,20.793c-0.331,0 -0.614,-0.106 -0.849,-0.317c-0.236,-0.211 -0.353,-0.504 -0.353,-0.878c0,-0.331 0.12,-0.614 0.361,-0.849c0.24,-0.236 0.526,-0.353 0.857,-0.353c0.3,0 0.575,0.125 0.826,0.377c0.251,0.251 0.377,0.526 0.377,0.825c0,0.38 -0.119,0.674 -0.357,0.882c-0.238,0.209 -0.525,0.313 -0.862,0.313Zm-0.857,-5.267l-0.273,-3.856c-0.048,-0.769 -0.072,-1.301 -0.072,-1.595c0,-0.449 0.113,-0.799 0.341,-1.05c0.227,-0.251 0.535,-0.377 0.925,-0.377c0.444,0 0.747,0.16 0.91,0.481c0.163,0.321 0.245,0.783 0.245,1.387c0,0.299 -0.019,0.649 -0.056,1.05l-0.345,3.96c-0.037,0.476 -0.115,0.84 -0.232,1.094c-0.118,0.254 -0.318,0.381 -0.602,0.381c-0.288,0 -0.491,-0.127 -0.609,-0.381c-0.118,-0.254 -0.195,-0.618 -0.232,-1.094Z" style="fill:#4a4a4a;fill-rule:nonzero;"/></g></svg>