<?xml version="1.0" encoding="UTF-8" standalone="no"?><!DOCTYPE svg PUBLIC "-//W3C//DTD SVG 1.1//EN" "http://www.w3.org/Graphics/SVG/1.1/DTD/svg11.dtd"><svg width="100%" height="100%" viewBox="0 0 50 40" version="1.1" xmlns="http://www.w3.org/2000/svg" xmlns:xlink="http://www.w3.org/1999/xlink" xml:space="preserve" xmlns:serif="http://www.serif.com/" style="fill-rule:evenodd;clip-rule:evenodd;stroke-linejoin:round;stroke-miterlimit:2;"><rect id="icon-seguimiento" x="0" y="0" width="50" height="40" style="fill:none;"/><g><path d="M26.483,34.133c-0.705,-0.083 -1.418,-0.097 -2.127,-0.043c-1.51,0.116 -4.425,0.339 -7.44,0.57c-2.572,0.197 -5.125,-0.517 -7.06,-1.974c-1.934,-1.457 -3.079,-3.529 -3.165,-5.728c-0.182,-4.673 -0.375,-9.629 -0.393,-10.094c-0.001,-0.024 -0.002,-0.048 -0.003,-0.071c-0.009,-0.336 -0.086,-3 -0.172,-6.014c-0.066,-2.33 1.062,-4.568 3.091,-6.13c2.029,-1.563 4.757,-2.294 7.47,-2.002c3.467,0.373 6.94,0.746 9.01,0.968c1.261,0.136 2.541,0.052 3.763,-0.247c1.306,-0.319 3.184,-0.777 5.232,-1.278c2.894,-0.707 6.009,-0.188 8.378,1.393c2.37,1.582 3.705,4.036 3.592,6.599c-0.178,4.017 -0.354,7.998 -0.431,9.733c-0.027,0.602 0.026,1.204 0.158,1.795c0.209,0.936 0.563,2.522 0.965,4.326c0.565,2.531 -0.336,5.139 -2.419,7.007c-2.084,1.867 -5.096,2.765 -8.091,2.411c-4.296,-0.506 -8.464,-0.997 -10.358,-1.221Z" style="fill:#f4f5fb;"/><path d="M22.846,5.867c-0.705,0.083 -1.418,0.097 -2.127,0.043c-1.51,-0.116 -4.425,-0.339 -7.44,-0.57c-2.572,-0.197 -5.125,0.517 -7.06,1.974c-1.934,1.457 -3.079,3.529 -3.165,5.728c-0.182,4.673 -0.375,9.629 -0.393,10.094c-0.001,0.024 -0.002,0.048 -0.003,0.071c-0.009,0.336 -0.086,3 -0.172,6.014c-0.066,2.33 1.062,4.568 3.091,6.13c2.029,1.563 4.757,2.294 7.47,2.002c3.467,-0.373 6.94,-0.746 9.01,-0.968c1.261,-0.136 2.541,-0.052 3.763,0.247c1.306,0.319 3.184,0.777 5.232,1.278c2.894,0.707 6.009,0.188 8.378,-1.393c2.37,-1.582 3.705,-4.036 3.592,-6.599c-0.178,-4.017 -0.354,-7.998 -0.431,-9.733c-0.027,-0.602 0.026,-1.204 0.158,-1.795c0.209,-0.936 0.563,-2.522 0.965,-4.326c0.565,-2.531 -0.336,-5.139 -2.419,-7.007c-2.084,-1.867 -5.096,-2.765 -8.091,-2.411c-4.296,0.506 -8.464,0.997 -10.358,1.221Z" style="fill:#e5e8f5;"/></g><path d="M38.727,10.787c0,-1.523 -1.231,-2.755 -2.742,-2.755l-21.97,0c-1.511,0 -2.742,1.232 -2.742,2.755l0,18.426c0,1.523 1.231,2.755 2.742,2.755c0,0 21.97,0 21.97,0c1.511,0 2.742,-1.232 2.742,-2.755l0,-18.426Zm-2,0l0,18.426c0,0.415 -0.331,0.755 -0.742,0.755l-21.97,0c-0.411,0 -0.742,-0.34 -0.742,-0.755c0,0 0,-18.426 0,-18.426c0,-0.415 0.331,-0.755 0.742,-0.755c0,0 21.97,0 21.97,0c0.411,0 0.742,0.34 0.742,0.755Zm-21.413,18.14l1.226,0c0.552,0 1,-0.448 1,-1c0,-0.552 -0.448,-1 -1,-1l-1.226,0c-0.552,0 -1,0.448 -1,1c0,0.552 0.448,1 1,1Zm13.878,0l1.227,0c0.552,0 1,-0.448 1,-1c0,-0.552 -0.448,-1 -1,-1l-1.227,0c-0.552,0 -1,0.448 -1,1c0,0.552 0.448,1 1,1Zm4.268,-3.041l1.226,0c0.552,0 1,-0.448 1,-1c0,-0.552 -0.448,-1 -1,-1l-1.226,0c-0.552,0 -1,0.448 -1,1c0,0.552 0.448,1 1,1Zm-2.041,-13.836c0,-0.552 -0.448,-1 -1,-1l-15.105,0c-0.552,0 -1,0.448 -1,1l0,12.836c0,0.552 0.448,1 1,1l15.105,0c0.552,0 1,-0.448 1,-1l0,-12.836Zm-2,9.046l-2.017,-1.244l-2.028,2.67c-0.224,0.294 -0.592,0.441 -0.957,0.382c-0.365,-0.06 -0.667,-0.316 -0.786,-0.666l-1.128,-3.319l-1.152,3.325c-0.129,0.374 -0.468,0.637 -0.862,0.669c-0.395,0.033 -0.772,-0.17 -0.961,-0.518l-1.464,-2.69l-1.75,1.329l0,2.852l13.105,0l0,-2.79Zm4.041,0.512l1.226,0c0.552,0 1,-0.449 1,-1c0,-0.552 -0.448,-1 -1,-1l-1.226,0c-0.552,0 -1,0.448 -1,1c0,0.551 0.448,1 1,1Zm-4.041,-2.862l0,-5.696l-13.105,0l0,5.473l1.466,-1.115c0.233,-0.176 0.53,-0.242 0.815,-0.181c0.285,0.061 0.529,0.243 0.669,0.499l0.938,1.725l1.366,-3.942c0.139,-0.403 0.52,-0.674 0.948,-0.672c0.427,0.001 0.806,0.273 0.943,0.678l1.46,4.299l1.439,-1.894c0.312,-0.41 0.883,-0.517 1.322,-0.246l1.739,1.072Zm4.041,-1.417l1.226,0c0.552,0 1,-0.448 1,-1c0,-0.552 -0.448,-1 -1,-1l-1.226,0c-0.552,0 -1,0.448 -1,1c0,0.552 0.448,1 1,1Zm-15.393,-1.466l1.226,0c0.552,0 1,-0.448 1,-1c0,-0.552 -0.448,-1 -1,-1l-1.226,0c-0.552,0 -1,0.448 -1,1c0,0.552 0.448,1 1,1Zm15.393,-2.813l1.226,0c0.552,0 1,-0.448 1,-1c0,-0.552 -0.448,-1 -1,-1l-1.226,0c-0.552,0 -1,0.448 -1,1c0,0.552 0.448,1 1,1Z" style="fill:#909ed5;"/></svg>