<?xml version="1.0" encoding="UTF-8" standalone="no"?><!DOCTYPE svg PUBLIC "-//W3C//DTD SVG 1.1//EN" "http://www.w3.org/Graphics/SVG/1.1/DTD/svg11.dtd"><svg width="100%" height="100%" viewBox="0 0 26 25" version="1.1" xmlns="http://www.w3.org/2000/svg" xmlns:xlink="http://www.w3.org/1999/xlink" xml:space="preserve" xmlns:serif="http://www.serif.com/" style="fill-rule:evenodd;clip-rule:evenodd;stroke-linecap:round;stroke-linejoin:round;stroke-miterlimit:1.5;"><g id="icon-cita"><path d="M24.092,6.498c0,-1.434 -1.165,-2.599 -2.599,-2.599l-16.954,0c-1.434,0 -2.599,1.165 -2.599,2.599l0,14.589c0,1.434 1.165,2.599 2.599,2.599l16.954,0c1.434,0 2.599,-1.165 2.599,-2.599l0,-14.589Z" style="fill:none;stroke:#4a4a4a;stroke-width:2px;"/><path d="M1.94,9.44l22.152,0" style="fill:none;stroke:#4a4a4a;stroke-width:2px;"/><path d="M6.577,1.56l0,4.678" style="fill:none;stroke:#4a4a4a;stroke-width:2px;"/><path d="M19.455,1.56l0,4.678" style="fill:none;stroke:#4a4a4a;stroke-width:2px;"/><path d="M20.523,17.496c0,-0.512 -0.415,-0.928 -0.927,-0.928l-1.854,0c-0.512,0 -0.927,0.416 -0.927,0.928l0,1.854c0,0.512 0.415,0.927 0.927,0.927l1.854,0c0.512,0 0.927,-0.415 0.927,-0.927l0,-1.854Z" style="fill:none;stroke:#4a4a4a;stroke-width:2px;"/></g></svg>