<?xml version="1.0" encoding="UTF-8" standalone="no"?><!DOCTYPE svg PUBLIC "-//W3C//DTD SVG 1.1//EN" "http://www.w3.org/Graphics/SVG/1.1/DTD/svg11.dtd"><svg width="100%" height="100%" viewBox="0 0 34 34" version="1.1" xmlns="http://www.w3.org/2000/svg" xmlns:xlink="http://www.w3.org/1999/xlink" xml:space="preserve" xmlns:serif="http://www.serif.com/" style="fill-rule:evenodd;clip-rule:evenodd;stroke-linejoin:round;stroke-miterlimit:2;"><path d="M14.029,7.855l0.285,-1.844c0.066,-0.43 0.404,-0.768 0.834,-0.835c1.227,-0.192 2.477,-0.192 3.704,0c0.43,0.067 0.768,0.405 0.834,0.835l0.285,1.844l1.315,-1.324c0.307,-0.309 0.778,-0.384 1.165,-0.186c1.106,0.566 2.118,1.301 2.998,2.178c0.308,0.307 0.382,0.779 0.183,1.166l-0.853,1.659l1.842,-0.298c0.43,-0.07 0.855,0.146 1.052,0.534c0.562,1.108 0.948,2.297 1.145,3.524c0.069,0.43 -0.148,0.855 -0.537,1.051l-1.666,0.841l1.666,0.841c0.389,0.196 0.606,0.621 0.537,1.051c-0.197,1.227 -0.583,2.416 -1.145,3.524c-0.197,0.388 -0.622,0.604 -1.052,0.534l-1.842,-0.298l0.853,1.659c0.199,0.387 0.125,0.859 -0.183,1.166c-0.88,0.877 -1.892,1.612 -2.998,2.178c-0.387,0.198 -0.858,0.123 -1.165,-0.186l-1.315,-1.324l-0.285,1.844c-0.066,0.43 -0.404,0.768 -0.834,0.835c-1.227,0.192 -2.477,0.192 -3.704,0c-0.43,-0.067 -0.768,-0.405 -0.834,-0.835l-0.285,-1.844l-1.315,1.324c-0.307,0.309 -0.778,0.384 -1.165,0.186c-1.106,-0.566 -2.118,-1.301 -2.998,-2.178c-0.308,-0.307 -0.382,-0.779 -0.183,-1.166l0.853,-1.659l-1.842,0.298c-0.43,0.07 -0.855,-0.146 -1.052,-0.534c-0.562,-1.108 -0.948,-2.297 -1.145,-3.524c-0.069,-0.43 0.148,-0.855 0.537,-1.051l1.666,-0.841l-1.666,-0.841c-0.389,-0.196 -0.606,-0.621 -0.537,-1.051c0.197,-1.227 0.583,-2.416 1.145,-3.524c0.197,-0.388 0.622,-0.604 1.052,-0.534l1.842,0.298l-0.853,-1.659c-0.199,-0.387 -0.125,-0.859 0.183,-1.166c0.88,-0.877 1.892,-1.612 2.998,-2.178c0.387,-0.198 0.858,-0.123 1.165,0.186l1.315,1.324Zm3.796,-0.789c-0.549,-0.046 -1.101,-0.046 -1.65,0l-0.282,1.822c-0.062,0.396 -0.354,0.717 -0.743,0.816c-0.32,0.081 -0.635,0.183 -0.942,0.306c-0.373,0.149 -0.798,0.061 -1.081,-0.224l-1.298,-1.308c-0.472,0.286 -0.918,0.611 -1.336,0.971l0.843,1.639c0.183,0.356 0.136,0.788 -0.121,1.096c-0.211,0.255 -0.406,0.523 -0.582,0.802c-0.214,0.34 -0.61,0.518 -1.006,0.454l-1.82,-0.295c-0.213,0.509 -0.384,1.034 -0.51,1.57l1.646,0.831c0.358,0.181 0.573,0.558 0.546,0.958c-0.021,0.33 -0.021,0.662 0,0.992c0.027,0.4 -0.188,0.777 -0.546,0.958l-1.646,0.831c0.126,0.536 0.297,1.062 0.51,1.57l1.82,-0.295c0.396,-0.064 0.792,0.114 1.006,0.454c0.176,0.279 0.371,0.547 0.582,0.802c0.257,0.308 0.304,0.74 0.121,1.096l-0.843,1.639c0.418,0.36 0.864,0.685 1.336,0.971l1.298,-1.308c0.283,-0.285 0.708,-0.373 1.081,-0.224c0.307,0.123 0.622,0.225 0.942,0.306c0.389,0.099 0.681,0.42 0.743,0.816l0.282,1.822c0.549,0.046 1.101,0.046 1.65,0l0.282,-1.822c0.062,-0.396 0.354,-0.717 0.743,-0.816c0.32,-0.081 0.635,-0.183 0.942,-0.306c0.373,-0.149 0.798,-0.061 1.081,0.224l1.298,1.308c0.472,-0.286 0.918,-0.611 1.336,-0.971l-0.843,-1.639c-0.183,-0.356 -0.136,-0.788 0.121,-1.096c0.211,-0.255 0.406,-0.523 0.582,-0.802c0.214,-0.34 0.61,-0.518 1.006,-0.454l1.82,0.295c0.213,-0.509 0.384,-1.034 0.51,-1.57l-1.646,-0.831c-0.358,-0.181 -0.573,-0.558 -0.546,-0.958c0.021,-0.33 0.021,-0.662 0,-0.992c-0.027,-0.4 0.188,-0.777 0.546,-0.958l1.646,-0.831c-0.126,-0.536 -0.297,-1.062 -0.51,-1.57l-1.82,0.295c-0.396,0.064 -0.792,-0.114 -1.006,-0.454c-0.176,-0.279 -0.371,-0.547 -0.582,-0.802c-0.257,-0.308 -0.304,-0.74 -0.121,-1.096l0.843,-1.639c-0.418,-0.36 -0.864,-0.685 -1.336,-0.971l-1.298,1.308c-0.283,0.285 -0.708,0.373 -1.081,0.224c-0.307,-0.123 -0.622,-0.225 -0.942,-0.306c-0.389,-0.099 -0.681,-0.42 -0.743,-0.816l-0.282,-1.822Zm-0.825,4.865c-2.798,0 -5.069,2.271 -5.069,5.069c0,2.798 2.271,5.069 5.069,5.069c2.798,0 5.069,-2.271 5.069,-5.069c0,-2.798 -2.271,-5.069 -5.069,-5.069Zm0,2c1.694,0 3.069,1.375 3.069,3.069c0,1.694 -1.375,3.069 -3.069,3.069c-1.694,0 -3.069,-1.375 -3.069,-3.069c0,-1.694 1.375,-3.069 3.069,-3.069Z" style="fill:#4a4a4a;"/></svg>