<?xml version="1.0" encoding="UTF-8" standalone="no"?><!DOCTYPE svg PUBLIC "-//W3C//DTD SVG 1.1//EN" "http://www.w3.org/Graphics/SVG/1.1/DTD/svg11.dtd"><svg width="100%" height="100%" viewBox="0 0 253 253" version="1.1" xmlns="http://www.w3.org/2000/svg" xmlns:xlink="http://www.w3.org/1999/xlink" xml:space="preserve" xmlns:serif="http://www.serif.com/" style="fill-rule:evenodd;clip-rule:evenodd;stroke-linejoin:round;stroke-miterlimit:2;"><g id="icon-resultado"><circle cx="126.555" cy="126.414" r="126.055" style="fill:#f8f9ca;"/><g><g><path d="M68.466,118.729c1.533,-7.095 4.427,-13.686 8.396,-19.486l-9.627,-9.626c-2.933,-2.934 -7.414,-3.661 -11.124,-1.806c-0.648,0.324 -1.295,0.648 -1.915,0.958c-2.572,1.286 -5.679,0.782 -7.712,-1.252c-0.004,-0.003 -0.007,-0.007 -0.011,-0.01c-3.216,-3.217 -5.023,-7.579 -5.023,-12.128c0,-4.549 1.807,-8.911 5.023,-12.128c2.903,-2.902 6.002,-6.001 8.904,-8.904c3.217,-3.216 7.579,-5.023 12.128,-5.023c4.549,0 8.911,1.807 12.128,5.023c0.003,0.004 0.007,0.007 0.01,0.011c2.034,2.034 2.538,5.14 1.252,7.712c-0.31,0.62 -0.634,1.267 -0.958,1.915c-1.855,3.71 -1.128,8.191 1.806,11.124l9.626,9.627c6.196,-4.241 13.297,-7.255 20.952,-8.691l0,-13.601c0,-4.149 -2.655,-7.831 -6.59,-9.143c-0.687,-0.229 -1.374,-0.458 -2.031,-0.677c-2.728,-0.909 -4.568,-3.463 -4.568,-6.338c0,-0.005 0,-0.01 0,-0.016c0,-4.548 1.807,-8.911 5.023,-12.127c3.216,-3.217 7.579,-5.024 12.128,-5.024c4.104,0 8.487,0 12.592,0c4.549,0 8.911,1.807 12.128,5.024c3.216,3.216 5.023,7.579 5.023,12.127c0,0.006 0,0.011 0,0.016c0,2.875 -1.84,5.429 -4.568,6.338c-0.658,0.219 -1.344,0.448 -2.031,0.677c-3.936,1.312 -6.59,4.994 -6.59,9.143l0,13.601c7.654,1.436 14.755,4.45 20.952,8.691l9.626,-9.627c2.933,-2.933 3.661,-7.414 1.805,-11.124c-0.323,-0.648 -0.647,-1.295 -0.957,-1.915c-1.286,-2.572 -0.782,-5.678 1.251,-7.712c0.004,-0.004 0.008,-0.007 0.011,-0.011c3.217,-3.216 7.579,-5.023 12.128,-5.023c4.549,0 8.911,1.807 12.127,5.023c2.903,2.903 6.002,6.002 8.905,8.904c3.216,3.217 5.023,7.579 5.023,12.128c0,4.549 -1.807,8.911 -5.023,12.128c-0.004,0.003 -0.008,0.007 -0.011,0.01c-2.034,2.034 -5.14,2.538 -7.712,1.252c-0.62,-0.31 -1.268,-0.634 -1.915,-0.958c-3.71,-1.855 -8.191,-1.128 -11.125,1.806l-9.626,9.626c4.241,6.196 7.255,13.297 8.691,20.952l13.601,0c4.148,0 7.831,-2.655 9.143,-6.59c0.229,-0.687 0.458,-1.374 0.677,-2.031c0.909,-2.728 3.462,-4.568 6.338,-4.568c0.005,0 0.01,0 0.015,0c4.549,0 8.912,1.807 12.128,5.023c3.216,3.217 5.023,7.579 5.023,12.128c0,4.104 0,8.487 0,12.592c0,4.549 -1.807,8.911 -5.023,12.128c-3.216,3.216 -7.579,5.023 -12.128,5.023l-0.015,0c-2.876,0 -5.429,-1.84 -6.338,-4.568c-0.219,-0.658 -0.448,-1.344 -0.677,-2.031c-1.312,-3.936 -4.995,-6.59 -9.143,-6.59l-13.601,0c-1.436,7.654 -4.45,14.755 -8.691,20.952l9.626,9.626c2.934,2.933 7.415,3.661 11.125,1.805c0.647,-0.323 1.295,-0.647 1.915,-0.957c2.572,-1.286 5.678,-0.782 7.712,1.252c0.003,0.003 0.007,0.007 0.011,0.01c3.216,3.217 5.023,7.579 5.023,12.128c0,4.549 -1.807,8.911 -5.023,12.127c-2.903,2.903 -6.002,6.002 -8.905,8.905c-3.216,3.216 -7.578,5.023 -12.127,5.023c-4.549,0 -8.911,-1.807 -12.128,-5.023c-0.003,-0.004 -0.007,-0.008 -0.011,-0.011c-2.033,-2.034 -2.537,-5.14 -1.251,-7.712c0.31,-0.62 0.634,-1.268 0.957,-1.915c1.856,-3.71 1.128,-8.191 -1.805,-11.125l-9.626,-9.626c-5.479,3.75 -11.665,6.54 -18.315,8.129l-9.511,3.968c-1.814,0.757 -3.901,-0.101 -4.657,-1.915c-0.349,-0.836 -0.355,-1.73 -0.082,-2.525l-0.734,0.373c-0.985,0.5 -2.19,0.107 -2.69,-0.878c-0.5,-0.984 -0.107,-2.189 0.878,-2.689l3.045,-1.547c-0.735,-0.269 -1.385,-0.781 -1.82,-1.503c-0.604,-1.003 -0.656,-2.185 -0.243,-3.192l-0.166,0.077c-1.003,0.462 -2.193,0.023 -2.655,-0.98c-0.462,-1.003 -0.023,-2.192 0.98,-2.654l6.209,-2.861c8.229,-4.443 15.55,-9.558 19.184,-13.192c11.901,-11.902 11.901,-31.226 0,-43.127c-11.901,-11.902 -31.226,-11.902 -43.127,0c-3.703,3.702 -8.942,11.231 -13.443,19.648l-1.832,3.564c-0.217,0.439 -0.432,0.881 -0.644,1.324l-0.025,-0.024l-3.524,6.853c-0.505,0.982 -1.712,1.37 -2.694,0.865c-0.982,-0.505 -1.37,-1.713 -0.865,-2.695l1.215,-2.361c-0.756,0.146 -1.564,0.049 -2.3,-0.33c-0.859,-0.441 -1.462,-1.185 -1.747,-2.034l-0.286,0.676c-0.43,1.017 -1.605,1.494 -2.622,1.064c-1.017,-0.43 -1.493,-1.605 -1.064,-2.622l1.3,-3.076c-0.47,0.014 -0.95,-0.065 -1.415,-0.249c-1.826,-0.725 -2.721,-2.796 -1.997,-4.622l0.187,-0.472c-0.281,0.021 -0.571,-0.018 -0.852,-0.123c-1.034,-0.389 -1.557,-1.544 -1.168,-2.577l2.157,-5.734Z" style="fill:#9cd56a;"/><path d="M102.165,148.031l-53.683,53.683c-1.289,1.289 -1.289,3.381 0,4.67c1.288,1.288 3.381,1.288 4.669,0l53.683,-53.683c1.289,-1.289 1.289,-3.381 0,-4.67c-1.289,-1.288 -3.381,-1.288 -4.669,0Z" style="fill:#a8a8a8;"/><path d="M105.776,150.061l-53.683,53.683c-1.288,1.288 -0.758,2.033 -0.452,2.339c0.306,0.306 0.271,0.057 1.56,-1.231l53.683,-53.683c1.289,-1.289 2.087,-2.583 1.781,-2.889c-0.306,-0.306 -1.6,0.492 -2.889,1.781Z" style="fill:#848484;"/><path d="M137.37,117.495c8.677,8.677 8.677,22.767 0,31.444c-8.677,8.677 -40.752,26.663 -49.429,17.986c-8.677,-8.677 9.308,-40.753 17.985,-49.43c8.678,-8.677 22.767,-8.677 31.444,0Z" style="fill:#cee7ff;"/><path d="M180.224,207.736c0,0 -3.068,-0.222 -2.287,-3.253c0.34,-1.319 1.351,-3.036 3.291,-5.449c1.146,-1.425 2.59,-3.091 4.465,-4.99c1.531,-1.71 2.924,-3.098 4.158,-4.255c1.813,-1.7 3.288,-2.866 4.553,-3.591c1.829,-1.048 3.069,-1.221 3.948,-0.907c1.352,0.484 1.74,1.903 1.74,1.903c0.053,0.266 0.312,0.44 0.578,0.387c0.267,-0.052 0.441,-0.311 0.388,-0.578c0,0 -0.601,-4.262 -5.438,-3.272c-1.837,0.376 -4.379,1.578 -7.781,4.387c-1.289,1.064 -2.678,2.393 -4.228,3.972c-1.428,1.59 -2.63,3.001 -3.582,4.298c-2.581,3.517 -3.595,6.026 -3.827,7.758c-0.634,4.747 4.012,4.575 4.012,4.575c0.272,0.002 0.494,-0.216 0.497,-0.488c0.003,-0.271 -0.215,-0.494 -0.487,-0.497Z" style="fill:#82ca43;"/><path d="M217.72,142.933c0,0 -2.223,2.127 -3.947,-0.486c-0.75,-1.137 -1.345,-3.039 -1.832,-6.097c-0.288,-1.805 -0.555,-3.993 -0.705,-6.658c-0.241,-2.283 -0.336,-4.247 -0.366,-5.938c-0.044,-2.485 0.081,-4.361 0.392,-5.785c0.45,-2.06 1.153,-3.096 1.976,-3.536c1.265,-0.678 2.578,-0.015 2.578,-0.015c0.233,0.14 0.536,0.065 0.676,-0.168c0.139,-0.233 0.064,-0.536 -0.169,-0.676c0,0 -3.564,-2.413 -6.075,1.838c-0.954,1.614 -1.768,4.305 -1.967,8.713c-0.076,1.67 -0.022,3.591 0.109,5.8c0.221,2.126 0.461,3.964 0.784,5.54c0.877,4.273 2.057,6.709 3.186,8.042c3.095,3.655 6.083,0.094 6.083,0.094c0.185,-0.199 0.172,-0.511 -0.027,-0.695c-0.2,-0.185 -0.511,-0.172 -0.696,0.027Z" style="fill:#82ca43;"/><path d="M199.342,75.955c0,0 -0.522,3.032 -3.462,1.957c-1.279,-0.468 -2.889,-1.642 -5.1,-3.81c-1.305,-1.28 -2.821,-2.881 -4.527,-4.934c-1.552,-1.691 -2.796,-3.213 -3.826,-4.554c-1.515,-1.972 -2.53,-3.554 -3.127,-4.884c-0.864,-1.923 -0.914,-3.174 -0.515,-4.018c0.614,-1.298 2.064,-1.545 2.064,-1.545c0.27,-0.026 0.468,-0.267 0.442,-0.537c-0.026,-0.271 -0.267,-0.469 -0.537,-0.443c0,0 -4.3,0.18 -3.79,5.091c0.194,1.865 1.14,4.512 3.602,8.174c0.933,1.387 2.119,2.899 3.538,4.597c1.442,1.578 2.728,2.912 3.925,3.986c3.247,2.914 5.645,4.17 7.345,4.57c4.662,1.097 4.947,-3.543 4.947,-3.543c0.029,-0.27 -0.166,-0.513 -0.436,-0.543c-0.27,-0.029 -0.514,0.166 -0.543,0.436Z" style="fill:#82ca43;"/><path d="M137.973,37.193c0,0 1.803,2.492 -1.02,3.843c-1.229,0.588 -3.194,0.918 -6.29,0.984c-1.828,0.039 -4.032,0.005 -6.692,-0.21c-2.295,-0.073 -4.253,-0.247 -5.932,-0.447c-2.469,-0.295 -4.31,-0.675 -5.678,-1.177c-1.979,-0.727 -2.909,-1.565 -3.234,-2.44c-0.499,-1.347 0.338,-2.556 0.338,-2.556c0.17,-0.212 0.137,-0.522 -0.075,-0.693c-0.212,-0.17 -0.522,-0.136 -0.692,0.075c0,0 -2.877,3.202 0.991,6.269c1.47,1.165 4.025,2.339 8.364,3.137c1.644,0.303 3.555,0.511 5.761,0.683c2.136,0.071 3.99,0.084 5.594,-0.021c4.354,-0.285 6.928,-1.122 8.402,-2.059c4.044,-2.567 0.924,-6.014 0.924,-6.014c-0.173,-0.21 -0.483,-0.24 -0.693,-0.067c-0.21,0.172 -0.24,0.483 -0.068,0.693Z" style="fill:#82ca43;"/><path d="M67.606,55.396c0,0 3.051,0.389 2.106,3.374c-0.411,1.298 -1.514,2.957 -3.583,5.261c-1.222,1.361 -2.754,2.945 -4.73,4.739c-1.622,1.624 -3.089,2.934 -4.383,4.022c-1.904,1.599 -3.44,2.683 -4.742,3.337c-1.884,0.948 -3.132,1.053 -3.992,0.691c-1.323,-0.557 -1.634,-1.994 -1.634,-1.994c-0.038,-0.269 -0.287,-0.457 -0.556,-0.419c-0.269,0.038 -0.457,0.287 -0.419,0.556c0,0 0.368,4.288 5.252,3.564c1.855,-0.275 4.458,-1.337 8.009,-3.957c1.345,-0.992 2.803,-2.243 4.437,-3.735c1.513,-1.51 2.791,-2.854 3.811,-4.096c2.769,-3.372 3.919,-5.822 4.244,-7.538c0.892,-4.706 -3.756,-4.787 -3.756,-4.787c-0.271,-0.018 -0.506,0.188 -0.523,0.459c-0.018,0.271 0.188,0.506 0.459,0.523Z" style="fill:#82ca43;"/><path d="M164.375,113.561c-0.251,-0.044 -0.514,-0.094 -0.783,-0.149c-1.918,-0.394 -4.084,-0.942 -4.084,-0.942c-0.176,-0.02 -0.303,-0.179 -0.283,-0.356c0.02,-0.176 0.179,-0.303 0.355,-0.283c0,0 2.234,-0.049 4.191,-0.003c0.615,0.014 1.195,0.047 1.667,0.08c0.664,0.045 1.107,0.097 1.107,0.097c0.371,0.042 0.681,0.302 0.788,0.659c0.108,0.358 -0.009,0.745 -0.295,0.984c0,0 -0.346,0.287 -0.882,0.689c-0.381,0.286 -0.855,0.629 -1.364,0.982c-1.618,1.12 -3.508,2.338 -3.508,2.338c-0.136,0.114 -0.339,0.096 -0.453,-0.041c-0.114,-0.136 -0.096,-0.339 0.041,-0.452c0,0 1.535,-1.643 2.926,-3.035c0.197,-0.198 0.391,-0.388 0.577,-0.568Z" style="fill:#82ca43;"/><path d="M115.276,91.184c-0.085,0.24 -0.178,0.492 -0.276,0.748c-0.704,1.827 -1.601,3.873 -1.601,3.873c-0.049,0.171 -0.227,0.27 -0.398,0.221c-0.17,-0.049 -0.269,-0.227 -0.22,-0.397c0,0 0.318,-2.212 0.686,-4.135c0.115,-0.603 0.244,-1.17 0.353,-1.631c0.154,-0.647 0.279,-1.075 0.279,-1.075c0.102,-0.359 0.409,-0.622 0.78,-0.669c0.37,-0.047 0.733,0.131 0.922,0.453c0,0 0.225,0.388 0.533,0.983c0.22,0.424 0.48,0.947 0.744,1.507c0.839,1.78 1.73,3.845 1.73,3.845c0.089,0.154 0.038,0.351 -0.115,0.44c-0.153,0.09 -0.35,0.039 -0.44,-0.114c0,0 -1.368,-1.785 -2.512,-3.386c-0.162,-0.227 -0.318,-0.45 -0.465,-0.663Z" style="fill:#82ca43;"/><path d="M156.661,160.353c-0.098,-0.235 -0.199,-0.483 -0.298,-0.739c-0.708,-1.825 -1.421,-3.943 -1.421,-3.943c-0.078,-0.159 -0.013,-0.352 0.146,-0.431c0.159,-0.079 0.352,-0.013 0.431,0.146c0,0 1.251,1.851 2.272,3.521c0.321,0.524 0.607,1.03 0.836,1.444c0.322,0.583 0.517,0.983 0.517,0.983c0.166,0.335 0.116,0.736 -0.126,1.02c-0.243,0.284 -0.631,0.396 -0.988,0.285c0,0 -0.427,-0.135 -1.056,-0.368c-0.447,-0.166 -0.992,-0.379 -1.564,-0.616c-1.818,-0.752 -3.866,-1.682 -3.866,-1.682c-0.169,-0.053 -0.264,-0.233 -0.211,-0.403c0.053,-0.169 0.233,-0.264 0.402,-0.211c0,0 2.213,0.401 4.137,0.816c0.272,0.059 0.538,0.119 0.789,0.178Z" style="fill:#82ca43;"/><path d="M152.299,101.604c-0.249,0.056 -0.511,0.112 -0.78,0.166c-1.92,0.381 -4.129,0.717 -4.129,0.717c-0.171,0.05 -0.349,-0.048 -0.399,-0.218c-0.05,-0.17 0.047,-0.349 0.217,-0.399c0,0 2.04,-0.913 3.862,-1.63c0.571,-0.225 1.119,-0.419 1.567,-0.573c0.629,-0.216 1.058,-0.339 1.058,-0.339c0.358,-0.106 0.744,0.013 0.982,0.301c0.238,0.288 0.281,0.69 0.11,1.022c0,0 -0.207,0.397 -0.546,0.976c-0.24,0.412 -0.544,0.912 -0.876,1.434c-1.056,1.661 -2.326,3.517 -2.326,3.517c-0.081,0.158 -0.275,0.22 -0.433,0.138c-0.157,-0.081 -0.219,-0.275 -0.138,-0.433c0,0 0.777,-2.11 1.519,-3.933c0.105,-0.258 0.21,-0.509 0.312,-0.746Z" style="fill:#82ca43;"/><path d="M92.296,94.272c0.073,0.243 0.148,0.501 0.221,0.766c0.518,1.887 1.01,4.067 1.01,4.067c0.062,0.166 -0.022,0.352 -0.189,0.414c-0.166,0.062 -0.351,-0.023 -0.413,-0.189c0,0 -1.056,-1.97 -1.902,-3.735c-0.265,-0.554 -0.498,-1.087 -0.684,-1.523c-0.26,-0.612 -0.414,-1.03 -0.414,-1.03c-0.13,-0.35 -0.04,-0.744 0.231,-1.002c0.27,-0.257 0.668,-0.329 1.011,-0.182c0,0 0.412,0.178 1.013,0.474c0.428,0.211 0.948,0.478 1.493,0.772c1.732,0.934 3.674,2.068 3.674,2.068c0.163,0.07 0.239,0.259 0.169,0.422c-0.07,0.163 -0.259,0.239 -0.422,0.169c0,0 -2.16,-0.624 -4.031,-1.234c-0.266,-0.086 -0.523,-0.173 -0.767,-0.257Z" style="fill:#82ca43;"/><path d="M166.688,135.56c-0.218,-0.132 -0.446,-0.273 -0.678,-0.421c-1.648,-1.056 -3.473,-2.346 -3.473,-2.346c-0.157,-0.082 -0.218,-0.276 -0.136,-0.434c0.082,-0.157 0.276,-0.218 0.433,-0.136c0,0 2.103,0.756 3.913,1.502c0.568,0.234 1.098,0.473 1.527,0.673c0.603,0.281 0.998,0.489 0.998,0.489c0.331,0.172 0.527,0.526 0.499,0.898c-0.028,0.372 -0.276,0.692 -0.629,0.812c0,0 -0.425,0.143 -1.07,0.326c-0.459,0.13 -1.025,0.28 -1.626,0.426c-1.913,0.465 -4.114,0.923 -4.114,0.923c-0.168,0.057 -0.351,-0.033 -0.408,-0.201c-0.057,-0.167 0.032,-0.35 0.2,-0.408c0,0 2.023,-0.982 3.821,-1.781c0.255,-0.114 0.505,-0.222 0.743,-0.322Z" style="fill:#82ca43;"/><path d="M134.99,84.287c-0.165,0.194 -0.34,0.397 -0.523,0.602c-1.302,1.461 -2.864,3.06 -2.864,3.06c-0.105,0.142 -0.307,0.172 -0.449,0.066c-0.143,-0.105 -0.173,-0.307 -0.067,-0.449c0,0 1.078,-1.957 2.1,-3.627c0.321,-0.524 0.641,-1.009 0.906,-1.402c0.372,-0.552 0.64,-0.908 0.64,-0.908c0.222,-0.3 0.602,-0.438 0.965,-0.351c0.363,0.086 0.64,0.381 0.703,0.749c0,0 0.075,0.442 0.153,1.108c0.056,0.474 0.115,1.056 0.165,1.673c0.157,1.962 0.262,4.208 0.262,4.208c0.03,0.175 -0.087,0.341 -0.262,0.371c-0.175,0.03 -0.341,-0.087 -0.371,-0.262c0,0 -0.651,-2.153 -1.157,-4.055c-0.072,-0.269 -0.139,-0.533 -0.201,-0.783Z" style="fill:#82ca43;"/><path d="M97.392,138.733c-1.393,7.564 14.241,-28.381 25.754,-15.453c11.514,12.928 20.604,0.808 10.403,-4.848c-10.201,-5.656 -19.189,-8.08 -27.774,5.05c-8.585,13.13 -7.676,11.413 -8.383,15.251Z" style="fill:#e8f4ff;"/><path d="M78.895,115.693c0.121,0.224 0.246,0.461 0.37,0.706c0.888,1.745 1.808,3.781 1.808,3.781c0.095,0.15 0.049,0.349 -0.101,0.443c-0.151,0.094 -0.349,0.049 -0.444,-0.102c0,0 -1.43,-1.716 -2.613,-3.275c-0.372,-0.49 -0.707,-0.965 -0.977,-1.354c-0.378,-0.548 -0.613,-0.927 -0.613,-0.927c-0.198,-0.316 -0.188,-0.72 0.025,-1.027c0.212,-0.307 0.588,-0.457 0.953,-0.382c0,0 0.439,0.092 1.088,0.261c0.462,0.12 1.025,0.277 1.618,0.455c1.885,0.567 4.015,1.287 4.015,1.287c0.174,0.036 0.286,0.206 0.25,0.379c-0.035,0.174 -0.205,0.286 -0.379,0.251c0,0 -2.242,-0.177 -4.197,-0.398c-0.278,-0.031 -0.547,-0.064 -0.803,-0.098Z" style="fill:#82ca43;"/><path d="M93.736,165.921c1.451,-0.859 15.301,-5.55 21.947,-10.134c6.647,-4.584 16.648,-15.844 18.443,-13.552c3.068,3.92 -3.858,9.656 -19.37,17.732c-12.133,6.316 -22.472,6.814 -21.02,5.954Z" style="fill:#b5dbff;"/><path d="M118.518,125.186c0.136,0.92 -0.892,1.835 -2.293,2.041c-1.402,0.207 -2.65,-0.372 -2.786,-1.291c-0.136,-0.92 0.892,-1.835 2.294,-2.042c1.401,-0.207 2.649,0.372 2.785,1.292Z" style="fill:#e8f4ff;"/><path d="M138.239,172.555c-0.002,-0.255 -0.001,-0.523 0.003,-0.798c0.033,-1.957 0.173,-4.187 0.173,-4.187c-0.013,-0.177 0.12,-0.331 0.297,-0.344c0.177,-0.013 0.331,0.12 0.344,0.297c0,0 0.461,2.187 0.776,4.119c0.099,0.606 0.174,1.183 0.229,1.653c0.078,0.661 0.108,1.105 0.108,1.105c0.027,0.373 -0.171,0.725 -0.502,0.897c-0.332,0.171 -0.734,0.128 -1.022,-0.109c0,0 -0.345,-0.287 -0.839,-0.74c-0.352,-0.322 -0.776,-0.724 -1.217,-1.16c-1.399,-1.383 -2.945,-3.016 -2.945,-3.016c-0.137,-0.113 -0.156,-0.316 -0.044,-0.453c0.113,-0.137 0.316,-0.156 0.453,-0.043c0,0 1.898,1.206 3.523,2.316c0.23,0.158 0.453,0.313 0.663,0.463Z" style="fill:#82ca43;"/><path d="M142.358,182.168c-0.138,-1.843 0.498,-3.733 1.908,-5.138l3.982,-3.969c2.563,-2.555 6.719,-2.549 9.274,0.015l13.111,13.151c2.555,2.564 2.549,6.72 -0.015,9.275l-3.981,3.969c-0.874,0.871 -1.932,1.444 -3.05,1.72c0.076,-0.804 0.3,-1.603 0.676,-2.355c0.31,-0.62 0.634,-1.268 0.957,-1.915c1.856,-3.71 1.128,-8.191 -1.805,-11.125l-9.626,-9.626c-3.537,2.421 -7.369,4.442 -11.431,5.998Z" style="fill:#8dcf54;"/><path d="M173.25,152.765c-0.912,-1.161 -1.44,-2.634 -1.398,-4.224l0.151,-5.62c0.097,-3.618 3.114,-6.477 6.732,-6.38l18.563,0.498c3.619,0.097 6.478,3.114 6.38,6.732l-0.15,5.62c-0.031,1.132 -0.347,2.19 -0.878,3.106c-1.02,-0.791 -1.814,-1.88 -2.242,-3.165c-0.219,-0.658 -0.448,-1.344 -0.677,-2.031c-1.312,-3.936 -4.995,-6.59 -9.143,-6.59l-13.601,0c-0.789,4.204 -2.054,8.242 -3.737,12.054Z" style="fill:#8dcf54;"/><path d="M50.892,89.467c0.204,-0.501 0.474,-0.985 0.811,-1.439l3.351,-4.513c2.158,-2.906 6.269,-3.514 9.175,-1.356l14.91,11.071c2.906,2.158 3.513,6.269 1.355,9.175l-3.351,4.513c-1.406,1.894 -3.641,2.811 -5.831,2.624c1.489,-3.643 3.355,-7.092 5.55,-10.299l-9.627,-9.626c-2.933,-2.934 -7.414,-3.661 -11.124,-1.806c-0.648,0.324 -1.295,0.648 -1.915,0.958c-1.049,0.524 -2.186,0.751 -3.304,0.698Z" style="fill:#b5e090;"/><path d="M163.578,59.612c1.145,0.256 2.236,0.821 3.138,1.699l4.029,3.92c2.595,2.524 2.652,6.679 0.128,9.274l-12.949,13.31c-2.524,2.594 -6.68,2.652 -9.274,0.128l-4.03,-3.92c-1.441,-1.403 -2.099,-3.309 -1.967,-5.171c3.952,1.54 7.684,3.522 11.136,5.884l9.626,-9.627c2.933,-2.933 3.661,-7.414 1.805,-11.124c-0.323,-0.648 -0.647,-1.295 -0.957,-1.915c-0.392,-0.784 -0.618,-1.619 -0.685,-2.458Z" style="fill:#b5e090;"/><path d="M102.395,52.027c0.901,-0.467 1.924,-0.731 3.008,-0.731l5.622,0c3.619,0 6.558,2.939 6.558,6.558l0,18.571c0,3.619 -2.939,6.558 -6.558,6.558l-5.622,0c-2.32,0 -4.36,-1.208 -5.526,-3.028c3.927,-1.77 8.096,-3.094 12.444,-3.91l0,-13.601c0,-4.149 -2.655,-7.831 -6.59,-9.143c-0.687,-0.229 -1.374,-0.458 -2.031,-0.677c-0.462,-0.154 -0.899,-0.355 -1.305,-0.597Z" style="fill:#b5e090;"/></g></g></g></svg>