<?xml version="1.0" encoding="UTF-8" standalone="no"?>
<!DOCTYPE svg PUBLIC "-//W3C//DTD SVG 1.1//EN" "http://www.w3.org/Graphics/SVG/1.1/DTD/svg11.dtd">
<svg width="100%" height="100%" viewBox="0 0 90 90" version="1.1" xmlns="http://www.w3.org/2000/svg" xmlns:xlink="http://www.w3.org/1999/xlink" xml:space="preserve" xmlns:serif="http://www.serif.com/" style="fill-rule:evenodd;clip-rule:evenodd;stroke-linejoin:round;stroke-miterlimit:2;">
    <g id="ig" transform="matrix(1.22209,0,0,1.22209,27.6639,3.4537)">
        <g id="Path-2" transform="matrix(0.856329,0,0,0.856329,-22.6365,2.08056)">
            <path d="M2.407,37.655C3.006,31.276 9.422,23.896 24.321,12.445C39.22,0.995 49.241,-1.422 55.183,0.853C61.126,3.128 66.823,8.153 70.778,27.236C74.732,46.319 75.53,59.016 67.624,68.111C59.718,77.206 40.369,72.682 22.412,61.945C4.454,51.207 1.807,44.034 2.407,37.655Z" style="fill:url(#_Linear1);"/>
        </g>
        <g id="Path" transform="matrix(0.856329,0,0,0.856329,-22.6365,2.08056)">
            <path d="M31.115,11.331L30.243,10.905C32.124,17.038 32.09,20.775 30.142,22.115C28.33,23.329 25.093,21.505 20.432,16.642L20.128,17.149C24.966,21.75 26.702,24.953 25.338,26.757C23.84,28.281 20.144,27.679 14.25,24.953L14.351,25.662C20.342,28.443 23.186,30.679 22.885,32.372C22.865,34.293 19.406,35.131 12.507,34.885L12.628,35.574C19.113,35.404 22.512,36.573 22.824,39.081C23.091,41.618 20.077,43.915 13.784,45.973L14.291,46.48C20.94,43.955 24.75,43.644 25.723,45.547C26.385,47.303 24.48,50.485 20.007,55.095L20.554,55.682C24.651,50.534 27.705,48.426 29.716,49.358C31.165,50.133 30.428,53.714 27.507,60.101L28.236,59.919C30.428,54.541 32.854,51.831 35.514,51.791C37.716,51.889 39.027,55.355 39.446,62.189L38.615,63.669L40.601,62.574L40.034,61.723C39.667,55.713 40.43,52.375 42.324,51.709C44.451,51.212 46.91,54.083 49.703,60.324L51.243,60.324L49.966,59.291C47.33,54.081 46.54,50.817 47.595,49.5C49.337,48.073 52.452,50.059 56.939,55.459L57.851,56.635L57.486,54.851C53.052,50.27 51.254,47.067 52.095,45.243C52.934,43.432 56.664,43.756 63.284,46.216L65.189,45.973L63.649,45.507C57.225,43.98 54.211,41.953 54.608,39.426C54.709,37.115 58.148,35.952 64.926,35.939L66.223,35.716L64.743,35.088C58.135,36.077 54.798,35.327 54.73,32.838C55.012,30.692 57.877,28.442 63.324,26.088L64.034,24.588L63,25.601C57.023,28.379 53.577,29.001 52.662,27.466C51.648,25.613 53.202,22.37 57.324,17.736L58.561,16.926L56.777,17.311C52.349,22.134 49.261,23.762 47.514,22.196C46.136,21.048 46.156,17.501 47.574,11.554L48.385,10.419L47.027,11.412C45.251,17.699 43.372,20.517 41.392,19.865C39.281,19.097 38.106,15.807 37.865,9.993L37.682,9.203L37.196,10.034C37.642,15.881 37.182,19.171 35.818,19.905C34.129,20.267 32.562,17.409 31.115,11.331Z" style="fill:rgb(132,165,78);fill-rule:nonzero;"/>
        </g>
        <g id="Shape" transform="matrix(0.856329,0,0,0.856329,-22.6365,2.08056)">
            <path d="M46.5,43.297C45.946,43.297 45.466,43.493 45.061,43.885C44.669,44.291 44.473,44.77 44.473,45.324C44.473,45.878 44.669,46.351 45.061,46.743C45.466,47.149 45.946,47.351 46.5,47.351C47.054,47.351 47.527,47.149 47.919,46.743C48.324,46.351 48.527,45.878 48.527,45.324C48.527,44.77 48.324,44.291 47.919,43.885C47.527,43.493 47.054,43.297 46.5,43.297M52.986,39.243C52.986,38.689 52.784,38.209 52.378,37.804C51.986,37.412 51.514,37.216 50.959,37.216C50.405,37.216 49.926,37.412 49.52,37.804C49.128,38.209 48.932,38.689 48.932,39.243C48.932,39.797 49.128,40.27 49.52,40.662C49.926,41.068 50.405,41.27 50.959,41.27C51.514,41.27 51.986,41.068 52.378,40.662C52.784,40.27 52.986,39.797 52.986,39.243M41.128,49.541C41.534,49.149 41.736,48.676 41.736,48.122C41.736,47.568 41.534,47.088 41.128,46.682C40.736,46.291 40.264,46.095 39.709,46.095C39.155,46.095 38.676,46.291 38.27,46.682C37.878,47.088 37.682,47.568 37.682,48.122C37.682,48.676 37.878,49.149 38.27,49.541C38.676,49.946 39.155,50.149 39.709,50.149C40.264,50.149 40.736,49.946 41.128,49.541M33.527,44.088C33.135,43.696 32.662,43.5 32.108,43.5C31.554,43.5 31.074,43.696 30.669,44.088C30.277,44.493 30.081,44.973 30.081,45.527C30.081,46.081 30.277,46.554 30.669,46.946C31.074,47.351 31.554,47.554 32.108,47.554C32.662,47.554 33.135,47.351 33.527,46.946C33.932,46.554 34.135,46.081 34.135,45.527C34.135,44.973 33.932,44.493 33.527,44.088M28.459,38.716C28.068,38.324 27.595,38.128 27.041,38.128C26.486,38.128 26.007,38.324 25.601,38.716C25.209,39.122 25.014,39.601 25.014,40.155C25.014,40.709 25.209,41.182 25.601,41.574C26.007,41.98 26.486,42.182 27.041,42.182C27.595,42.182 28.068,41.98 28.459,41.574C28.865,41.182 29.068,40.709 29.068,40.155C29.068,39.601 28.865,39.122 28.459,38.716M33.527,37.926C32.973,37.926 32.493,38.122 32.088,38.514C31.696,38.919 31.5,39.399 31.5,39.953C31.5,40.507 31.696,40.98 32.088,41.372C32.493,41.777 32.973,41.98 33.527,41.98C34.081,41.98 34.554,41.777 34.946,41.372C35.351,40.98 35.554,40.507 35.554,39.953C35.554,39.399 35.351,38.919 34.946,38.514C34.554,38.122 34.081,37.926 33.527,37.926M41.331,40.378C40.777,40.378 40.297,40.574 39.892,40.966C39.5,41.372 39.304,41.851 39.304,42.405C39.304,42.959 39.5,43.432 39.892,43.824C40.297,44.23 40.777,44.432 41.331,44.432C41.885,44.432 42.358,44.23 42.75,43.824C43.155,43.432 43.358,42.959 43.358,42.405C43.358,41.851 43.155,41.372 42.75,40.966C42.358,40.574 41.885,40.378 41.331,40.378M39.811,37.318C40.216,36.926 40.419,36.453 40.419,35.899C40.419,35.345 40.216,34.865 39.811,34.459C39.419,34.068 38.946,33.872 38.392,33.872C37.838,33.872 37.358,34.068 36.953,34.459C36.561,34.865 36.365,35.345 36.365,35.899C36.365,36.453 36.561,36.926 36.953,37.318C37.358,37.723 37.838,37.926 38.392,37.926C38.946,37.926 39.419,37.723 39.811,37.318M41.716,27.872C41.324,27.48 40.851,27.284 40.297,27.284C39.743,27.284 39.264,27.48 38.858,27.872C38.466,28.277 38.27,28.757 38.27,29.311C38.27,29.865 38.466,30.338 38.858,30.73C39.264,31.135 39.743,31.338 40.297,31.338C40.851,31.338 41.324,31.135 41.716,30.73C42.122,30.338 42.324,29.865 42.324,29.311C42.324,28.757 42.122,28.277 41.716,27.872M31.277,32.25C31.277,32.804 31.473,33.277 31.865,33.669C32.27,34.074 32.75,34.277 33.304,34.277C33.858,34.277 34.331,34.074 34.723,33.669C35.128,33.277 35.331,32.804 35.331,32.25C35.331,31.696 35.128,31.216 34.723,30.811C34.331,30.419 33.858,30.223 33.304,30.223C32.75,30.223 32.27,30.419 31.865,30.811C31.473,31.216 31.277,31.696 31.277,32.25M27.649,33.568C28.054,33.176 28.257,32.703 28.257,32.149C28.257,31.595 28.054,31.115 27.649,30.709C27.257,30.318 26.784,30.122 26.23,30.122C25.676,30.122 25.196,30.318 24.791,30.709C24.399,31.115 24.203,31.595 24.203,32.149C24.203,32.703 24.399,33.176 24.791,33.568C25.196,33.973 25.676,34.176 26.23,34.176C26.784,34.176 27.257,33.973 27.649,33.568M33.223,26.068C33.223,25.514 33.02,25.034 32.615,24.628C32.223,24.236 31.75,24.041 31.196,24.041C30.642,24.041 30.162,24.236 29.757,24.628C29.365,25.034 29.169,25.514 29.169,26.068C29.169,26.622 29.365,27.095 29.757,27.486C30.162,27.892 30.642,28.095 31.196,28.095C31.75,28.095 32.223,27.892 32.615,27.486C33.02,27.095 33.223,26.622 33.223,26.068M36.345,21.993C35.953,22.399 35.757,22.878 35.757,23.432C35.757,23.986 35.953,24.459 36.345,24.851C36.75,25.257 37.23,25.459 37.784,25.459C38.338,25.459 38.811,25.257 39.203,24.851C39.608,24.459 39.811,23.986 39.811,23.432C39.811,22.878 39.608,22.399 39.203,21.993C38.811,21.601 38.338,21.405 37.784,21.405C37.23,21.405 36.75,21.601 36.345,21.993M49.52,30C49.128,30.405 48.932,30.885 48.932,31.439C48.932,31.993 49.128,32.466 49.52,32.858C49.926,33.264 50.405,33.466 50.959,33.466C51.514,33.466 51.986,33.264 52.378,32.858C52.784,32.466 52.986,31.993 52.986,31.439C52.986,30.885 52.784,30.405 52.378,30C51.986,29.608 51.514,29.412 50.959,29.412C50.405,29.412 49.926,29.608 49.52,30M45.486,33.061C44.932,33.061 44.453,33.257 44.047,33.649C43.655,34.054 43.459,34.534 43.459,35.088C43.459,35.642 43.655,36.115 44.047,36.507C44.453,36.912 44.932,37.115 45.486,37.115C46.041,37.115 46.514,36.912 46.905,36.507C47.311,36.115 47.514,35.642 47.514,35.088C47.514,34.534 47.311,34.054 46.905,33.649C46.514,33.257 46.041,33.061 45.486,33.061M46.5,27.182C46.905,26.791 47.108,26.318 47.108,25.764C47.108,25.209 46.905,24.73 46.5,24.324C46.108,23.932 45.635,23.736 45.081,23.736C44.527,23.736 44.047,23.932 43.642,24.324C43.25,24.73 43.054,25.209 43.054,25.764C43.054,26.318 43.25,26.791 43.642,27.182C44.047,27.588 44.527,27.791 45.081,27.791C45.635,27.791 46.108,27.588 46.5,27.182Z" style="fill:rgb(188,225,122);fill-rule:nonzero;"/>
        </g>
        <g id="Shape1" serif:id="Shape" transform="matrix(0.856329,0,0,0.856329,-22.6365,2.08056)">
            <path d="M21.365,56.331C21.365,55.777 21.162,55.297 20.757,54.892C20.365,54.5 19.892,54.304 19.338,54.304C18.784,54.304 18.304,54.5 17.899,54.892C17.507,55.297 17.311,55.777 17.311,56.331C17.311,56.885 17.507,57.358 17.899,57.75C18.304,58.155 18.784,58.358 19.338,58.358C19.892,58.358 20.365,58.155 20.757,57.75C21.162,57.358 21.365,56.885 21.365,56.331M14.27,45.203C13.878,44.811 13.405,44.615 12.851,44.615C12.297,44.615 11.818,44.811 11.412,45.203C11.02,45.608 10.824,46.088 10.824,46.642C10.824,47.196 11.02,47.669 11.412,48.061C11.818,48.466 12.297,48.669 12.851,48.669C13.405,48.669 13.878,48.466 14.27,48.061C14.676,47.669 14.878,47.196 14.878,46.642C14.878,46.088 14.676,45.608 14.27,45.203M12.649,33.649C12.257,33.257 11.784,33.061 11.23,33.061C10.676,33.061 10.196,33.257 9.791,33.649C9.399,34.054 9.203,34.534 9.203,35.088C9.203,35.642 9.399,36.115 9.791,36.507C10.196,36.912 10.676,37.115 11.23,37.115C11.784,37.115 12.257,36.912 12.649,36.507C13.054,36.115 13.257,35.642 13.257,35.088C13.257,34.534 13.054,34.054 12.649,33.649M14.574,23.311C14.182,22.919 13.709,22.723 13.155,22.723C12.601,22.723 12.122,22.919 11.716,23.311C11.324,23.716 11.128,24.196 11.128,24.75C11.128,25.304 11.324,25.777 11.716,26.169C12.122,26.574 12.601,26.777 13.155,26.777C13.709,26.777 14.182,26.574 14.574,26.169C14.98,25.777 15.182,25.304 15.182,24.75C15.182,24.196 14.98,23.716 14.574,23.311M20.858,17.351C21.264,16.959 21.466,16.486 21.466,15.932C21.466,15.378 21.264,14.899 20.858,14.493C20.466,14.101 19.993,13.905 19.439,13.905C18.885,13.905 18.405,14.101 18,14.493C17.608,14.899 17.412,15.378 17.412,15.932C17.412,16.486 17.608,16.959 18,17.351C18.405,17.757 18.885,17.959 19.439,17.959C19.993,17.959 20.466,17.757 20.858,17.351M29.372,61.034C29.372,60.48 29.169,60 28.764,59.595C28.372,59.203 27.899,59.007 27.345,59.007C26.791,59.007 26.311,59.203 25.905,59.595C25.514,60 25.318,60.48 25.318,61.034C25.318,61.588 25.514,62.061 25.905,62.453C26.311,62.858 26.791,63.061 27.345,63.061C27.899,63.061 28.372,62.858 28.764,62.453C29.169,62.061 29.372,61.588 29.372,61.034M38.25,62.291C37.858,62.696 37.662,63.176 37.662,63.73C37.662,64.284 37.858,64.757 38.25,65.149C38.655,65.554 39.135,65.757 39.689,65.757C40.243,65.757 40.716,65.554 41.108,65.149C41.514,64.757 41.716,64.284 41.716,63.73C41.716,63.176 41.514,62.696 41.108,62.291C40.716,61.899 40.243,61.703 39.689,61.703C39.135,61.703 38.655,61.899 38.25,62.291M52.682,61.196C52.682,60.642 52.48,60.162 52.074,59.757C51.682,59.365 51.209,59.169 50.655,59.169C50.101,59.169 49.622,59.365 49.216,59.757C48.824,60.162 48.628,60.642 48.628,61.196C48.628,61.75 48.824,62.223 49.216,62.615C49.622,63.02 50.101,63.223 50.655,63.223C51.209,63.223 51.682,63.02 52.074,62.615C52.48,62.223 52.682,61.75 52.682,61.196M60.081,57.932C60.486,57.541 60.689,57.068 60.689,56.514C60.689,55.959 60.486,55.48 60.081,55.074C59.689,54.682 59.216,54.486 58.662,54.486C58.108,54.486 57.628,54.682 57.223,55.074C56.831,55.48 56.635,55.959 56.635,56.514C56.635,57.068 56.831,57.541 57.223,57.932C57.628,58.338 58.108,58.541 58.662,58.541C59.216,58.541 59.689,58.338 60.081,57.932M63.811,45.324C63.419,45.73 63.223,46.209 63.223,46.764C63.223,47.318 63.419,47.791 63.811,48.182C64.216,48.588 64.696,48.791 65.25,48.791C65.804,48.791 66.277,48.588 66.669,48.182C67.074,47.791 67.277,47.318 67.277,46.764C67.277,46.209 67.074,45.73 66.669,45.324C66.277,44.932 65.804,44.736 65.25,44.736C64.696,44.736 64.216,44.932 63.811,45.324M66.77,33.061C66.216,33.061 65.736,33.257 65.331,33.649C64.939,34.054 64.743,34.534 64.743,35.088C64.743,35.642 64.939,36.115 65.331,36.507C65.736,36.912 66.216,37.115 66.77,37.115C67.324,37.115 67.797,36.912 68.189,36.507C68.595,36.115 68.797,35.642 68.797,35.088C68.797,34.534 68.595,34.054 68.189,33.649C67.797,33.257 67.324,33.061 66.77,33.061M64.845,22.723C64.291,22.723 63.811,22.919 63.405,23.311C63.014,23.716 62.818,24.196 62.818,24.75C62.818,25.304 63.014,25.777 63.405,26.169C63.811,26.574 64.291,26.777 64.845,26.777C65.399,26.777 65.872,26.574 66.264,26.169C66.669,25.777 66.872,25.304 66.872,24.75C66.872,24.196 66.669,23.716 66.264,23.311C65.872,22.919 65.399,22.723 64.845,22.723M56.818,17.351C57.223,17.757 57.703,17.959 58.257,17.959C58.811,17.959 59.284,17.757 59.676,17.351C60.081,16.959 60.284,16.486 60.284,15.932C60.284,15.378 60.081,14.899 59.676,14.493C59.284,14.101 58.811,13.905 58.257,13.905C57.703,13.905 57.223,14.101 56.818,14.493C56.426,14.899 56.23,15.378 56.23,15.932C56.23,16.486 56.426,16.959 56.818,17.351M49.236,10.966C49.642,10.574 49.845,10.101 49.845,9.547C49.845,8.993 49.642,8.514 49.236,8.108C48.845,7.716 48.372,7.52 47.818,7.52C47.264,7.52 46.784,7.716 46.378,8.108C45.986,8.514 45.791,8.993 45.791,9.547C45.791,10.101 45.986,10.574 46.378,10.966C46.784,11.372 47.264,11.574 47.818,11.574C48.372,11.574 48.845,11.372 49.236,10.966M38.899,9.446C39.304,9.054 39.507,8.581 39.507,8.027C39.507,7.473 39.304,6.993 38.899,6.588C38.507,6.196 38.034,6 37.48,6C36.926,6 36.446,6.196 36.041,6.588C35.649,6.993 35.453,7.473 35.453,8.027C35.453,8.581 35.649,9.054 36.041,9.446C36.446,9.851 36.926,10.054 37.48,10.054C38.034,10.054 38.507,9.851 38.899,9.446M31.601,10.966C32.007,10.574 32.209,10.101 32.209,9.547C32.209,8.993 32.007,8.514 31.601,8.108C31.209,7.716 30.736,7.52 30.182,7.52C29.628,7.52 29.149,7.716 28.743,8.108C28.351,8.514 28.155,8.993 28.155,9.547C28.155,10.101 28.351,10.574 28.743,10.966C29.149,11.372 29.628,11.574 30.182,11.574C30.736,11.574 31.209,11.372 31.601,10.966Z" style="fill:rgb(188,225,121);fill-rule:nonzero;"/>
        </g>
        <g id="Oval" transform="matrix(0.856329,0,0,0.856329,-22.6365,2.08056)">
            <circle cx="69" cy="65" r="4" style="fill:rgb(188,225,121);"/>
        </g>
        <g id="Oval1" serif:id="Oval" transform="matrix(0.856329,0,0,0.856329,-22.6365,2.08056)">
            <circle cx="84" cy="37" r="2" style="fill:rgb(188,225,121);"/>
        </g>
        <g id="Oval2" serif:id="Oval" transform="matrix(0.856329,0,0,0.856329,-22.6365,2.08056)">
            <circle cx="4" cy="11" r="4" style="fill:rgb(188,225,121);"/>
        </g>
        <g id="Oval3" serif:id="Oval" transform="matrix(0.856329,0,0,0.856329,-22.6365,2.08056)">
            <circle cx="11" cy="65" r="2" style="fill:rgb(188,225,121);"/>
        </g>
    </g>
    <defs>
        <linearGradient id="_Linear1" x1="0" y1="0" x2="1" y2="0" gradientUnits="userSpaceOnUse" gradientTransform="matrix(-74.0112,-50.4378,50.4378,-74.0112,68.0649,67.6035)"><stop offset="0" style="stop-color:rgb(255,242,194);stop-opacity:1"/><stop offset="1" style="stop-color:rgb(255,251,235);stop-opacity:1"/></linearGradient>
    </defs>
</svg>
