<?xml version="1.0" encoding="UTF-8" standalone="no"?><!DOCTYPE svg PUBLIC "-//W3C//DTD SVG 1.1//EN" "http://www.w3.org/Graphics/SVG/1.1/DTD/svg11.dtd"><svg width="100%" height="100%" viewBox="0 0 34 34" version="1.1" xmlns="http://www.w3.org/2000/svg" xmlns:xlink="http://www.w3.org/1999/xlink" xml:space="preserve" xmlns:serif="http://www.serif.com/" style="fill-rule:evenodd;clip-rule:evenodd;stroke-linejoin:round;stroke-miterlimit:2;"><rect id="icon-salir-black" x="0" y="0" width="34" height="34" style="fill:none;"/><path d="M24.47,8.229l0,17.278c0,1.838 -1.491,3.33 -3.329,3.33c0,0 -8.282,0 -8.282,0c-1.838,0 -3.329,-1.492 -3.329,-3.33c0,0 0,-17.278 0,-17.278c0,-1.837 1.491,-3.329 3.329,-3.329c0,0 8.282,0 8.282,0c1.838,0 3.329,1.492 3.329,3.329Zm-2,15.731l-10.94,0l0,1.547c0,0.734 0.595,1.33 1.329,1.33l8.282,0c0.734,0 1.329,-0.596 1.329,-1.33l0,-1.547Zm-5.47,0.363c0.552,0 1,0.448 1,1c0,0.552 -0.448,1 -1,1c-0.552,0 -1,-0.448 -1,-1c0,-0.552 0.448,-1 1,-1Zm5.47,-2.363l0,-13.731c0,-0.733 -0.595,-1.329 -1.329,-1.329l-8.282,0c-0.734,0 -1.329,0.596 -1.329,1.329l0,13.731l10.94,0Zm-6.888,-11.995l2.836,0c0.552,0 1,-0.448 1,-1c0,-0.552 -0.448,-1 -1,-1l-2.836,0c-0.552,0 -1,0.448 -1,1c0,0.552 0.448,1 1,1Zm-2.426,-1.584c0.322,0 0.584,0.262 0.584,0.584c0,0.322 -0.262,0.583 -0.584,0.583c-0.322,0 -0.583,-0.261 -0.583,-0.583c0,-0.322 0.261,-0.584 0.583,-0.584Z" style="fill:#4a4a4a;"/></svg>