<?xml version="1.0" encoding="UTF-8" standalone="no"?><!DOCTYPE svg PUBLIC "-//W3C//DTD SVG 1.1//EN" "http://www.w3.org/Graphics/SVG/1.1/DTD/svg11.dtd"><svg width="100%" height="100%" viewBox="0 0 90 90" version="1.1" xmlns="http://www.w3.org/2000/svg" xmlns:xlink="http://www.w3.org/1999/xlink" xml:space="preserve" xmlns:serif="http://www.serif.com/" style="fill-rule:evenodd;clip-rule:evenodd;stroke-linejoin:round;stroke-miterlimit:2;"><path d="M10.211,85.989c6.387,4.578 18.382,4.578 40.969,0c22.588,-4.577 32.888,-11.908 35.564,-19.239c2.677,-7.331 2.609,-16.649 -11.874,-35.665c-14.482,-19.015 -25.592,-29.971 -40.373,-29.971c-14.781,0 -26.163,21.55 -30.673,46.813c-4.51,25.262 0,33.485 6.387,38.062Z" style="fill:url(#_Linear1);"/><rect x="24.91" y="3.875" width="40.277" height="78.226" style="fill:#f5a170;"/><path d="M58.447,75.334l0,-63.934l-26.662,0l0,63.934l26.662,0Zm-24.767,-23.603l22.872,0l0,21.844l-22.872,0l0,-21.844Zm22.872,-15.699l0,13.804l-22.872,0l0,-13.804l22.872,0Zm-22.872,-22.737l22.872,0l0,20.842l-22.872,0l0,-20.842Z" style="fill:#e5895c;fill-rule:nonzero;"/><path d="M39.364,45.695c0.271,-0.253 0.406,-0.568 0.406,-0.947c0,-0.379 -0.135,-0.704 -0.406,-0.975c-0.252,-0.252 -0.568,-0.379 -0.947,-0.379c-0.397,0 -0.731,0.127 -1.002,0.379c-0.234,0.271 -0.351,0.596 -0.351,0.975c0,0.379 0.117,0.694 0.351,0.947c0.271,0.271 0.605,0.406 1.002,0.406c0.379,0 0.695,-0.135 0.947,-0.406Z" style="fill:#995638;fill-rule:nonzero;"/><path d="M38.282,44.612c0.27,-0.252 0.406,-0.568 0.406,-0.947c0,-0.379 -0.136,-0.704 -0.406,-0.975c-0.253,-0.252 -0.569,-0.378 -0.948,-0.378c-0.397,0 -0.731,0.126 -1.001,0.378c-0.235,0.271 -0.352,0.596 -0.352,0.975c0,0.379 0.117,0.695 0.352,0.947c0.27,0.271 0.604,0.406 1.001,0.406c0.379,0 0.695,-0.135 0.948,-0.406Z" style="fill:#fff9c4;fill-rule:nonzero;"/><path d="M62.507,79.894c0.276,0 0.5,-0.224 0.5,-0.5l0,-72.812c0,-0.276 -0.224,-0.5 -0.5,-0.5l-34.917,0c-0.276,0 -0.5,0.224 -0.5,0.5l0,72.812c0,0.276 0.224,0.5 0.5,0.5l34.917,0Zm-34.417,-72.812l0,71.812l33.917,0l0,-71.812l-33.917,0Z" style="fill:#995638;"/><defs><linearGradient id="_Linear1" x1="0" y1="0" x2="1" y2="0" gradientUnits="userSpaceOnUse" gradientTransform="matrix(86.0968,0,0,88.3084,2.00015,45.2685)"><stop offset="0" style="stop-color:#e8e9ed;stop-opacity:1"/><stop offset="1" style="stop-color:#f9f9fa;stop-opacity:1"/></linearGradient></defs></svg>