<?xml version="1.0" encoding="UTF-8"?>
<svg width="282px" height="239px" viewBox="0 0 282 239" version="1.1" xmlns="http://www.w3.org/2000/svg" xmlns:xlink="http://www.w3.org/1999/xlink">
    <!-- Generator: Sketch 64 (93537) - https://sketch.com -->
    <title>ig/step-01</title>
    <desc>Created with Sketch.</desc>
    <defs>
        <linearGradient x1="12.041486%" y1="26.0358197%" x2="50%" y2="95.1291478%" id="linearGradient-1">
            <stop stop-color="#DCEFDD" offset="0%"></stop>
            <stop stop-color="#FFFFFF" offset="100%"></stop>
        </linearGradient>
    </defs>
    <g id="Page-1" stroke="none" stroke-width="1" fill="none" fill-rule="evenodd">
        <g id="step---01" transform="translate(-36.000000, -36.000000)">
            <g id="ig/step-01" transform="translate(36.000000, 36.000000)">
                <path d="M33.9352883,238.171429 C18.8750509,214.154928 13.2993593,195.432479 17.2082134,182.004082 C23.0714947,161.861485 53.4881161,157.369505 57.7281428,134.941504 C61.9681694,112.513504 30.185174,102.727083 41.7418146,66.3123888 C53.2984553,29.897695 120.813676,46.5723996 150.292596,34.4969276 C179.771516,22.4214556 180.810174,0.578526981 203.60119,0.00981164992 C226.392205,-0.558903681 249.667597,23.4893056 263.66369,99.9700759 C272.994418,150.957256 260.786085,197.024374 227.03869,238.171429 L33.9352883,238.171429 Z" id="shape-bck" fill="url(#linearGradient-1)" transform="translate(141.347623, 119.085714) scale(-1, 1) translate(-141.347623, -119.085714) "></path>
                <g id="ig" transform="translate(0.000000, 56.000000)">
                    <ellipse id="Oval" fill="#E3F2E3" cx="141" cy="177.574468" rx="141" ry="3.57446809"></ellipse>
                    <g id="Group" transform="translate(22.000000, 117.000000)" fill="#070200" fill-rule="nonzero">
                        <g id="Layer47_0_FILL-link">
                            <g id="Layer47_0_FILL">
                                <path d="M43.2,1.05 C43.0333333,1.28333333 42.9666667,1.53333333 43,1.8 L48.15,26.1 L24.35,26.1 L29.5,1.8 C29.5333333,1.53333333 29.4666667,1.28333333 29.3,1.05 C29.1,0.783333333 28.8333333,0.616666667 28.5,0.55 C28.2,0.483333333 27.9166667,0.533333333 27.65,0.7 C27.35,0.833333333 27.1833333,1.03333333 27.15,1.3 L21.85,26.1 L10.35,26.1 L15.5,1.8 C15.5333333,1.53333333 15.4666667,1.28333333 15.3,1.05 C15.1,0.783333333 14.8333333,0.616666667 14.5,0.55 C14.2,0.483333333 13.9166667,0.533333333 13.65,0.7 C13.35,0.833333333 13.1833333,1.03333333 13.15,1.3 L0.65,60.15 C0.583333333,60.4166667 0.65,60.6666667 0.85,60.9 C1.01666667,61.1333333 1.25,61.2833333 1.55,61.35 C1.88333333,61.4166667 2.2,61.3833333 2.5,61.25 C2.76666667,61.1166667 2.93333333,60.9166667 3,60.65 L9.8,28.55 L21.35,28.55 L14.65,60.15 C14.5833333,60.4166667 14.65,60.6666667 14.85,60.9 C15.0166667,61.1333333 15.25,61.2833333 15.55,61.35 C15.8833333,61.4166667 16.2,61.3833333 16.5,61.25 C16.7666667,61.1166667 16.9333333,60.9166667 17,60.65 L23.8,28.55 L48.65,28.55 L55.5,60.65 C55.5666667,60.9166667 55.7333333,61.1166667 56,61.25 C56.3,61.3833333 56.6166667,61.4166667 56.95,61.35 C57.25,61.2833333 57.4833333,61.1333333 57.65,60.9 C57.85,60.6666667 57.9166667,60.4166667 57.85,60.15 L51.15,28.55 L63.75,28.55 L70.6,60.65 C70.6666667,60.9166667 70.8333333,61.1166667 71.1,61.25 C71.4,61.3833333 71.7166667,61.4166667 72.05,61.35 C72.35,61.2833333 72.5833333,61.1333333 72.75,60.9 C72.95,60.6666667 73.0166667,60.4166667 72.95,60.15 L60.45,1.3 C60.4166667,1.03333333 60.25,0.833333333 59.95,0.7 C59.6833333,0.533333333 59.4,0.483333333 59.1,0.55 C58.7666667,0.616666667 58.5,0.783333333 58.3,1.05 C58.1333333,1.28333333 58.0666667,1.53333333 58.1,1.8 L63.25,26.1 L50.6,26.1 L45.35,1.3 C45.3166667,1.03333333 45.15,0.833333333 44.85,0.7 C44.5833333,0.533333333 44.3,0.483333333 44,0.55 C43.6666667,0.616666667 43.4,0.783333333 43.2,1.05 Z" id="Path"></path>
                            </g>
                        </g>
                    </g>
                    <g id="Group" transform="translate(0.000000, 42.000000)" fill="#45465A" fill-rule="nonzero">
                        <g id="Layer46_0_FILL-link">
                            <g id="Layer46_0_FILL">
                                <path d="M28.25,0.15 L13.3,6 C8.396875,8.003125 5.446875,9.503125 4.45,10.5 C2.11666667,12.8666667 0.95,15.7 0.95,19 C0.95,20.1983073 1.1,21.3316406 1.4,22.4 C1.46184896,22.5757812 1.51184896,22.7424479 1.55,22.9 C7.50247396,41.824349 14.7858073,59.7076823 23.4,76.55 C26.9061198,83.3058594 32.2227865,86.7891927 39.35,87 L81.5,87 L87.25,69.25 L58.25,66.25 L28.25,0.15 Z" id="Path"></path>
                            </g>
                        </g>
                    </g>
                    <g id="Group" transform="translate(82.000000, 125.000000)" fill="#F3BC90" fill-rule="nonzero">
                        <g id="Layer45_0_FILL-link">
                            <g id="Layer45_0_FILL">
                                <path d="M14.75,3.05 L25.25,24.65 L31.3,21.7 L20.8,0.1 L14.75,3.05 M7.7,23.1 L0.95,23.1 L0.95,47.1 L7.7,47.1 L7.7,23.1 Z" id="Shape"></path>
                            </g>
                        </g>
                    </g>
                    <g id="Group" transform="translate(82.000000, 145.000000)" fill="#903635" fill-rule="nonzero">
                        <g id="Layer44_0_FILL-link">
                            <g id="Layer44_0_FILL">
                                <path d="M7.7,25.7 L0.95,25.7 L0.95,32.4 L17.45,32.4 C17.3513021,31.9796875 17.1513021,31.5796875 16.85,31.2 C16.4984375,30.764974 16.0151042,30.3483073 15.4,29.95 L7.7,25.7 M30.6,0.25 L24.55,3.2 L27.45,9.2 L42.3,2 C42.0333333,1.66666667 41.6833333,1.4 41.25,1.2 C40.7166667,0.966666667 40.1,0.816666667 39.4,0.75 L30.6,0.25 Z" id="Shape"></path>
                            </g>
                        </g>
                    </g>
                    <g id="Group" transform="translate(82.000000, 146.000000)" fill="#FFFFFF" fill-rule="nonzero">
                        <g id="Layer43_0_FILL-link">
                            <g id="Layer43_0_FILL">
                                <path d="M16.85,30.2 L0.95,30.2 L0.95,32.4 L17.5,32.4 C17.5983073,31.6033854 17.3816406,30.8700521 16.85,30.2 M42.8,2 C42.5666667,1.2 42.0666667,0.616666667 41.3,0.25 L27,7.25 L27.95,9.25 L42.8,2 Z" id="Shape"></path>
                            </g>
                        </g>
                    </g>
                    <g id="Group" transform="translate(24.000000, 5.000000)" fill="#F3BC90" fill-rule="nonzero">
                        <g id="Layer42_0_FILL-link">
                            <g id="Layer42_0_FILL">
                                <path d="M0.6,5.65 L0.6,20.4 L4.25,22.7 L4.25,39.5 L14.35,39.5 L14.35,30.2 C16.4447917,30.0009115 18.2614583,29.1175781 19.8,27.55 C21.6,25.7833333 22.5,23.65 22.5,21.15 L22.5,5.85 L17.15,0.65 L0.6,5.65 Z" id="Path"></path>
                            </g>
                        </g>
                    </g>
                    <g id="Group" transform="translate(20.000000, 0.000000)" fill="#9C4E0C" fill-rule="nonzero">
                        <g id="Layer41_0_FILL-link">
                            <g id="Layer41_0_FILL">
                                <path d="M10.85,15.55 C11.3084635,15.3404948 11.7251302,15.0404948 12.1,14.65 C12.1171875,14.6334635 12.1338542,14.6167969 12.15,14.6 C12.4338542,14.3203125 12.6671875,14.0203125 12.85,13.7 C13.1022135,13.2626302 13.2522135,12.7792969 13.3,12.25 C13.8523438,12.5579427 14.4356771,12.7246094 15.05,12.75 C15.1272135,12.75 15.1938802,12.75 15.25,12.75 C15.8125,12.75 16.3291667,12.65 16.8,12.45 C17.2970052,12.2364583 17.7470052,11.9197917 18.15,11.5 C18.5106771,11.153776 18.7940104,10.7704427 19,10.35 C19.094401,10.4746094 19.194401,10.591276 19.3,10.7 C19.6358073,11.0358073 19.9858073,11.3191406 20.35,11.55 C21.3165365,12.1833333 22.3998698,12.5 23.6,12.5 C24.6661458,12.5 25.6328125,12.2333333 26.5,11.7 L26.5,16.65 C26.671224,16.5167969 26.8378906,16.3667969 27,16.2 C28.2,15.0333333 28.8,13.6333333 28.8,12 C28.8,11.280599 28.6833333,10.5972656 28.45,9.95 C29.2166667,8.95494792 29.6,7.80494792 29.6,6.5 C29.6,4.86666667 29,3.45 27.8,2.25 C26.6333333,1.08333333 25.2333333,0.5 23.6,0.5 C21.9333333,0.5 20.5,1.08333333 19.3,2.25 C19.0246094,2.54153646 18.7746094,2.84153646 18.55,3.15 C17.6302083,2.55 16.5802083,2.25 15.4,2.25 C13.7333333,2.25 12.3,2.83333333 11.1,4 C10.9050781,4.20638021 10.7217448,4.42304688 10.55,4.65 C10.2169271,4.58333333 9.86692708,4.55 9.5,4.55 C7.83333333,4.55 6.4,5.13333333 5.2,6.3 C4.06666667,7.5 3.5,8.91666667 3.5,10.55 C3.5,10.9773438 3.53333333,11.3773437 3.6,11.75 C3.16341146,12.0309896 2.74674479,12.3643229 2.35,12.75 C1.21666667,13.95 0.65,15.3666667 0.65,17 C0.65,18.6333333 1.21666667,20.0333333 2.35,21.2 C2.69153646,21.5415365 3.04153646,21.8248698 3.4,22.05 C3.33333333,22.4925781 3.3,22.9425781 3.3,23.4 C3.3,25.0333333 3.86666667,26.4333333 5,27.6 C5.94010417,28.5401042 7.0234375,29.1067708 8.25,29.3 L8.25,26.05 C7.56263021,25.9626302 6.96263021,25.6626302 6.45,25.15 C5.81666667,24.5166667 5.5,23.75 5.5,22.85 C5.5,21.95 5.81666667,21.1833333 6.45,20.55 C6.96263021,20.0373698 7.56263021,19.7207031 8.25,19.6 C8.41184896,19.6 8.57851562,19.6 8.75,19.6 C9.63645833,19.6 10.3864583,19.9 11,20.5 C11.5333333,19.8277344 11.8,19.044401 11.8,18.15 C11.8,18.0803385 11.8,18.0136719 11.8,17.95 C11.7703125,17.3415365 11.6203125,16.7748698 11.35,16.25 C11.2188802,16.0101562 11.0522135,15.7768229 10.85,15.55 Z" id="Path"></path>
                            </g>
                        </g>
                    </g>
                    <g id="Group" transform="translate(36.000000, 19.000000)" fill="#333657" fill-rule="nonzero">
                        <g id="Layer40_0_FILL-link">
                            <g id="Layer40_0_FILL">
                                <path d="M9.85,1.35 C9.85,1.01666667 9.71666667,0.716666667 9.45,0.45 C9.21666667,0.216666667 8.93333333,0.1 8.6,0.1 C8.26666667,0.1 7.96666667,0.216666667 7.7,0.45 C7.46666667,0.716666667 7.35,1.01666667 7.35,1.35 C7.35,1.68333333 7.46666667,1.96666667 7.7,2.2 C7.96666667,2.46666667 8.26666667,2.6 8.6,2.6 C8.93333333,2.6 9.21666667,2.46666667 9.45,2.2 C9.71666667,1.96666667 9.85,1.68333333 9.85,1.35 M3.45,1.35 C3.45,1.01666667 3.31666667,0.716666667 3.05,0.45 C2.81666667,0.216666667 2.53333333,0.1 2.2,0.1 C1.86666667,0.1 1.56666667,0.216666667 1.3,0.45 C1.06666667,0.716666667 0.95,1.01666667 0.95,1.35 C0.95,1.68333333 1.06666667,1.96666667 1.3,2.2 C1.56666667,2.46666667 1.86666667,2.6 2.2,2.6 C2.53333333,2.6 2.81666667,2.46666667 3.05,2.2 C3.31666667,1.96666667 3.45,1.68333333 3.45,1.35 Z" id="Shape"></path>
                            </g>
                        </g>
                    </g>
                    <g id="Group" transform="translate(35.000000, 16.000000)" stroke="#9C4E0C" stroke-linecap="round" stroke-linejoin="round" stroke-width="1.4">
                        <g id="Layer39_0_1_STROKES-link">
                            <path d="M9.1,0.65 L11.5,1.2 M0.75,1 L4.45,0.5" id="Layer39_0_1_STROKES"></path>
                        </g>
                    </g>
                    <g id="Group" transform="translate(96.000000, 47.000000)" fill="#F3BC90" fill-rule="nonzero">
                        <g id="Layer38_0_FILL-link">
                            <g id="Layer38_0_FILL">
                                <path d="M1.8,2.95 L0.25,5.25 L1.45,12 L11.65,7.05 L7.15,0.3 L5.6,0.15 C4.46119792,0.212630208 3.32786458,0.962630208 2.2,2.4 C2.07669271,2.584375 1.94335938,2.76770833 1.8,2.95 Z" id="Path"></path>
                            </g>
                        </g>
                    </g>
                    <g id="Group" transform="translate(101.000000, 39.000000)" fill="#322F23" fill-rule="nonzero">
                        <g id="Layer37_0_FILL-link">
                            <g id="Layer37_0_FILL">
                                <path d="M1.6,0.1 C0.933333333,0.1 0.6,0.433333333 0.6,1.1 L0.6,17.1 C0.6,17.7666667 0.933333333,18.1 1.6,18.1 L7.6,18.1 C8.26666667,18.1 8.6,17.7666667 8.6,17.1 L8.6,1.1 C8.6,0.433333333 8.26666667,0.1 7.6,0.1 L1.6,0.1 Z" id="Path"></path>
                            </g>
                        </g>
                    </g>
                    <g id="Group" transform="translate(103.000000, 40.000000)" fill="#4F687E" fill-rule="nonzero">
                        <g id="Layer36_0_FILL-link">
                            <g id="Layer36_0_FILL">
                                <path d="M1.1,0.6 C0.433333333,0.6 0.1,0.933333333 0.1,1.6 L0.1,14.3 C0.109375,14.7052083 0.259375,14.9885417 0.55,15.15 C0.683333333,15.2166667 0.866666667,15.25 1.1,15.25 L4.15,15.25 C4.76354167,15.2177083 5.08020833,14.9010417 5.1,14.3 L5.1,1.6 C5.1,0.954166667 4.78333333,0.620833333 4.15,0.6 L1.1,0.6 Z" id="Path"></path>
                            </g>
                        </g>
                    </g>
                    <g id="Group" transform="translate(98.000000, 47.000000)" fill="#F3BC90" fill-rule="nonzero">
                        <g id="Layer35_0_FILL-link">
                            <g id="Layer35_0_FILL">
                                <path d="M3.6,0.15 C2.46119792,0.212630208 1.32786458,0.962630208 0.2,2.4 L7.65,3.2 C7.69153646,3.19804687 7.72486979,3.19804687 7.75,3.2 C7.78307292,3.2 7.81640625,3.2 7.85,3.2 C8.21666667,3.2 8.51666667,3.06666667 8.75,2.8 C9.01666667,2.56666667 9.15,2.26666667 9.15,1.9 C9.15,1.53333333 9.01666667,1.21666667 8.75,0.95 C8.64127604,0.841276042 8.50794271,0.757942708 8.35,0.7 C8.27486979,0.663802083 8.17486979,0.63046875 8.05,0.6 L7.95,0.6 L3.6,0.15 Z" id="Path"></path>
                            </g>
                        </g>
                    </g>
                    <g id="Group" transform="translate(45.000000, 99.000000)" fill="#F1A841" fill-rule="nonzero">
                        <g id="Layer34_0_FILL-link">
                            <g id="Layer34_0_FILL">
                                <polygon id="Path" points="30.85 0.5 0.6 25.3 31.45 20.7 33.4 59.5 48.6 59.5 48.6 6.5"></polygon>
                            </g>
                        </g>
                    </g>
                    <g id="Group" transform="translate(25.000000, 89.000000)" fill="#FFC26F" fill-rule="nonzero">
                        <g id="Layer33_0_FILL-link">
                            <g id="Layer33_0_FILL">
                                <path d="M0,8.5 L7.35,27.85 C7.95195312,29.3519531 8.86861979,30.7186198 10.1,31.95 C12.4333333,34.2833333 15.2666667,35.45 18.6,35.45 C19.8164062,35.45 20.9664063,35.2833333 22.05,34.95 L55.75,23.3 L75.1,54.7 L86.3,48.85 L66.35,5.55 C65.9761719,4.59296875 65.3928385,3.70963542 64.6,2.9 C63.0666667,1.36666667 61.1833333,0.6 58.95,0.6 C58.3898437,0.6 57.4731771,0.733333333 56.2,1 L38.25,6.05 L0,8.5 Z" id="Path"></path>
                            </g>
                        </g>
                    </g>
                    <g id="Group" transform="translate(7.000000, 39.000000)" fill="#509F73" fill-rule="nonzero">
                        <g id="Layer32_0_FILL-link">
                            <g id="Layer32_0_FILL">
                                <path d="M22.7,3.05 C21.7333333,2.38333333 21.25,1.58333333 21.25,0.65 L9.85,5.05 C3.8515625,7.28190104 0.8515625,12.181901 0.85,19.75 L0.85,42 C1.60026042,51.7929688 6.20026042,57.2263021 14.65,58.3 C15.7907552,61.0825521 17.0407552,63.8492188 18.4,66.6 L56.35,56 C54.2533854,48.7371094 52.5033854,41.403776 51.1,34 L56.45,35.25 C65.1201823,37.2352865 72.0535156,36.3852865 77.25,32.7 L93.9,20.2 L89.25,13.25 L74.75,19.5 C69.6911458,21.746875 65.3744792,21.2635417 61.8,18.05 L50.35,6.45 C46.9260417,3.01328125 42.259375,1.19661458 36.35,1 L31.35,0.85 C31.278125,1.69791667 30.778125,2.43125 29.85,3.05 C28.9166667,3.78333333 27.7333333,4.15 26.3,4.15 C24.9,4.15 23.7,3.78333333 22.7,3.05 Z" id="Path"></path>
                            </g>
                        </g>
                    </g>
                    <g id="Group" transform="translate(40.000000, 90.000000)" fill="#F3BC90" fill-rule="nonzero">
                        <g id="Layer31_0_FILL-link">
                            <g id="Layer31_0_FILL">
                                <path d="M24.8,3.35 L13.75,0.25 L0.1,3.85 L22.85,9.9 C23.1798177,10 23.5298177,10.05 23.9,10.05 C24.8333333,10.05 25.6333333,9.71666667 26.3,9.05 C26.9666667,8.38333333 27.3,7.58333333 27.3,6.65 C27.3,5.71666667 26.9666667,4.91666667 26.3,4.25 C25.8977865,3.84778646 25.4477865,3.56445312 24.95,3.4 C24.9082031,3.38736979 24.8582031,3.37070313 24.8,3.35 Z" id="Path"></path>
                            </g>
                        </g>
                    </g>
                    <g id="Group" transform="translate(21.000000, 81.000000)" fill="#509F73" fill-rule="nonzero">
                        <g id="Layer30_0_FILL-link">
                            <g id="Layer30_0_FILL">
                                <path d="M5.75,0.25 L0.65,16.3 C1.70494792,16.4354167 2.82161458,16.5020833 4,16.5000473 L30,16.5000473 L32.75,9.25 L5.75,0.25 Z" id="Path"></path>
                            </g>
                        </g>
                    </g>
                    <g id="Group" transform="translate(38.000000, 27.000000)" fill="#FFFFFF" fill-rule="nonzero">
                        <g id="Layer29_0_FILL-link">
                            <g id="Layer29_0_FILL">
                                <path d="M6.25,0.6 C6.25,0.498046875 6.23333333,0.398046875 6.2,0.3 L0.95,0.3 C0.95,0.398046875 0.95,0.498046875 0.95,0.6 C0.95,1.33333333 1.2,1.95 1.7,2.45 C2.23333333,2.98333333 2.86666667,3.25 3.6,3.25 C4.33333333,3.25 4.95,2.98333333 5.45,2.45 C5.98333333,1.95 6.25,1.33333333 6.25,0.6 Z" id="Path"></path>
                            </g>
                        </g>
                    </g>
                    <g id="Group" transform="translate(189.000000, 117.000000)" fill="#070200" fill-rule="nonzero">
                        <g id="Layer27_0_FILL-link">
                            <g id="Layer27_0_FILL">
                                <path d="M42.85,0.7 C42.5833333,0.533333333 42.3,0.483333333 42,0.55 C41.6666667,0.616666667 41.4,0.783333333 41.2,1.05 C41.0333333,1.28333333 40.9666667,1.53333333 41,1.8 L46.15,26.1 L24.85,26.1 L30,1.8 C30.0333333,1.53333333 29.9666667,1.28333333 29.8,1.05 C29.6,0.783333333 29.3333333,0.616666667 29,0.55 C28.7,0.483333333 28.4166667,0.533333333 28.15,0.7 C27.85,0.833333333 27.6833333,1.03333333 27.65,1.3 L22.35,26.1 L9.75,26.1 L14.9,1.8 C14.9333333,1.53333333 14.8666667,1.28333333 14.7,1.05 C14.5,0.783333333 14.2333333,0.616666667 13.9,0.55 C13.6,0.483333333 13.3166667,0.533333333 13.05,0.7 C12.75,0.833333333 12.5833333,1.03333333 12.55,1.3 L0.05,60.15 C-0.0166666667,60.4166667 0.05,60.6666667 0.25,60.9 C0.416666667,61.1333333 0.65,61.2833333 0.95,61.35 C1.28333333,61.4166667 1.6,61.3833333 1.9,61.25 C2.16666667,61.1166667 2.33333333,60.9166667 2.4,60.65 L9.2,28.55 L21.85,28.55 L15.15,60.15 C15.0833333,60.4166667 15.15,60.6666667 15.35,60.9 C15.5166667,61.1333333 15.75,61.2833333 16.05,61.35 C16.3833333,61.4166667 16.7,61.3833333 17,61.25 C17.2666667,61.1166667 17.4333333,60.9166667 17.5,60.65 L24.3,28.55 L46.65,28.55 L53.5,60.65 C53.5666667,60.9166667 53.7333333,61.1166667 54,61.25 C54.3,61.3833333 54.6166667,61.4166667 54.95,61.35 C55.25,61.2833333 55.4833333,61.1333333 55.65,60.9 C55.85,60.6666667 55.9166667,60.4166667 55.85,60.15 L49.15,28.55 L60.65,28.55 L67.5,60.65 C67.5666667,60.9166667 67.7333333,61.1166667 68,61.25 C68.3,61.3833333 68.6166667,61.4166667 68.95,61.35 C69.25,61.2833333 69.4833333,61.1333333 69.65,60.9 C69.85,60.6666667 69.9166667,60.4166667 69.85,60.15 L57.35,1.3 C57.3166667,1.03333333 57.15,0.833333333 56.85,0.7 C56.5833333,0.533333333 56.3,0.483333333 56,0.55 C55.6666667,0.616666667 55.4,0.783333333 55.2,1.05 C55.0333333,1.28333333 54.9666667,1.53333333 55,1.8 L60.15,26.1 L48.6,26.1 L43.35,1.3 C43.3166667,1.03333333 43.15,0.833333333 42.85,0.7 Z" id="Path"></path>
                            </g>
                        </g>
                    </g>
                    <g id="Group" transform="translate(195.000000, 42.000000)" fill="#45465A" fill-rule="nonzero">
                        <g id="Layer26_0_FILL-link">
                            <g id="Layer26_0_FILL">
                                <path d="M74.15,6 L59.2,0.15 L29.2,66.25 L0.2,69.25 L5.95,87 L48.1,87 C55.2333333,86.8 60.55,83.3166667 64.05,76.55 C72.65,59.7166667 79.9166667,41.85 85.85,22.95 C85.9166667,22.75 85.9833333,22.5666667 86.05,22.4 C86.35,21.3333333 86.5,20.2 86.5,19 C86.5,15.7 85.3333333,12.8666667 83,10.5 C82,9.5 79.05,8 74.15,6 Z" id="Path"></path>
                            </g>
                        </g>
                    </g>
                    <g id="Group" transform="translate(175.000000, 147.000000)" fill="#F3BC90" fill-rule="nonzero">
                        <g id="Layer25_0_FILL-link">
                            <g id="Layer25_0_FILL">
                                <path d="M15.1,0.75 L9.35,0.75 L9.35,24.75 L15.1,24.75 L15.1,0.75 M6.35,0.75 L0.6,0.75 L0.6,24.75 L6.35,24.75 L6.35,0.75 Z" id="Shape"></path>
                            </g>
                        </g>
                    </g>
                    <g id="Group" transform="translate(164.000000, 170.000000)" fill="#112258" fill-rule="nonzero">
                        <g id="Layer24_0_FILL-link">
                            <g id="Layer24_0_FILL">
                                <path d="M17.35,0.7 L11.5,0.7 L2.9,5 C2.3,5.36666667 1.81666667,5.76666667 1.45,6.2 C1.15,6.56666667 0.95,6.96666667 0.85,7.4 L17.35,7.4 L17.35,0.7 Z" id="Path"></path>
                            </g>
                        </g>
                    </g>
                    <g id="Group" transform="translate(164.000000, 176.000000)" fill="#FFFFFF" fill-rule="nonzero">
                        <g id="Layer23_0_FILL-link">
                            <g id="Layer23_0_FILL">
                                <path d="M17.35,0.2 L1.45,0.2 C1.15,0.566666667 0.95,0.966666667 0.85,1.4 C0.783333333,1.73333333 0.766666667,2.06666667 0.8,2.4 L17.35,2.4 L17.35,0.2 Z" id="Path"></path>
                            </g>
                        </g>
                    </g>
                    <g id="Group" transform="translate(173.000000, 170.000000)" fill="#112258" fill-rule="nonzero">
                        <g id="Layer22_0_FILL-link">
                            <g id="Layer22_0_FILL">
                                <path d="M17.2,0.7 L11.35,0.7 L2.75,5 C2.15,5.36666667 1.66666667,5.76666667 1.3,6.2 C1,6.56666667 0.8,6.96666667 0.7,7.4 L17.2,7.4 L17.2,0.7 Z" id="Path"></path>
                            </g>
                        </g>
                    </g>
                    <g id="Group" transform="translate(173.000000, 176.000000)" fill="#FFFFFF" fill-rule="nonzero">
                        <g id="Layer21_0_FILL-link">
                            <g id="Layer21_0_FILL">
                                <path d="M17.2,0.2 L1.3,0.2 C1,0.566666667 0.8,0.966666667 0.7,1.4 C0.633333333,1.73333333 0.616666667,2.06666667 0.65,2.4 L17.2,2.4 L17.2,0.2 Z" id="Path"></path>
                            </g>
                        </g>
                    </g>
                    <g id="Group" transform="translate(230.000000, 17.000000)" fill="#E5625A" fill-rule="nonzero">
                        <g id="Layer20_0_FILL-link">
                            <g id="Layer20_0_FILL">
                                <path d="M3.45,0.3 C1.21640625,3.20716146 0.533072917,6.49049479 1.4,10.15 C1.47604167,10.6729167 1.559375,11.1895833 1.65,11.7 C2.01354167,13.7720052 1.83020833,15.4720052 1.1,16.8 C0.368880208,18.1542969 0.00221354167,19.3376302 0,20.35 C0,23.0166667 0.933333333,25.2833333 2.8,27.15 C4.66666667,29.0166667 6.93333333,29.95 9.6,29.95 C11.7984375,29.95 13.7151042,29.3166667 15.35,28.05 C16.7333333,28.8768229 18.25,29.3434896 19.9,29.45 C20.1792969,29.4833333 20.4626302,29.5 20.75,29.5 C22.1782552,29.5 23.4949219,29.25 24.7,28.75 L3.45,0.3 Z" id="Path"></path>
                            </g>
                        </g>
                    </g>
                    <g id="Group" transform="translate(234.000000, 18.000000)" fill="#F3BC90" fill-rule="nonzero">
                        <g id="Layer19_0_FILL-link">
                            <g id="Layer19_0_FILL">
                                <path d="M0,0.5 L0,14.5 C0,17 0.866666667,19.1166667 2.6,20.85 C3.65559896,21.905599 4.83893229,22.6389323 6.15,23.05 L6.15,37 L15.9,37 L15.9,18.75 L22.25,12 L15.9,4.25 L15.9,0.5 L0,0.5 Z" id="Path"></path>
                            </g>
                        </g>
                    </g>
                    <g id="Group" transform="translate(231.000000, 12.000000)" fill="#E5625A" fill-rule="nonzero">
                        <g id="Layer18_0_FILL-link">
                            <g id="Layer18_0_FILL">
                                <path d="M4.4,3.25 C2.38815104,5.05898437 1.07148438,7.04231771 0.45,9.2 L3,11.2 C3.20989583,9.25260417 3.79322917,7.9859375 4.75,7.4 C7.12578125,5.99192708 10.0091146,6.84192708 13.4,9.95 C15.1608073,11.5661458 17.0441406,13.1328125 19.05,14.65 C19.7910156,15.224349 20.5410156,15.774349 21.3,16.3 C21.5,16.7213542 21.6,17.1713542 21.6,17.65 C21.6,17.696875 21.6,17.746875 21.6,17.8 C21.566276,18.5652344 21.266276,19.2152344 20.7,19.75 C20.6821615,19.7688802 20.6654948,19.7855469 20.65,19.8 C20.3695312,20.0854167 20.0528646,20.3020833 19.7,20.45 C19.5621094,20.5778646 19.4121094,20.7445313 19.25,20.95 L19.2,20.9 C15.6614583,24.5799479 15.5614583,28.2799479 18.9,32 L18.9,34.45 C19.1792969,34.4833333 19.4626302,34.5 19.75,34.5 C22.65,34.5 25.1166667,33.4666667 27.15,31.4 C29.2166667,29.3666667 30.25,26.9 30.25,24 C30.25,21.3751302 29.4,19.0917969 27.7,17.15 L27.65,17.1 C25.8490885,15.4420573 24.6157552,13.058724 23.95,9.95 C23.4785156,7.64492188 22.4451823,5.66158854 20.85,4 C18.4833333,1.5 15.6,0.25 12.2,0.25 C9.2734375,0.25 6.6734375,1.25 4.4,3.25 Z" id="Path"></path>
                            </g>
                        </g>
                    </g>
                    <g id="Group" transform="translate(235.000000, 27.000000)" fill="#333657" fill-rule="nonzero">
                        <g id="Layer17_0_FILL-link">
                            <g id="Layer17_0_FILL">
                                <path d="M3,0.45 C2.73333333,0.216666667 2.43333333,0.1 2.1,0.1 C1.76666667,0.1 1.48333333,0.216666667 1.25,0.45 C0.983333333,0.716666667 0.85,1.01666667 0.85,1.35 C0.85,1.68333333 0.983333333,1.96666667 1.25,2.2 C1.48333333,2.46666667 1.76666667,2.6 2.1,2.6 C2.43333333,2.6 2.73333333,2.46666667 3,2.2 C3.23333333,1.96666667 3.35,1.68333333 3.35,1.35 C3.35,1.01666667 3.23333333,0.716666667 3,0.45 M8.5,0.1 C8.16666667,0.1 7.88333333,0.216666667 7.65,0.45 C7.38333333,0.716666667 7.25,1.01666667 7.25,1.35 C7.25,1.68333333 7.38333333,1.96666667 7.65,2.2 C7.88333333,2.46666667 8.16666667,2.6 8.5,2.6 C8.83333333,2.6 9.13333333,2.46666667 9.4,2.2 C9.63333333,1.96666667 9.75,1.68333333 9.75,1.35 C9.75,1.01666667 9.63333333,0.716666667 9.4,0.45 C9.13333333,0.216666667 8.83333333,0.1 8.5,0.1 Z" id="Shape"></path>
                            </g>
                        </g>
                    </g>
                    <g id="Group" transform="translate(235.000000, 24.000000)" stroke="#E5625A" stroke-linecap="round" stroke-linejoin="round" stroke-width="1.4">
                        <g id="Layer16_0_1_STROKES-link">
                            <path d="M10.95,1 L7.25,0.5 M2.6,0.65 L0.2,1.2" id="Layer16_0_1_STROKES"></path>
                        </g>
                    </g>
                    <g id="Group" transform="translate(172.000000, 81.100000) rotate(-90.000000) translate(-172.000000, -81.100000) translate(170.000000, 71.600000)" fill="#322F23" fill-rule="nonzero">
                        <path d="M0.975,0.6 C0.725,0.6 0.6,0.933333333 0.6,1.6 L0.6,17.6 C0.6,18.2666667 0.725,18.6 0.975,18.6 L3.225,18.6 C3.475,18.6 3.6,18.2666667 3.6,17.6 L3.6,1.6 C3.6,0.933333333 3.475,0.6 3.225,0.6 L0.975,0.6 Z" id="Path"></path>
                    </g>
                    <g id="taza" transform="translate(210.000000, 37.000000)" fill="#FFFFFF" fill-rule="nonzero">
                        <path d="M13.8,1.85 C13.3666667,2.28333333 13.1333333,2.76666667 13.1,3.3 L13.1,0 L2.27373675e-13,0 L2.27373675e-13,7.9 L1.65,7.9 C1.78333333,8.83333333 2.33333333,9.53333333 3.3,10 L9.7,10 C10.6666667,9.53333333 11.2166667,8.83333333 11.35,7.9 L13.1,7.9 L13.1,5.85 L15.45,5.85 C16.0833333,5.85 16.6333333,5.61666667 17.1,5.15 C17.5666667,4.71666667 17.8,4.16666667 17.8,3.5 C17.8,2.86666667 17.5666667,2.31666667 17.1,1.85 C16.6333333,1.41666667 16.0833333,1.2 15.45,1.2 C14.8166667,1.2 14.2666667,1.41666667 13.8,1.85 M14.55,4.45 L14.55,3.5 C14.55,3.3 14.6333333,3.1 14.8,2.9 C14.9666667,2.73333333 15.1666667,2.65 15.4,2.65 C15.6666667,2.65 15.8833333,2.73333333 16.05,2.9 C16.2166667,3.1 16.3,3.3 16.3,3.5 C16.3,3.8 16.2166667,4.01666667 16.05,4.15 C15.8833333,4.35 15.6666667,4.45 15.4,4.45 L14.55,4.45" id="Shape" transform="translate(8.900000, 5.000000) scale(-1, 1) translate(-8.900000, -5.000000) "></path>
                    </g>
                    <g id="mano" transform="translate(208.000000, 40.000000)" fill="#F3BC90">
                        <path d="M3.6,0.5 C3.48684896,0.504427083 3.37018229,0.504427083 3.25,0.5 C3.19973958,0.501953125 3.14973958,0.501953125 3.1,0.5 L1.65,0.5 C0.74765625,0.663671875 0.280989583,1.31367188 0.25,2.45 L0.25,17.25 L4.85,15.35 L4.85,9.6 L4.6,9.6 C3.93333333,9.6 3.6,9.26666667 3.6,8.6 L3.6,8.5 C3.62890625,7.39648438 4.17890625,6.52981771 5.25,5.9 C5.31575521,5.83424479 5.38242187,5.76757812 5.45,5.7 C6.05,5.1 6.35,4.38333333 6.35,3.55 C6.35,2.71666667 6.05,2 5.45,1.4 C5.08229167,1.03229167 4.63229167,0.765625 4.1,0.6 C3.95104167,0.572265625 3.784375,0.538932292 3.6,0.5 Z" id="Path" fill-rule="nonzero"></path>
                        <rect id="Rectangle" x="0.9" y="6" width="4" height="5"></rect>
                        <path d="M1.8,0.5 L5.8,0.5 C6.35228475,0.5 6.8,0.94771525 6.8,1.5 L6.8,6.5 C6.8,7.6045695 5.9045695,8.5 4.8,8.5 L1.8,8.5 L1.8,8.5 L1.8,0.5 Z" id="Rectangle"></path>
                    </g>
                    <g id="Group" transform="translate(172.000000, 95.000000)" fill="#D32C21" fill-rule="nonzero">
                        <g id="Layer13_0_FILL-link">
                            <g id="Layer13_0_FILL">
                                <path d="M27.65,30.7 L60,23.4 C56.4333333,15.6166667 51.6833333,7.83333333 45.75,0.05 L12.3,12.3 C11.0333333,12.8333333 9.86666667,13.6333333 8.8,14.7 C7.10377604,16.4018229 6.07044271,17.9184896 5.7,19.25 C5.32200521,20.5776042 4.67200521,24.7276042 3.75,31.7 C2.86510417,38.7075521 1.78177083,49.3242188 0.5,63.55 L16.95,66.55 L27.65,30.7 Z" id="Path"></path>
                            </g>
                        </g>
                    </g>
                    <g id="Group" transform="translate(178.000000, 97.000000)" fill="#E5625A" fill-rule="nonzero">
                        <g id="Layer12_0_FILL-link">
                            <g id="Layer12_0_FILL">
                                <path d="M58.5,23.75 L44.2,0.35 L10.8,12.65 C9.53190104,13.1847656 8.36523438,13.9847656 7.3,15.05 C5.60859375,16.7415365 4.59192708,18.7082031 4.25,20.95 C4.21197917,21.2136719 4.17864583,21.4803385 4.15,21.75 C2.40273437,35.4380208 1.20273437,49.0546875 0.55,62.6 L16.8,65.5 L26.15,31 L58.5,23.75 Z" id="Path"></path>
                            </g>
                        </g>
                    </g>
                    <g id="Group" transform="translate(203.000000, 44.000000)" fill="#CCD7F5" fill-rule="nonzero">
                        <g id="Layer11_0_FILL-link">
                            <g id="Layer11_0_FILL">
                                <path d="M46.9,0 L40.5,7.8 L37.15,0 L30.4,2.7 C26.2261719,4.31822917 23.0928385,7.36822917 21,11.85 L15.2,24.3 L13.25,7.95 L0.6,9.85 L3.65,35.9 C3.9171875,37.1005208 4.5171875,38.1671875 5.45,39.1 C6.71666667,40.3666667 8.23333333,41 10,41 C10.619401,41 11.2027344,40.9166667 11.75,40.75 L19.35,37.85 L19.35,37.9 C18.3608073,42.5552083 16.3608073,45.6052083 13.35,47.05 L12.45,47.5 C10.5854167,48.6548177 9.68541667,50.488151 9.75,53 L14.25,56.2 C19.0670573,59.459375 22.8670573,63.8760417 25.65,69.45 L28.25,74.45 C29.1542969,76.1882812 30.1709635,77.4549479 31.3,78.25 C33.6666667,79.9166667 36.5166667,80.75 39.85,80.75 C41.8221354,80.75 43.6221354,80.45 45.25,79.85 C48.2696615,78.7473958 49.7196615,76.3807292 49.6,72.75 L49.6,68.25 C49.613151,67.9130208 49.6298177,67.5796875 49.65,67.25 C49.9307292,62.1154948 50.8307292,57.4488281 52.35,53.25 L53.1,53.15 C59.5208333,52.0640625 63.0041667,46.0640625 63.55,35.15 L64.4,17.95 C64.8279948,8.88085938 61.3779948,3.44752604 54.05,1.65 L46.9,0 Z" id="Path"></path>
                            </g>
                        </g>
                    </g>
                    <g id="Group" transform="translate(222.000000, 86.000000)" fill="#F3BC90" fill-rule="nonzero">
                        <g id="Layer10_0_FILL-link">
                            <g id="Layer10_0_FILL">
                                <path d="M3.9,9.55 C4.23333333,9.55 4.55,9.5 4.85,9.4 L25.25,4 L13,0.75 L3.05,3.55 C3.01666667,3.55 2.98333333,3.55 2.95,3.55 C2.51666667,3.71666667 2.11666667,3.98333333 1.75,4.35 C1.15,4.95 0.85,5.66666667 0.85,6.5 C0.85,7.33333333 1.15,8.05 1.75,8.65 C2.35,9.25 3.06666667,9.55 3.9,9.55 Z" id="Path"></path>
                            </g>
                        </g>
                    </g>
                    <g id="Group" transform="translate(235.000000, 81.000000)" fill="#CCD8F5" fill-rule="nonzero">
                        <g id="Layer9_0_FILL-link">
                            <g id="Layer9_0_FILL">
                                <polygon id="Path" points="20.35 16.25 14.75 0.25 0 5.75 2.35 19.25"></polygon>
                            </g>
                        </g>
                    </g>
                    <g id="Group" transform="translate(237.000000, 33.000000)" fill="#FFFFFF" fill-rule="nonzero">
                        <g id="Layer8_0_FILL-link">
                            <g id="Layer8_0_FILL">
                                <path d="M5.9,1.1 C5.9,1 5.9,0.9 5.9,0.8 L0.65,0.8 C0.616666667,0.9 0.6,1 0.6,1.1 C0.6,1.83333333 0.85,2.45 1.35,2.95 C1.88333333,3.48333333 2.51666667,3.75 3.25,3.75 C3.98333333,3.75 4.6,3.48333333 5.1,2.95 C5.63333333,2.45 5.9,1.83333333 5.9,1.1 Z" id="Path"></path>
                            </g>
                        </g>
                    </g>
                    <g id="Group" transform="translate(132.000000, 86.000000)" fill="#070200" fill-rule="nonzero">
                        <g id="Layer6_0_FILL-link">
                            <g id="Layer6_0_FILL">
                                <path d="M13.25,0 L10.5,0 L10.5,89.9 L1.25,89.9 C0.916666667,89.9 0.616666667,90.0166667 0.35,90.25 C0.116666667,90.5166667 0,90.8 0,91.1 L0,92.4 L23.5,92.4 L23.5,91.15 C23.5,90.8166667 23.3666667,90.5166667 23.1,90.25 C22.8666667,90.0166667 22.5833333,89.9 22.25,89.9 L13.25,89.9 L13.25,0 Z" id="Path"></path>
                            </g>
                        </g>
                    </g>
                    <g id="Group" transform="translate(95.000000, 82.000000)" fill="#45465A" fill-rule="nonzero">
                        <g id="Layer5_0_FILL-link">
                            <g id="Layer5_0_FILL">
                                <path d="M3,0.5 C2.16666667,0.5 1.45,0.783333333 0.85,1.35 C0.283333333,1.95 0,2.66666667 0,3.5 C0,4.33333333 0.283333333,5.03333333 0.85,5.6 C1.45,6.2 2.16666667,6.5 3,6.5 L94.5,6.5 C95.3333333,6.5 96.0333333,6.2 96.6,5.6 C97.2,5.03333333 97.5,4.33333333 97.5,3.5 C97.5,2.66666667 97.2,1.95 96.6,1.35 C96.0333333,0.783333333 95.3333333,0.5 94.5,0.5 L3,0.5 Z" id="Path"></path>
                            </g>
                        </g>
                    </g>
                    <g id="Group" transform="translate(139.000000, 53.000000)" fill="#3F685A" fill-rule="nonzero">
                        <g id="Layer4_0_FILL-link">
                            <g id="Layer4_0_FILL">
                                <path d="M9.05,10.85 C10.3804687,8.54231771 11.2304687,6.39231771 11.6,4.4 C12.0111979,2.01914062 11.5445312,0.802473958 10.2,0.75 C8.80104167,0.661979167 7.06770833,1.82864583 5,4.25 C3.21276042,6.30729167 1.91276042,8.590625 1.1,11.1 C0.326302083,13.0515625 0.0596354167,14.6515625 0.3,15.9 C0.525911458,16.9356771 1.09257812,17.4190104 2,17.35 C2.9109375,17.2847656 3.99427083,16.6847656 5.25,15.55 C6.63736979,14.3154948 7.90403646,12.7488281 9.05,10.85 Z" id="Path"></path>
                            </g>
                        </g>
                    </g>
                    <g id="Group" transform="translate(134.000000, 46.000000)" fill="#509F73" fill-rule="nonzero">
                        <g id="Layer3_0_FILL-link">
                            <g id="Layer3_0_FILL">
                                <path d="M7.95,3.95 C7.06471354,1.58203125 6.03138021,0.398697917 4.85,0.399998927 C3.69804687,0.398697917 2.73138021,1.58203125 1.95,3.95 C1.20234375,6.35286458 0.869010417,9.21953125 0.95,12.55 C1.06419271,15.9136719 1.56419271,18.7803385 2.45,21.15 C3.36861979,23.5513021 4.40195312,24.7513021 5.55,24.7500011 C6.73528646,24.7513021 7.70195312,23.5513021 8.45,21.15 C9.23085938,18.7803385 9.56419271,15.9136719 9.45,12.55 C9.36901042,9.21953125 8.86901042,6.35286458 7.95,3.95 Z" id="Path"></path>
                            </g>
                        </g>
                    </g>
                    <g id="Group" transform="translate(133.000000, 68.000000)" fill="#923A39" fill-rule="nonzero">
                        <g id="Layer2_0_FILL-link">
                            <g id="Layer2_0_FILL">
                                <path d="M0,0.5 L0,12 L2.1,12 C2.26184896,13.1486979 2.92851562,13.9820313 4.1,14.5 L11.75,14.5 C12.9166667,13.9666667 13.5833333,13.1333333 13.75,12 L15.75,12 L15.75,0.5 L0,0.5 Z" id="Path"></path>
                            </g>
                        </g>
                    </g>
                    <g id="taza" transform="translate(98.000000, 72.000000)" fill="#FFFFFF" fill-rule="nonzero">
                        <path d="M2.55,1.7 C1.91666667,1.7 1.36666667,1.91666667 0.9,2.35 C0.433333333,2.81666667 0.2,3.36666667 0.2,4 C0.2,4.66666667 0.433333333,5.21666667 0.9,5.65 C1.36666667,6.11666667 1.91666667,6.35 2.55,6.35 L4.9,6.35 L4.9,8.4 L6.65,8.4 C6.78333333,9.33333333 7.33333333,10.0333333 8.3,10.5 L14.7,10.5 C15.6666667,10.0333333 16.2166667,9.33333333 16.35,8.4 L18,8.4 L18,0.5 L4.9,0.5 L4.9,3.8 C4.86666667,3.26666667 4.63333333,2.78333333 4.2,2.35 C3.73333333,1.91666667 3.18333333,1.7 2.55,1.7 M2.6,3.15 C2.83333333,3.15 3.03333333,3.23333333 3.2,3.4 C3.36666667,3.6 3.45,3.8 3.45,4 L3.45,4.95 L2.6,4.95 C2.33333333,4.95 2.11666667,4.85 1.95,4.65 C1.78333333,4.51666667 1.7,4.3 1.7,4 C1.7,3.8 1.78333333,3.6 1.95,3.4 C2.11666667,3.23333333 2.33333333,3.15 2.6,3.15 Z" id="Shape"></path>
                    </g>
                    <path d="M110.714343,17 C116.68005,17 122.268625,19.3314377 126.485611,23.5141601 C130.668791,27.7313749 133.000114,33.3199497 133.000114,39.2856572 C133.000114,40.2112424 132.245963,41 131.285886,41 C130.325808,41 129.571543,40.2113566 129.571543,39.2856572 C129.571543,34.245535 127.617238,29.5141315 124.051496,25.948504 C120.485754,22.3827623 115.754351,20.4284572 110.714343,20.4284572 C109.788529,20.4284572 109,19.6740778 109,18.7142286 C109,17.7541509 109.788415,17 110.714343,17 Z M110.714457,23.8572571 C114.863144,23.8572571 118.737376,25.4685794 121.617266,28.3829622 C124.531649,31.2627384 126.142971,35.1369704 126.142971,39.2856572 C126.142971,40.2112424 125.38882,41 124.428743,41 C123.468665,41 122.7144,40.2113566 122.7144,39.2856572 C122.7144,36.062784 121.480096,33.0456092 119.217186,30.7826995 C116.954619,28.5199041 113.93733,27.2857143 110.714457,27.2857143 C109.788643,27.2857143 109.000114,26.5313349 109.000114,25.5714857 C109.000114,24.611408 109.788529,23.8572571 110.714457,23.8572571 Z M110.714457,30.7142857 C113.011517,30.7142857 115.171634,31.6057211 116.783185,33.2170435 C118.394393,34.8285943 119.285828,36.9884835 119.285828,39.2856572 C119.285828,40.2112424 118.531678,41 117.5716,41 C116.645786,41 115.857257,40.2113566 115.857257,39.2856572 C115.857257,37.9140687 115.34284,36.6112367 114.348727,35.6513875 C113.388878,34.6569316 112.085931,34.1428571 110.714457,34.1428571 C109.788643,34.1428571 109.000114,33.3542138 109.000114,32.4285143 C109.000114,31.4684367 109.788529,30.7142857 110.714457,30.7142857 Z" id="Combined-Shape" fill="#70C1FF" fill-rule="nonzero"></path>
                    <path d="M161.714343,51 C167.68005,51 173.268625,53.3314377 177.485611,57.5141601 C181.668791,61.7313749 184.000114,67.3199497 184.000114,73.2856572 C184.000114,74.2112424 183.245963,75 182.285886,75 C181.325808,75 180.571543,74.2113566 180.571543,73.2856572 C180.571543,68.245535 178.617238,63.5141315 175.051496,59.948504 C171.485754,56.3827623 166.754351,54.4284572 161.714343,54.4284572 C160.788529,54.4284572 160,53.6740778 160,52.7142286 C160,51.7541509 160.788415,51 161.714343,51 Z M161.714457,57.8572571 C165.863144,57.8572571 169.737376,59.4685794 172.617266,62.3829622 C175.531649,65.2627384 177.142971,69.1369704 177.142971,73.2856572 C177.142971,74.2112424 176.38882,75 175.428743,75 C174.468665,75 173.7144,74.2113566 173.7144,73.2856572 C173.7144,70.062784 172.480096,67.0456092 170.217186,64.7826995 C167.954619,62.5199041 164.93733,61.2857143 161.714457,61.2857143 C160.788643,61.2857143 160.000114,60.5313349 160.000114,59.5714857 C160.000114,58.611408 160.788529,57.8572571 161.714457,57.8572571 Z M161.714457,64.7142857 C164.011517,64.7142857 166.171634,65.6057211 167.783185,67.2170435 C169.394393,68.8285943 170.285828,70.9884835 170.285828,73.2856572 C170.285828,74.2112424 169.531678,75 168.5716,75 C167.645786,75 166.857257,74.2113566 166.857257,73.2856572 C166.857257,71.9140687 166.34284,70.6112367 165.348727,69.6513875 C164.388878,68.6569316 163.085931,68.1428571 161.714457,68.1428571 C160.788643,68.1428571 160.000114,67.3542138 160.000114,66.4285143 C160.000114,65.4684367 160.788529,64.7142857 161.714457,64.7142857 Z" id="Combined-Shape" fill="#70C1FF" fill-rule="nonzero" transform="translate(172.000057, 63.000000) scale(-1, 1) rotate(-44.000000) translate(-172.000057, -63.000000) "></path>
                </g>
                <g id="logo" transform="translate(123.000000, 8.000000)" fill-rule="nonzero">
                    <path d="M17.7053971,48 C28.1861221,48 35.4075477,43.0209657 35.4075477,23.9991884 C35.4075477,4.97822265 28.1861221,0 17.7053971,0 C7.22548357,0 -8.17124146e-14,4.97903423 -8.17124146e-14,23.9991884 C-8.17124146e-14,43.0209657 7.22467199,48 17.7053971,48 L17.7053971,48 L17.7053971,48 Z" id="Path" fill="#0060A9"></path>
                    <path d="M16.1487894,3.3631814 L28.5781145,15.7916949 L20.3714324,23.9983769 L28.5797377,32.2074936 L16.149601,44.636007 L16.149601,28.2494251 L9.31367511,35.0877857 L6.82699851,32.6002976 L15.4070067,23.9983769 L6.82781009,15.3972677 L9.31448669,12.9114027 L16.1487894,19.7489517 L16.1487894,3.3631814 Z M19.6466928,28.2112809 L19.6442581,36.1452725 L23.6128771,32.1774653 L19.6466928,28.2112809 Z M19.6442581,11.8514811 L19.6466928,19.7854728 L23.6128771,15.8201001 L19.6442581,11.8514811 Z" id="Combined-Shape" fill="#FFFFFF"></path>
                </g>
            </g>
        </g>
    </g>
</svg>