<?xml version="1.0" encoding="UTF-8" standalone="no"?><!DOCTYPE svg PUBLIC "-//W3C//DTD SVG 1.1//EN" "http://www.w3.org/Graphics/SVG/1.1/DTD/svg11.dtd"><svg width="100%" height="100%" viewBox="0 0 34 34" version="1.1" xmlns="http://www.w3.org/2000/svg" xmlns:xlink="http://www.w3.org/1999/xlink" xml:space="preserve" xmlns:serif="http://www.serif.com/" style="fill-rule:evenodd;clip-rule:evenodd;stroke-linejoin:round;stroke-miterlimit:2;"><rect id="icon-salir-black" x="0" y="0" width="34" height="34" style="fill:none;"/><path d="M11.238,6.9l3.743,1.839c0.342,0.168 0.559,0.516 0.559,0.898l0,13.726l4.83,0l0,-3.354c0,-0.552 0.448,-1 1,-1c0.551,0 1,0.448 1,1l0,4.354c0,0.553 -0.448,1 -1,1l-5.83,0l0,2.737c0,0.345 -0.179,0.666 -0.472,0.849c-0.293,0.182 -0.659,0.201 -0.969,0.048l-7.605,-3.736c-0.342,-0.168 -0.559,-0.516 -0.559,-0.898l0,-18.463l0,-0.017c0.003,-0.18 0.054,-0.349 0.14,-0.494c0.081,-0.135 0.193,-0.252 0.331,-0.338c0.006,-0.003 0.011,-0.006 0.016,-0.009c0.147,-0.088 0.318,-0.14 0.501,-0.142l0.012,0l14.435,0c0.552,0 1,0.448 1,1l0,4.709c0,0.552 -0.449,1 -1,1c-0.552,0 -1,-0.448 -1,-1l0,-3.709l-9.132,0Zm-3.303,16.841l5.605,2.753l0,-16.235l-5.605,-2.753l0,16.235Zm16.716,-9.432l-1.078,-1.078c-0.39,-0.39 -0.39,-1.024 0,-1.414c0.39,-0.39 1.024,-0.39 1.414,0l2.785,2.785c0.12,0.12 0.203,0.263 0.25,0.415l0,0.003c0.026,0.084 0.04,0.173 0.043,0.265l0,0.024l0,0.024c-0.003,0.092 -0.017,0.181 -0.043,0.265l0,0.003c-0.047,0.152 -0.13,0.295 -0.25,0.415l-2.785,2.785c-0.39,0.391 -1.024,0.391 -1.414,0c-0.39,-0.39 -0.39,-1.024 0,-1.414l1.078,-1.078l-5.439,0c-0.552,0 -1,-0.448 -1,-1c0,-0.552 0.448,-1 1,-1l5.439,0Zm-12.86,2.691c0.509,0 0.922,0.413 0.922,0.922c0,0.509 -0.413,0.922 -0.922,0.922c-0.509,0 -0.922,-0.413 -0.922,-0.922c0,-0.509 0.413,-0.922 0.922,-0.922Z" style="fill:#4a4a4a;"/></svg>