<?xml version="1.0" encoding="UTF-8"?>
<svg width="32px" height="20px" viewBox="0 0 32 20" version="1.1" xmlns="http://www.w3.org/2000/svg" xmlns:xlink="http://www.w3.org/1999/xlink">
    <!-- Generator: Sketch 64 (93537) - https://sketch.com -->
    <title>memory</title>
    <desc>Created with Sketch.</desc>
    <g id="Ciudadano-v2" stroke="none" stroke-width="1" fill="none" fill-rule="evenodd">
        <g id="09.09.-Espacio" transform="translate(-31.000000, -116.000000)" fill="#000000" fill-rule="nonzero">
            <g id="memory" transform="translate(31.000000, 116.000000)">
                <path d="M24,4.75675676 L20.8,4.75675676 L20.8,11.0990991 L24,11.0990991 L24,4.75675676 Z M17.6,4.75675676 L14.4,4.75675676 L14.4,11.0990991 L17.6,11.0990991 L17.6,4.75675676 Z M11.2,4.75675676 L8,4.75675676 L8,11.0990991 L11.2,11.0990991 L11.2,4.75675676 Z M31.6,4.75675676 L32,4.75675676 L32,1.58558559 C32,0.710045045 31.2835,0 30.4,0 L1.6,0 C0.7165,0 0,0.710045045 0,1.58558559 L0,4.75675676 L0.4,4.75675676 C1.063,4.75675676 1.6,5.28891892 1.6,5.94594595 C1.6,6.60247748 1.063,7.13513514 0.4,7.13513514 L0,7.13513514 L0,19.027027 L32,19.027027 L32,7.13513514 L31.6,7.13513514 C30.9375,7.13513514 30.4,6.60247748 30.4,5.94594595 C30.4,5.28891892 30.9375,4.75675676 31.6,4.75675676 Z M29.6,16.6486486 L26.4,16.6486486 C26.4,16.2106306 26.042,15.8558559 25.6,15.8558559 C25.158,15.8558559 24.8,16.2106306 24.8,16.6486486 L20,16.6486486 C20,16.2106306 19.642,15.8558559 19.2,15.8558559 C18.758,15.8558559 18.4,16.2106306 18.4,16.6486486 L13.6,16.6486486 C13.6,16.2106306 13.242,15.8558559 12.8,15.8558559 C12.358,15.8558559 12,16.2106306 12,16.6486486 L7.2,16.6486486 C7.2,16.2106306 6.842,15.8558559 6.4,15.8558559 C5.958,15.8558559 5.6,16.2106306 5.6,16.6486486 L2.4,16.6486486 L2.4,14.2702703 L29.6,14.2702703 L29.6,16.6486486 Z M29.6,2.9809009 C28.6355,3.62157658 28,4.71166667 28,5.94594595 C28,7.18022523 28.6355,8.27031532 29.6,8.91099099 L29.6,12.6846847 L2.4,12.6846847 L2.4,8.91099099 C3.3645,8.27031532 4,7.18022523 4,5.94594595 C4,4.71166667 3.3645,3.62157658 2.4,2.9809009 L2.4,2.37837838 L29.6,2.37837838 L29.6,2.9809009 Z" id="Shape"></path>
            </g>
        </g>
    </g>
</svg>