<?xml version="1.0" encoding="UTF-8" standalone="no"?><!DOCTYPE svg PUBLIC "-//W3C//DTD SVG 1.1//EN" "http://www.w3.org/Graphics/SVG/1.1/DTD/svg11.dtd"><svg width="100%" height="100%" viewBox="0 0 253 253" version="1.1" xmlns="http://www.w3.org/2000/svg" xmlns:xlink="http://www.w3.org/1999/xlink" xml:space="preserve" xmlns:serif="http://www.serif.com/" style="fill-rule:evenodd;clip-rule:evenodd;stroke-linejoin:round;stroke-miterlimit:2;"><g id="icon-salir"><circle cx="126.746" cy="126.836" r="126.055" style="fill:#e3ddf0;"/><rect x="87.783" y="38.608" width="84.104" height="176.957" style="fill:#522d2d;"/><g><path d="M175.067,40.236l-9.314,0l-3.181,175.33l9.314,0l3.181,-175.33Z" style="fill:#9a6f4c;"/><path d="M175.944,215.566l9.162,-182.044l-115.526,0l6.374,182.044l10.06,0l-4.012,-171.763l87.568,-0.17l-3.615,171.933l9.989,0Z" style="fill:#b38865;"/><path d="M166.666,138.456l-1.756,0l-0.035,10.922l1.756,0l0.035,-10.922Z" style="fill:#7f5c3f;"/><path d="M151.316,116.358l0,-16.812c0,-0.968 0.553,-1.852 1.424,-2.276c0.871,-0.424 1.907,-0.313 2.669,0.284c8.744,6.855 29.026,22.758 36.164,28.355c0.612,0.479 0.969,1.214 0.969,1.992c0,0.777 -0.357,1.512 -0.969,1.992c-7.138,5.596 -27.42,21.499 -36.164,28.354c-0.762,0.598 -1.798,0.708 -2.669,0.284c-0.871,-0.424 -1.424,-1.307 -1.424,-2.276l0,-16.812l-41.278,0c-3.186,0 -5.771,-2.586 -5.771,-5.771l0,-11.542c0,-3.186 2.585,-5.772 5.771,-5.772l41.278,0Z" style="fill:#9cd56a;"/><g><path d="M116.605,12.71l-34.603,31.093l0,170.509l31.594,26.579l4.388,0l2.652,-228.181l-4.031,0Z" style="fill:#b38865;"/><path d="M119.363,129.725c0,0 4.72,-0.807 4.72,4.72c0,5.526 -4.72,3.733 -4.72,3.733l0,-8.453Z" style="fill:#7f5c3f;"/><path d="M116.605,12.71l5.767,0l-3.009,228.181l-5.767,0l3.009,-228.181Z" style="fill:#9a6f4c;"/><path d="M87.769,161.404l22.317,7.773l-1.254,46.389l-20.812,-14.544l-0.251,-39.618Z" style="fill:#9a6f4c;"/><path d="M87.769,104.735l22.317,-7.021l0,54.185l-22.317,-4.537l0,-42.627Z" style="fill:#9a6f4c;"/><path d="M86.014,54.585l24.072,-21.063l0,50.902l-22.317,8.776l-1.755,-38.615Z" style="fill:#9a6f4c;"/><path d="M82.002,43.803l-2.393,0.563l0.007,171.2l1.797,0l0.589,-171.763Z" style="fill:#9a6f4c;"/><path d="M111.841,129.725c0,0 -4.719,-0.807 -4.719,4.72c0,5.526 4.719,3.733 4.719,3.733l0,-8.453Z" style="fill:#7f5c3f;"/><rect x="110.086" y="132.405" width="3.51" height="3.33" style="fill:#7f5c3f;"/><rect x="116.788" y="138.456" width="2.393" height="10.922" style="fill:#7f5c3f;"/></g></g><path d="M172.58,114.814c0,0 -4.079,-3.452 -10.983,-9.257c-6.905,-5.806 -7.532,-10.357 -8.003,-0.942c-0.471,9.415 2.825,5.649 3.295,2.668c0.471,-2.982 18.202,14.279 15.691,7.531Z" style="fill:#80c940;"/><path d="M170.103,142.698c0,0 4.273,-3.21 11.468,-8.65c7.196,-5.441 11.772,-5.041 2.697,-7.593c-9.074,-2.552 -6.135,1.498 -3.333,2.619c2.802,1.122 -17.968,14.572 -10.832,13.624Z" style="fill:#b0de89;"/></g></svg>