<?xml version="1.0" encoding="UTF-8" standalone="no"?><!DOCTYPE svg PUBLIC "-//W3C//DTD SVG 1.1//EN" "http://www.w3.org/Graphics/SVG/1.1/DTD/svg11.dtd"><svg width="100%" height="100%" viewBox="0 0 34 25" version="1.1" xmlns="http://www.w3.org/2000/svg" xmlns:xlink="http://www.w3.org/1999/xlink" xml:space="preserve" xmlns:serif="http://www.serif.com/" style="fill-rule:evenodd;clip-rule:evenodd;stroke-linecap:round;stroke-linejoin:round;stroke-miterlimit:1.5;"><g id="icon-ambulancia-2"><path d="M3.087,17.193l0,1.834c0,0.925 0.75,1.676 1.675,1.676c0.674,0 1.528,0 2.514,0" style="fill:none;stroke:#4a4a4a;stroke-width:2px;"/><path d="M13.373,20.703c2.707,0 5.641,0 8.393,0" style="fill:none;stroke:#4a4a4a;stroke-width:2px;"/><path d="M27.863,20.703l3.428,0c0.925,0 1.675,-0.751 1.675,-1.676c0,-1.547 0,-3.79 0,-5.04c0,-0.578 -0.298,-1.115 -0.788,-1.421c-0.608,-0.379 -1.431,-0.893 -1.968,-1.228c-0.352,-0.219 -0.61,-0.562 -0.724,-0.961c-0.441,-1.543 -1.591,-5.573 -2.173,-7.61c-0.205,-0.72 -0.862,-1.216 -1.611,-1.216c-4.004,0 -16.413,0 -20.94,0c-0.925,0 -1.675,0.75 -1.675,1.676c0,1.858 0,3.48 0,6.598" style="fill:none;stroke:#4a4a4a;stroke-width:2px;"/><circle cx="10.325" cy="20.646" r="3.049" style="fill:none;stroke:#4a4a4a;stroke-width:2px;"/><circle cx="24.814" cy="20.646" r="3.049" style="fill:none;stroke:#4a4a4a;stroke-width:2px;"/><path d="M18.933,4.555l0,6.442l7.154,0c0,0 -0.709,-3.313 -1.111,-5.187c-0.156,-0.732 -0.803,-1.255 -1.551,-1.255c-1.701,0 -4.492,0 -4.492,0Z" style="fill:none;stroke:#4a4a4a;stroke-width:2px;"/><path d="M11.333,5.79l0,4.92" style="fill:none;stroke:#4a4a4a;stroke-width:3px;stroke-linecap:square;"/><path d="M8.872,8.25l4.921,0" style="fill:none;stroke:#4a4a4a;stroke-width:3px;stroke-linecap:square;"/><path d="M6.007,12.321l-4.165,0" style="fill:none;stroke:#4a4a4a;stroke-width:2px;"/><path d="M5.011,14.796l-1.924,0" style="fill:none;stroke:#4a4a4a;stroke-width:2px;"/></g></svg>