<?xml version="1.0" encoding="UTF-8"?>
<svg width="227px" height="230px" viewBox="0 0 227 230" version="1.1" xmlns="http://www.w3.org/2000/svg" xmlns:xlink="http://www.w3.org/1999/xlink">
    <!-- Generator: Sketch 64 (93537) - https://sketch.com -->
    <title>Group 3</title>
    <desc>Created with Sketch.</desc>
    <defs>
        <linearGradient x1="94.1926657%" y1="28.2058099%" x2="-14.464333%" y2="9.47280089%" id="linearGradient-1">
            <stop stop-color="#FFEEDF" offset="0%"></stop>
            <stop stop-color="#FFFFFF" offset="100%"></stop>
        </linearGradient>
    </defs>
    <g id="Page-1" stroke="none" stroke-width="1" fill="none" fill-rule="evenodd">
        <g id="00.02.03.-Intro-III---v02" transform="translate(-28.000000, -104.000000)">
            <g id="Group-3" transform="translate(28.000000, 84.000000)">
                <path d="M69.2942095,32.2313908 C82.7468269,22.5895364 108.01085,22.5895364 155.585856,32.2313908 C203.160861,41.8732452 224.856176,57.3142557 230.492841,72.7552662 C236.129505,88.1962767 235.986858,107.822001 205.483034,147.873696 C174.97921,187.92539 151.579539,211 120.447124,211 C89.3147079,211 65.3415733,165.609992 55.841592,112.401104 C46.3416107,59.1922164 55.841592,41.8732452 69.2942095,32.2313908 Z" id="Path-2" fill="url(#linearGradient-1)" transform="translate(142.670911, 118.000000) rotate(-70.000000) translate(-142.670911, -118.000000) "></path>
                <g id="life-line" transform="translate(0.000000, 25.000000)" fill="#FD6262" fill-rule="nonzero">
                    <path d="M46.9491525,2.57627119 L46.8135593,2.81355932 C46.7909605,2.89265537 46.7683616,2.97175141 46.7457627,3.05084746 L38.1016949,29.3220339 L3.93220339,29.3220339 C2.93785311,29.3220339 2.07909605,29.6723164 1.3559322,30.3728814 C0.655367232,31.0960452 0.305084746,31.9548023 0.305084746,32.9491525 L0.305084746,32.9830508 C0.305084746,33.9774011 0.655367232,34.8248588 1.3559322,35.5254237 C2.07909605,36.2485876 2.93785311,36.6101695 3.93220339,36.6101695 L40.7457627,36.6101695 C41.740113,36.6101695 42.5875706,36.2485876 43.2881356,35.5254237 C43.6271186,35.2090395 43.8870056,34.8587571 44.0677966,34.4745763 C44.1581921,34.2485876 44.2372881,34.0112994 44.3050847,33.7627119 L48.440678,21.220339 L52.8813559,61.4237288 C52.8587571,61.4689266 52.8587571,61.5254237 52.8813559,61.5932203 C52.8813559,62.1129944 53.0056497,62.6327684 53.2542373,63.1525424 C53.6836158,64.0338983 54.3728814,64.6327684 55.3220339,64.9491525 L55.3559322,64.9830508 C56.3050847,65.299435 57.2316384,65.2429379 58.1355932,64.8135593 C59.039548,64.3389831 59.6497175,63.6384181 59.9661017,62.7118644 L68.8813559,36.6101695 L99.0508475,36.6101695 C100.045198,36.6101695 100.892655,36.2485876 101.59322,35.5254237 C102.316384,34.8248588 102.677966,33.9774011 102.677966,32.9830508 L102.677966,32.9491525 C102.677966,31.9548023 102.316384,31.0960452 101.59322,30.3728814 C100.892655,29.6723164 100.045198,29.3220339 99.0508475,29.3220339 L66.3050847,29.3220339 C66.2372881,29.3220339 66.1694915,29.3220339 66.1016949,29.3220339 C65.1299435,29.3220339 64.2937853,29.6723164 63.5932203,30.3728814 C63.3446328,30.6214689 63.1412429,30.9039548 62.9830508,31.220339 L58.3728814,44.7457627 L53.8305085,3.72881356 C53.7175141,2.73446328 53.2768362,1.94350282 52.5084746,1.3559322 C51.7175141,0.700564972 50.8248588,0.429378531 49.8305085,0.542372881 L49.7966102,0.542372881 C48.8022599,0.655367232 48,1.10734463 47.3898305,1.89830508 C47.2090395,2.12429379 47.0621469,2.35028249 46.9491525,2.57627119 M117.830508,29.1525424 C116.700565,28.0225989 115.333333,27.4576271 113.728814,27.4576271 C112.124294,27.4576271 110.757062,28.0225989 109.627119,29.1525424 C108.497175,30.2824859 107.932203,31.6497175 107.932203,33.2542373 C107.932203,34.8587571 108.497175,36.2259887 109.627119,37.3559322 C110.757062,38.4858757 112.124294,39.0508475 113.728814,39.0508475 C115.333333,39.0508475 116.700565,38.4858757 117.830508,37.3559322 C118.960452,36.2259887 119.525424,34.8587571 119.525424,33.2542373 C119.525424,31.6497175 118.960452,30.2824859 117.830508,29.1525424 Z" id="Shape"></path>
                </g>
                <g id="girl-autotest" transform="translate(106.000000, 54.000000)">
                    <ellipse id="Oval" fill="#FFE9D6" cx="36" cy="192.553191" rx="36" ry="2.55319149"></ellipse>
                    <g id="Group" transform="translate(35.945736, 168.651163)" fill="#F4BC8D" fill-rule="nonzero">
                        <g id="Layer17_0_FILL-link">
                            <g id="Layer17_0_FILL">
                                <path d="M0.417829457,18.8403101 L2.27906977,21.3472868 L4.14031008,19.3341085 L4.14031008,13.6744186 L0.417829457,10.8635659 L0.417829457,18.8403101 M7.55891473,0.49379845 L6.57131783,4.25426357 L8.8503876,7.36899225 L11.4333333,7.78682171 L11.3953488,5.16589147 L9.19224806,2.16511628 L7.55891473,0.49379845 Z" id="Shape"></path>
                            </g>
                        </g>
                    </g>
                    <g id="Group" transform="translate(15.434109, 90.403101)" fill="#4E697E" fill-rule="nonzero">
                        <g id="Layer16_0_FILL-link">
                            <g id="Layer16_0_FILL">
                                <path d="M2.9627907,0.721705426 L0.227906977,9.00232558 C0.900845849,21.1786317 1.93908874,33.3336705 3.34263566,45.4674419 C3.76738937,49.2780584 5.02087775,52.595371 7.10310078,55.4193798 L19.144186,71.7906977 L19.144186,89.4155039 C19.1175771,90.9656472 19.6240371,91.8013061 20.6635659,91.9224806 L24.651938,91.9224806 L25.7155039,80.7550388 L27.0829457,82.6162791 L29.6658915,80.3751938 C30.3269602,79.3612847 30.3269602,78.1457808 29.6658915,76.7286822 L26.7031008,70.2333333 L32.4387597,10.255814 L2.9627907,0.721705426 Z" id="Path"></path>
                            </g>
                        </g>
                    </g>
                    <g id="Group" transform="translate(29.868217, 173.209302)" fill="#322F23" fill-rule="nonzero">
                        <g id="Layer15_0_FILL-link">
                            <g id="Layer15_0_FILL">
                                <path d="M6.49534884,15.6875969 L2.54496124,17.0550388 C1.05090439,17.5108527 0.240568475,18.2832041 0.113953488,19.372093 C0.088630491,19.827907 0.417829457,20.081137 1.10155039,20.1317829 L9.00232558,20.1317829 C9.88863049,20.1571059 10.2937984,19.751938 10.2178295,18.9162791 L10.2178295,14.2821705 L6.49534884,14.2821705 L6.49534884,15.6875969 M17.4728682,0.607751938 L14.927907,2.81085271 L15.8395349,4.02635659 L15.8395349,11.5093023 C15.8395349,12.9187843 16.2447028,13.8430737 17.0550388,14.2821705 C17.5021479,14.462498 17.8186854,14.335883 18.0046512,13.9023256 L20.3596899,5.96356589 C20.5017361,5.28251575 20.4131056,4.68742531 20.0937984,4.17829457 L17.4728682,0.607751938 Z" id="Shape"></path>
                            </g>
                        </g>
                    </g>
                    <g id="Group" transform="translate(13.914729, 31.147287)" fill="#FFFFFF" fill-rule="nonzero">
                        <g id="Layer14_0_FILL-link">
                            <g id="Layer14_0_FILL">
                                <polygon id="Path" points="36.9968992 71.0310078 23.6263566 0.189922481 0.721705426 65.3333333"></polygon>
                            </g>
                        </g>
                    </g>
                    <g id="Group" transform="translate(26.069767, 0.000000)" fill="#112258" fill-rule="nonzero">
                        <g id="Layer13_0_FILL-link">
                            <g id="Layer13_0_FILL">
                                <path d="M7.40697674,3.38062016 C7.13722747,3.65422723 6.8839975,3.9327802 6.64728682,4.21627907 C6.49742611,4.43350291 6.34548813,4.64874839 6.19147287,4.8620155 L6.22945736,4.8620155 L1.44341085,11.5093023 C1.32332445,11.6389838 1.20937096,11.7655988 1.10155039,11.8891473 C0.696382429,12.4973938 0.49379845,13.1811147 0.49379845,13.9403101 C0.49379845,14.902584 0.810335917,15.7002584 1.44341085,16.3333333 C2.10180879,17.0170543 2.9248062,17.3589147 3.9124031,17.3589147 C4.06908915,17.3589147 4.22102713,17.3462532 4.36821705,17.3209302 C4.31707647,17.3720708 4.26643047,17.4227168 4.21627907,17.4728682 C3.70981912,18.0046512 3.45658915,18.6377261 3.45658915,19.372093 C3.45658915,20.1317829 3.70981912,20.7521964 4.21627907,21.2333333 C4.72273902,21.7651163 5.35581395,22.0310078 6.11550388,22.0310078 C6.8498708,22.0310078 7.47028424,21.7651163 7.97674419,21.2333333 C8.27725694,20.9614079 8.49250242,20.6448704 8.62248062,20.2837209 L18.1945736,20.7015504 C18.2530342,20.811745 18.3036802,20.913037 18.3465116,21.0054264 C18.5251575,21.345902 18.7530644,21.6497779 19.0302326,21.9170543 C19.7645995,22.6767442 20.6762274,23.0565891 21.7651163,23.0565891 C22.8033592,23.0565891 23.6896641,22.6767442 24.424031,21.9170543 C25.1837209,21.2333333 25.5635659,20.3470284 25.5635659,19.2581395 C25.5635659,19.0113392 25.5382429,18.7707708 25.4875969,18.5364341 C25.4737484,18.3993338 25.4484254,18.2600573 25.4116279,18.1186047 L22.7906977,7.8248062 L22.7527132,7.78682171 C22.716707,7.57523619 22.666061,7.35999071 22.6007752,7.14108527 C22.1733507,5.75138687 21.4009993,4.4978985 20.2837209,3.38062016 C18.5111111,1.60801034 16.3713178,0.721705426 13.8643411,0.721705426 C11.3573643,0.721705426 9.20490956,1.60801034 7.40697674,3.38062016 Z" id="Path"></path>
                            </g>
                        </g>
                    </g>
                    <g id="Group" transform="translate(29.108527, 5.317829)" fill="#F4BC8D" fill-rule="nonzero">
                        <g id="Layer12_0_FILL-link">
                            <g id="Layer12_0_FILL">
                                <path d="M11.1294574,0.265891473 L11.0914729,0.265891473 C9.11627907,0.0379844961 7.38165375,0.544444444 5.8875969,1.78527132 C4.34289406,3.02609819 3.45658915,4.63410853 3.22868217,6.60930233 L2.9627907,9.04031008 C2.56771237,8.75720688 2.16254441,8.68123789 1.74728682,8.8124031 C1.24082687,8.93901809 0.873643411,9.29354005 0.645736434,9.87596899 C0.417829457,10.4330749 0.39250646,11.0408269 0.569767442,11.6992248 C0.747028424,12.3576227 1.07622739,12.8894057 1.55736434,13.2945736 C1.85283228,13.5278222 2.14404675,13.6670987 2.43100775,13.7124031 L2.35503876,14.6620155 C2.15245478,16.6372093 2.67157623,18.3971576 3.9124031,19.9418605 C4.20618944,20.3152758 4.52272691,20.6444747 4.8620155,20.9294574 L3.98837209,30.3116279 L11.5852713,31.2612403 L12.4209302,21.9930233 C12.9692325,21.7535429 13.4883539,21.4370054 13.9782946,21.0434109 C15.5229974,19.802584 16.3966408,18.1945736 16.5992248,16.2193798 L17.4728682,8.16666667 C17.7007752,6.19147287 17.1943152,4.43152455 15.9534884,2.88682171 C14.6873385,1.34211886 13.0793282,0.468475452 11.1294574,0.265891473 Z" id="Path"></path>
                            </g>
                        </g>
                    </g>
                    <g id="Group" transform="translate(34.426357, 13.674419)">
                        <g id="Layer11_0_FILL-link" transform="translate(0.000000, 2.279070)" fill="#333657" fill-rule="nonzero">
                            <g id="Layer11_0_FILL">
                                <path d="M0.49379845,0.645736434 C0.341860465,0.848320413 0.265891473,1.07622739 0.265891473,1.32945736 C0.265891473,1.58268734 0.341860465,1.78527132 0.49379845,1.9372093 C0.696382429,2.13979328 0.924289406,2.24108527 1.17751938,2.24108527 C1.43074935,2.24108527 1.63333333,2.13979328 1.78527132,1.9372093 C1.9878553,1.78527132 2.08914729,1.58268734 2.08914729,1.32945736 C2.08914729,1.07622739 1.9878553,0.848320413 1.78527132,0.645736434 C1.63333333,0.49379845 1.43074935,0.417829457 1.17751938,0.417829457 C0.924289406,0.417829457 0.696382429,0.49379845 0.49379845,0.645736434 Z" id="Path"></path>
                            </g>
                        </g>
                        <g id="Layer11_0_1_STROKES-link" stroke="#112258" stroke-linecap="round" stroke-linejoin="round">
                            <path d="M0.0379844961,0.835658915 C1.12687339,0.658397933 2.15245478,0.633074935 3.11472868,0.759689922" id="Layer11_0_1_STROKES"></path>
                        </g>
                    </g>
                    <g id="Group" transform="translate(35.186047, 22.790698)" fill="#FFFFFF" fill-rule="nonzero">
                        <g id="Layer10_0_FILL-link">
                            <g id="Layer10_0_FILL">
                                <path d="M5.12790698,2.01317829 C5.46966852,1.68763929 5.6975755,1.30779433 5.81162791,0.873643411 L0.607751938,0.341860465 C0.651176922,0.993037387 0.904406896,1.55014333 1.36744186,2.01317829 C1.89922481,2.54496124 2.53229974,2.81085271 3.26666667,2.81085271 C4.00103359,2.81085271 4.62144703,2.54496124 5.12790698,2.01317829 Z" id="Path"></path>
                            </g>
                        </g>
                    </g>
                    <g id="Group" transform="translate(29.868217, 0.000000)" fill="#112258" fill-rule="nonzero">
                        <g id="Layer9_0_FILL-link">
                            <g id="Layer9_0_FILL">
                                <path d="M2.39302326,4.8620155 L2.43100775,4.8620155 L0.0379844961,8.16666667 L2.69689922,10.8255814 C3.13431444,8.84583737 4.29917232,7.69364099 6.19147287,7.36899225 C7.51163194,7.38125807 8.51189034,8.02699451 9.19224806,9.30620155 L14.396124,20.7015504 C14.4545845,20.811745 14.5052305,20.913037 14.548062,21.0054264 C14.7267078,21.345902 14.9546148,21.6497779 15.2317829,21.9170543 C15.9661499,22.6767442 16.8777778,23.0565891 17.9666667,23.0565891 C19.0049096,23.0565891 19.8912145,22.6767442 20.6255814,21.9170543 C21.3852713,21.2333333 21.7651163,20.3470284 21.7651163,19.2581395 C21.7651163,19.0113392 21.7397933,18.7707708 21.6891473,18.5364341 C21.6752988,18.3993338 21.6499758,18.2600573 21.6131783,18.1186047 L18.9922481,7.8248062 L18.9542636,7.78682171 C18.9182574,7.57523619 18.8676114,7.35999071 18.8023256,7.14108527 C18.3749011,5.75138687 17.6025497,4.4978985 16.4852713,3.38062016 C14.7126615,1.60801034 12.5728682,0.721705426 10.0658915,0.721705426 C7.55891473,0.721705426 5.40645995,1.60801034 3.60852713,3.38062016 C3.33877786,3.65422723 3.08554788,3.9327802 2.84883721,4.21627907 C2.6989765,4.43350291 2.54703852,4.64874839 2.39302326,4.8620155 Z" id="Path"></path>
                            </g>
                        </g>
                    </g>
                    <g id="Group" transform="translate(1.000000, 96.480620)" fill="#F4BC8D" fill-rule="nonzero">
                        <g id="Layer8_0_FILL-link">
                            <g id="Layer8_0_FILL">
                                <path d="M5.65968992,3.60852713 L4.67209302,0.531782946 L1.59534884,2.88682171 L1.36744186,4.29224806 C1.2123385,5.11742167 0.921124031,5.8517886 0.49379845,6.49534884 C0.164599483,7.07154595 0,7.72994388 0,8.47054264 C0,9.16969477 0.139276486,9.7901082 0.417829457,10.3317829 C0.544048773,10.5315972 0.683325258,10.7215197 0.835658915,10.9015504 C1.41808786,11.5852713 2.11447028,11.9271318 2.9248062,11.9271318 C3.49813469,11.9271318 4.00459464,11.7498708 4.44418605,11.3953488 C4.63579013,11.266162 4.81305111,11.1015625 4.97596899,10.9015504 C5.55839793,10.2431525 5.8496124,9.43281654 5.8496124,8.47054264 C5.8496124,8.19060481 5.82428941,7.92471334 5.77364341,7.67286822 C5.75405766,7.55406775 5.72873466,7.44011426 5.69767442,7.33100775 C5.47253714,6.66232235 5.38390665,5.90263243 5.43178295,5.05193798 L5.65968992,3.60852713 Z" id="Path"></path>
                            </g>
                        </g>
                    </g>
                    <g id="Group" transform="translate(2.519380, 28.108527)" fill="#FC6262" fill-rule="nonzero">
                        <g id="Layer7_0_FILL-link">
                            <g id="Layer7_0_FILL">
                                <path d="M12.8007752,9.87596899 C12.7664507,9.98942789 12.7284662,10.1033814 12.6868217,10.2178295 L3.98837209,41.3271318 C3.25054304,44.0640928 2.70609859,46.9509145 2.35503876,49.9875969 L0.0759689922,71.2209302 L4.14031008,71.9806202 L7.14108527,58.951938 C8.31731872,66.1840278 10.1658975,72.1729167 12.6868217,76.9186047 L34.603876,6.49534884 L46.4550388,79.2736434 C54.2974524,72.3902394 57.716057,64.4008337 56.7108527,55.3054264 L56.4449612,53.5581395 C56.9604227,53.253769 57.4415597,52.873924 57.8883721,52.4186047 C59.255814,51.0764858 59.9395349,49.4431525 59.9395349,47.5186047 C59.9395349,47.494073 59.9395349,47.46875 59.9395349,47.4426357 L55.6852713,15.1937984 C55.6788417,14.7242349 55.6281957,14.2684209 55.5333333,13.8263566 C55.2148175,12.0834222 54.3918201,10.5387193 53.0643411,9.19224806 C52.1638909,8.30445938 51.176294,7.63339995 50.1015504,7.17906977 C50.0172723,7.15859375 49.9286418,7.13327075 49.8356589,7.10310078 C49.7195292,7.04632187 49.5929142,6.99567587 49.455814,6.95116279 L38.6682171,3.34263566 L38.820155,1.55736434 L31.2232558,0.68372093 L31.0333333,2.84883721 L21.6131783,3.41860465 C21.5969557,3.41860465 21.5716328,3.41860465 21.5372093,3.41860465 C21.1480661,3.41860465 20.7682211,3.43126615 20.3976744,3.45658915 C18.3751978,3.70645591 16.6152495,4.58009932 15.1178295,6.07751938 C14.1022388,7.09311006 13.3678719,8.21998345 12.9147287,9.45813953 C12.8799096,9.59850412 12.8419251,9.7377806 12.8007752,9.87596899 Z" id="Path"></path>
                            </g>
                        </g>
                    </g>
                    <g id="Group" transform="translate(29.868217, 30.387597)" fill="#FFFFFF" fill-rule="nonzero">
                        <g id="Layer6_0_FILL-link">
                            <g id="Layer6_0_FILL">
                                <path d="M2.73488372,11.0155039 C3.28951672,11.8197069 3.88460715,12.4781048 4.52015504,12.9906977 L5.01395349,11.3953488 C4.58929869,10.9927527 4.18413073,10.5116158 3.79844961,9.95193798 C2.48165375,8.02739018 1.82325581,5.69767442 1.82325581,2.9627907 C1.82325581,2.16650113 1.87390181,1.39414971 1.9751938,0.645736434 L0.569767442,0.759689922 C0.49379845,1.44123466 0.455813953,2.15027859 0.455813953,2.88682171 C0.455813953,6.07751938 1.21550388,8.7870801 2.73488372,11.0155039 M13.2565891,1.70930233 C13.7124031,3.07476583 13.9403101,4.58148417 13.9403101,6.22945736 C13.9403101,9.04031008 13.2565891,11.4333333 11.8891473,13.4085271 C11.0847464,14.6076106 10.1731185,15.4432695 9.15426357,15.9155039 L9.38217054,17.3968992 C10.7303234,16.9021116 11.9205043,15.8891917 12.9527132,14.3581395 C14.497416,12.1297158 15.2697674,9.42015504 15.2697674,6.22945736 C15.2697674,4.80187339 15.1178295,3.45975452 14.8139535,2.20310078 L13.2565891,1.70930233 Z" id="Shape"></path>
                            </g>
                        </g>
                    </g>
                    <g id="Group" transform="translate(28.348837, 56.217054)" fill="#322F23" fill-rule="nonzero">
                        <g id="Layer5_0_FILL-link">
                            <g id="Layer5_0_FILL">
                                <path d="M0.949612403,0.721705426 C0.49379845,0.721705426 0.265891473,0.987596899 0.265891473,1.51937984 L0.265891473,13.7503876 C0.265891473,14.3074935 0.49379845,14.5860465 0.949612403,14.5860465 L5.05193798,14.5860465 C5.53307494,14.5860465 5.77364341,14.3074935 5.77364341,13.7503876 L5.77364341,1.51937984 C5.77364341,0.987596899 5.53307494,0.721705426 5.05193798,0.721705426 L0.949612403,0.721705426 Z" id="Path"></path>
                            </g>
                        </g>
                    </g>
                    <g id="Group" transform="translate(26.829457, 58.496124)" fill="#F4BC8D" fill-rule="nonzero">
                        <g id="Layer4_0_FILL-link">
                            <g id="Layer4_0_FILL">
                                <path d="M2.39302326,4.02635659 C1.99369146,3.62811289 1.79110748,3.03302245 1.78527132,2.24108527 L1.78527132,1.48139535 C1.65865633,0.822997416 1.36744186,0.506459948 0.911627907,0.531782946 C0.531782946,0.68372093 0.367183463,1.0255814 0.417829457,1.55736434 L0.835658915,5.46976744 C1.1544715,6.66291586 1.73690044,7.76446625 2.58294574,8.7744186 L5.39379845,11.9651163 C6.36744792,12.9630006 7.45633681,13.7986596 8.66046512,14.472093 L27.8426357,24.196124 L26.5511628,15.003876 L9.34418605,11.0155039 C9.32183059,9.13527132 8.65077116,7.22338501 7.33100775,5.27984496 C6.07593669,6.50326227 4.96172481,6.69318475 3.98837209,5.8496124 L2.39302326,4.02635659 Z" id="Path"></path>
                            </g>
                        </g>
                    </g>
                </g>
            </g>
        </g>
    </g>
</svg>