<?xml version="1.0" encoding="UTF-8"?>
<svg width="235px" height="158px" viewBox="0 0 235 158" version="1.1" xmlns="http://www.w3.org/2000/svg" xmlns:xlink="http://www.w3.org/1999/xlink">
    <!-- Generator: Sketch 64 (93537) - https://sketch.com -->
    <title>Group 2</title>
    <desc>Created with Sketch.</desc>
    <defs>
        <linearGradient x1="50%" y1="0%" x2="50%" y2="100%" id="linearGradient-1">
            <stop stop-color="#FFEEAD" offset="0%"></stop>
            <stop stop-color="#FFFFFF" offset="100%"></stop>
        </linearGradient>
    </defs>
    <g id="Page-1" stroke="none" stroke-width="1" fill="none" fill-rule="evenodd">
        <g id="09.10.02.-Desactivar-traceo" transform="translate(-42.000000, -88.000000)">
            <g id="Group-2" transform="translate(40.000000, 88.000000)">
                <g id="Group-6" transform="translate(0.000000, 11.000000)">
                    <g id="Group" transform="translate(13.798838, 55.063326) scale(-1, -1) rotate(30.000000) translate(-13.798838, -55.063326) translate(1.298838, 50.063326)" fill="#F3BC90" fill-rule="nonzero">
                        <g id="Layer35_0_FILL-link" transform="translate(-0.000000, -0.000000)">
                            <g id="Layer35_0_FILL" transform="translate(-0.000000, -0.000000)">
                                <path d="M5.61178583,0.553890804 C2.56701752,0.723793955 -1.03873709,1.01364364 0.360149551,7.03925791 L20.2789082,9.20949691 C20.3899625,9.20419848 20.4790845,9.20419848 20.5462741,9.20949691 C20.6346998,9.20949691 20.7238218,9.20949691 20.81364,9.20949691 C21.7939816,9.20949691 22.5960792,8.84779041 23.219933,8.12437741 C23.9329087,7.49139104 24.2893965,6.67755141 24.2893965,5.68285854 C24.2893965,4.68816566 23.9329087,3.82911272 23.219933,3.10569972 C22.9292422,2.8107535 22.5727544,2.58468694 22.1504694,2.42750003 C21.9495969,2.32930237 21.682231,2.23887575 21.3483718,2.15622016 L21.0810059,2.15622016 L5.61178583,0.553890804 Z" id="Path"></path>
                            </g>
                        </g>
                    </g>
                    <path d="M34.1543246,91.3648475 C33.9940578,90.1510487 33.5648914,89.1332693 32.8668254,88.3115092 C32.259622,87.4876749 31.4871225,87.0451621 30.5493269,86.9839708 C29.6963587,87.0285678 28.9667758,87.4268293 28.3605782,88.1787554 C27.8459139,88.9977498 27.588414,89.7942728 27.5880787,90.5683244 L27.7168286,101.188631 L14.0693371,79.8152637 C11.1778285,75.5398295 15.384383,89.2866959 13.2975614,93.1196172 C8.98242738,101.463058 6.53518169,108.984578 24.4980807,125.084322 C37.9386678,126.140612 46.7426978,126.283031 50.9101706,125.511581 C54.6120122,124.826324 57.4193659,119.650359 59.1310542,115.494748 C59.8140018,113.836699 60.8373043,110.063167 62.2009619,104.174152 C52.0931334,92.7347737 35.6805477,100.117266 34.1543246,91.3648475 Z" id="Path" fill="#F4BC8D" fill-rule="nonzero"></path>
                    <g id="Group-14" transform="translate(10.200962, 0.000000)">
                        <g id="movil">
                            <g id="group">
                                <g id="Group-15">
                                    <g id="Group-4" transform="translate(1.307831, 0.749937)">
                                        <polygon id="area" fill="#FFFFFF" fill-rule="nonzero" points="4.59236619 29.092968 1.76991386e-13 34.204865 1.76991386e-13 111.348038 5.7863814 115.646679 38.2084867 115.646679 43.5126697 110.929792 43.5126697 34.6463471 38.9432653 29.092968"></polygon>
                                        <path d="M13.417414,9.23227023 C16.4820674,9.23227023 19.3439799,10.4401066 21.4713678,12.6247083 C23.6242353,14.783369 24.8145263,17.6874672 24.8145263,20.7972949 C24.8145263,21.4911073 24.2574317,22.0823547 23.548218,22.0823547 C22.8390044,22.0823547 22.2818253,21.4911929 22.2818253,20.7972949 C22.2818253,18.3814509 21.3700395,16.119797 19.698418,14.4235352 C18.0270496,12.727359 15.7981648,11.8022186 13.417414,11.8022186 C12.7335114,11.8022186 12.1510213,11.2367409 12.1510213,10.5172444 C12.1510213,9.79757669 12.733427,9.23227023 13.417414,9.23227023 Z M13.1881424,14.1167777 C14.9095824,14.1167777 16.5283969,14.7946714 17.7361097,16.0200045 C18.9435657,17.2455113 19.6116166,18.888003 19.6116166,20.634893 C19.6116166,21.338756 19.0464481,21.9385682 18.326956,21.9385682 C17.6331417,21.9385682 17.0422098,21.3388429 17.0422098,20.634893 C17.0422098,19.591866 16.6567003,18.601125 15.9117016,17.8712059 C15.1923807,17.11497 14.2159393,16.7240412 13.1881424,16.7240412 C12.4943281,16.7240412 11.9033962,16.1243159 11.9033962,15.420366 C11.9033962,14.6902732 12.4942425,14.1167777 13.1881424,14.1167777 Z M13.2678435,3.9527027 C17.6473453,3.9527027 21.7499893,5.68946627 24.8457327,8.80531182 C27.9166579,11.9468519 29.6281121,16.1099626 29.6281121,20.5540115 C29.6281121,21.24351 29.0744803,21.8310811 28.3696751,21.8310811 C27.6648698,21.8310811 27.1111542,21.243595 27.1111542,20.5540115 C27.1111542,16.799461 25.6764739,13.2748851 23.0588175,10.6187336 C20.4411611,7.96249695 16.9677776,6.50667168 13.2678435,6.50667168 C12.5881919,6.50667168 12.0093226,5.94471002 12.0093226,5.22968719 C12.0093226,4.5144942 12.5881081,3.9527027 13.2678435,3.9527027 Z" id="Combined-Shape" fill="#70C1FF" fill-rule="nonzero" transform="translate(20.765754, 13.017529) rotate(-45.000000) translate(-20.765754, -13.017529) "></path>
                                        <g id="logo" transform="translate(7.254749, 53.006819)"></g>
                                    </g>
                                    <path d="M0.366113638,37.6923369 L0.366113638,108.195781 C0.366113638,114.0188 3.2340038,116.93031 8.96978413,116.93031 L36.5198354,116.93031 C42.2556157,116.93031 45.1235059,114.0188 45.1235059,108.195781 L45.1235059,37.6923369 C45.1235059,31.8848044 42.2556157,28.9810382 36.5198354,28.9810382 L8.96978413,28.9810382 C3.2340038,28.9810382 0.366113638,31.8848044 0.366113638,37.6923369 Z M1.87633239,38.4821613 C1.87633239,33.0617977 4.54591101,30.3516158 9.88506823,30.3516158 L11.7614006,30.3516158 L11.7614006,32.8837 C11.7614006,33.6735244 12.0207311,34.3549415 12.5393921,34.9279514 C13.0733078,35.4699878 13.7445162,35.741006 14.5530171,35.741006 L31.0967771,35.741006 C31.8595139,35.741006 32.5002127,35.4699878 33.0188737,34.9279514 C33.5527894,34.3549415 33.8197473,33.6735244 33.8197473,32.8837 L33.8197473,30.3516158 L35.6731976,30.3516158 C41.0123548,30.3516158 43.6819334,33.0617977 43.6819334,38.4821613 L43.6819334,107.405956 C43.6819334,112.82632 41.0123548,115.536502 35.6731976,115.536502 L9.88506823,115.536502 C4.54591101,115.536502 1.87633239,112.82632 1.87633239,107.405956 L1.87633239,38.4821613 Z" id="Shape" fill="#2A2F33" fill-rule="nonzero"></path>
                                    <path d="M18.5926107,33.5772386 C18.6817125,33.6723809 18.7930899,33.719952 18.9267427,33.719952 L26.8790862,33.719952 C27.012739,33.719952 27.1315415,33.6723809 27.2354937,33.5772386 C27.3245956,33.4820964 27.3691466,33.35524 27.3691466,33.1966696 L27.3691466,33.1253129 C27.3691466,32.9825996 27.3245956,32.8636718 27.2354937,32.7685295 C27.1315415,32.6575302 27.012739,32.6020306 26.8790862,32.6020306 L18.9267427,32.6020306 C18.7930899,32.6020306 18.6817125,32.6575302 18.5926107,32.7685295 C18.4886585,32.8636718 18.4366824,32.9825996 18.4366824,33.1253129 L18.4366824,33.1966696 C18.4366824,33.35524 18.4886585,33.4820964 18.5926107,33.5772386 M22.3571654,31.2700391 C22.5353692,31.4127525 22.7209981,31.4841092 22.9140522,31.4841092 C23.092256,31.4841092 23.2259088,31.4127525 23.3150107,31.2700391 C23.5080648,31.1273257 23.6045918,30.9528983 23.6045918,30.7467568 C23.6045918,30.5564723 23.5080648,30.3582592 23.3150107,30.1521177 C23.2259088,30.0569755 23.092256,30.0094043 22.9140522,30.0094043 C22.7209981,30.0094043 22.5353692,30.0569755 22.3571654,30.1521177 C22.2532132,30.3582592 22.2012371,30.5564723 22.2012371,30.7467568 C22.2012371,30.9528983 22.2532132,31.1273257 22.3571654,31.2700391 Z" id="Shape" fill="#4E4F53" fill-rule="nonzero"></path>
                                    <path d="M22.5753866,93.5346284 C31.0500978,93.5346284 36.8893406,89.4199076 36.8893406,73.7001316 C36.8893406,57.9810264 31.0500978,53.8669764 22.5753866,53.8669764 C14.1013315,53.8669764 8.25880759,57.9816971 8.25880759,73.7001316 C8.25880759,89.4199076 14.1006753,93.5346284 22.5753866,93.5346284 L22.5753866,93.5346284 L22.5753866,93.5346284 Z" id="Path" fill="#0060A9" fill-rule="nonzero"></path>
                                    <path d="M21.3149318,57.2191723 L31.3821541,67.4819038 L24.7350922,74.2584965 L31.3834688,81.0370997 L21.3155891,91.2998311 L21.3155891,77.7687607 L15.7787811,83.4154746 L13.7646793,81.361454 L20.7141194,74.2584965 L13.7653367,67.1562091 L15.7794385,65.1035288 L21.3149318,70.7495725 L21.3149318,57.2191723 Z M24.1480841,77.7372635 L24.1461121,84.2886846 L27.3605239,81.012304 L24.1480841,77.7372635 Z M24.1461121,64.2283083 L24.1480841,70.7797294 L27.3605239,67.5053591 L24.1461121,64.2283083 Z" id="Combined-Shape" fill="#FFFFFF" fill-rule="nonzero"></path>
                                </g>
                            </g>
                            <g id="Group" transform="translate(18.169377, 29.842905)"></g>
                        </g>
                    </g>
                    <g id="Group" transform="translate(38.562767, 134.141433) rotate(-60.000000) translate(-38.562767, -134.141433) translate(21.562767, 113.141433)" fill="#509F73" fill-rule="nonzero">
                        <g id="Layer32_0_FILL-link" transform="translate(0.000000, -0.000000)">
                            <g id="Layer32_0_FILL" transform="translate(0.000000, -0.000000)">
                                <path d="M33.9851774,32.4556029 L14.8373813,0.213410193 L1.64263488,10.6140591 C-4.3998189,13.3557221 18.8448149,45.3451355 14.5753451,41.4239346 L33.9851774,32.4556029 Z" id="Path"></path>
                            </g>
                        </g>
                    </g>
                    <path d="M59.1850448,73.1212211 C59.0243679,71.9097238 58.5919896,70.8941589 57.88791,70.0745265 C57.275579,69.2527358 56.4959826,68.811752 55.549121,68.7515751 C54.6878119,68.7969174 53.9507537,69.1951796 53.3379465,69.9463616 C52.8174995,70.764405 52.5567403,71.5597682 52.555669,72.3324513 L53.4381504,90.9305544 C54.4420498,98.5548589 54.2169644,106.519404 52.7628944,114.824191 C58.1621993,113.07052 61.2242785,110.277328 61.949132,106.444616 C62.2392223,104.910744 62.2635034,101.92987 62.0219755,97.5019933 C61.6634741,89.9836114 60.7178305,81.8566874 59.1850448,73.1212211 Z" id="Path" fill="#F4BC8D" fill-rule="nonzero" transform="translate(57.371122, 91.787883) rotate(-6.000000) translate(-57.371122, -91.787883) "></path>
                    <path d="M5.15704907,67.8961337 L21.6443964,67.9617078 C23.6129955,67.9695374 25.2069094,69.5634804 25.2147032,71.5320796 C25.2224175,73.4806042 23.6490799,75.0664493 21.7005552,75.0741636 C21.6912219,75.0742005 21.6818884,75.0742005 21.6725551,75.0741633 L5.1852077,75.0085892 C3.21660864,75.0007596 1.6226947,73.4068167 1.6149009,71.4382175 C1.60718658,69.4896928 3.18052423,67.9038478 5.12904889,67.8961334 C5.13838225,67.8960965 5.14771572,67.8960966 5.15704907,67.8961337 Z" id="Rectangle" fill="#F3BC90" transform="translate(13.414802, 71.485149) rotate(30.000000) translate(-13.414802, -71.485149) "></path>
                    <path d="M5.53139799,79.9862922 L16.5121248,80.0299652 C18.4807239,80.0377948 20.0746378,81.6317377 20.0824316,83.6003369 C20.0901459,85.5488616 18.5168083,87.1347066 16.5682836,87.1424209 C16.5589503,87.1424579 16.5496168,87.1424578 16.5402834,87.1424207 L5.55955662,87.0987477 C3.59095756,87.0909181 1.99704363,85.4969752 1.98924983,83.528376 C1.9815355,81.5798513 3.55487315,79.9940063 5.50339781,79.9862919 C5.51273117,79.986255 5.52206464,79.9862551 5.53139799,79.9862922 Z" id="Rectangle" fill="#F3BC90" transform="translate(11.035841, 83.564356) rotate(30.000000) translate(-11.035841, -83.564356) "></path>
                    <path d="M5.8522685,91.4808269 L12.1130348,91.5057275 C14.0816339,91.5135571 15.6755478,93.1075 15.6833416,95.0760992 C15.691056,97.0246239 14.1177183,98.6104689 12.1691937,98.6181832 C12.1598603,98.6182202 12.1505268,98.6182201 12.1411935,98.618183 L5.88042713,98.5932824 C3.91182806,98.5854528 2.31791413,96.9915099 2.31012033,95.0229107 C2.30240601,93.074386 3.87574365,91.488541 5.82426831,91.4808267 C5.83360167,91.4807897 5.84293514,91.4807898 5.8522685,91.4808269 Z" id="Rectangle" fill="#F3BC90" transform="translate(8.996731, 95.049505) rotate(30.000000) translate(-8.996731, -95.049505) "></path>
                </g>
                <g id="Group-7" transform="translate(86.000000, 0.000000)">
                    <path d="M10.8028715,143 C1.73171487,128.580304 -1.62666328,117.339199 0.727737094,109.276683 C4.25933765,97.1829093 22.5800275,94.4858893 25.1339013,81.0199412 C27.6877751,67.5539931 8.54408416,61.6781489 15.5049371,39.8144801 C22.46579,17.9508113 63.1318917,27.9624352 80.8877805,20.7122268 C98.6436692,13.4620184 99.269279,0.347352152 112.996876,0.00589099183 C126.724474,-0.335570169 140.743823,14.103164 149.174018,60.0228203 C154.794149,90.6359245 147.440765,118.294984 127.113867,143 L10.8028715,143 Z" id="shape-bck" fill="url(#linearGradient-1)" transform="translate(75.500000, 71.500000) scale(-1, 1) translate(-75.500000, -71.500000) "></path>
                    <g id="Group-3" transform="translate(61.000000, 16.000000)">
                        <g id="girl-autotest">
                            <ellipse id="Oval" fill="#FFE9D6" cx="22" cy="117.889709" rx="22" ry="1.56317846"></ellipse>
                            <g id="Group" transform="translate(21.966839, 103.255814)" fill="#F4BC8D" fill-rule="nonzero">
                                <g id="Layer17_0_FILL-link">
                                    <g id="Layer17_0_FILL">
                                        <path d="M0.255340224,11.5348837 L1.39276486,13.0697674 L2.53018949,11.8372093 L2.53018949,8.37209302 L0.255340224,6.65116279 L0.255340224,11.5348837 M4.61933678,0.302325581 L4.01580534,2.60465116 L5.4085702,4.51162791 L6.98703704,4.76744186 L6.96382429,3.1627907 L5.61748493,1.3255814 L4.61933678,0.302325581 Z" id="Shape"></path>
                                    </g>
                                </g>
                            </g>
                            <g id="Group" transform="translate(9.431955, 55.348837)" fill="#4E697E" fill-rule="nonzero">
                                <g id="Layer16_0_FILL-link">
                                    <g id="Layer16_0_FILL">
                                        <path d="M1.81059432,0.441860465 L0.139276486,5.51162791 C0.550516908,12.9665092 1.18499868,20.4083697 2.04272179,27.8372093 C2.30229351,30.1702398 3.06831418,32.2012476 4.34078381,33.9302326 L11.6992248,43.9534884 L11.6992248,54.744186 C11.6829638,55.6932534 11.9924671,56.2048813 12.6277347,56.2790698 L15.0650732,56.2790698 L15.7150301,49.4418605 L16.5506891,50.5813953 L18.1291559,49.2093023 C18.5331423,48.5885417 18.5331423,47.8443556 18.1291559,46.9767442 L16.3185616,43 L19.8236865,6.27906977 L1.81059432,0.441860465 Z" id="Path"></path>
                                    </g>
                                </g>
                            </g>
                            <g id="Group" transform="translate(18.252799, 106.046512)" fill="#322F23" fill-rule="nonzero">
                                <g id="Layer15_0_FILL-link">
                                    <g id="Layer15_0_FILL">
                                        <path d="M3.96937984,9.60465116 L1.55525409,10.4418605 C0.642219351,10.7209302 0.147014068,11.1937984 0.0696382429,11.8604651 C0.0541630778,12.1395349 0.255340224,12.2945736 0.673169681,12.3255814 L5.50142119,12.3255814 C6.04305197,12.3410853 6.29065461,12.0930233 6.24422911,11.5813953 L6.24422911,8.74418605 L3.96937984,8.74418605 L3.96937984,9.60465116 M10.6778639,0.372093023 L9.12260982,1.72093023 L9.67971576,2.46511628 L9.67971576,7.04651163 C9.67971576,7.90945979 9.9273184,8.47535126 10.4225237,8.74418605 C10.6957571,8.8545906 10.8891966,8.77707122 11.0028424,8.51162791 L12.4420327,3.65116279 C12.5288387,3.23419331 12.4746757,2.86985223 12.2795435,2.55813953 L10.6778639,0.372093023 Z" id="Shape"></path>
                                    </g>
                                </g>
                            </g>
                            <g id="Group" transform="translate(8.503445, 19.069767)" fill="#FFFFFF" fill-rule="nonzero">
                                <g id="Layer14_0_FILL-link">
                                    <g id="Layer14_0_FILL">
                                        <polygon id="Path" points="22.6092162 43.4883721 14.438329 0.11627907 0.441042205 40"></polygon>
                                    </g>
                                </g>
                            </g>
                            <g id="Group" transform="translate(15.931525, 0.000000)" fill="#112258" fill-rule="nonzero">
                                <g id="Layer13_0_FILL-link">
                                    <g id="Layer13_0_FILL">
                                        <path d="M4.52648579,2.06976744 C4.36163901,2.23728198 4.20688736,2.40782461 4.06223084,2.58139535 C3.97064929,2.71438953 3.8777983,2.84617248 3.78367786,2.97674419 L3.80689061,2.97674419 L0.88208441,7.04651163 C0.808698276,7.12590843 0.739060033,7.20342781 0.673169681,7.27906977 C0.42556704,7.6514656 0.301765719,8.07007025 0.301765719,8.53488372 C0.301765719,9.12403101 0.495205283,9.6124031 0.88208441,10 C1.2844387,10.4186047 1.78738157,10.627907 2.39091301,10.627907 C2.48666559,10.627907 2.57951658,10.620155 2.66946598,10.6046512 C2.6382134,10.6359617 2.60726307,10.6669695 2.57661499,10.6976744 C2.26711169,11.0232558 2.11236003,11.4108527 2.11236003,11.8604651 C2.11236003,12.3255814 2.26711169,12.7054264 2.57661499,13 C2.88611829,13.3255814 3.27299742,13.4883721 3.73725237,13.4883721 C4.18603216,13.4883721 4.5651737,13.3255814 4.874677,13 C5.05832369,12.833515 5.18986259,12.6397166 5.26929371,12.4186047 L11.1189061,12.6744186 C11.154632,12.7418847 11.1855823,12.8039002 11.2117571,12.8604651 C11.3209296,13.0689196 11.460206,13.2549661 11.6295866,13.4186047 C12.0783664,13.8837209 12.6354723,14.1162791 13.3009044,14.1162791 C13.9353862,14.1162791 14.4770169,13.8837209 14.9257967,13.4186047 C15.3900517,13 15.6221792,12.4573643 15.6221792,11.7906977 C15.6221792,11.6395954 15.606704,11.4923086 15.5757537,11.3488372 C15.5672907,11.2648983 15.5518155,11.1796269 15.5293282,11.0930233 L13.9276486,4.79069767 L13.9044358,4.76744186 C13.8824321,4.63789971 13.8514818,4.50611676 13.8115848,4.37209302 C13.550381,3.52125727 13.0783884,2.75381541 12.3956072,2.06976744 C11.3123457,0.984496124 10.0046942,0.441860465 8.47265289,0.441860465 C6.94061154,0.441860465 5.62522251,0.984496124 4.52648579,2.06976744 Z" id="Path"></path>
                                    </g>
                                </g>
                            </g>
                            <g id="Group" transform="translate(17.788544, 3.255814)" fill="#F4BC8D" fill-rule="nonzero">
                                <g id="Layer12_0_FILL-link">
                                    <g id="Layer12_0_FILL">
                                        <path d="M6.80133506,0.162790698 L6.77812231,0.162790698 C5.57105943,0.023255814 4.51101062,0.333333333 3.59797588,1.09302326 C2.65399081,1.85271318 2.11236003,2.8372093 1.97308355,4.04651163 L1.81059432,5.53488372 C1.56915756,5.36155523 1.32155492,5.3150436 1.06778639,5.39534884 C0.758283089,5.47286822 0.533893196,5.68992248 0.39461671,6.04651163 C0.255340224,6.3875969 0.239865059,6.75968992 0.348191214,7.1627907 C0.45651737,7.56589147 0.657694516,7.89147287 0.951722653,8.13953488 C1.1322864,8.28234012 1.31025079,8.36761143 1.48561585,8.39534884 L1.43919035,8.97674419 C1.31538903,10.1860465 1.63262992,11.2635659 2.39091301,12.2093023 C2.5704491,12.4379239 2.76388866,12.6394743 2.9712317,12.8139535 L2.4373385,18.5581395 L7.07988803,19.1395349 L7.59056848,13.4651163 C7.92564207,13.3184956 8.24288295,13.1246972 8.54229113,12.8837209 C9.4862762,12.124031 10.0201694,11.1395349 10.1439707,9.93023256 L10.6778639,5 C10.8171404,3.79069767 10.5076371,2.71317829 9.74935401,1.76744186 C8.97559575,0.821705426 7.99292277,0.286821705 6.80133506,0.162790698 Z" id="Path"></path>
                                    </g>
                                </g>
                            </g>
                            <g id="Group" transform="translate(21.038329, 8.372093)">
                                <g id="Layer11_0_FILL-link" transform="translate(0.000000, 1.395349)" fill="#333657" fill-rule="nonzero">
                                    <g id="Layer11_0_FILL">
                                        <path d="M0.301765719,0.395348837 C0.208914729,0.519379845 0.162489233,0.658914729 0.162489233,0.813953488 C0.162489233,0.968992248 0.208914729,1.09302326 0.301765719,1.18604651 C0.42556704,1.31007752 0.564843526,1.37209302 0.719595177,1.37209302 C0.874346827,1.37209302 0.998148148,1.31007752 1.09099914,1.18604651 C1.21480046,1.09302326 1.27670112,0.968992248 1.27670112,0.813953488 C1.27670112,0.658914729 1.21480046,0.519379845 1.09099914,0.395348837 C0.998148148,0.302325581 0.874346827,0.255813953 0.719595177,0.255813953 C0.564843526,0.255813953 0.42556704,0.302325581 0.301765719,0.395348837 Z" id="Path"></path>
                                    </g>
                                </g>
                                <g id="Layer11_0_1_STROKES-link" stroke="#112258" stroke-linecap="round" stroke-linejoin="round">
                                    <path d="M0.0232127476,0.652325581 C0.688644846,0.513953488 1.31538903,0.494186047 1.90344531,0.593023256" id="Layer11_0_1_STROKES"></path>
                                </g>
                            </g>
                            <g id="Group" transform="translate(21.502584, 13.953488)" fill="#FFFFFF" fill-rule="nonzero">
                                <g id="Layer10_0_FILL-link">
                                    <g id="Layer10_0_FILL">
                                        <path d="M3.13372093,1.23255814 C3.34257521,1.03324855 3.48185169,0.800690407 3.55155039,0.534883721 L0.371403962,0.209302326 C0.397941452,0.607982074 0.552693103,0.949067345 0.835658915,1.23255814 C1.16063738,1.55813953 1.54751651,1.72093023 1.9962963,1.72093023 C2.44507608,1.72093023 2.82421763,1.55813953 3.13372093,1.23255814 Z" id="Path"></path>
                                    </g>
                                </g>
                            </g>
                            <g id="Group" transform="translate(18.252799, 0.000000)" fill="#112258" fill-rule="nonzero">
                                <g id="Layer9_0_FILL-link">
                                    <g id="Layer9_0_FILL">
                                        <path d="M1.4624031,2.97674419 L1.48561585,2.97674419 L0.0232127476,5 L1.64810508,6.62790698 C1.91541438,5.4158188 2.62727197,4.71039244 3.78367786,4.51162791 C4.59044174,4.5191376 5.20171076,4.91448643 5.61748493,5.69767442 L8.79763135,12.6744186 C8.83335722,12.7418847 8.86430755,12.8039002 8.89048234,12.8604651 C8.9996548,13.0689196 9.13893128,13.2549661 9.3083118,13.4186047 C9.75709159,13.8837209 10.3141975,14.1162791 10.9796296,14.1162791 C11.6141114,14.1162791 12.1557422,13.8837209 12.604522,13.4186047 C13.0687769,13 13.3009044,12.4573643 13.3009044,11.7906977 C13.3009044,11.6395954 13.2854292,11.4923086 13.2544789,11.3488372 C13.2460159,11.2648983 13.2305408,11.1796269 13.2080534,11.0930233 L11.6063738,4.79069767 L11.5831611,4.76744186 C11.5611573,4.63789971 11.530207,4.50611676 11.4903101,4.37209302 C11.2291062,3.52125727 10.7571137,2.75381541 10.0743325,2.06976744 C8.99107092,0.984496124 7.68341947,0.441860465 6.15137812,0.441860465 C4.61933678,0.441860465 3.30394775,0.984496124 2.20521102,2.06976744 C2.04036425,2.23728198 1.8856126,2.40782461 1.74095607,2.58139535 C1.64937453,2.71438953 1.55652354,2.84617248 1.4624031,2.97674419 Z" id="Path"></path>
                                    </g>
                                </g>
                            </g>
                            <g id="Group" transform="translate(0.611111, 59.069767)" fill="#F4BC8D" fill-rule="nonzero">
                                <g id="Layer8_0_FILL-link">
                                    <g id="Layer8_0_FILL">
                                        <path d="M3.4586994,2.20930233 L2.85516796,0.325581395 L0.974935401,1.76744186 L0.835658915,2.62790698 C0.740873529,3.13311531 0.56290913,3.58272771 0.301765719,3.97674419 C0.100588573,4.32951793 0,4.7326187 0,5.18604651 C0,5.61409884 0.085113408,5.9939438 0.255340224,6.3255814 C0.33247425,6.44791667 0.417587658,6.56419574 0.510680448,6.6744186 C0.866609245,7.09302326 1.29217628,7.30232558 1.78738157,7.30232558 C2.13774898,7.30232558 2.44725228,7.19379845 2.71589147,6.97674419 C2.83298286,6.89765019 2.94130901,6.796875 3.04086994,6.6744186 C3.39679874,6.27131783 3.57476314,5.7751938 3.57476314,5.18604651 C3.57476314,5.01465601 3.55928797,4.85186531 3.52833764,4.69767442 C3.51636857,4.62493944 3.5008934,4.555172 3.48191214,4.48837209 C3.34432826,4.07897287 3.29016518,3.61385659 3.31942291,3.09302326 L3.4586994,2.20930233 Z" id="Path"></path>
                                    </g>
                                </g>
                            </g>
                            <g id="Group" transform="translate(1.539621, 17.209302)" fill="#FC6262" fill-rule="nonzero">
                                <g id="Layer7_0_FILL-link">
                                    <g id="Layer7_0_FILL">
                                        <path d="M7.82269595,6.04651163 C7.80171985,6.11597626 7.7785071,6.1857437 7.75305771,6.25581395 L2.4373385,25.3023256 C1.98644297,26.978016 1.65372692,28.7454578 1.43919035,30.6046512 L0.0464254953,43.6046512 L2.53018949,44.0697674 L4.36399655,36.0930233 C5.08280588,40.5208333 6.21249293,44.1875 7.75305771,47.0930233 L21.1468131,3.97674419 L28.3891904,48.5348837 C33.1817764,44.3205547 35.2709237,39.4290819 34.6566322,33.8604651 L34.494143,32.7906977 C34.8091472,32.6043484 35.1031754,32.3717902 35.3762274,32.0930233 C36.2118863,31.2713178 36.6297158,30.2713178 36.6297158,29.0930233 C36.6297158,29.0780039 36.6297158,29.0625 36.6297158,29.0465116 L34.029888,9.30232558 C34.0259588,9.01483769 33.9950085,8.73576793 33.937037,8.46511628 C33.7423885,7.39801357 33.2394456,6.45227713 32.4282084,5.62790698 C31.8779333,5.08436289 31.2744019,4.67351017 30.6176141,4.39534884 C30.5661108,4.3828125 30.5119478,4.36730862 30.4551249,4.34883721 C30.3841568,4.31407461 30.3067809,4.28306686 30.2229974,4.25581395 L23.6305771,2.04651163 L23.7234281,0.953488372 L19.0808786,0.418604651 L18.9648148,1.74418605 L13.2080534,2.09302326 C13.1981396,2.09302326 13.1826645,2.09302326 13.1616279,2.09302326 C12.9238181,2.09302326 12.6916907,2.10077519 12.4652455,2.11627907 C11.2292876,2.26925872 10.1537636,2.80414244 9.23867356,3.72093023 C8.61803481,4.34272045 8.16925502,5.03264293 7.89233419,5.79069767 C7.87105584,5.87663517 7.8478431,5.96190649 7.82269595,6.04651163 Z" id="Path"></path>
                                    </g>
                                </g>
                            </g>
                            <g id="Group" transform="translate(18.252799, 18.604651)" fill="#FFFFFF" fill-rule="nonzero">
                                <g id="Layer6_0_FILL-link">
                                    <g id="Layer6_0_FILL">
                                        <path d="M1.67131783,6.74418605 C2.01026021,7.23655523 2.37392659,7.63965601 2.76231697,7.95348837 L3.06408269,6.97674419 C2.80457142,6.73025678 2.55696878,6.43568314 2.32127476,6.09302326 C1.51656618,4.91472868 1.11421189,3.48837209 1.11421189,1.81395349 C1.11421189,1.32642926 1.14516222,0.853561047 1.20706288,0.395348837 L0.348191214,0.465116279 C0.301765719,0.882388566 0.278552972,1.31649709 0.278552972,1.76744186 C0.278552972,3.72093023 0.742807924,5.37984496 1.67131783,6.74418605 M8.10124892,1.04651163 C8.37980189,1.88250969 8.51907838,2.80499031 8.51907838,3.81395349 C8.51907838,5.53488372 8.10124892,7 7.26559001,8.20930233 C6.77401172,8.94343508 6.21690577,9.45506298 5.59427218,9.74418605 L5.73354866,10.6511628 C6.55741986,10.3482316 7.28475262,9.72807655 7.91554694,8.79069767 C8.85953201,7.42635659 9.33152455,5.76744186 9.33152455,3.81395349 C9.33152455,2.93992248 9.23867356,2.11821705 9.05297158,1.34883721 L8.10124892,1.04651163 Z" id="Shape"></path>
                                    </g>
                                </g>
                            </g>
                            <g id="Group" transform="translate(17.324289, 34.418605)" fill="#322F23" fill-rule="nonzero">
                                <g id="Layer5_0_FILL-link">
                                    <g id="Layer5_0_FILL">
                                        <path d="M0.580318691,0.441860465 C0.301765719,0.441860465 0.162489233,0.604651163 0.162489233,0.930232558 L0.162489233,8.41860465 C0.162489233,8.75968992 0.301765719,8.93023256 0.580318691,8.93023256 L3.08729543,8.93023256 C3.38132357,8.93023256 3.52833764,8.75968992 3.52833764,8.41860465 L3.52833764,0.930232558 C3.52833764,0.604651163 3.38132357,0.441860465 3.08729543,0.441860465 L0.580318691,0.441860465 Z" id="Path"></path>
                                    </g>
                                </g>
                            </g>
                            <g id="Group" transform="translate(16.395780, 35.813953)" fill="#F4BC8D" fill-rule="nonzero">
                                <g id="Layer4_0_FILL-link">
                                    <g id="Layer4_0_FILL">
                                        <path d="M1.4624031,2.46511628 C1.218367,2.2212936 1.09456568,1.85695252 1.09099914,1.37209302 L1.09099914,0.906976744 C1.01362331,0.503875969 0.835658915,0.310077519 0.557105943,0.325581395 C0.324978467,0.418604651 0.224389894,0.627906977 0.255340224,0.953488372 L0.510680448,3.34883721 C0.705510358,4.07933624 1.06143916,4.75375484 1.57846684,5.37209302 L3.29621016,7.3255814 C3.89121817,7.93653101 4.55665027,8.44815891 5.29250646,8.86046512 L17.014944,14.8139535 L16.2257106,9.18604651 L5.71033592,6.74418605 C5.69667425,5.59302326 5.28658237,4.42248062 4.48006029,3.23255814 C3.71307242,3.98158915 3.03216516,4.09786822 2.4373385,3.58139535 L1.4624031,2.46511628 Z" id="Path"></path>
                                    </g>
                                </g>
                            </g>
                        </g>
                    </g>
                    <path d="M51.9771243,38.3531167 C53.6600264,38.3531167 55.2315967,39.0065086 56.3998154,40.1882919 C57.5820258,41.3560423 58.2356538,42.9270448 58.2356538,44.6093389 C58.2356538,44.9846641 57.9297347,45.3045056 57.5402822,45.3045056 C57.1508296,45.3045056 56.8448643,44.9847104 56.8448643,44.6093389 C56.8448643,43.3024626 56.3441727,42.0789971 55.4262303,41.1613863 C54.5084269,40.2438219 53.2844729,39.7433575 51.9771243,39.7433575 C51.6015708,39.7433575 51.2817064,39.4374563 51.2817064,39.0482371 C51.2817064,38.6589252 51.6015245,38.3531167 51.9771243,38.3531167 Z M51.3267764,41.2470927 C52.2142004,41.2470927 53.0487195,41.5913546 53.6713106,42.2136284 C54.2937693,42.8359904 54.6381579,43.6701143 54.6381579,44.5572558 C54.6381579,44.914706 54.3468065,45.2193149 53.9758993,45.2193149 C53.6182293,45.2193149 53.3135965,44.9147501 53.3135965,44.5572558 C53.3135965,44.0275644 53.1148615,43.524426 52.7308054,43.1537435 C52.3599864,42.7696963 51.8566187,42.5711668 51.3267764,42.5711668 C50.9691065,42.5711668 50.6644737,42.2666019 50.6644737,41.9091077 C50.6644737,41.5383369 50.9690624,41.2470927 51.3267764,41.2470927 Z M51.9060911,34.7569444 C54.3754374,34.7569444 56.6886797,35.7216308 58.4341893,37.452329 C60.1657054,39.1972992 61.1306949,41.5097014 61.1306949,43.978151 C61.1306949,44.3611333 60.8185341,44.6875 60.4211354,44.6875 C60.0237367,44.6875 59.7115287,44.3611805 59.7115287,43.978151 C59.7115287,41.8926837 58.9025959,39.934956 57.4266518,38.4595951 C55.9507076,36.984187 53.9922687,36.175548 51.9060911,36.175548 C51.5228751,36.175548 51.1964843,35.8634061 51.1964843,35.4662462 C51.1964843,35.0689919 51.5228278,34.7569444 51.9060911,34.7569444 Z" id="Combined-Shape" fill="#70C1FF" fill-rule="nonzero" transform="translate(55.897584, 40.030725) rotate(-81.000000) translate(-55.897584, -40.030725) "></path>
                </g>
            </g>
        </g>
    </g>
</svg>