<?xml version="1.0" encoding="UTF-8" standalone="no"?>
<!DOCTYPE svg PUBLIC "-//W3C//DTD SVG 1.1//EN" "http://www.w3.org/Graphics/SVG/1.1/DTD/svg11.dtd">
<svg width="100%" height="100%" viewBox="0 0 1536 1536" version="1.1" xmlns="http://www.w3.org/2000/svg" xmlns:xlink="http://www.w3.org/1999/xlink" xml:space="preserve" xmlns:serif="http://www.serif.com/" style="fill-rule:evenodd;clip-rule:evenodd;stroke-linejoin:round;stroke-miterlimit:2;">
    <g transform="matrix(4.76582,0,0,4.76582,-6385.31,-1918.61)">
        <circle cx="1500.96" cy="563.724" r="141.109" style="fill:rgb(200,15,46);"/>
    </g>
    <path d="M905.202,109.526C939.843,116.721 973.512,126.583 1005.99,138.884C1006.46,140.058 1006.93,141.218 1007.38,142.362C1014.49,159.957 1009.53,180.132 995.121,192.434C995.121,192.441 995.121,192.441 995.054,192.447C988.354,198.163 983.73,205.58 981.385,213.654C1019.24,202.552 1058.31,195.335 1097.64,192.099L1097.64,181.803C1157.42,215.517 1211.54,258.111 1258.21,307.8C1220.49,298.536 1181.64,293.863 1143,293.925C966.175,294.756 792.568,403.819 715.982,565.191C651.457,701.022 657.018,867.621 730.455,998.875C826.07,1169.87 1033.25,1270.88 1231.38,1234.15C1240.34,1232.49 1249.24,1230.55 1258.07,1228.34C1211.44,1277.96 1157.36,1320.51 1097.64,1354.18L1097.64,1342.44C1058.17,1339.07 1019.04,1331.78 980.916,1320.66C983.06,1329.39 987.885,1337.45 995.054,1343.57C995.121,1343.57 995.121,1343.57 995.121,1343.58C1009.53,1355.89 1014.49,1376.06 1007.38,1393.65C1006.92,1394.79 1006.46,1395.94 1005.98,1397.1C973.497,1409.41 939.814,1419.28 905.159,1426.47C882.504,1417.32 858.19,1407.49 837.259,1399.03C807.175,1386.9 792.702,1352.7 804.829,1322.66C806.103,1319.48 807.376,1316.35 808.582,1313.33C815.684,1295.74 833.239,1284.66 852.201,1285.84C861.314,1286.41 870.158,1284.13 877.596,1279.66C839.538,1260.16 803.556,1236.36 770.523,1208.37L752.432,1226.43C739.031,1239.86 735.681,1260.35 744.191,1277.32L744.191,1277.34C752.7,1294.31 749.35,1314.81 735.949,1328.23C733.671,1330.51 731.259,1332.88 728.847,1335.28C717.858,1346.3 702.916,1352.49 687.304,1352.49C671.759,1352.49 656.817,1346.3 645.762,1335.28C624.454,1313.94 598.524,1288.03 577.216,1266.7C554.301,1243.79 554.301,1206.64 577.216,1183.73C579.629,1181.31 582.041,1178.91 584.319,1176.62C597.72,1163.2 618.223,1159.87 635.175,1168.36C635.175,1168.36 635.242,1168.36 635.242,1168.36C652.194,1176.85 672.697,1173.52 686.098,1160.1L704.39,1141.8C676.785,1108.79 652.931,1072.61 633.299,1034.27C628.542,1041.87 626.129,1050.93 626.665,1060.33L626.665,1060.34C627.872,1079.28 616.816,1096.85 599.194,1103.96C596.246,1105.16 593.096,1106.42 589.947,1107.69C575.541,1113.53 559.326,1113.38 544.987,1107.3C530.649,1101.21 519.325,1089.67 513.496,1075.22C502.172,1047.25 488.436,1013.26 477.112,985.3C464.985,955.255 479.524,921.063 509.542,908.929C512.758,907.642 515.841,906.376 518.856,905.156C536.478,898.047 556.646,902.999 568.975,917.438L568.975,917.452C575.139,924.688 583.314,929.546 592.091,931.69C580.701,893.632 573.129,854.448 569.578,814.909L543.111,814.909C524.149,814.909 507.264,827.057 501.301,845.054L501.301,845.067C495.27,863.071 478.452,875.212 459.49,875.212L449.507,875.212C433.895,875.212 418.953,869.021 407.964,857.999C396.908,846.984 390.744,832.035 390.744,816.45L390.744,719.468C390.744,687.065 417.01,660.799 449.44,660.799L459.49,660.799C478.452,660.799 495.27,672.94 501.301,690.944L501.301,690.958C507.264,708.962 524.149,721.103 543.111,721.103L568.774,721.103C570.382,699.601 573.196,678.173 577.35,656.947C581.438,636.048 586.731,615.424 593.163,595.169C585.056,597.373 577.484,601.909 571.655,608.543L571.655,608.549C559.125,622.781 538.823,627.371 521.402,619.96C518.387,618.701 515.305,617.394 512.222,616.067C497.884,609.977 486.493,598.439 480.663,583.986C474.834,569.533 474.968,553.358 481.066,539.013C492.858,511.239 507.197,477.503 518.99,449.743C531.654,419.913 566.094,405.996 595.911,418.66C599.06,420 602.142,421.32 605.157,422.593C622.645,430.004 633.366,447.766 631.892,466.682L631.892,466.695C631.155,475.774 633.232,484.592 637.587,492.13C656.616,457.522 679.197,424.797 704.792,394.605L686.098,375.911C672.697,362.49 652.194,359.167 635.242,367.65C635.242,367.656 635.175,367.656 635.175,367.656C618.223,376.146 597.72,372.816 584.319,359.395C582.041,357.117 579.629,354.751 577.283,352.353C566.228,341.33 560.063,326.382 560.063,310.797C560.063,295.212 566.228,280.27 577.283,269.248C598.591,247.913 624.521,221.996 645.829,200.669C668.744,177.76 705.931,177.76 728.78,200.669C731.259,203.094 733.604,205.48 735.949,207.785C749.35,221.206 752.7,241.702 744.191,258.674L744.191,258.688C735.681,275.66 739.031,296.163 752.432,309.577L770.925,328.044C803.355,300.183 838.868,275.861 876.792,255.88C869.488,251.719 860.979,249.622 852.201,250.171C833.239,251.351 815.684,240.282 808.582,222.686C807.376,219.691 806.103,216.596 804.829,213.446C799,198.994 799.134,182.819 805.231,168.473C811.329,154.121 822.854,142.784 837.326,136.948C858.24,128.487 882.57,118.668 905.202,109.526ZM1028.36,950.036C1069.09,950.036 1102.06,983.062 1102.06,1023.74C1102.06,1064.42 1069.09,1097.44 1028.36,1097.44C987.684,1097.44 954.651,1064.42 954.651,1023.74C954.651,983.062 987.684,950.036 1028.36,950.036ZM1409.64,969.795C1407.3,970.021 1404.91,970.137 1402.51,970.137C1361.84,970.137 1328.8,937.111 1328.8,896.433C1328.8,855.754 1361.84,822.728 1402.51,822.728C1415.17,822.728 1427.1,825.933 1437.53,831.577C1433.04,879.271 1423.57,925.524 1409.64,969.795ZM1144.54,749.024C1185.21,749.024 1218.25,782.05 1218.25,822.728C1218.25,863.406 1185.21,896.433 1144.54,896.433C1103.87,896.433 1070.84,863.406 1070.84,822.728C1070.84,782.05 1103.87,749.024 1144.54,749.024ZM855.284,694.301C895.955,694.301 928.988,727.328 928.988,768.006C928.988,808.684 895.955,841.71 855.284,841.71C814.612,841.71 781.579,808.684 781.579,768.006C781.579,727.328 814.612,694.301 855.284,694.301ZM1166.99,431.866C1207.66,431.866 1240.69,464.893 1240.69,505.571C1240.69,546.256 1207.66,579.275 1166.99,579.275C1126.32,579.275 1093.28,546.256 1093.28,505.571C1093.28,464.893 1126.32,431.866 1166.99,431.866Z" style="fill:white;"/>
</svg>
