<?xml version="1.0" encoding="UTF-8" standalone="no"?>
<!DOCTYPE svg PUBLIC "-//W3C//DTD SVG 1.1//EN" "http://www.w3.org/Graphics/SVG/1.1/DTD/svg11.dtd">
<svg width="100%" height="100%" viewBox="0 0 641 448" version="1.1" xmlns="http://www.w3.org/2000/svg" xmlns:xlink="http://www.w3.org/1999/xlink" xml:space="preserve" xmlns:serif="http://www.serif.com/" style="fill-rule:evenodd;clip-rule:evenodd;stroke-linejoin:round;stroke-miterlimit:2;">
    <g id="Artboard1" transform="matrix(1,0,0,0.655629,0,0)">
        <rect x="0" y="0" width="641" height="683" style="fill:none;"/>
        <g transform="matrix(1,0,0,1.52525,0,-358.747)">
            <path d="M7.684,677.935C2.566,673.534 0.006,666.502 0.006,656.839C0.006,652.916 0.449,649.388 1.334,646.255C2.219,643.122 3.51,640.455 5.209,638.254C6.907,636.054 9,634.356 11.487,633.16C13.975,631.964 16.845,631.366 20.098,631.366C23.303,631.366 26.161,631.952 28.672,633.124C31.184,634.296 33.277,635.982 34.951,638.182C36.625,640.383 37.905,643.062 38.79,646.219C39.675,649.376 40.117,652.916 40.117,656.839C40.117,660.761 39.675,664.289 38.79,667.422C37.905,670.556 36.625,673.223 34.951,675.423C33.277,677.624 31.184,679.31 28.672,680.482C26.161,681.654 23.303,682.24 20.098,682.24C15.027,682.24 10.889,680.805 7.684,677.935ZM606.62,676.786C606.764,675.017 607.601,673.557 609.132,672.409C614.011,675.71 618.795,677.36 623.483,677.36C626.879,677.36 629.558,676.643 631.519,675.208C633.48,673.773 634.461,671.811 634.461,669.324C634.461,665.641 631.926,662.675 626.855,660.426L618.46,656.767C612.002,653.992 608.773,649.974 608.773,644.712C608.773,642.894 609.156,641.172 609.921,639.546C610.686,637.919 611.751,636.508 613.114,635.312C614.477,634.116 616.116,633.172 618.029,632.478C619.943,631.784 622.071,631.438 624.415,631.438C629.056,631.438 633.791,632.586 638.623,634.882C638.623,636.747 637.881,638.278 636.398,639.474C634.054,638.278 631.89,637.417 629.905,636.891C627.919,636.365 626.09,636.102 624.415,636.102C622.885,636.102 621.509,636.317 620.29,636.747C619.07,637.178 618.017,637.74 617.132,638.434C616.247,639.127 615.566,639.94 615.087,640.873C614.609,641.806 614.37,642.775 614.37,643.779C614.37,645.884 614.98,647.523 616.2,648.695C617.419,649.866 619.13,650.907 621.33,651.816L629.438,655.332C636.566,658.441 640.13,662.77 640.13,668.319C640.13,672.481 638.719,675.83 635.896,678.365C633.074,680.9 628.697,682.168 622.765,682.168C616.929,682.168 611.547,680.374 606.62,676.786ZM223.881,647.795C223.881,646.352 223.677,644.92 223.269,643.501C222.862,642.081 222.19,640.806 221.254,639.675C220.318,638.545 219.119,637.643 217.656,636.969C216.193,636.295 214.43,635.958 212.367,635.958C208.289,635.958 205.134,637.755 202.903,641.349C200.672,644.943 199.556,650.047 199.556,656.659C199.556,663.32 200.704,668.435 203,672.005C205.297,675.575 208.549,677.36 212.759,677.36C217.016,677.36 221.322,675.471 225.675,671.692C227.158,672.553 228.162,673.749 228.689,675.28C226.679,677.337 224.204,678.999 221.262,680.267C218.32,681.534 215.199,682.168 211.898,682.168C208.693,682.168 205.942,681.51 203.646,680.195C201.35,678.879 199.472,677.073 198.013,674.777C196.554,672.481 195.478,669.814 194.784,666.777C194.091,663.739 193.744,660.498 193.744,657.054C193.744,652.796 194.222,649.065 195.179,645.86C196.136,642.655 197.451,639.988 199.126,637.86C200.8,635.731 202.761,634.128 205.01,633.052C207.258,631.976 209.674,631.438 212.257,631.438C214.84,631.438 217.184,631.82 219.289,632.586C221.393,633.351 223.187,634.356 224.67,635.599C226.153,636.843 227.301,638.278 228.114,639.905C228.928,641.531 229.334,643.205 229.334,644.927C229.334,647.08 228.319,648.156 226.289,648.156C225.628,648.156 224.825,648.036 223.881,647.795ZM332.015,678.006C326.945,673.51 324.409,666.454 324.409,656.839C324.409,653.06 324.828,649.603 325.665,646.47C326.502,643.337 327.734,640.658 329.36,638.434C330.987,636.209 333.008,634.487 335.424,633.267C337.839,632.047 340.602,631.438 343.711,631.438C347.012,631.438 349.882,632.119 352.322,633.483C354.761,634.846 356.783,636.688 358.385,639.008C359.988,641.328 361.172,644.018 361.937,647.08C362.702,650.142 363.085,653.371 363.085,656.767C363.085,660.546 362.666,664.002 361.829,667.135C360.992,670.269 359.76,672.948 358.134,675.172C356.507,677.396 354.486,679.118 352.071,680.338C349.655,681.558 346.868,682.168 343.711,682.168C338.975,682.168 335.077,680.781 332.015,678.006ZM243.829,678.006C238.758,673.51 236.223,666.454 236.223,656.839C236.223,653.06 236.641,649.603 237.478,646.47C238.316,643.337 239.547,640.658 241.174,638.434C242.8,636.209 244.821,634.487 247.237,633.267C249.653,632.047 252.415,631.438 255.525,631.438C258.825,631.438 261.696,632.119 264.135,633.483C266.575,634.846 268.596,636.688 270.199,639.008C271.801,641.328 272.985,644.018 273.75,647.08C274.516,650.142 274.899,653.371 274.899,656.767C274.899,660.546 274.48,664.002 273.643,667.135C272.806,670.269 271.574,672.948 269.947,675.172C268.321,677.396 266.3,679.118 263.884,680.338C261.468,681.558 258.682,682.168 255.525,682.168C250.789,682.168 246.89,680.781 243.829,678.006ZM597.364,632.299L597.364,664.588C597.364,667.458 596.945,669.982 596.108,672.158C595.271,674.335 594.099,676.165 592.592,677.648C591.085,679.13 589.256,680.255 587.103,681.02C584.95,681.785 582.559,682.168 579.928,682.168C577.297,682.168 574.905,681.785 572.752,681.02C570.599,680.255 568.77,679.13 567.263,677.648C565.756,676.165 564.596,674.335 563.783,672.158C562.97,669.982 562.563,667.458 562.563,664.588L562.563,632.514L562.993,632.083L565.146,632.083C566.294,632.083 567.06,632.358 567.442,632.908C567.825,633.459 568.016,634.379 568.016,635.671L568.016,664.516C568.016,668.726 569.06,671.967 571.147,674.239C573.234,676.511 576.173,677.648 579.963,677.648C583.754,677.648 586.692,676.535 588.78,674.311C590.867,672.087 591.911,668.822 591.911,664.516L591.911,632.299C592.619,632.155 593.516,632.083 594.601,632.083C595.64,632.083 596.561,632.155 597.364,632.299ZM522.165,632.299L536.66,632.083C541.587,632.083 545.414,633.328 548.14,635.817C550.867,638.307 552.23,641.801 552.23,646.301C552.23,649.509 551.393,652.274 549.719,654.595C548.045,656.917 545.748,658.508 542.83,659.37C544.792,659.991 546.394,661.927 547.638,665.177L551.369,674.856C551.895,676.194 552.422,677.281 552.948,678.117C553.474,678.954 553.976,679.563 554.455,679.945C553.689,681.14 552.422,681.738 550.652,681.738C549.647,681.738 548.87,681.474 548.32,680.948C547.77,680.422 547.231,679.489 546.705,678.15L542.543,667.243C541.73,665.09 540.761,663.452 539.637,662.328C538.513,661.204 536.851,660.642 534.65,660.642L527.188,660.642L527.188,681.307C526.327,681.451 525.394,681.522 524.389,681.522C523.337,681.522 522.452,681.451 521.735,681.307L521.735,632.729L522.165,632.299ZM286.523,632.299L301.017,632.083C305.944,632.083 309.771,633.328 312.498,635.817C315.225,638.307 316.588,641.801 316.588,646.301C316.588,649.509 315.751,652.274 314.077,654.595C312.402,656.917 310.106,658.508 307.188,659.37C309.149,659.991 310.752,661.927 311.996,665.177L315.727,674.856C316.253,676.194 316.779,677.281 317.306,678.117C317.832,678.954 318.334,679.563 318.812,679.945C318.047,681.14 316.779,681.738 315.009,681.738C314.005,681.738 313.227,681.474 312.677,680.948C312.127,680.422 311.589,679.489 311.063,678.15L306.901,667.243C306.088,665.09 305.119,663.452 303.995,662.328C302.871,661.204 301.209,660.642 299.008,660.642L291.546,660.642L291.546,681.307C290.685,681.451 289.752,681.522 288.747,681.522C287.695,681.522 286.81,681.451 286.092,681.307L286.092,632.729L286.523,632.299ZM446.249,668.535L441.226,668.606L431.611,668.606L426.588,668.535L422.426,681.379C421.804,681.522 421.039,681.594 420.13,681.594C419.221,681.594 418.288,681.474 417.332,681.235L417.188,681.02L433.62,632.299C434.433,632.155 435.509,632.083 436.849,632.083C438.188,632.083 439.169,632.155 439.791,632.299L456.223,681.02C455.457,681.498 454.5,681.738 453.352,681.738C452.204,681.738 451.391,681.546 450.913,681.163C450.434,680.781 450.028,680.015 449.693,678.867L446.249,668.535ZM50.665,632.227L65.447,632.012C67.934,632.012 70.194,632.358 72.228,633.052C74.261,633.746 75.995,634.762 77.43,636.102C78.865,637.441 79.965,639.103 80.73,641.089C81.496,643.074 81.879,645.358 81.879,647.941C81.879,650.524 81.484,652.82 80.695,654.83C79.905,656.839 78.793,658.525 77.358,659.888C75.923,661.252 74.189,662.28 72.156,662.974C70.123,663.667 67.886,664.014 65.447,664.014L57.841,664.014L57.841,681.307C57.315,681.403 56.717,681.474 56.047,681.522C55.377,681.57 54.684,681.594 53.966,681.594C53.296,681.594 52.627,681.57 51.957,681.522C51.287,681.474 50.713,681.403 50.235,681.307L50.235,632.729L50.665,632.227ZM475.238,675.997L487.723,632.299C488.393,632.155 489.182,632.083 490.091,632.083C491,632.083 491.837,632.179 492.602,632.37L492.889,632.801L478.251,681.379C476.816,681.522 475.513,681.594 474.341,681.594C473.169,681.594 472.284,681.415 471.686,681.056C471.088,680.697 470.597,679.92 470.215,678.724L456.366,632.729C457.61,632.155 458.758,631.868 459.81,631.868C461.341,631.868 462.346,632.753 462.824,634.523L471.363,663.44C472.128,665.975 473.228,669.946 474.663,675.351C474.759,675.782 474.951,675.997 475.238,675.997ZM166.908,632.012L167.338,632.37L167.338,681.235C165.999,681.474 164.468,681.594 162.746,681.594C161.024,681.594 159.493,681.498 158.154,681.307L142.87,651.242C141.339,648.037 139.832,644.712 138.349,641.268L138.062,641.34C138.493,648.754 138.708,654.614 138.708,658.92L138.708,681.307C137.56,681.498 136.364,681.594 135.12,681.594C133.877,681.594 132.705,681.498 131.604,681.307L131.604,632.37C132.944,632.131 134.463,632.012 136.161,632.012C137.859,632.012 139.378,632.107 140.717,632.299L155.858,662.364C156.527,663.799 157.412,665.748 158.512,668.212C159.613,670.675 160.306,672.194 160.593,672.768L160.88,672.696C160.498,666.573 160.306,660.546 160.306,654.614L160.306,636.747C160.306,635.025 160.605,633.805 161.203,633.088C161.801,632.37 162.866,632.012 164.396,632.012L166.908,632.012ZM501.787,681.307L501.787,632.299C502.456,632.155 503.329,632.083 504.406,632.083C505.482,632.083 506.427,632.155 507.24,632.299L507.24,681.307C506.427,681.451 505.482,681.522 504.406,681.522C503.329,681.522 502.456,681.451 501.787,681.307ZM407.86,632.083L408.29,632.442L408.29,681.307C407.382,681.451 406.257,681.522 404.918,681.522C403.579,681.522 402.43,681.451 401.474,681.307L384.037,648.802C382.602,646.123 380.976,642.823 379.158,638.9L378.943,638.9C379.23,647.798 379.373,652.964 379.373,654.399L379.373,681.307C378.369,681.451 377.484,681.522 376.718,681.522C375.953,681.522 375.14,681.451 374.279,681.307L374.279,632.299C375.14,632.155 376.228,632.083 377.544,632.083C378.859,632.083 379.995,632.155 380.952,632.299L398.388,664.803C399.536,666.86 401.211,670.233 403.411,674.921L403.626,674.921C403.292,668.798 403.124,663.344 403.124,658.561L403.124,635.671C403.124,634.379 403.315,633.459 403.698,632.908C404.081,632.358 404.846,632.083 405.994,632.083L407.86,632.083ZM98.454,671.405L98.382,675.064C99.817,674.921 101.396,674.849 103.118,674.849L121.702,674.849C121.702,676.141 121.631,677.121 121.487,677.791C121.057,680.183 119.43,681.379 116.608,681.379L95.297,681.379C93.957,681.379 92.893,680.96 92.104,680.123C91.314,679.286 90.92,678.126 90.92,676.643L90.92,632.729L91.422,632.299L120.267,632.299C120.411,633.064 120.483,634.08 120.483,635.348C120.483,636.616 120.291,637.752 119.908,638.756L98.382,638.756L98.454,643.421L98.454,653.466L102.903,653.394L116.393,653.394C116.632,654.255 116.751,655.32 116.751,656.588C116.751,657.855 116.632,658.896 116.393,659.709L102.903,659.709C101.037,659.709 99.554,659.685 98.454,659.637L98.454,671.405ZM330.795,649.495C330.556,650.647 330.401,651.835 330.329,653.059C330.257,654.283 330.221,655.519 330.221,656.767C330.221,658.927 330.389,661.219 330.724,663.643C331.059,666.067 331.704,668.323 332.661,670.411C333.618,672.499 334.981,674.227 336.751,675.595C338.521,676.963 340.841,677.648 343.711,677.648C345.625,677.648 347.299,677.312 348.734,676.64C350.169,675.968 351.389,675.092 352.394,674.012C353.398,672.932 354.199,671.672 354.797,670.232C355.395,668.792 355.874,667.291 356.232,665.731C356.591,664.171 356.842,662.623 356.986,661.087C357.129,659.551 357.201,658.111 357.201,656.767C357.201,654.655 357.034,652.375 356.699,649.927C356.364,647.479 355.706,645.223 354.726,643.159C353.745,641.095 352.382,639.379 350.636,638.01C348.89,636.642 346.581,635.958 343.711,635.958C341.559,635.958 339.717,636.354 338.186,637.146C336.655,637.938 335.4,638.97 334.419,640.242C333.438,641.514 332.673,642.954 332.123,644.562C331.573,646.171 331.13,647.815 330.795,649.495ZM242.609,649.495C242.37,650.647 242.214,651.835 242.143,653.059C242.071,654.283 242.035,655.519 242.035,656.767C242.035,658.927 242.202,661.219 242.537,663.643C242.872,666.067 243.518,668.323 244.475,670.411C245.431,672.499 246.795,674.227 248.565,675.595C250.335,676.963 252.655,677.648 255.525,677.648C257.438,677.648 259.113,677.312 260.548,676.64C261.983,675.968 263.203,675.092 264.207,674.012C265.212,672.932 266.013,671.672 266.611,670.232C267.209,668.792 267.687,667.291 268.046,665.731C268.405,664.171 268.656,662.623 268.799,661.087C268.943,659.551 269.015,658.111 269.015,656.767C269.015,654.655 268.847,652.375 268.512,649.927C268.178,647.479 267.52,645.223 266.539,643.159C265.558,641.095 264.195,639.379 262.449,638.01C260.703,636.642 258.395,635.958 255.525,635.958C253.372,635.958 251.53,636.354 250,637.146C248.469,637.938 247.213,638.97 246.233,640.242C245.252,641.514 244.487,642.954 243.936,644.562C243.386,646.171 242.944,647.815 242.609,649.495ZM10.267,643.923C9.454,645.932 8.88,647.965 8.545,650.022C8.21,652.079 8.043,654.208 8.043,656.408C8.043,658.848 8.21,661.252 8.545,663.619C8.88,665.987 9.502,668.104 10.411,669.97C11.32,671.835 12.564,673.33 14.142,674.454C15.721,675.579 17.73,676.141 20.17,676.141C22.801,676.141 24.893,675.483 26.448,674.167C28.003,672.852 29.199,671.214 30.036,669.252C30.873,667.291 31.423,665.186 31.686,662.938C31.949,660.689 32.081,658.633 32.081,656.767C32.081,654.853 31.949,652.773 31.686,650.524C31.423,648.276 30.885,646.183 30.072,644.246C29.258,642.308 28.051,640.694 26.448,639.402C24.846,638.111 22.729,637.465 20.098,637.465C17.658,637.465 15.613,638.039 13.963,639.187C12.312,640.335 11.081,641.914 10.267,643.923ZM428.166,663.871L432.328,663.799L440.58,663.799C440.628,663.799 441.214,663.811 442.338,663.835C443.462,663.859 444.263,663.871 444.742,663.871L440.221,650.237C438.403,644.64 437.184,640.646 436.562,638.254L436.203,638.254C435.294,641.794 434.481,644.64 433.763,646.793L428.166,663.871ZM57.841,657.987L65.16,657.915C66.786,657.915 68.161,657.64 69.286,657.09C70.41,656.54 71.307,655.81 71.976,654.901C72.646,653.992 73.136,652.94 73.447,651.744C73.758,650.548 73.914,649.304 73.914,648.013C73.914,646.673 73.758,645.406 73.447,644.21C73.136,643.014 72.646,641.962 71.976,641.053C71.307,640.144 70.41,639.426 69.286,638.9C68.161,638.374 66.81,638.111 65.231,638.111L60.89,638.111C59.67,638.111 58.654,638.087 57.841,638.039L57.841,657.987ZM291.546,636.532L291.546,656.121C292.55,656.073 293.782,656.037 295.241,656.013C296.7,655.989 298.434,655.976 300.443,655.976C302.452,655.976 304.115,655.712 305.43,655.182C306.746,654.652 307.81,653.953 308.623,653.086C309.436,652.218 310.01,651.194 310.345,650.013C310.68,648.832 310.848,647.591 310.848,646.291C310.848,644.941 310.68,643.676 310.345,642.495C310.01,641.314 309.436,640.29 308.623,639.423C307.81,638.556 306.722,637.869 305.358,637.363C303.995,636.857 302.285,636.604 300.228,636.604L295.062,636.604C293.626,636.604 292.455,636.58 291.546,636.532ZM527.188,636.532L527.188,656.121C528.192,656.073 529.424,656.037 530.883,656.013C532.342,655.989 534.076,655.976 536.085,655.976C538.095,655.976 539.757,655.712 541.072,655.182C542.388,654.652 543.452,653.953 544.265,653.086C545.079,652.218 545.653,651.194 545.988,650.013C546.322,648.832 546.49,647.591 546.49,646.291C546.49,644.941 546.322,643.676 545.988,642.495C545.653,641.314 545.079,640.29 544.265,639.423C543.452,638.556 542.364,637.869 541.001,637.363C539.637,636.857 537.927,636.604 535.87,636.604L530.704,636.604C529.269,636.604 528.097,636.58 527.188,636.532Z" style="fill:rgb(74,74,74);fill-rule:nonzero;"/>
        </g>
        <g transform="matrix(0.496638,0,0,0.757499,147.549,11.8996)">
            <g transform="matrix(1.95288,0,0,1.95288,-2611.11,-825.315)">
                <circle cx="1500.96" cy="563.724" r="141.109" style="fill:rgb(200,15,46);"/>
            </g>
            <path d="M376.301,5.75C390.496,8.699 404.292,12.74 417.598,17.781C417.792,18.262 417.984,18.737 418.171,19.205C421.082,26.415 419.05,34.682 413.147,39.723C413.147,39.726 413.147,39.726 413.119,39.729C410.374,42.071 408.479,45.11 407.518,48.419C423.031,43.869 439.038,40.912 455.155,39.586L455.155,35.367C479.65,49.182 501.826,66.636 520.95,86.997C505.494,83.201 489.578,81.286 473.742,81.311C401.286,81.652 330.147,126.342 298.765,192.467C272.324,248.126 274.603,316.393 304.695,370.177C343.875,440.245 428.769,481.635 509.957,466.586C513.629,465.905 517.275,465.11 520.893,464.202C501.786,484.536 479.627,501.972 455.155,515.771L455.155,510.958C438.983,509.577 422.949,506.59 407.326,502.035C408.205,505.609 410.181,508.912 413.119,511.422C413.147,511.422 413.147,511.422 413.147,511.425C419.05,516.468 421.082,524.733 418.171,531.942C417.983,532.408 417.792,532.88 417.597,533.357C404.286,538.401 390.484,542.443 376.283,545.391C367,541.642 357.037,537.615 348.46,534.147C336.132,529.175 330.202,515.161 335.171,502.853C335.693,501.549 336.215,500.266 336.709,499.031C339.619,491.821 346.813,487.282 354.583,487.766C358.317,487.999 361.941,487.066 364.989,485.231C349.394,477.242 334.65,467.489 321.114,456.021L313.701,463.423C308.21,468.923 306.837,477.321 310.324,484.276L310.324,484.281C313.811,491.236 312.438,499.638 306.947,505.134C306.013,506.071 305.025,507.04 304.036,508.023C299.533,512.539 293.411,515.076 287.013,515.076C280.644,515.076 274.521,512.539 269.991,508.023C261.26,499.281 250.634,488.661 241.903,479.921C232.513,470.534 232.513,455.313 241.903,445.925C242.892,444.931 243.88,443.951 244.813,443.009C250.305,437.51 258.706,436.148 265.653,439.624C265.653,439.627 265.68,439.627 265.68,439.627C272.626,443.106 281.028,441.741 286.519,436.242L294.015,428.743C282.703,415.216 272.928,400.392 264.884,384.679C262.934,387.795 261.946,391.507 262.166,395.357L262.166,395.362C262.66,403.124 258.13,410.323 250.909,413.236C249.701,413.73 248.41,414.244 247.12,414.765C241.217,417.157 234.572,417.099 228.697,414.606C222.821,412.11 218.181,407.382 215.792,401.46C211.152,389.997 205.524,376.072 200.884,364.614C195.914,352.303 201.872,338.292 214.172,333.32C215.49,332.792 216.753,332.274 217.989,331.774C225.21,328.861 233.474,330.89 238.526,336.807L238.526,336.812C241.052,339.777 244.402,341.768 247.998,342.646C243.331,327.051 240.228,310.995 238.773,294.793L227.928,294.793C220.158,294.793 213.239,299.771 210.795,307.146L210.795,307.151C208.324,314.529 201.433,319.504 193.663,319.504L189.572,319.504C183.175,319.504 177.052,316.967 172.549,312.45C168.019,307.936 165.493,301.811 165.493,295.425L165.493,255.685C165.493,242.407 176.256,231.644 189.544,231.644L193.663,231.644C201.433,231.644 208.324,236.619 210.795,243.997L210.795,244.002C213.239,251.38 220.158,256.355 227.928,256.355L238.444,256.355C239.103,247.544 240.256,238.764 241.958,230.066C243.633,221.502 245.802,213.051 248.438,204.751C245.115,205.654 242.013,207.513 239.624,210.231L239.624,210.234C234.49,216.066 226.171,217.946 219.032,214.91C217.797,214.394 216.534,213.858 215.271,213.315C209.395,210.819 204.728,206.091 202.339,200.169C199.95,194.246 200.005,187.618 202.504,181.74C207.336,170.36 213.211,156.535 218.044,145.16C223.233,132.937 237.345,127.234 249.563,132.423C250.854,132.973 252.117,133.513 253.352,134.035C260.518,137.072 264.911,144.35 264.307,152.101L264.307,152.107C264.005,155.827 264.856,159.44 266.641,162.529C274.439,148.348 283.691,134.938 294.179,122.567L286.519,114.906C281.028,109.407 272.626,108.045 265.68,111.521C265.68,111.524 265.653,111.524 265.653,111.524C258.706,115.003 250.305,113.638 244.813,108.139C243.88,107.205 242.892,106.236 241.931,105.253C237.4,100.736 234.874,94.611 234.874,88.225C234.874,81.838 237.4,75.716 241.931,71.199C250.662,62.457 261.287,51.837 270.018,43.098C279.408,33.711 294.646,33.711 304.009,43.098C305.025,44.092 305.986,45.069 306.947,46.014C312.438,51.513 313.811,59.912 310.324,66.867L310.324,66.872C306.837,73.827 308.21,82.228 313.701,87.725L321.279,95.292C334.567,83.876 349.119,73.909 364.659,65.722C361.667,64.017 358.18,63.157 354.583,63.382C346.813,63.866 339.619,59.33 336.709,52.12C336.215,50.893 335.693,49.624 335.171,48.334C332.783,42.411 332.838,35.783 335.336,29.905C337.835,24.024 342.557,19.378 348.488,16.987C357.057,13.52 367.027,9.496 376.301,5.75ZM426.765,350.164C443.458,350.164 456.967,363.697 456.967,380.366C456.967,397.034 443.458,410.567 426.765,410.567C410.099,410.567 396.563,397.034 396.563,380.366C396.563,363.697 410.099,350.164 426.765,350.164ZM583.005,358.26C582.042,358.353 581.066,358.401 580.08,358.401C563.414,358.401 549.878,344.868 549.878,328.199C549.878,311.53 563.414,297.997 580.08,297.997C585.271,297.997 590.159,299.311 594.429,301.623C592.592,321.167 588.711,340.12 583.005,358.26ZM474.374,267.796C491.04,267.796 504.576,281.329 504.576,297.997C504.576,314.666 491.04,328.199 474.374,328.199C457.708,328.199 444.172,314.666 444.172,297.997C444.172,281.329 457.708,267.796 474.374,267.796ZM355.846,245.372C372.512,245.372 386.048,258.905 386.048,275.574C386.048,292.243 372.512,305.776 355.846,305.776C339.18,305.776 325.644,292.243 325.644,275.574C325.644,258.905 339.18,245.372 355.846,245.372ZM483.572,137.835C500.237,137.835 513.773,151.368 513.773,168.037C513.773,184.708 500.237,198.238 483.572,198.238C466.906,198.238 453.37,184.708 453.37,168.037C453.37,151.368 466.906,137.835 483.572,137.835Z" style="fill:white;"/>
        </g>
    </g>
</svg>
