<?xml version="1.0" encoding="UTF-8"?>
<svg width="10px" height="10px" viewBox="0 0 10 10" version="1.1" xmlns="http://www.w3.org/2000/svg" xmlns:xlink="http://www.w3.org/1999/xlink">
    <!-- Generator: Sketch 64 (93537) - https://sketch.com -->
    <title>times</title>
    <desc>Created with Sketch.</desc>
    <g id="Page-1" stroke="none" stroke-width="1" fill="none" fill-rule="evenodd">
        <g id="01.01.02.-Home---Identificado---No-traceo" transform="translate(-20.000000, -594.000000)" fill="#C80F2E" fill-rule="nonzero">
            <g id="times" transform="translate(20.000000, 594.000000)">
                <path d="M6.060625,5 L9.265625,1.795 L9.9265625,1.1340625 C10.0240625,1.0365625 10.0240625,0.878125 9.9265625,0.780625 L9.219375,0.0734375 C9.121875,-0.0240625 8.9634375,-0.0240625 8.8659375,0.0734375 L5,3.939375 L1.1340625,0.073125 C1.0365625,-0.024375 0.878125,-0.024375 0.780625,0.073125 L0.073125,0.7803125 C-0.024375,0.8778125 -0.024375,1.03625 0.073125,1.13375 L3.939375,5 L0.073125,8.8659375 C-0.024375,8.9634375 -0.024375,9.121875 0.073125,9.219375 L0.7803125,9.9265625 C0.8778125,10.0240625 1.03625,10.0240625 1.13375,9.9265625 L5,6.060625 L8.205,9.265625 L8.8659375,9.9265625 C8.9634375,10.0240625 9.121875,10.0240625 9.219375,9.9265625 L9.9265625,9.219375 C10.0240625,9.121875 10.0240625,8.9634375 9.9265625,8.8659375 L6.060625,5 Z" id="Path"></path>
            </g>
        </g>
    </g>
</svg>